<svg xmlns="http://www.w3.org/2000/svg" fill="none" viewBox="0 0 80 83"><path fill="#214784" d="M29.9 29.6c-1-.3-1-.5-.1-.4.9.1 1 .2 1 .4s-.2.2-1 0ZM66 32.3c-1-.1-.9-.3 0-.3 1.2 0 1.3 0 1.3.2a1259.2 1259.2 0 0 0-1.3 0ZM10.9 43.8l-.8-.3c-.4 0-.7-.2-.7-.3.2-.3 2.2.1 2.2.5 0 .2-.6.2-.7 0Zm-.7 1-.7-.3c-.3-.2.3-.3 1-.1l1 .2-.5.3-.8-.1Zm-5 .7a17.3 17.3 0 0 1-.2-4.3l.2-.5v.8l.2 3.5c0 .5 0 .8-.2.5Zm-1.7.6c-.2-.2-.3-.5 0-.5s.8.4.8.6c0 .2-.5.2-.8 0ZM4.8 60c-.2-.2-.2-.6 0-.6s.3.1.3.2l.4.2c.2 0 .4 0 .4.2s-.9.2-1 0Zm.6 1c-.6 0-.7-.2-.3-.4h.6c.3.2.3.6.1.6l-.4-.1Zm-.1 1.2c-.2-.2.1-.5.5-.4.4.2.4.6 0 .6-.3 0-.5-.1-.5-.2Zm0 1c-.3 0 0-.4.4-.4s.5 0 .5.2-.6.4-.8.3ZM74 65.9l.2-.2.1.2s0 .2-.2.2c-.1 0-.2-.1-.1-.2ZM30.2 28.2c0-.2-.3-.4-1-.5l-1.1-.2c-.7-.1-.7 0-.4.4.1.3.4.3 1.3.4l1.2-.1Zm-7.4.1c.4 0 .4 0-.1-.2H25c.1.2.4.2.6.1h.5l-.3-.4c-.3-.3-.4-.3-.6-.1h-.6a18 18 0 0 0-3.4 0c-.2 0-.2.1 0 .4 0 .3.2.3.6.3h1Zm14.4.3c-.2-.2-1.6-.5-2.6-.4-1 0-1.2.3-.5.4.7.2 3.2.2 3 0ZM19 28.2c-.4-.5-.6-.4-.2 0 .1.3.3.5.4.4l-.2-.4Zm9 1c0-.3-.7-1-.9-1-.4.2 0 .9.6 1l.3.1v-.1Zm21.3.4c0-.6-1.5-1-3.5-.8-1.2 0-1.4.1-1.2.5.1.2.4.3 1.2.3 1.6.2 3.5.2 3.5 0ZM34 30c0-.3-.7-1.2-.9-1.3-.2 0-.2 0 .1.7.2.4.5.7.6.7h.2Zm27.8.6c0-.2-.5-.7-.6-.6-.2.2-.8.2-2.3 0-2-.2-2-.2-2 0 0 .4.6.5 2 .6a7 7 0 0 1 1.2 0c0 .2 1.7.1 1.7 0Zm-49-.7V25a241 241 0 0 0-.2-15.9 6 6 0 0 0-.5 2.4l-.3 13.9c0 4.5 0 4.8.5 5 .6.2.7 0 .5-.6Zm11.2-.7h.6c.3.2.2.2-.3.2-.6 0-.6 0-.3-.2Zm3.3 1.4c.2 0 .2-.2 0-.6-.3-.9-.8-1.4-1.2-1.3-.2.1-.4 0-.4 0h-1c-2.1 0-2.9.2-2.9.2 0 .2.8 1.4.9 1.4l.1.2c0 .3.2.3 2.1.3l2.4-.2Zm43.8 0c0-.3-.8-.4-1.4-.2-.2 0-.3.1-.2.3.2.4 1.7.3 1.6-.1Zm-26 0c0-.2-.3-.5-.6-.5-.2 0-.3 0-.2-.2 0-.2-.1-.5-.4-.5-.2 0 0 .3.4 1 .2.4.4.6.6.5l.2-.2Zm-6-.1c-.2-.6-.7-1.3-.7-1 0 .2.9 1.5 1 1.5l-.2-.5Zm-16.7.5v-.3l-.5-.7c-.4-1-1-1.5-1.4-1.5l-.4.1.4.7.4.7c0 .2.2.4.3.5l.3.5c0 .2.7.2.9 0Zm3.6.2h-.5.5Zm31 0c0-.2-.4-.6-.6-.6v.5c.1.2.2.3.4.3l.2-.3Zm-32.8.1-.1-.1-.3.1.1.2.3-.2Zm-3.7-.3v-.6c.1-.1 0-.4-.2-.7-.4-.5-.5-.5-.2 0l.1 1.2c0 .5 0 .7.2.6V31Zm30.4 0c-.2-.6-.6-1-.8-.9l.3 1c.4.8.4.9.5.6.1-.1 0-.5 0-.8Zm-15.8-1.2h2.2c0 .2-.3.2-1 .2l-1.2-.2Zm3.8 1.4-.4-.7-.5-.7c-.2-.4-.3-.4-.7-.3l-.6-.1c-.1-.2-.6-.2-1.4-.3H34c-.2-.2-.2-.2.5 1.2.7 1.5 1 1.6 2.5 1.6 1 0 1.3 0 1.5.2.2.3.3.2.4-.1v-1Zm-21 1.2c.4-.2 0-1.3-.8-2.3-.7-1-1-1.2-.6-.4l.4 1 .8 1.8.3-.1Zm51.9-.5c-.3-.7-.6-1-.5-.4.2.8.4 1.2.5 1v-.6Zm-47 .6-.1-.2-.2.2.2.1.1-.1Zm19.2-2c-1-.2-1.3-.5-.6-.5l.5.1.4.2.5.1c.2.3.1.3-.8.1Zm2.5 2.1c.4-.2.4-.4-.2-1.6-.5-1-.6-1-1-1a12.8 12.8 0 0 0-2.9-.5l-1.5-.1.3.5a255.1 255.1 0 0 1 1 1.6c.4.7.6.8.8.8.2 0 .6 0 1 .2.6.3 2 .3 2.5.1Zm32.8-.3c.5-.8.5-1 0-1l-.6-.3-.3-.1c-.3 0-.3 0-.2.4l.3.9.2.5c0 .4.3.2.6-.4Zm-13 .5c0-.4-.7-1.4-1-1.5-.4 0-.4 0-.1.5.3.7 1.1 1.3 1.1 1ZM48.1 31h-.7c-.2 0-.4 0-.5-.2l.6-.1c.9 0 1.4.1 1.3.3H48Zm2.7 1.9s0-.4-.2-.7l-.5-1.3c-.4-.7-.7-1-1-.7h-.7c-.5-.3-3.2-.5-3.2-.3l.4.7.4.8.3.7c.3.5.4.6.8.6l1 .2h2.7Zm-40.2 0c.1-.3.1-.3-.1-.3s-.3 0-.3.3l.1.2s.2 0 .3-.2Zm49.9-1.3c-.8-.2-1-.3-.8-.4h.6l1 .2c.4 0 .5 0 .5.2-.1.2-.5.3-1.3 0Zm3 1.7-.9-2c-.3-.5-.4-.6-.6-.4h-2a33.5 33.5 0 0 1-2.6-.2l.4 1.1.5 1.2a18.3 18.3 0 0 0 5.1.3Zm-9.3-2c-.7-.1-1-.2-.9-.3.2-.2 2 0 2 .2-.1.1-.6.2-1.1 0Zm2.8 2c0-.1 0-.4-.3-.8l-.3-.8c0-.6-1.3-2.1-1.8-2l-2-.3c-1.2-.1-1.8-.2-1.9 0-.3.2.1.4 1 .4a5 5 0 0 1 1.4.1l1 .2c.5 0 1.3.3 1.3.6 0 .2 0 .2-.7 0-.6-.2-3.5-.4-3.5-.2l.3.9.5 1.3c.1.5.2.5 1 .5h.7c.3.2 3.1.2 3.3 0Zm14-1.5c0-.3 0-.4-.2-.4a.7.7 0 0 1-.5-.2c-.6-.7-.5.2.1 1.6l.4.8.1-.7.1-1.1Zm-52.6 1.5.5-.4c-.1-.1-.9.2-1 .4-.2.4-.1.4.5 0Zm3.3-.2-.1.3c0 .5 0 .5.1.2v-.5Zm-14-.1c0-.3 0-.3-.2-.1v.8l.2-.7Zm9.5 1 .2-.3c-.1-.1-.7.2-.7.4h.5Zm1.8 0c-.2 0-1.3.5-1.3.7 0 0 .4 0 .8-.3l.5-.4Zm-14.7.8c0-.3-.1-.6-.3-.6-.2 0-.2-.1-.2-.3 0-.5-.7-.7-1-.3-.2.2-.2.2-.3 0h-.3c-.3.2-.1.4.5.7.3.1.5.3.6.5 0 .2 1 .2 1 0Zm15.8-.3c0-.6 0-.7-.2-.6-.1.3 0 1.3.1 1.3v-.7ZM19 35v-.4c-.1 0-.5.3-.5.5s.4.1.5-.1Zm-3.5-.3c.3 0 .3-.2.2-.2l-1.5.5c0 .2.6 0 1.3-.3Zm-2.2.6-.1-.1-.3.1v.2c.2 0 .3 0 .4-.2Zm-3.8 0H9c0 .1 0 .2.2.2s.3 0 .2-.1Zm17.9.2h.6l-.1-.8v-1.5c.1-.6 0-.8-.1-1-.6-.5-.8-.2-.8 1 0 1 0 1.5-.3 1.5v-1.4c0-1.1 0-1.4-.2-1.4s-.3.3-.3 1.2c0 .8-.2 1.3-.3 1.3-.1 0-.2-.2-.2-1.3 0-1 0-1.3-.1-1.2-.2 0-.2.4-.2 1 0 1.2 0 1.3-.2 1.3l-.2-.6c0-.4 0-.5-.3-.4-.2 0-.3 0-.5-.6 0-.4-.2-.7-.4-.7s-.3 0-.2 1.2l-.1 1.4c-.3.2-.3 1 0 1 0 0 .2 0 .3-.2 0-.1 1.5 0 2.2.2h1.4Zm-5-.1c0-.1 0-.2-.2-.2l-.1.2.1.2c.1 0 .2 0 .2-.2ZM21.2 34c0-1.6 0-2-.5-1.6-.2.2-.1 3 .1 3.2.4.3.4 0 .4-1.6ZM16 35.5l.5-.5-1.2.7c0 .2 0 .2.7-.2Zm62.7-1.8a5 5 0 0 0-.2-1.5v.4c0 .5-.3.7-.5.2l-.2-.3c-.2 0-.2 0 0 .7.4.8.5 1.7.3 2.2-.2.5 0 .7.3.2l.3-1.9Zm-5.5 1.4c.2-.7.2-.7.3-5.3l.2-4.5a247.4 247.4 0 0 0 0-15.6l-.1-1.1c-.1-1-.7-1.7-2-2.9-2-1.8-3.3-2.3-7-2.5a1618.2 1618.2 0 0 1-23.4-1.5L37 1.5A1496 1496 0 0 0 21.8.8l-1.4.2c-1 .2-.2.4 2 .4a58.4 58.4 0 0 1 6.8.5 36.1 36.1 0 0 1 3.8.3 251.5 251.5 0 0 1 5.8.3l4 .2a128.6 128.6 0 0 0 11.4.6 149.4 149.4 0 0 1 13.6 1.2l.7.3c.5.2 1.9 1.3 2.5 2 1.3 1.6 1.6 3 1.6 7.6l-.3 13.9a28.2 28.2 0 0 0 .1 7.3c-.2.9.5.5.8-.5Zm-55.2.7c.3-.3-1-.5-1.4-.2l-.3.4c0 .2 1.5 0 1.7-.2Zm59.1 0c0-.5-.2-.4-.2.1v.4c.1 0 .2-.2.2-.5Zm-.7-1-.1-1.3-.4.2c-.2.1-.2.2 0 .6l.2 1.3c0 .6 0 .7.1.6l.2-1.5Zm-49 1.4c0-.2-.4-.2-.6 0l.2.1.3-.1Zm48 .3v.2c0 .2 0 .2 0 0 .1 0 0-.2 0-.2Zm-40.7.2c-.1-.2 0-2.6 0-3.2 0-.3.2-.5.3-.5v1.5c0 1.6 0 2.4-.3 2.2Zm4.2.8.3-.6c.2-.2.2-.6.2-2 0-1-.1-1.8-.2-1.9H39c-.2.3-.4 1.4-.4 2.9 0 .8 0 1.1-.2 1.1-.1 0-.2-.1-.3-.4 0-.4.2-3 .4-3.4.1-.2 0-.2-.2-.2-.4 0-.4 0-.4 1 0 .5 0 1.4-.2 2a4 4 0 0 0-.1 1.1l-.1.2c-.3 0-.3-.2-.1-3v-1.5c-.2 0-.2.3-.2.6 0 1.7-.3 3.8-.5 3.9-.1 0-.2-.6-.1-2.2 0-1.6 0-2.2-.1-2-.2.1-.5 2.4-.4 3 .1.6-.2.7-.4.1v-1.9l.2-1.6H34l-2.5-.2a9.7 9.7 0 0 0-3-.1c-.1 0-.4 1.4-.3 2l.2 1c.2.4.2.5 0 .7-.4.2-.1.4.3.2l1.5-.1a93.3 93.3 0 0 0 3.5.2c.3.2.3.2 0 .3h-.3c-.4-.3-5-.3-5 0 0 .4.4.5 2.3.6l2.5.3c.3 0 .5 0 .5-.2l.9-.1a25.6 25.6 0 0 1 3.7.4c.4 0 .5 0 .5-.2Zm12.3-.3c.2-.9.2-3 0-3-.1 0-.2.6-.4 2.7 0 1.3.1 1.4.4.3Zm-49.9.3c-.1-.2-.1-.2-.2 0l.1.5c.1.2.2.2.2 0l-.1-.5Zm74.8.7c.5-.5.5-.7.2-.5l-.3-.1c-.1-.1-.3 0-.4.4-.3.6-.3.6 0 .6l.5-.4Zm-5.6-.2c-.1-.6-.3-1-.5-.8 0 .1.3 1.6.4 1.5V38Zm-5 .5 1.3-.7 1.2-.4c.4 0 .9-.2 1-.4l.7-.4.4-.4s.2-.3.5-.4c.5-.3.5-.6.1-1-.1-.1-.5-.2-1.1-.2-.6 0-1 0-1-.2-.1 0-.3-.1-.4 0h-1.6c-1.2 0-1.3 0-.8.2.4.1.5.2.5.5 0 .4 0 .4-.4.2-.3-.2-.4 0-.1.2l-.2 1a3 3 0 0 0-.3 1.2c0 .6-.2.7-.3 0l-.3-.5-.1-.4c0-.2 0-.3-.2-.3v1l-.1 1.1c-.3.3.6.2 1.3-.1Zm-8.1-1.3v-2c.3-.2.5.5.5 1.5.1 1.4 0 2.3-.3 2.3-.2 0-.2-.2-.2-1.8Zm2.2 1.8.5-.2.1-2.2c0-2 0-2.2-.3-2.2s-.3.2-.3 2l-.1 2c0 .2-.1.3-.2.2a87 87 0 0 1-.3-4.2l-.3.1-.1 2.2c0 2.7-.3 2.7-.4 0v-2.3l-.6-.1-2.3-.1c-2-.1-3.3-.2-3.4 0l-.2 1.7c0 1.8-.3 2.5-.7 2.4l-.3.1-.2.2V34h-.8l-.1 1.4-.2 2.1c0 .8-.3 1-.4.6v-1.3c.3-2.4.2-3.3-.2-2.8-.2.2-.5 2.7-.5 3.5l-.1.5c-.3.1-.4-.9-.2-2.2.3-1.9.3-1.8-.1-1.8s-.4.1-.5 1.1V37c0 .8-.2 1-.4.5-.2-.4-.2-.8 0-2.7V34c-.4 0-.4.3-.5 2.4 0 1.1-.1 1.7-.2 1.8l-.3-.5.1-3.5c0-.3 0-.3-1.1-.4l-1.8-.2a9 9 0 0 0-2-.2h-1.4v1l.1 2c.1.8 0 1-.2 1l-.3.4h1.8l.8.1c.4.3 1 .4 2.3.5 1 0 1.7.1 1.8.2h.5c.4-.2.5-.2.7 0l.4.2h1.6l2.2.1c.8.2 1 .2 1.5 0 .6-.3.6-.3.8 0 .2.3.4.3.8.3h1.8c1.8.2 3 0 3.2-.2Zm-57-1.6c0-1-.1-1.9-.3-2-.3-.3-.2 1.3.2 2.7l.3 1.2-.1-1.9Zm7 1.5-.4-1.1c-.2-.5-.3-.6-.5-.6l-.4-.1c-.5-.4-.5-.2.1 1 .4.8.7 1.2 1 1.3.4.1.5 0 .2-.5Zm54.6.3H64c-.2.1-.2.2 0 .4.2.3.2.3.3 0v-.4Zm-47.7.2-.3-.9c-.3-.5-1.3-1.6-1.5-1.4l.2.6.5 1c.4 1 .6 1.3.9 1 .2 0 .3-.2.2-.3Zm49.4 0c0-.3 0-.5-.1-.4-.2.1-.2 1 0 1l.1-.5Zm-3.3.6v-.4c0-.1 0-.2-.3-.3-.6-.2-.4-.4.3-.3.7.1 1.5-.1 1.3-.4a10.9 10.9 0 0 1 .1-2.7c-.3 0-.1-.5.3-.7.4-.2.4-.4 0-.4-.6 0-1 1.5-.7 2.2.1.5-.2 1-.6 1-.1 0-.2 0-.1-.7 0-.4.1-1 .3-1.3.2-.4.2-.5 0-.9l-.4-.4-.1-.2c0-.2-.1-.3-.6-.2l-.6.1-.2 2c-.2 2.4-.5 3-.4.7a42.8 42.8 0 0 1 0-2.7c-.3 0-.4.3-.4 2.4s0 2 .7 2c.3 0 .6.5.6.9 0 .1 0 .2.2.2h.2c.1.2.4.2.4 0Zm-53.8-.2a762.6 762.6 0 0 1-1.5-3c-.4-.9-.7-1-1.8-1.2a41.2 41.2 0 0 1-2.5 0c-.1.1.3 3.2.5 3.7 0 .2.3.5.5.6l2.5.3 2.2.2c.4.2.4 0 0-.6Zm21.1.4a3 3 0 0 1-.3-.7c-.1-.5-.8-1.3-.8-1 0 .2-.1.3-.2.3-.3 0-.3.2 0 .5.2.1.4.5.5.8.1.4.2.5.4.5h.4c0 .2.1.2.2.1 0 0 0-.3-.2-.5Zm-7 .2a2 2 0 0 1-.2-.7c0-.2 0-.5-.2-.6l-.3-.8c-.3-.6-.4-.7-.6-.3-.2.3-.2.5 0 1.1.5 1.2.8 1.6 1.4 1.7l-.1-.4Zm46.8 0v-.9c0-.3 0-.3-.2 0V41l.2-.6Zm-54 .4c.2-.1.2-.1 0-.4-.3-.3-.9-1.6-.9-1.9 0 0 0-.4-.2-.6a28 28 0 0 1-.5-1c-.3-.8-.3-.8-1.6-1a21 21 0 0 0-3.6 0c-.1.1.3 1 1 2.4.8 1.8 1.1 2.2 1.5 2.2l.4.2c0 .2 3.6.3 3.9.1Zm50.8-.3s-.3.4-.2.5l.2-.1v-.4Zm8.6 0V40c-.1 0-.2.3-.2.7 0 .8 0 .8.2 0Zm-37.9.4c0-.2-.3-.8-.9-1.6a.5.5 0 0 0-.5-.2c-.3 0-.3 0 .4 1 .8 1 1 1.3 1 .8Zm-15.1.1a3 3 0 0 1-.6-1c-.2-.7-1.2-2.8-1.5-3.2-.2-.3-2.3-.5-3.5-.4-.7 0-.7.1-.3 1.1l.7 1.7c.6 1.3 1 1.8 1.5 2l2.2.2h1.9L22 41Zm21.7.8a8 8 0 0 0-1-2.3c-.1-.1-1 0-1 .2l.8 1.1c.4.7.7 1 .9 1h.3Zm-27-.2c0-.2-.2-.2-.5-.2h-.6c-.3-.2-1.5 0-1.5.2h1l1 .2c.2.1.5 0 .5-.2Zm13 .2-.4-.5c-.2-.2-.5-.6-.6-1-.1-.2-.3-.6-.5-.7l-.3-.7c-.2-.5-.9-1.5-1.3-1.7-.4-.3-4.6-.4-4.6-.2l.7 1.8.2.5c0 .2.3 1.1.6 1.5l.2.5c.1.3.6.5 1.4.6h4.5Zm38 .1.2-3.6c-.4 0-.4.3-.4 1.6 0 1 0 1.4-.2 1.7l-.2.4c0 .2.4.1.6 0Zm1.5 0c0-.1-.3 0-.3.3h.2l.1-.3Zm-7.2 0-.1.2c0 .1 0 .2 0 0 .1 0 .1-.2 0-.2Zm-25 .5c0-.3-.7-1.4-1.1-1.7l-.2-.3c0-.3-1.5-2.2-1.7-2.2h-1.3l-2.4-.4H29l.2.3c0 .2.3.5.5.8l.3.8.2.3.2.5c0 .2.2.6.5.9l.4.7c0 .2.1.2 1.4.2l.8.1c0 .1.7.2 2.6.3.8 0 .9 0 .9-.3Zm12 .1-.5-1.3c-.4-.9-.5-1-.6-1-.1.2-.3.3-.4.3-.4 0-.4.1-.2.7.4.9.9 1.5 1.2 1.5.5.1.6 0 .6-.2Zm-6 .2a7 7 0 0 0-.6-1.2 22 22 0 0 1-1-1.8c-.6-1.1-.7-1.2-2.6-1.4l-2-.2c-.8 0-1 0-.6.4a14 14 0 0 1 2.2 4.3l2.4.2h2.3v-.3Zm18.5-1-.2-1.6c-.1-.2-.2-.2-.2 0l-.1.6c-.1.1-.2.1-.4 0-.2-.2-.2-.2-.2.1L61 43l.4.1h.4v-1.4Zm-5.9 1.4c.1-.1-.3-1-1-2.1-.2-.5-.7-.6-.6-.1 0 .4.7 2 1 2.1.1.2.5.2.6 0Zm19.4-.7c0-.5 0-.9-.1-.8a4 4 0 0 0-.1 1.6c.1.2.2 0 .2-.8ZM62 43c0-.2 0-.3-.1-.2-.2 0 0 .5.1.5V43Zm-13.8.4-.5-.8-.6-1c-.5-1.3-1.2-2.5-1.5-2.6l-1.5-.2c-1 0-1.2 0-1 .1l.1.5c0 .4.4 1.4 1 2.4.6 1.4.8 1.5 2.1 1.7l1.6.2c.4 0 .4 0 .3-.3Zm5.6.5H55l-.3-.4-.4-.8a10 10 0 0 0-1-2.1l-.4-.6s0-.2-.2-.3c-.7-.3-4.2-.6-4.3-.3l.4 1.3.7 1.5c0 .2.4.6.7 1 .7.6 1.3.8 2.2.7H54Zm6 0 .5-.2c.2 0 .2-.2.1-.6l-.2-1a10.6 10.6 0 0 0-.4-1.7l-.1-.6h-1.6a46.8 46.8 0 0 1-3.7 0l2 3.5.6.9 1.2-.1a9 9 0 0 0 1.5-.2Zm7.5 1.5c0-.2 0-.2-.3 0l-.3.2h.2c.2 0 .4 0 .4-.2Zm8.9 0 .1-1.4c.1-1 0-1-.1-.9-.2.2-.2.5-.2 1v1.4c-.2.4-.2.6 0 .5l.2-.6Zm-6.4.3c0-.8-.1-3-.2-2.4v.9l-.2 1.2c-.1.6 0 1 .2 1l.2-.7Zm.7-1.3c0-.1.2-.5.6-.7l.6-.5-.6.1c-.6.2-.7.1-.5-.2.1-.3 2-1.1 2.2-1 .3.1.1.4-.3.6-.5.2-.7.4-.3.4.1 0 .2 0 .3.3 0 .2-.2.4-1.6 1-.4.2-.4.2-.4 0Zm.3.9.6-.5.7-.4c.4-.2.6 0 .4.4-.2.2-1.6.8-1.9.8l.2-.3Zm1.4.6c.4-.2.6-.5.6-.8a149 149 0 0 1 .4-2.9c0-.6 0-.7-.3-.7h-.6a1 1 0 0 0-.4.3c-.4.3-1.2.6-1.5.6-.3-.1-.3 0-.2.9l.1 1.8c0 .9 0 1 .3 1 .2 0 .3 0 .4.2 0 .2.6.1 1.2-.4Zm-51 1.6c.3-.1.4-1.6.3-2.8V42h-.4l-.4.1v4.3c0 1.1.1 1.3.5 1Zm50.4-.1c-.2-.1-.3 0-.2.3.1.1.1.1.2 0v-.3Zm-51.4-2.1.1-2.9c0-.2 0-.3-.4-.3h-.6l-.1 2.2c0 2.5.2 3.5.7 3.5.3 0 .3 0 .3-2.5ZM19 45c0-2.8 0-3-.5-2.8-.3.2-.4 3.5-.2 4.2.2.5.2.6 0 .8-.3.1-.3.2 0 .2s.5 0 .5.2l.2.2V45Zm49.4 3-.2-.2c-.4 0-.3-.3 0-.6.3-.2.3-.5.4-1.9.1-2 0-2.7-.4-2.7s-.5.3-.3.7c.2.4.2.7-.1 3l-.3 1.5c-.1 0-.1 0 0 .1l.4.2c.3 0 .5 0 .5-.2Zm-44-4.6c-.3 0-.6-.2-.6-.3-.2-.2.3-.3.8-.1l1.2.2.8.1c-.1.2-1.6.3-2.3.1Zm.5 1.3-1-.3c-.8-.1-1-.3-.6-.5.2 0 1.5.2 2 .5l.6.2s.1 0 0 .1c0 .2-.6.2-1 0Zm-1.2.9c-.5-.2-.5-.2-.2-.4.2 0 .3-.1.4 0l1.1.1c.6 0 1.1.2 1.1.2 0 .3-1.8.3-2.4 0Zm0 1.2c-.4-.2 0-.3.8-.3.7 0 1 0 1 .2-.2.2-1.4.3-1.8.1Zm11 1.6c.2-.1.3-.4.3-.7l.3-1.2c.2-.9.2-2.7 0-3l-.6-.2h-.4l.1 1.1c.1 1.5 0 3.7-.3 3.7l-.1-2.5v-2.5h-.4c-.2.1-.4.2-.3.3v1.8c0 1.7-.2 3-.5 3l-.1-.3.2-1.6c.1-1.9 0-3-.3-3l-2-.2-2.2-.2-1.7-.3-1.6-.2h-.5c-.3.2-.4.2-.5 0-.2-.2-.5-.2-1.2-.1H22v2c0 1.8.1 2 .4 2.3.3.3.5.4.9.4l.8.1c.7.4 2.3.6 3.8.6 1.2 0 1.5 0 1.9-.3l.6-.3c.2 0 .2-.2.2-2.3 0-1 0-1.6.2-1.6s.2 0 .2 2.6c0 1.4.1 2 .2 2.1.3.1.5-.7.6-2.7l.2-2v4.9c0 .3 0 .4.5.4 1.2.2 2 .2 2.3 0Zm2.8-3.8c-.7-.2-.7-.2-.5-.4l.4-.1 1 .2 1 .2c0 .2-1 .2-1.9 0Zm0 1.2c-.7-.1-1.1-.4-1.1-.6 0-.2.4-.2.6 0l1 .2c.5 0 .8.2.8.3 0 .1-.9.2-1.4.1Zm-.2.9c-.9-.3-.9-.5 0-.5.6 0 1.3.3 1.2.5 0 .2-.4.2-1.2 0Zm3.4 2c.5 0 1.1-.2 1.3-.3l.6-.2c.4 0 .5-.3.5-2.3V44h-1.3c0-.2-.6-.2-1.5-.2-.8 0-1.8-.1-2.3-.3l-1.5-.2h-.7v1.5l-.2 2.4c-.1.7-.1.8.1.8s.7.1 1.2.4c1.4.6 2 .7 3.8.3Zm7 .4v-2.5l.1-2H47l-.1 2-.2 2v.6c.2.2.3.3.6.3s.4 0 .4-.4Zm-1.4-.1.1-2.6v-2H46c-.4 0-.4 0-.4.7a29.4 29.4 0 0 0 0 4c0 .6.5.6.7-.1Zm-1.1-2c0-2.5 0-2.7-.3-2.8h-.4v2.5c0 2 0 2.4-.2 2.4s-.3-.3-.2-2.5l-.1-2.5h-.4v1.8l-.2 2.2c-.2.5 0 1.3.4 1.3l.9.1h.5V47Zm27.3 1.8c.1-1.1 0-2.2-.2-1.7-.2.5-.2 2.6 0 2.6 0 0 .2-.4.2-1Zm-22.2-2.9c-1 0-1.2-.1-1.3-.3 0-.1.1-.3.3-.3.3-.2 2.3 0 2.6.2.2.2.1.6-.2.5h-1.4Zm-.3 1c-.8 0-1-.1-.7-.3.2-.2.4-.2 1.3 0 .6 0 1 .2 1 .2 0 .2-1 .3-1.6.2Zm-.2 1c-.2-.3 0-.4.5-.5.6-.2 1.2 0 1.2.3 0 .2-.2.2-.8.2a3 3 0 0 1-.9 0Zm5.4 1.8.8-.4V48l.1-2c.1-.8.1-.8-.2-1l-4.1-.4h-3.5l-.2 3c0 1.2 0 1.3.5 1.5 1.2.6 1.8.7 3.9.7l2.7-.1Zm6 0 .5-.7c.4-.5.4-.7.4-2.6l.1-2.3c.1 0 .2.4.2 1.9 0 1.8 0 2 .3 2.4.4.6.6.6 1.7.6 1 0 2.5-1 2.5-1.4l-1.4.4c-.5.3-2.3.3-2.5 0-.1-.2 0-.2 1-.4 1.3-.1 3.1-.8 3.2-1 0-.4-.5-.3-1.6.1-.8.3-1 .4-1.8.3-1.1-.1-1-.4.4-.6 1.4-.2 1.8-.5.6-.4-1 0-1.7-.1-1.6-.4 0-.1.4-.2 1-.2 1.1 0 3-.6 3.1-1 .1-.2-.3-.1-1.1.2-.4.2-.9.3-1 .2l-.6.2c-.2 0-.5.2-.6.1l-.6-.1c-1-.2 0-1 1.3-.9.7 0 2.4-.3 2.4-.5 0-.6-.5-.7-1.1-.4a2 2 0 0 1-.8.2 3 3 0 0 0-.8.2c-.4.1-.5.1-.6-.1-.3-.3-.2-.3-1.5.4-.2 0-.3.3-.4.5 0 .4-.2.5-.5.6-.5 0-.6.3-.7 2.6l-.2 2v-5c-.3-.1-.5 2-.6 3.8V50h.5l.7-.2Zm12.3-2.1.1-.2.2.3-.2.1-.1-.2Zm.8 2c.3-.4.3-.5.2-.6-.2-.1-.2-.5 0-1.7v-1.6l-.4.1-.8.4c-.3 0-.3.1-.3 2v2h.4c.4 0 .6-.2.9-.6ZM57 48.2c-.1-2 0-2.5.4-2.8.2-.3.2-.3.1 0l-.1 2.1c0 2.4 0 2.3-.2 2.3 0 0-.2-.7-.2-1.6Zm.5 1.7.2-1.7c0-2 .1-2.6.3-3 .3-.5.2-.6-.5-.6-.6 0-.7.1-.8.6-.1.3-.3 1.5-.3 2.7v2.2h.5c.3 0 .6 0 .6-.2Zm3.6.2L61 50l-.2.1c0 .1 0 .2.2.2l.1-.2Zm-1.5-1.8a20.2 20.2 0 0 1 .4-4c-.2-.1-.8.3-.9.6a18 18 0 0 0-.3 3.6c0 1 0 1.3-.2 1.3-.2-.2 0-4.3.2-4.8.2-.4 0-.5-.3-.2-.3.4-.4 1-.5 3.8-.2 1.7-.2 1.6 1 1.6l.6-.1v-1.8ZM2.6 50v.3c0 .2 0 .3.1.2V50Zm69 .9c0-1.2-.2-1.2-.3 0 0 .7 0 1 .2 1s.2-.3.2-1Zm3 1c.1 0 0-.2 0-.2l-.1.3v.3l.2-.3ZM4 49c-.2 0-.4-1-.2-1.2.2 0 1.1.1 1.1.3l-.3.1c-.3 0-.4.3 0 .4l.2.3c0 .2-.3.2-.8.1Zm0 .8c-.3 0-.3-.1-.1-.3.2-.2.8.1.7.3-.1.2-.4.2-.7 0Zm0 1 .1-.3c.3-.1.8 0 .8.1 0 .2-.8.3-1 .1Zm.2.5c.1-.3.7-.4.7 0l-.3.1-.4-.1Zm4.5.7 1-.2h.4v-2c0-2.9 0-2.8-2.3-2.5-1.6.1-3.2 0-4.5-.2-.4 0-.4 0-.3.3.1.7.4 3 .3 3.6 0 .7 0 .7.4.7L6 52c1 .2 2 .2 2.7 0Zm2.8.7-.2-3.8c0-1.1 0-1.2-.2-1.2s-.3 0-.4.4v2c0 .7.2 1.5.3 1.9l.1.7c0 .1 0 .2.2.2s.3 0 .2-.2Zm63 0v.4c.1-.1.1-.3 0-.4ZM17 49.4c-.5-.2-.7-.5-.3-.5 1 .1 2 .4 2 .5 0 .2-1 .2-1.7 0Zm.6 1c-1-.2-1.1-.5-.2-.5 1 0 1.4.2 1.4.4s-.1.3-.2.2l-1-.1Zm-.3 1.1c-1-.2-.7-.4.5-.3 1 .1 1.2.2 1.2.4h-1.7Zm5.4 1.4 1-.2.5-.2v-1.8l.1-1.8-.4-.3a2 2 0 0 0-.7-.3l-1-.2h-5.7l-.8-.3a20 20 0 0 0 0 4.3c0 .3.1.3.4.2.4-.1 2.1.2 2.3.5l.7.3c.6 0 2.7 0 3.5-.2ZM68 50c-.1-.2.2-.5.7-.6.3 0 .4 0 .4.2 0 .3-1 .6-1.1.4Zm0 1c-.2-.3.1-.5.6-.5.5.1.5.5 0 .6-.3 0-.6 0-.6-.2Zm.3 1.3c-.3-.2-.3-.5 0-.5s.6.4.4.6c-.1.1-.3.1-.4 0Zm.8.8.2-.4c0-.2.1-.4.3-.5.4-.4 1-4.6.6-4.6l-.5.3c-.3.3-1.6 1-1.9 1-.4 0-.5.6-.6 2.4 0 2.2 0 2.3 1 2.1l.9-.3Zm-40.4.4.2-1.2V50c.2-1.4.2-1.5-.5-1.2-.3.2-.3.2-.3 2.3l-.1 2.2-.3-.1c-.2-.1-.2-.4-.2-1l.1-2c0-1.1 0-1.2-.3-1.2-.4 0-.4 0-.5 2.5a7 7 0 0 1-.3 2v-4.6h-.3c-.3.1-.3.2-.3 2a176.9 176.9 0 0 1-.3 2.4c-.2 0-.2-.2-.1-1.4.1-1.8 0-3-.4-3-.2 0-.3.2-.3 1.5v3.1c.2.2.4.3 2 .3s1.7 0 1.9-.4Zm-14.5.1h.8c.4 0 .4.2.4-3v-2.7h-1v2.6c0 3 0 2.9-.2 2.7 0 0-.2-1.2-.2-2.6 0-2.4-.1-2.8-.6-2.7-.2.1-.2.5-.1 2.7 0 2.3 0 2.5-.2 2.5s-.2-.2-.2-1.8c-.1-3.4-.1-3.4-.6-3.4-.3 0-.4 0-.5.6v2.3l.2 2c0 .6 0 .7.5.9H14Zm17-3.6c-1-.3-1.3-.5-1-.5a5 5 0 0 1 1.6.2c1 .3 1 .2.8.4l-.3.1-1-.2Zm.4.8c-1-.1-1.6-.3-1.4-.4.2-.2 1.9 0 2.2.2.3.2 0 .3-.8.2Zm-1 1c-.8-.3-.6-.5.3-.4 1 .2 1.2.3 1 .4-.3.2-.5.2-1.3 0Zm-.4 1c0-.1.2-.3.4-.3h1.2c0 .1 0 .2-.2.2a7 7 0 0 0-.8 0h-.6Zm5.6 1.1.7-.3c.1 0 .2 0 .2-.3v-3.5l-.9-.3a4 4 0 0 0-2-.4 53.7 53.7 0 0 1-4.5-.2v3.9c0 .3.1.4.4.5l.8.3c.3.2.8.3 1.3.4.4 0 1 0 1.4.2 1 .1 2 0 2.6-.3ZM66.2 52v-2l-.2 2-.2 2.2c-.2.4-.2.4 0 .1.3-.2.3-.5.4-2.3Zm-.8 2.8-.1-.2c-.3 0-.3 0-.2-.7.2-1.7.2-3.7.1-3.6-.1.2-.4 2.2-.4 3.5 0 .8-.2 1-.4.8-.2-.1-.2-.9 0-3.3 0-.9 0-1-.2-1s-.3.4-.4 1.6l-.2 1.7c0 .8 0 1 .3 1.2.3.3.4.4.8.2l.7-.2Zm-22.7-4c-.6-.1-.8-.3-.5-.5.2 0 2.5.5 2.4.6 0 .2-1 .2-1.9 0Zm.5 1.6c-.7-.2-1-.5-.6-.7.1-.1.6 0 1.3.3h.7c.2.2.2.2 0 .4-.4.2-.5.2-1.4 0Zm.2 1.3a1 1 0 0 1-.5-.3c-.1-.2-.1-.2.2-.2.5 0 1 .2 1 .4s-.1.2-.7 0Zm0 .7c-.3-.1-.2-.3 0-.3.5 0 .8.1.8.3 0 .1-.5.1-.8 0Zm4.5.7.7-.2v-4.2l-.7-.4a4 4 0 0 0-2-.3c-.6 0-2 0-2.6-.2h-1.1l-.4.1v4.2l.7.4c.7.4 1.5.6 3.9.8h.7l.8-.2Zm22.3-.9L70 54c-.1 0-.2.4-.2.9v.3l.3-.9ZM50 55.6c0-.4 0-.5-.2-.5s-.2-.4-.2-2.1c0-2 0-2-.2-2.1-.3 0-.3 0-.4 1.8-.1 2 0 2.4.3 2.4 0 0 .2.1.2.3 0 .2.3.7.5.7v-.5Zm5.5-3.5c-.2-.4.1-.5 1.5-.4 1 0 1.3.1 1.3.3 0 0-.3.2-.9.2-1.6.1-1.8.1-2-.1Zm1.3 1.1c-.5 0-.8 0-.8-.2.1-.2 1.9-.3 2.1-.1.3.2.2.4-.2.4h-1Zm0 1.2c-1 0-1.2-.2-.7-.4H58c.1 0 0 .5-.2.5l-1-.1Zm0 1c0-.3 0-.3.6-.3.8 0 .7.2-.1.3h-.6Zm4.6.4 1-.7c.1-.3.4-.6.5-.6l.2-1a28 28 0 0 1 .2-3.4c-.1-.2-.2-.2-.2 0 0 .3-.3.5-.5.3h-1l-3 .2c-1.8 0-2.1 0-2.5.3-.2.2-.6.3-.8.3h-.5v3.3c-.2 1 .9 1.7 2.5 1.4h1c.6.3 1.8.3 3-.1Zm-8.3.4h1.2l-.1-.4.1-1c.2-.5.3-1.1.2-2.5l-.1-1.7s-.3.1-.5.4l-.4.3v2c0 1.4-.1 2.1-.2 2.2-.2 0-.2-.3-.3-3.2 0-1.1 0-1.2-.3-1.1-.3 0-.3.1-.4 2 0 1.7-.2 2.4-.5 2.1V54l.2-2.1c0-.7-.1-.8-.4-.7-.3 0-.3.1-.4 1a64.8 64.8 0 0 1-.3 3c-.1 0-.2-.5-.1-1.7 0-2.2 0-2.5-.4-2.5-.3 0-.3.1-.2 1.2A9 9 0 0 1 50 54c-.2.7-.1 1 .2.8.1 0 .2.1.2.7s0 .7.5.8h.6l1.5-.1Zm21.8.5c0-.5-.2-.5-.2 0v.5c.2 0 .2-.3.2-.5Zm-69.4.7v-.7c.2-1 0-3.4-.2-3.4-.5 0-.5.2-.4 1.9a53.2 53.2 0 0 1 .4 2.3h.2Zm64.5-.7c0-.5 0-.9-.2-.9-.1 0-.3 1.5-.2 1.7.2.4.4 0 .4-.8Zm-61.2-.9c0-2.2 0-2.7-.4-2.7-.3 0-.3 0-.2 1.4a184.7 184.7 0 0 0 .4 3.2c.2 0 .3-.3.2-1.9Zm62.6-2.4c-.2-.3 0-.3.7-.3s.8.1.4.4c-.4.2-.9.2-1 0Zm0 1.1v-.3c.2-.3 1-.2.9.1 0 .3-.6.4-.9.2Zm0 .9V55c.2-.3.8-.1.8.1 0 .3-.5.4-.8.2Zm2.8 1.6c0-.3 0-.7.2-.8.2-.4.3-1.1.1-1.1 0 0-.2 0-.2.2l-.3.2c-.2 0-.2-.3-.2-2.3L74 51l-.3.3c-.2.2-.5.5-.5.7-.2.3-.3.3-1 .4-1 0-1 0-1.2.9-.2.7-.4 2.8-.3 3.1 0 .2.1.2.4 0 .2 0 .4-.2.5-.3.2-.3.6-.1.4.2-.1.4.4.4 1.2 0l.9-.4v1.9l.2-.7ZM7.9 57l-.1-2.4c-.1-1.3-.1-1.5-.4-1.5-.3 0-.4.5-.3 1.6v1.8c0 1.2 0 1.5.5 1.5H8v-1Zm-1.2.2V54c0-.9 0-1-.4-1H6v2.1c0 2.2.2 2.9.4 2.9s.2-.3.3-.8Zm62.2.1a73.4 73.4 0 0 1 0-2.8c-.2 0-.2.2-.2 1l-.2 1.8c-.1.6 0 .9.2.8l.2-.8Zm-.8-1.8c0-1.2 0-1.3-.3-1.3s-.3.1-.3.6c-.2 3.4 0 4.8.4 3l.2-2.3Zm-46.3 2c.1-1.3 0-2.7-.2-2.7l-.3.5c0 .7 0 3.4.2 3.4l.3-1.1Zm-2.8-.8c0-2.2 0-2.4-.4-2.4-.2 0-.2.2-.2 1.8 0 2.6 0 2.6.3 2.6s.3-.1.3-2Zm55.4 1.8v.2-.2Zm-53.5.2c.1-.2-.1-4-.3-3.8l-.2 2-.1 1.7c-.3 0-.4-1-.3-2.3.2-1.3.1-1.4-.3-1.6-.2 0-.2 0-.2 1.8v2.1c.2.3 1.2.4 1.4.1Zm-9.6-3.1c-1-.2-1.3-.5-1-.6.5-.2 1.6 0 1.9.3.3.3 0 .5-1 .3Zm-.4 1c-.5-.2-.7-.4-.5-.6.2 0 1.7.4 1.7.6 0 .3-.6.3-1.2 0Zm.4 1.7v-.2c0-.2 0-.3-.3-.3-.3-.2-.3-.4 0-.4.4 0 1.2.4 1.2.6 0 .2-.7.5-1 .3Zm4.5.2.7-.2.7-.3c.6-.2.6-.2.6-2.6v-1.3l-.9-.1h-1.3c-.4 0-3.2.3-3.5.2a13 13 0 0 1-3-.9v1c.1.4.2 1.2.1 1.6 0 .5 0 .8.2 1.2.3.5.3.6 0 .8-.1.2 0 .2.9.5 1.3.4 1.4.4 3.4.4 1.2 0 1.8-.1 2.1-.3Zm21.3-1.8c-.3-.2-.4-.4-.1-.5h1c.8 0 1 .4.2.5h-1Zm.3 1c-.4 0-.5-.1-.3-.3.3-.2 1.3 0 1.3.3s-.4.3-1 0Zm-.3 1 .6-.3c.3 0 .4 0 .4.2l-.6.2-.4-.1ZM42 60c.5-.2.7-.8.7-2.5l-.1-1.7-1.7-.1c-1.8 0-3.9-.4-3.8-.8 0-.2.4-.2 1.7 0 1.5.3 2 .3 2.3.2.2-.2.2-.7.3-2.6.1-2.6.1-3-.2-3-.4 0-.5.6-.6 2.5 0 1-.2 1.9-.2 1.9-.1 0-.2-.7-.1-2v-2.2H40c-.6 0-.5-.2-.6 2.5v2c-.4.3-.4-.3-.4-2.3.1-2.2 0-2.4-.4-2.2-.2 0-.2.3-.2 2s0 2.2-.3 1.9l-.1-2V50h-.4c-.5 0-.4-.5-.5 3.3 0 1.6 0 1.8-.3 2-.4.2-.4.3-.4 2v2c0 .4.8.7 1.9.7l1.6.1c.9.2 1.8.2 2.2 0Zm-17.8-4.7c-.3 0-.5-.6-.2-.6.5 0 1.6.3 1.5.5 0 .1-.8.2-1.3.1Zm-.2 1c-.6-.3-.2-.6.6-.6.7 0 1.2.2 1 .4-.2.2-1.3.3-1.6.2Zm0 1c-.1 0-.1 0 0-.2.3-.4 1.2-.2 1.2.1 0 .2-.8.3-1.2.1Zm.2 1c-.2 0-.2 0 0-.3.2-.2.9 0 .8.2-.1.2-.4.3-.8.1Zm11 1.7c.4-.3.6-2.2.4-3.6l-.2-1H35c-.5.2-.6.3-.7.6-.1.6-.2.7-.3.6v-.5c0-.5 0-.5-.3-.5s-.4.2-.5 1.2l-.2.6c-.2 0-.3-.3-.2-1.2l-.1-.6-.2.9c0 .6 0 .8-.2.9-.2 0-.2 0-.2-.5l-.1-1.6c-.1 0-.2.4-.2 1 0 .8-.1 1-.3 1-.2 0-.2-.2-.3-1.2 0-1-.1-1.2-.3-1.2-.2 0-.3 0-.3 1.6 0 1.5 0 1.7-.2 1.6-.2 0-.3-.2-.2-1.5 0-1.7 0-1.9-.8-2.1l-.4-.2a36.5 36.5 0 0 0-6.5.2c-.2.2-.3.4-.2.8V57c-.1 1 0 1.4.2 1.4l1.1.4c.8.4 1 .5 2.8.5 2 0 2.5-.1 3-.7.2-.3.2-.3.4 0l.4.7c.1.5.4.6 3 .7l1.6.3c.2.2.2.1.5 0ZM64 57c-.8-.1-.7-.4.2-.5l.8.1c0 .3-.4.4-1 .4Zm-.4.8c-.1-.1.4-.4.8-.4.3 0 .4.4 0 .5-.3.1-.7 0-.8 0Zm0 1c0-.2.4-.4.7-.4.5.1.4.4-.2.5h-.6Zm.2.6.4-.2c.3 0 .4 0 .3.1l-.4.3c-.2 0-.3 0-.3-.2Zm1.1.8c.3 0 .8-.5 1.2-1l.8-.8v-3.3h-.6c-.4 0-.6 0-.7.2l-.5.2-.8.3-.6.3c-.2 0-.4.2-.6.4-.3.5-.3.6-.2 1.7 0 1.4.2 1.7.9 2 .7.3.7.3 1.1 0ZM49 59.7c.2-2.2.1-3-.1-3.1h-.4l-.3 2.6H48c-.1 0-.2-.3 0-1.3 0-1.4 0-1.4-.3-1.2-.1 0-.3.2-.3.4V61h1.4l.1-1.3Zm-5.5.5v-1.7c.2-.1.4 1 .3 1.4-.1.2-.2.4-.3.3Zm1.1-.3a68.3 68.3 0 0 1 0-3.1c-.3-.2-.4 0-.4.9 0 .5 0 .9-.2.9-.1 0-.3-.8-.3-1.4l-.1-.5-.2.1-.3 3.4c0 .3 0 .4.4.6 1 .3 1.1.2 1.1-1Zm2.5.8v-2.1c0-1.6 0-1.8-.3-1.8-.6 0-.7.4-.8 2.3 0 2.3-.3 2.3-.3 0 0-1.7-.2-2.4-.4-2.1a12 12 0 0 0-.2 3.7c0 .3.3.5 1.3.4.5 0 .6 0 .7-.4Zm26.6-.2-.1.3v.3-.6Zm-14.4 1 1.6-.3c1.4-.1 1.4-.2 1.3-2.6v-2l-.5.1c-1 .2-1.1.5-1 1.6 0 .6 0 1-.2 1s-.5-.8-.4-1.5c0-.3 0-.5-.2-.5s-.3.3-.3 1c0 1-.2 1.4-.4 1.3v-1.1l-.2-1c-.2-.2-.3.6-.2 1.4v.8c-.2 0-.2.2-.2.4 0 .4-.3.6-.5.4V60c.3-.4.3-.5.2-1v-1.3c0-.4 0-.5-.2-.4-.1 0-.2.3-.2 1l-.2 1.9c-.2 1.4-.1 1.6.5 1.5l1.1-.3Zm-2-2-.1-2.3h-.3l-.1 2c0 1.1 0 2-.2 2.1-.2.2 0 .5.4.5s.4 0 .4-2.2ZM50 58c-.1-.2-.1-.3 0-.4h.5l.9.1c.8 0 1 .2.5.4-.6.2-1.7.2-1.9-.1Zm.4 1.1L50 59c0-.2.5-.3 1.4-.3.6 0 .8 0 .8.2l-.2.2h-1.6Zm.2 1.1c-.5-.3-.3-.5.5-.4 1 0 1 .2.7.4-.3.3-.7.3-1.2 0Zm.1.8c-.2-.2 0-.3.4-.3s.5 0 .5.2-.7.3-.9.1Zm4.5.7c.2 0 .4-.2.4-.4v-.5c.1-.2.2-.2.4.1l.3.5v-1.7l-.3-2c0-.2-.3-.4-.6-.5a8 8 0 0 1-.7-.3h-5l-.1.3v2.3c0 1.9 0 2 .6 2l.7.1c.2.2.5.2.8.2h.6c0 .2 2.5 0 3-.1Zm17.6.2c0-.1.4-4.3.3-4.4 0 0-.2 0-.3.2-.1.1-.3.3-.5.3-.3 0-.4.5-.5 2.8l-.1 1.4.5-.1.6-.2Zm-1.8.8a64.1 64.1 0 0 1 .3-4.3s-.2.3-.2.8c-.3 2.4-.4 3.2-.7 3.5-.3.2-.3.2-.4 0 0-.2 0-1 .2-1.8.4-1.7.4-2.6.1-2.5l-.2 1.4-.2 2.3-.1 1 .6-.1c.5 0 .6 0 .6-.3Zm-4-1.9c0-.1.6-.4 1-.4s.3.4-.2.5H67Zm.1 1.2c-.1-.2.4-.6.7-.6.2 0 .3.1.3.3-.1.3-.8.5-1 .3Zm.3 1 .1-.3c.3-.1.6.1.5.3-.1.2-.6.2-.6 0Zm1.3.4c.6-.3.6-.4.6-1.1l.2-1.4.2-1.4v-1c.2-.2-.2-.1-.5.1-.2.1-.4.2-.5.1 0 0-.3 0-.4.2-.1.2-.4.4-.7.4-.2 0-.4.2-.4.3l-.2.3c-.3.2-.5 1.4-.5 3v.9h.8c.5 0 1-.1 1.4-.4Zm-5.3-1.1-.1-.6c-.1 0-.2.5-.2 1.1 0 1 0 1.1.2.6l.1-1.1Zm2.5 1c0-.6-.2 0-.2.8l.1.7v-.5l.1-1Zm-48.7-2.5c-.4-.3-.1-.6.5-.5 1 .2 1.2.3 1.2.5 0 .3-1.3.3-1.7 0Zm-.1.8c-.2-.3 0-.3.6-.2.7.1.7.4 0 .4-.4 0-.6 0-.6-.2ZM17 63c-.3-.1-.4-.3 0-.5.3-.1 1.2.1 1.2.4 0 .2-.6.2-1.2 0Zm0 1c0-.2.9-.5 1-.4.1.1-.4.5-.7.5L17 64Zm5 .7.8-.3V63c0-2.2 0-3.4-.2-3.5l-1.5-.2a5608.9 5608.9 0 0 1-4.7.2l-.5.6c-.2.2-.3.5-.2 1.8 0 2 .1 2.5.4 2.5l.5.2.4.2h.7l2 .2c1.4 0 1.7 0 2.4-.4Zm43.1-.3.2-1.5c.1-.7 0-1.6-.1-1.6-.2 0-.3.8-.4 2.6v1.5c.2 0 .3-.4.3-1Zm-36.5.9v-4.1c-.1-1-.2-1-.5-1s-.3 0-.3.9l-.2 1.2c-.2.2-.3.2-.3-.9 0-1 0-1.1-.2-1.1-.4 0-.5.6-.5 2v1.2c-.3.2-.4-.5-.4-1.7 0-1.3 0-1.4-.2-1.4-.3 0-.3.1-.4 1.5-.2 1.7-.3 2.2-.4 2.2-.1 0-.2-.7-.1-1.8 0-1.6 0-1.7-.2-1.9-.4-.1-.5 0-.4 1 0 1.3 0 2-.3 2.3-.2.3-.2.2-.1-.8 0-1.6-.1-2.6-.4-2.6-.2 0-.2.2 0 1.2 0 1 0 1.3-.2 1.5-.2.3-.2.5-.2.8l.2.5s0 .3.2.5c.1.3.2.3.5.2l.7.1c.3.2 1.6.4 2.8.4.6 0 .8 0 1-.2ZM64.2 64l.2-2.2c0-.5-.1-.6-.4-.2-.1.3-.3 4-.2 4.2.2.2.3-.3.4-1.8Zm-33.4-2c-.4 0-.6-.3-.7-.4 0-.2 0-.3.3-.2a304.1 304.1 0 0 0 1.7.6c0 .3-.5.3-1.3 0Zm-.3 1c-.7-.2-1-.4-.8-.6.2-.2 2 .3 2 .5s-.5.2-1.2 0Zm14.3.1a8 8 0 0 0-1.1-.4c-.7-.2-1-.4-1-.5.2-.1 1.7.2 2.4.5l1.1.3c.7 0 .5.2-.3.3-.4 0-.8 0-1.1-.2Zm-2.8.4v-2c.3 0 .4.6.3 1.4-.2.6-.2.8-.3.6Zm-12.1.3c-.3-.2-.2-.2.7-.2 1.2 0 1.4.3.3.4-.5 0-.8 0-1-.2Zm15.6.5c-1-.1-2.1-.5-2.2-.7-.1-.3.1-.4.7-.2l1 .2c.4 0 .9.2 1 .3h.6c.5-.3.7 0 .3.2-.4.3-.6.3-1.4.2Zm-9.1-1.2c0-1.5 0-2 .2-2.2.1 0 .2 0 .3 1a6 6 0 0 1-.1 1.8v1c0 .4 0 .5-.2.5s-.2-.3-.2-2Zm7.2 2c-1.5-.5-1.2-.6.6-.4.9 0 1.2.3.7.5-.4.1-.5.1-1.3-.1Zm0 .9c-.4-.1-.6-.2-.5-.4l.3-.3c.3 0 1.3.4 1.3.6 0 .3-.1.3-1 .1Zm4.9.6c.3-.3.4-.6.5-2.3.3-2.6.3-2.6-1.6-2.6l-1.6-.1-1.3-.2c-1.4 0-1.4 0-1.6-.5a41.7 41.7 0 0 1-1.4.3c-.3.1-.3.3-.3.6l-.2.4c-.1 0-.3-.3-.3-.7 0-.3 0-.3-.5-.1-.3 0-.3.2-.3.9l-.2.9c-.1 0-.2-.4-.1-1.4 0-.5 0-.6-.4-.6-.5 0-.5 0-.7 3-.3 0-.3-2-.1-2.5v-.6c-.4-.3-.5 0-.6 1.5 0 1.8 0 2.2-.3 1.7l-.1-1.9c0-1.4 0-1.5-.3-1.6a1 1 0 0 1-.4-.3h-.6c-.3.2-.7.2-1 .1h-1.4a20.8 20.8 0 0 1-3.8-.3h-.8v1.3c.3 2.9.3 3 .7 3 .2 0 .4 0 .5.3.2.5.6.6 3.3.6 2 0 2.2 0 2.2.3 0 .2 0 .2.2.2h.3s.2.1.4 0l.4.1 2 .3c1.5 0 1.8 0 2.1-.2.3-.2.4-.3.4-.8 0-1.4.5-1.8.6-.4 0 .8.3 1.2 1 1.4l.7.3c.3.2 1 .3 3 .3 1.2 0 1.2 0 1.6-.4Zm8-3.3a104.7 104.7 0 0 0 2-.4c.6 0 .6.3.1.4-.7.2-2 .1-2 0Zm.2 1.3c0-.2.6-.4 1.5-.3.8 0 1 0 .7.3-.3.2-2.2.2-2.2 0Zm5.3.1.1-.1h.2l-.2.2H62Zm-5 1c-.2-.2.2-.3 1-.2.3 0 .5 0 .5.2-.1.1-1.5.2-1.6 0Zm0 1c-.2-.2 0-.7.3-.6l.5.2-.1.2c-.3.3-.6.3-.7.2Zm2.3.9c.8-.2 1.4-.4 2-1 .4-.4.8-1.2.6-1.5 0 0 0-.1.1 0 .4 0 .4 0 .5-1.6l.1-1.8c.1-.3.1-.4-.2-.2-.3.2-.3.3-.2.7v.8c-.2.3-.2.3-.3-.2a2 2 0 0 1-.1-.8c0-.3 0-.3-1-.2-1.4 0-2.5.3-2.7.5-.3.2-.4.2-1.5.3-.8 0-.9 0-.9 1.8v1.8c-.2.7-.2.7.3.8l.6.3.8.3.6.1h.3l1-.1Zm-8.4 0v-2c.2-1.7.1-2 0-2.3-.4-.5-.6 0-.6 2l-.1 2c-.3.2-.4-.6-.4-2.1.2-2.7.2-2.6 0-2.6-.3 0-.3.1-.4 1-.1 1.5 0 4 .1 4.2l.8.1c.4 0 .6 0 .6-.2Zm4 .5.2-.3.1-1.6c.2-1.5.1-3.5 0-3.6h-.5c-.4.2-.4.2-.4 2.2s0 2.7-.3 2.7l-.1-2.3-.1-2.3c-.3-.3-.4.2-.5 1.5a19.6 19.6 0 0 1-.3 2.9c.1.2-.2.4-.3.3v-1c.3-1.6.4-3.6.2-3.6h-.3c0 .2-.3 2.8-.2 3.6l-.2.6c-.4.3-.5-.1-.3-1 .2-1 .2-3 0-3-.4 0-.5.2-.5 1.4 0 1.6-.1 2.9-.3 3.2 0 .2 0 .3.3.3.5 0 1.6 0 1.7.2a4 4 0 0 0 1.8-.2ZM70 65c-.3-.2-.1-.3.3-.3.3 0 .5.1.5.2 0 .2-.7.3-.8.1Zm-.2 1c0-.1.6-.3 1-.2v.3c0 .1 0 .2-.5.2-.4 0-.6 0-.5-.2Zm.4 1.5-.1-.4c-.4-.3 0-.6.3-.5.4.2.4 1 0 1.1-.2 0-.3 0-.2-.2Zm-.8 1.3c.1-.2.4-.4.8-.4.7-.1 1.6-.6 2-1 .3-.3.4-1.2.6-3.4 0-1.3 0-1.3-.2-1-.6.4-1 .6-2.1.6-1 .1-1.1.1-1.2.6-.2.7-.4 4.8-.2 4.8.1 0 .2 0 .3-.2Zm-1-.7.1-1.8c.2-.9.1-1.4-.1-1.3-.2 0-.5 3.5-.3 4 .1.4.3 0 .3-1Zm-.8-1.5c0-1.4 0-1.5-.2-1.5-.3 0-.3.2-.3 2.2l.1 2.2c.2.2.3-1 .4-2.9Zm-62.2 2c-.2-.6-.3-.3-.1.5.1.6.2.7.2.4v-.8Zm3 1.6.7-.2.4-.1v-1.5c0-1-.1-1.7-.3-2.1-.2-.6-.3-.7-.8-.7H8l.1 1v1c-.2-.2-.3-.7-.4-1-.1-1-.2-1-.5-1s-.3.1-.1 1.3v1c-.1.1-.2-.1-.5-1l-.4-1.3c-.1-.2-.1-.2-.1 0v2c0 1.8 0 2.4.6 2.6.4.2 1.6.2 2 0Zm2.5-4c-.7-.2-.8-.2-.5-.4.1-.2.3-.2.9 0 1 .1.7.6-.4.4Zm.2 1.2a1 1 0 0 0-.7-.3c-.3-.1-.3-.1 0-.3l.5-.2c.4 0 1 .6.8.8 0 .2-.2.2-.6 0Zm-.2 1c-.7-.2-.8-.2-.5-.5h1.2c0 .1-.2.6-.4.5H11Zm4.9 1.7c.3 0 .4-.2.5-.7 0-.8 0-2.4-.3-3-.1-.3-1.3-1-2.4-1.2-.4-.1-.7-.3-.7-.4l-.9-.1c-.8 0-1 0-1 .3 0 .2 0 .3-.3.3-.2 0-.3-.1-.3-.2l-.2-.1s-.1 0 0 .2c0 0 0 .2-.2.3-.2.2-.1 1.3 0 1.5.1.1.1.3 0 .4 0 .3.2 2.4.4 2.6.4.4 4.1.4 5.4.1Zm57.4.4-.1.1v.2-.3Zm-11 .5c-.1 0-.2 0-.2.2-.1.2-.1.2 0 0l.1-.2Zm-42.5-.3-.3-2c0-1.4.2-1.5.4-.2.2 1.2.2 2.4 0 2.4l-.1-.2Zm2.4.8c.4-.4.6-4.6.2-4.9v-.3c.2-.3.1-.3-.5-.2h-.6l-.1.8V68c.2.7.3 3 .1 3-.2.1-.3-.7-.4-2.9-.1-1.6-.2-1.8-.4-1.8l-.3.5c0 .6-.5.9-.4.3 0-.3 0-.3-.4-.3l-.5.1v2.2c0 1.5-.1 2.1-.2 2.1s-.2-.3-.2-.7v-2.2c0-1.6 0-1.6-.4-1.6s-.4-.1-.4 2.5c0 1.8-.2 2.4-.3 1.7l-.2-2.5c0-1.2-.1-2.3-.2-2.3-.2-.2-.5 0-.4.3l.3 2.5.2 2.4 2 .1 2 .1c.2.2.8.2 1 0Zm2.3-3.6c-.5-.2-.6-.5 0-.5.4 0 1 .4 1 .6 0 .2-.4.2-1 0Zm-.1 1.2c-.5-.1-.5-.5-.1-.5s1.3.4 1.3.6c0 .2-.7.1-1.2 0Zm0 1c0-.2.5-.5.8-.5v.3c0 .1-.1.2-.4.2h-.4Zm6.2 1.3.2-2.7v-2.1l-.4-.2-1.5-.2-1.5-.2H26l-1.2-.2c-.4-.3-1.6 0-1.3.5h-.2c-.1 0-.2.5-.2 2.2 0 2 0 2 .4 2.5.2.3.7.6 1.2.8.8.2 1 .3 2.3.2a92.2 92.2 0 0 1 2.2-.2v-.5l.2-2.5.1-2.2c.2-.2.3 1 .2 3 0 2 0 2.2.2 2.2.1 0 .3 0 .5.2.2.3.2.2.3-.5Zm41.3-.3c.1-1.5 0-1.8-.2-1.1v2.4s.2-.6.2-1.3Zm-36.7 1.1c.2 0 .2-.6.2-2.8 0-2.4 0-2.7-.1-2.6-.4.2-.5.7-.5 2.2 0 1 0 1.5-.2 1.5l-.1-1.7c0-1.5 0-1.7-.2-1.6-.1 0-.2.3-.3 1.5-.1 2 0 1.9-.2 1.7v-1c.1-1.9-.1-2.5-.7-1.9-.2.2-.2.5-.2 1.9l-.1 1.6c-.1 0-.2-.6-.2-1.7 0-1.5 0-1.7-.2-1.7s-.2.2-.2 1.7L32 71c-.1 0-.2-.6-.2-1.6 0-2-.1-2.3-.5-2.3-.3 0-.3-.1-.3 3 0 2 0 2 2 2.1l1.6.1h.5Zm26.2-.1a49.5 49.5 0 0 0 .4-4.7c-.2 0-.4 1.2-.5 2.8l-.1 2v.5l.2-.6Zm1.7-4.2c0-.1.7-.5 1-.5.1 0 .2.1.2.3 0 0-.1.2-.3.2h-.5c-.2.1-.4.1-.4 0Zm.2 1.1c.1-.3.8-.5 1-.3.3.2.1.3-.5.4h-.5Zm-.2 1.2c0-.2.4-.5.8-.4.6 0 .4.5-.2.5H63Zm.4.8.5-.2c0 .2-.4.6-.7.6-.2 0 0-.2.2-.4Zm-.8 1.5.7-.4c.8-.2 1.9-1 2.4-1.6.3-.4.6-.6.7-.5l.1-1.4.1-2.5c0-1 0-1.3-.5-1l-2 1.1-1.7.9V71c.2.4.1.6 0 .8-.4.3-.7.8-.7 1l.9-.3Zm9.2 1.2c.5-.5.7-.8.7-1l-.1-.5c-.2 0-.8.9-.8 1.1 0 .3-.3.5-.5.3v-2c0-1.6 0-1.8-.3-1.9h-.3c-.1 0-.2 4.5 0 4.7h.2c.2 0 .7-.3 1-.7ZM5.2 74c-.2-1.7-.3-2-.4-2-.1 0-.1.1 0 .2v1.1c0 .8.2 1.2.4 1.2v-.7Zm62.4-3c.3-.3 1-.4 1 0 0 .1 0 .2-.7.2-.5 0-.5 0-.3-.2Zm-.2 1.4c0-.2.5-.6 1-.6.6 0 .5.2-.3.5l-.7.1Zm.1 1.2.2-.3c.3-.2.7 0 .6.2h-.4c-.1.3-.4.3-.4.1Zm-.1 1.2c0-.2.7-.6.9-.6.2 0 0 .4-.3.6h-.6Zm1 1a7 7 0 0 1 1.2-1.8c.3-.2.3-.4.3-2.5v-2.2h-.4c-.7 0-1.8.6-1.7 1l-.6.5c-.6.4-.7.5-.3.4.3-.1.3 0 .3 1s-.1 1.2-.3 1.2c-.3 0-.4.3-.4 1.6v1.2h.9c.7 0 .9 0 1-.3ZM6.2 72.5c-.2 0-.4-.3-.4-.5 0-.3.1-.3.6.1.5.5.4.7-.2.4Zm-.3 1-.1-.2c0-.3.5-.3.9 0l.3.3H6Zm.7 1.5c-.5 0-.8-.4-.5-.6.4 0 1 .2 1 .4s0 .3-.5.2Zm3.8.4c-.5-1.5-.6-2.6-.4-3 .2-.5.5-.4.4 0-.1.6.1 2.2.4 2.9.1.2 0 .2-.1.2l-.3-.1Zm-3.6.5c-.2-.2-.1-.5.2-.5.2 0 .3 0 .2.2 0 .3-.3.4-.4.3Zm3.2.4c.3-.3.4-.3.9-.2l.5.1v-1.3c0-3.4 0-3.3-.4-3.3l-1-.3c-.4-.3-.8-.3-1.9-.3l-1.8-.2c-.4 0-.5 0-.5.2s0 .3-.2.3-.3.2-.2 1.2l.2 1.4.3.9c0 .4.2.8.3 1 .2.2 1 .4 2 .6 1.3.2 1.4.2 1.8-.1Zm4.8-.1-.2-2.6c0-1.6 0-1.8-.3-1.7l-.3.1a23.1 23.1 0 0 0 .4 4.5c-.2.1 0 .4.2.4s.2-.2.2-.7Zm-1-.2a313.8 313.8 0 0 0-.5-4h-.4l.1 1.7.2 2.2v.5c-.4 0-.6-.8-.6-2.3 0-1.9 0-2.1-.5-2.3l-.5-.2.1 2.1c0 1.1.2 2.2.3 2.3l-.1.5c-.2 0-.3.2-.3.2l1.2.1h1.1V76Zm5.2 1h-.9l.5.1h.4Zm47-2.3.3-2.7c.1-.5.1-.5-.1-.5-.3 0-.3 0-.3.4v1.6c-.2 2.5-.3 3.9-.1 3.6l.3-2.4ZM16.2 77v-5l-.6-.3-.6-.1v4c0 .8.2 1.1.4 1.4.4.4.8.4.8-.1Zm1.1-2.7c-.3-.2 0-.3.9-.4.5 0 .6 0 .7.3 0 .3 0 .3-.6.3a2 2 0 0 1-1-.2Zm4.8 3c0-.4.6-.8 1.3-.7.6 0 .7 0 .7.4v.4h4.5c.4.1.4 0 .5-.5 0-.4 0-.7-.2-.8 0-.1-.1-.1-.1 0l-.1.2c-.1 0-.2-.7-.2-1.7 0-1.5 0-1.7-.2-1.7-.3 0-.4.6-.3 1.8v1.2h-.3v-1.5c0-1.4-.1-1.5-.4-1.3-.3 0-.3.2-.4 1.4 0 1.3 0 1.6-.2 1.4l-.2-1.3c0-1.2-.1-1.3-.4-1.2-.3 0-.3.1-.2 1.5l-.1 1.4c-.2 0-.2 0-.3-1.5 0-1.2-.2-1.7-.5-1.5v1.4l-.1 1.3c-.2 0-.3-.9-.3-2 0-.6 0-1-.2-1-.3 0-.4 0-.3.4l.1 1.5-.1 1.2c-.2 0-.3-.2-.3-.8a6 6 0 0 0-.5-2.6c-.1-.2-.7-.3-2.3-.3l-3-.2h-1l-.5.1v1.3l.2 1.4a7 7 0 0 0 2.3.3c.7 0 .8 0 .3.5-.3.2-1 .2-1.8 0-.2-.2-.3-.1 0 0 0 .2.3.3.5.3l.8.2c.3.2.7.2.9.2.2 0 .3 0 .3.2s0 .3.4.3c.2 0 .4 0 .5.2l.7.3h.5v-.2Zm43-.5.2-2.4c0-1.5 0-1.5-.2-1.3-.3.1-.3.3-.4 2l-.2 2.4c0 .3 0 .4.1.3.2 0 .3-.4.4-1Zm-1.2.8.2-2.3-.1-1.5c-.4 0-.7.6-.5 1v3.7c.1 0 .3-.4.4-1Zm-1.1.7c0-.2.3-4.5.2-4.7-.1-.2-.3 0-.3.2s0 .4-.2.5V78c0 .5.1.6.3.2Zm-32.1-.8-.7-.2c-.5 0-.4-.2 0-.3a3 3 0 0 1 1.7.2v.3c-.2.3-.5.3-1 0Zm4.1 1c.3 0 .6-.4.8-.7.2-.3.5-.5.6-.5.2 0 .2-.3 0-1.8 0-1.8 0-1.8-.5-2.2-.5-.4-.7-.4-5-.4h-1.4V75h1.9v.4c0 .3 0 .3-.7.2l-1-.2c-.3-.2-.3-.1-.2.2 0 .4 0 .4 1 .4 1.2 0 1.4.2 1.2.4-.2.2-.6.2-1.4 0-.5 0-.6 0-.7.4v.5l.9.5c.6.4.8.5 1.9.6l1.4.2c.3.2.7.2 1.2 0Zm6.7 0a20 20 0 0 0-.1-4.4c-.3 0-.4.8-.4 2.7 0 .8-.1 1.3-.2 1.3l-.1-1.9c0-1.9 0-1.9-.7-1.7-.3 0-.3 0-.2 1.9 0 1.5 0 1.8-.1 1.7-.2 0-.3-1.4-.3-3.1 0-.6 0-.6-.4-.6s-.3-.1-.4 2.2c0 1.7 0 2-.2 1.4l-.1-2c0-1.4 0-1.8-.3-1.8-.1 0-.2.4-.2 1.6 0 1.1-.1 1.7-.3 1.8-.1.2-.1.1 0-.1v-1.9c-.1-1.3-.2-1.5-.4-1.6h-.4v2.8c0 1 0 1.1.4 1.4l.6.4h1c1.3-.2 1.4-.2 1.6.2.2.4.2.4.6.1.3 0 .5-.2.6-.3Zm-3-9.9c-.1 0-.5 0-.8-.2-.7-.2-1-.4-.9-.5.2-.2 2.3.4 2.3.6 0 .1-.4.2-.6.1Zm11.5 1c-.9-.3-.7-.5.3-.4 1 .1 1 .2 1 .4-.1.2-.6.1-1.3 0Zm-12.3 0-.9-.2c-.5 0-.6-.3 0-.4.3 0 1.8.3 1.7.5 0 .2-.4.2-.8 0Zm12.2.8c-1-.3-.2-.5 1-.3.2 0 .4.2.4.3 0 .2-.7.2-1.4 0Zm-11.8.3-.7-.2-.7-.2.5-.1c.5-.3 1-.1 1 .3 0 .2 0 .3-.1.2Zm12.1.8c-.6 0-.8-.3-.4-.4.4-.1 1.6.1 1.7.3 0 .2 0 .2-1.3.1Zm-12.9 0c-.5-.2-.3-.4.5-.2.4 0 .6.1.6.3 0 .2-.5.2-1 0Zm4.7.6v-2.3a744.3 744.3 0 0 1 .2-2.3v1.4c0 1.4.1 2.7.3 3.2.2.3-.2.3-.5 0Zm8 .6c-.2-.1-.2-.2-.1-.3.2-.1 1.3.2 1.3.4s-.7.1-1.1 0Zm-6.6 3.2c-1-.3-1.2-.3-1-.5h1.2c.8 0 1 0 1 .3 0 .4-.2.4-1.2.2Zm-.3.9c-1-.2-.7-.5.4-.4 1 0 1.4.2 1 .5-.3.1-.6.1-1.4-.1Zm0 1c-.6-.2-.5-.4.1-.5.6 0 1.2.3.9.6h-1Zm.2.7c-.4-.1-.3-.3.3-.3.5 0 .6.2.2.3h-.5Zm9-.6c0-2-.1-2.2-.3-2.2-.3 0-.3.2-.5 1.4v1.8l-.1.6c-.2.2-.4-1.4-.2-2.2l.1-1.3c0-.4 0-.5-.4-.6-.3 0-.3 0-.3 1.1a65.5 65.5 0 0 0-.1 3.3c-.2 0-.2-.7-.2-3.9 0-.5-.2-.7-.7-.8v1.8c0 1.4-.1 1.8-.3 1.8l-.1-1.6-.1-1.9-.6-.6c-.9-.5-1.5-1-1.5-1.2l.1-.2.7-.4.5-.5V71c0-1.3 0-2 .3-2v2l.1 2.3 3 .5c2.5.3 3 .3 3.2.1.5-.3.7-.2.9.3.2.6.5.7 2.5.5 1.8-.1 2.4-.4 2.8-1 .3-.5.3-.5 0-.4-.2.1-.3.2-.4.1l.2-1.1c.1-.7.2-1.4.1-1.8v-1.7c.2-1 .1-1-.5-.5-.4.3-.4.3-.5 2.5 0 2.4-.2 3-.4 3v-5.1h-.3c-.2.1-.3.4-.2 2.7 0 2.3 0 2.6-.2 2.6s-.2-.3-.2-2.1c0-2.8 0-3-.4-3-.2.1-.3.2-.3.5v3.4c0 .8 0 1.5-.2 1.5s-.2-1.1-.2-3.8c0-1.6 0-1.6-.3-1.5-.3 0-.4 0-.4 2.1v2.3c.2.2 0 1-.2 1l-.1-2.8c0-2.2 0-2.7-.2-2.7-.3 0-1 .7-.9 1 .1.7.2 3.4 0 3.4-.1 0-.4-1.6-.4-3.2 0-1 0-1.4-.2-1.3a14 14 0 0 1-5.9-.7c0-.2-1-.2-1 0 0 0-.3.2-.7.2h-.5v2.1c-.3 0-.4-.5-.4-1.3 0-.5 0-.6-.4-.6-.3 0-.3 0-.3.8 0 1.4 0 1.4-.3 1.5-.1 0-.2-.2-.2-1.1 0-1 0-1.2-.3-1.3-.1-.1-.3-.2-.4-.1v1.4l-.1 1.3c-.1 0-.2-.5-.2-1.4 0-1.3 0-1.4-.2-1.4-.3 0-.3.3-.3 2 0 1-.1 1.8-.2 1.8s-.2-1.2-.2-3c0-.7 0-.8-.5-1.4l-.7-.6a5 5 0 0 1-1.2 0h-1.5c-.7 0-1.7-.2-2-.3-.9-.2-.9-.2-1.2 0-.3.4-.3.5-.3 2.7 0 1.6 0 2.4.2 2.5.6.8 3 1.2 4.6.8 1.1-.3 1.4-.3 1.5 0 .1.1.4.2 2 .1 2.1 0 2.6 0 2.6.4 0 .3-.1.3-1.6.3l-1.7-.1c-.2-.1-1.5.2-1.6.4v.5l-.1 3.3c0 .2 0 .2.2.1.3 0 .5.2.2.3-.2.1.6.9 1.2 1.2l1.9.3c1.2 0 1.4 0 2-.2l1.2-.4c.5 0 .5 0 .7.3.1.4.6.6 1.3.6l.7.1.5.1h.5v-2.3Zm1.5 2c.2-.4.3-.4.3-.2 0 .3.1.4.4.4.4 0 .5-.5.5-2.9 0-1.6 0-1.8-.3-1.8-.4-.2-.8.2-.8.7 0 2.7-.1 3.4-.2 3.4s-.2-.8-.2-2c0-1.6 0-1.8-.2-1.8-.6 0-.7.2-.7 2.5-.1 2.1-.1 2.2.2 2l.4.1c.1.3.3.2.6-.4Zm5.8-3.3c-.1-.2.7-.9 1-.7l.3-.2c.3-.2.4-.2.5 0l.1.3-1 .5-.6.1h-.3Zm-3 0 .1-.3c.1 0 .2 0 .2.2 0 0 0 .2-.2.3l-.1-.1Zm3 1c-.3-.3 0-.5 1-.6.6 0 .8 0 .8.2l-.3.3c-.6.2-1.3.2-1.5 0Zm-.2 1.1c0-.3.6-.5 1.1-.4 1 .2.6.6-.6.6-.3 0-.5 0-.5-.2Zm.1 1.3c0-.3 1-1 1.4-1 .5.2.3.4-.3.6a3 3 0 0 0-.8.4c-.3.2-.3.2-.3 0Zm-.2 1 .6-.2.3-.2.7-.5.9-.5c.2 0 .2-.2.2-1.8 0-2.4 0-2.6-.6-2.8-.3-.2-.5-.1-1 0a11.3 11.3 0 0 1-5 .4l-.1 2.2c0 2.2 0 2.6.5 2.6l.2.2c0 .5 2 1 3.3.7ZM57 82l-1.7-.3a9 9 0 0 0-2.2-.4 12 12 0 0 1-2-.3 8.6 8.6 0 0 0-4.5-.1c-1.5.4-4 0-4.7-.8-.1-.1-.3-.2-.4-.1a4 4 0 0 1-1.2-.2c-3.3-.7-5-.8-5.9-.4l-2 .1c-1.6 0-1.7 0-2.4-.4-.7-.5-1-.5-1.9-.6l-2.8-.2a8.5 8.5 0 0 0-2.8 0l-2.7.2c-1.2 0-1.6 0-2.5-.4-.6-.2-1.1-.4-1.4-.3h-1.4c-1-.3-3.7-.4-5.8-.4-1.1 0-2.3-.2-2.7-.5a2 2 0 0 0-.5-.4 3 3 0 0 1-.7-1c-.4-.8-.5-1.1-.5-2.4-.1-1.4 0-2.6.3-2.5 0 0 .1.2 0 .4 0 .2.1.3.2.3v-.6l-.1-1.4-.3-1.9c-.2-1.2-.3-2.1 0-2.3.1 0 .2 0 .4 1.4s.3 1.6.4 1.3v-2.4c.1-.1.1-.2-.2-.4a1 1 0 0 0-.4-.1c-.2 0-.7-.9-.7-1.2l-.2-.3c-.3-.2-.3-.5-.3-2.1 0-1.9 0-2.8.4-2.8H4s.1.2 0 .4l.3 1.6.2 2.2c0 .7.1 1 .3 1l.8.1c.4.2 1.4.3 2.2.4.8 0 1.5.1 1.5.2h.2c.1-.2.2-.4 0-.8-.1-1-.3-2.8-.1-2.8.1 0 .3.6.4 1.5l.3 1c0 .3.2.6.3.8 0 .2.2.3 1.8.2h2.3c.6.2.7 0 .6-.8l-.1-1c0-.2 0-.6-.2-.8l-.2-.9c-.2-.8-.3-.2-.2 1 .2 2-.3 1.7-.5-.3-.1-.7-.2-1-.3-1-.2 0-.2.3-.1 1.5l-.1 1.3c-.2 0-.3-.4-.3-1.1-.2-1.3-.3-1.6-.6-1.7-.5-.1-.6 0-.5 1.1.1 1 0 2-.2 2l-.1-.9c-.1-1.7-.5-2.6-1.1-2.6-.2 0-.1 1.4 0 2.8v.6c-.3 0-.4-.6-.6-2.3-.2-1.7-.3-2-.7-1.9-.2 0-.3 0-.4-.2 0-.2-.2-.2-1.3-.2-1 0-1.5 0-2-.2-.5 0-.9-.2-1-.1-.4.1-.4-.2-.1-.6.2-.3.2-.5.1-1.3l-.2-2c-.1-1-.2-1-.5-1.1-.3 0-.4.3-.1.5v.3l.2 1c.2 2.2.2 2.4 0 2.5-.2.1-.2 0-.3-.6a13 13 0 0 1-.4-2.3 7 7 0 0 0-.3-1.7 2 2 0 0 1-.3-.8 3 3 0 0 0-.3-1c-.2-.5-.3-.8-.3-2.3l.2-2.2c.2-.2.1-.3-.2-.3-.2 0 0-1.1.2-1.3a19.6 19.6 0 0 1-.2-4.7c.1-.3.3-.3.3.1l.2 1.8a46.8 46.8 0 0 1 .5 3.8c.5.5 4 .6 5 .1.6-.2.6-.2.5-.7v-4.4c.2-.2.3.2.4 2 0 2.2 0 2.2 1 2.3 1 0 1.4.3.7.5l-.2.2H12c1.1 0 1.6 0 1.7.2l2 .1c1.3 0 1.7 0 1.9.2.3.4.4.3.3-.2-.1-.3-.2-1.3-.1-2.4v-1.9h-.6l-3.7-.2c-3.2-.1-4-.3-4.5-.9l-.3-.2-.7-.3c-.3-.2-.6-.2-1.1 0h-.7v2l-.1 2c-.2-.3-.5-3-.3-3.6.1-.4.1-.4-.4-.5l-.8-.2c-.4 0-.3.7.1 3.8.2 1-.1.9-.3 0-.3-1.4-.5-2.6-.4-3.2 0-.6 0-.6-.3-.6-.5 0-.5 0-.5.9 0 1 .4 3.3.6 3.5.1.2 0 .5-.2.5-.4 0-1-4-.7-4.6 0-.2 0-.3-.3-.5-.3-.1-.4-.3-.3-.3.2 0 .2-.3 0-.6s-.3-.3-.5-.1c-.2.2-.3.2-.5 0l-.4-.7c-.2-.4-.2-1.9 0-2.4l.2-1c0-.7.7-1.9 1-2.1l1-.3a9 9 0 0 0 2.8-.8c.7-.3 1.3-.3 1.3.1 0 .2.2.4.3.5.2.2.2.2.1 0V32c.1-.3.1-.2.3 0 .3.7-.2 2.8-.8 3v-.3c0-.3-.2-.5-.9-.5l-.7-.1c-.3-.1-.4-.1-.5.2v.4l.8-.2c.8-.2 1 0 .8.3l-.2.4c0 .1.7 0 1.6 0 .2-.1.5-.4.7-.8.2-.4.4-.8.6-.9.2-.1.3-.4.3-.7 0-.5 0-.6-1-1l.1 1.3v.7c-.2.1-.3.4-.3.6l-.1.4c-.3.1-.3-.3-.1-.9.3-.7 0-2.1-.5-2.3-.6-.3 1.5-1.5 2.4-1.4.1 0 .2.1.2.3 0 .3.7.7 1.8 1 .4.2.3.8 0 1-.2 0-.3.1-.3.2 0 .3 0 .3.2 0 .4-.5.2 0-.4 1.1l-.4 1.2.4-.2c.1-.2.3-.4.4-.3h.1l1.1-2.1c.2 0 .9.7.9 1 0 .2.1.2.5.2l.5-.1.2-.1.5-.4c.2-.4.6-.5.7-.2 0 .2.1.2.3 0 .4-.2.4-.4 0-1.3-.2-.6-.3-.7-.8-.7-.4 0-.6.1-1 .5-.4.6-.4.6 0 1 .2.3.4.6.3.7l-.1.2-.8-.8-.7-.9.2-.9.1-1c0-.3.4-.9.7-.9.3 0 2.8-1 3-1.2.1-.2.6-.4 1.2-.5 1-.1 1.1-.1 1.5.1.4.2.8.2 1.5.2h3.4c0-.1 0-.2-.2-.2-.3 0 .1-.2.6-.3l.7.1c.2.1.4.2.5.1l.4.1a17 17 0 0 1 3.2.5c.3.1.5.3.4.4 0 .2.2.2.6.3.7 0 .8.2.2.5-.3.1-.7.2-1.8 0h-1.5c-.1.1.4 1.7.7 2 .2.2 2.7.6 3.5.5l.6.1c.3.1.3 0 .3-.5-.2-1-1.4-3-2-3.2-.3-.2.1-.4.8-.5.5 0 .6 0 .8.3.3.3.4.3 2.1.4 1.4 0 1.9 0 2-.2l.3-.1 1 1c.4.4 4.8.8 4.7.4-.1-.3-1.2-.6-2.9-.6l-1.7-.1c-.3-.3 3.2-.3 3.6 0l.4-.3c.2-.3.5-.4.7 0 0 .1.2.2.4.1l.4.1c0 .2.2.2 1.2.2H49c.3-.1 1 0 1 .3s4 .5 4.5.2l.4-.1.6.1.8.2 1.5.3c3.5.2 3.4.2 3.4 0 0-.1.3-.2.8-.2l.7.1c0 .1.4.2 3.5.4 1 0 1.2.1 1.2.4l-.2.3-1.9-.2-1.8-.3v.4c0 .3.2.3 1.4.3 1.6 0 3.1.3 3.1.6 0 .2-.8.3-2.9 0H64l.3.5.3 1c.2 1 .3 1.2 1.3 1h1.8c1 0 2-.3 1.7-.5l-.2-.5c0-.4-.4-1.3-.8-1.7-.4-.4-.7-1-.6-1.3 0-.3.2-.3.4-.1l.3.1c.2 0 .3.1.3.2a7 7 0 0 0 2.3 0l.3-6a204.6 204.6 0 0 1 .2-10c0-3.1-.2-4.3-.7-5.2l-.6-1c-.4-.5-1.5-1.4-1.8-1.4a5 5 0 0 1-1.7-.6l-1.2-.2-1.4-.1-2.3-.1c-1 0-2.4 0-3-.2a137.4 137.4 0 0 0-13.4-.8l-2.6-.2a49.7 49.7 0 0 0-7.4-.5L29 3.3c-4.3-.2-4.4-.2-6.9-.5-1-.2-2.6-.3-3.5-.2-1.8 0-2.6.2-3.4 1-.5.6-1.1 2-1.2 3l-.3 9.3a992.4 992.4 0 0 1 0 13.1v.3l-.5.8-.4.8-1.8-.7-.6-.3v-3.3a170.5 170.5 0 0 1 .3-11.8 34.3 34.3 0 0 1 1-9.7l.5-.7c.4-.8 2.2-2.5 3-3C17.7.3 20.7 0 26 .3a1109.3 1109.3 0 0 1 17.9 1 237.3 237.3 0 0 0 10.5.5 337.4 337.4 0 0 0 9.6.6c3.2 0 5.5.6 7.4 1.9.9.5 2.8 3 2.7 3.5v.3c.8 1 1 6.4.4 16.8l-.2 6.3c0 3.5-.1 4-.9 5.5-.3.7-.9 1-1 .6 0-.2-.2-.3-.3-.3l-.7-.4-.4-.5-.3.3c-.3.4-.3.4 0 .7l.5.2.7.5c.5.6.5.6.3 1-.4.6-.8 1-1.2 1-.3 0-.4.3 0 .5l.1.3c0 .4.4.2 1-.6s.8-.9 1.4-.5c.3.3.3.3.3 2.2a19.4 19.4 0 0 1 0 2.8c.1-.2.5-2.2.4-2.5l.1-1.3c.2-1.2.2-1.2-.2-1.7-.7-1-.7-1.4.2-2.7l.3-.5V38c.4-.1.5-2.5.2-2.5-.1 0-.2 0-.1-.3v-.6c-.2-.4 0-.5.3-.4l.2.4c0 .2 0 .4.2.5v.2l.1.3c.2.2 0-.8-.2-1.4-.3-.6-.3-.6 0-.7.4-.2.4-.5 0-1.3-.3-.6-.3-1.2 0-1.2.1 0 .2 0 .3.3l.1.3c.2-.4-.2-1-.6-1-.2 0-.4-.1-.3-.2l.3-.1 1.3.2c1.6.2 2 .4 2.1.8 0 .2.2.4.4.4.2.1.2.3.3 1.3 0 2.1 0 2.5-.8 3.5-.3.4-.4.6-.3.9 0 .2 0 .5-.2.7a6 6 0 0 0-.4 2.5c0 .5 0 .6-.3.7-.2 0-.2.2-.2.6a19.9 19.9 0 0 1-.5 4.4c0 .8-.3 1.7-.7 2l-.4.2v-2c.3-2.2.3-2.6.1-2.6-.2 0-.4.8-.4 1.2v1.7c-.2 1.2-.2 1.5 0 1.7.2.3.2.4 0 .8v.5c.2 0 .4-.2.4-.3 0-.2.2-.3.3-.4.1 0 .1.3 0 3.2 0 .3-.2.8-.4 1.1-.4.7-.4 1.2-.2 1.3a67.9 67.9 0 0 0 0 3.7c0 .2-.2.5-.5.8-.4.4-.5.7-.5 1 0 .4 0 .4.1.3.1-.2.2-.2.3-.1.1.1 0 2-.1 2.9-.4 1.8-.4 1.9-.7 2-.2 0-.2 0-.1-.5a41.1 41.1 0 0 0 .3-3l-.5.4-.2.3c.3 0 .1 4-.2 4.5-.2.4-.3.8 0 .7.1-.2.3.8.2 1.4v.8l.2-1.4c.2-1.8.5-2.2.6-.8v1.1l-.1.5-.5 2.7c0 .3-.2.6-.3.7a2 2 0 0 0-.4.7c-.3 1-1.3 1.8-2.3 2l-1 1c-.8.9-1.4 1.2-2.3 1.2-.4 0-.6.1-1.3.7a5 5 0 0 1-1.3 1c-1.1.5-1.4.7-2.1 1.2l-1.1.7-.9.4c-.4.4-.6.4-1.6.5l-2-.1Z"/></svg>