<svg width="177" height="246" viewBox="0 0 177 246" fill="none" xmlns="http://www.w3.org/2000/svg">
<g clip-path="url(#clip0_193_708)">
<path d="M106.925 111.918C107.08 111.863 107.138 111.987 107.147 112.098C107.156 112.158 107.098 112.269 107.049 112.282C106.907 112.32 106.845 112.218 106.818 112.102C106.849 112.038 106.872 111.94 106.925 111.918ZM138.343 109.877C138.587 109.937 138.596 110.215 138.64 110.421C138.662 110.528 138.565 110.63 138.436 110.626C138.174 110.613 138.157 110.429 138.152 110.249C138.183 110.091 138.223 109.847 138.343 109.877ZM54.5865 220.953L54.5155 220.927L54.5865 220.897V220.953ZM104.635 109.218C104.609 109.227 104.582 109.24 104.556 109.24C104.547 109.24 104.538 109.201 104.529 109.18C104.556 109.171 104.582 109.154 104.609 109.158C104.618 109.158 104.627 109.197 104.635 109.218ZM124.46 110.913C124.477 110.883 124.495 110.857 124.513 110.827C124.535 110.848 124.579 110.866 124.579 110.891C124.597 110.977 124.566 111.015 124.495 110.99C124.473 110.981 124.473 110.938 124.46 110.913ZM99.1114 107.922C99.1646 107.96 99.2179 107.994 99.2667 108.033C99.2489 108.05 99.2223 108.088 99.209 108.084C99.1557 108.063 99.1069 108.029 99.0581 107.999C99.0714 107.973 99.0892 107.947 99.1114 107.922ZM116.358 105.183C116.402 105.234 116.469 105.286 116.478 105.337C116.482 105.388 116.416 105.444 116.38 105.5C116.336 105.448 116.26 105.401 116.26 105.35C116.256 105.299 116.318 105.239 116.358 105.183ZM154.201 105.705C154.183 105.769 154.085 105.825 153.97 105.829C153.943 105.829 153.881 105.709 153.89 105.649C153.908 105.525 154.014 105.474 154.134 105.487C154.227 105.5 154.258 105.572 154.201 105.705ZM134.625 110.724C134.563 110.686 134.465 110.664 134.443 110.609C134.385 110.463 134.505 110.403 134.625 110.399C134.691 110.399 134.807 110.446 134.816 110.493C134.851 110.626 134.745 110.686 134.625 110.724ZM129.833 103.446C129.864 103.39 129.886 103.292 129.926 103.283C129.979 103.27 130.095 103.309 130.117 103.356C130.166 103.467 130.108 103.561 129.97 103.566C129.93 103.566 129.882 103.488 129.833 103.446ZM114.463 103.625L114.645 103.544C114.672 103.604 114.734 103.677 114.716 103.715C114.694 103.762 114.596 103.775 114.539 103.805C114.512 103.745 114.485 103.685 114.463 103.625ZM95.726 104.383C95.8369 104.379 95.9434 104.413 95.9567 104.524C95.97 104.635 95.899 104.725 95.7659 104.729C95.655 104.734 95.5574 104.691 95.5396 104.575C95.513 104.443 95.6062 104.396 95.726 104.383ZM134.434 109.398C134.563 109.415 134.634 109.496 134.634 109.612C134.634 109.727 134.558 109.817 134.425 109.821C134.301 109.821 134.225 109.723 134.23 109.608C134.23 109.501 134.305 109.411 134.434 109.398ZM120.085 111.114C120.08 110.981 120.16 110.904 120.28 110.908C120.373 110.913 120.524 110.964 120.546 111.028C120.604 111.195 120.48 111.285 120.316 111.293C120.2 111.293 120.111 111.229 120.085 111.114ZM106.983 105.012C106.916 104.978 106.765 104.948 106.743 104.879C106.699 104.725 106.814 104.61 106.978 104.605C107.067 104.605 107.218 104.665 107.24 104.729C107.298 104.888 107.178 104.973 106.983 105.012ZM110.235 111.52C110.23 111.349 110.332 111.238 110.492 111.246C110.643 111.251 110.754 111.362 110.767 111.525C110.776 111.657 110.67 111.713 110.554 111.726C110.399 111.739 110.261 111.7 110.235 111.52ZM89.9047 106.064C89.6296 106.077 89.4921 105.953 89.4654 105.756C89.4477 105.572 89.6119 105.508 89.7671 105.508C89.9313 105.508 90.0689 105.598 90.0955 105.765C90.1132 105.915 90.0467 106.047 89.9047 106.064ZM103.269 105.555C103.437 105.632 103.624 105.731 103.646 105.928C103.673 106.159 103.46 106.12 103.326 106.09C103.136 106.052 102.967 105.945 103.007 105.714C103.029 105.594 103.136 105.551 103.269 105.555ZM147.962 108.705C148.042 108.388 148.118 108.084 148.49 108.037C148.601 108.024 148.663 108.174 148.654 108.285C148.632 108.598 148.583 108.906 148.166 108.919C148.095 108.923 148.029 108.777 147.962 108.705ZM85.734 110.083C85.481 110.061 85.2636 109.976 85.2148 109.715C85.166 109.441 85.2237 109.15 85.4988 109.047C85.7073 108.966 85.8049 109.218 85.8271 109.398C85.8538 109.625 86.0756 109.894 85.734 110.083ZM105.895 106.561C105.687 106.488 105.385 106.381 105.416 106.013C105.43 105.816 105.629 105.714 105.842 105.726C106.162 105.748 106.304 105.97 106.348 106.236C106.384 106.458 106.219 106.561 105.895 106.561ZM142.168 106.741C142.132 106.903 142.083 107.044 142.061 107.194C142.043 107.331 142.145 107.545 141.959 107.584C141.666 107.643 141.728 107.374 141.671 107.22C141.622 107.079 141.542 106.946 141.515 106.8C141.462 106.527 141.484 106.227 141.861 106.24C142.154 106.248 142.168 106.522 142.168 106.741ZM43.4498 167.422C43.5119 167.242 43.6095 167.05 43.8669 167.011C44.2307 166.955 44.4436 167.152 44.5191 167.469C44.5679 167.691 44.4037 167.803 44.1952 167.828C43.8846 167.863 43.5962 167.811 43.4498 167.422ZM149.409 109.637C149.409 109.531 149.404 109.458 149.409 109.385C149.418 109.154 149.453 108.923 149.741 108.867C149.897 108.842 150.07 108.842 150.172 108.974C150.318 109.154 150.167 109.321 150.096 109.483C150.074 109.556 150.056 109.629 150.017 109.693C149.91 109.869 149.91 110.194 149.582 110.095C149.364 110.031 149.426 109.783 149.409 109.637ZM105.021 110.446C104.933 110.733 105.203 111.246 104.662 111.225C104.174 111.204 104.56 110.733 104.44 110.485C104.382 110.352 104.36 110.198 104.36 110.048C104.36 109.839 104.489 109.68 104.711 109.689C104.871 109.693 104.973 109.843 104.986 110.001C105.008 110.151 105.013 110.301 105.021 110.446ZM121.034 109.804C120.928 109.488 120.999 109.218 121.309 109.158C121.638 109.09 121.793 109.347 121.811 109.637C121.842 110.048 121.82 110.656 121.438 110.69C120.963 110.733 121.256 110.061 121.034 109.804ZM25.6532 133.99C25.6665 133.686 25.8573 133.502 26.1457 133.493C26.4873 133.485 26.8733 133.536 26.9576 133.934C27.0286 134.285 26.7624 134.465 26.4163 134.499C26.0347 134.533 25.7508 134.388 25.6532 133.99ZM95.5751 107.044C95.2157 107.062 94.8918 106.963 94.5768 106.805C94.4304 106.728 94.3283 106.625 94.3638 106.458C94.3949 106.287 94.5458 106.184 94.6922 106.206C95.1492 106.257 95.5973 106.338 96.0499 106.437C96.2007 106.471 96.2939 106.595 96.2717 106.771C96.2495 106.903 96.1431 106.959 96.0366 106.989C95.8857 107.019 95.7348 107.027 95.5751 107.044ZM108.535 110.1C108.527 109.702 108.567 109.317 109.103 109.299C109.396 109.287 109.64 109.394 109.654 109.736C109.667 110.027 109.068 110.81 108.859 110.75C108.531 110.66 108.562 110.352 108.535 110.1ZM26.3764 9.50325C26.0258 9.49469 25.6221 9.52464 25.6398 9.03255C25.6531 8.5105 26.0968 8.62604 26.4163 8.62604C26.7003 8.62177 27.1395 8.50623 27.1662 8.9213C27.2016 9.39627 26.8023 9.51608 26.3764 9.50325ZM108.105 107.541C108.105 107.554 108.11 107.566 108.11 107.579C108.296 107.571 108.487 107.571 108.673 107.549C108.921 107.515 109.148 107.528 109.188 107.823C109.232 108.131 109.068 108.311 108.757 108.371C108.314 108.452 107.928 108.264 107.524 108.161C107.275 108.097 107.08 107.969 107.164 107.695C107.227 107.477 107.462 107.511 107.648 107.507C107.799 107.502 107.95 107.528 108.105 107.541ZM117.161 107.126C117.17 107.404 117.117 107.733 116.615 107.691C116.194 107.652 116.012 107.391 116.021 107.006C116.025 106.604 116.154 106.206 116.633 106.21C117.148 106.214 117.161 106.655 117.161 107.126ZM21.4292 130.926C21.4691 130.75 21.2961 130.275 21.8817 130.237C22.3476 130.215 22.565 130.532 22.5562 130.951C22.5428 131.367 22.4585 131.85 21.9572 131.889C21.4514 131.919 21.3937 131.486 21.4292 130.926ZM39.3545 7.71033C38.933 7.68465 38.4094 7.79591 38.3872 7.29099C38.3606 6.67052 38.9551 6.86307 39.3367 6.81599C39.4876 6.79889 39.6429 6.81172 39.7937 6.82455C40.0289 6.84167 40.2774 6.87163 40.2774 7.17545C40.2729 7.42363 40.1087 7.59052 39.8736 7.65469C39.6917 7.70604 39.4964 7.69748 39.3545 7.71033ZM132.921 107.301C132.983 107.335 133.098 107.37 133.169 107.447C133.516 107.845 133.498 109.141 133.138 109.531C133.076 109.599 132.934 109.659 132.854 109.637C132.766 109.616 132.65 109.505 132.641 109.419C132.566 108.837 132.562 108.255 132.415 107.678C132.357 107.451 132.61 107.305 132.921 107.301ZM28.1733 214.569C28.0979 214.885 28.3819 215.459 27.6808 215.566C27.2504 215.625 27.002 215.176 27.0242 214.453C27.0286 214.342 27.0286 214.226 27.0464 214.119C27.1085 213.708 27.3969 213.542 27.7829 213.563C28.1334 213.589 28.1645 213.88 28.1733 214.153C28.1778 214.265 28.1733 214.376 28.1733 214.569ZM88.791 109.141C88.8753 108.812 88.8088 108.379 89.1948 108.268C89.6562 108.131 89.6473 108.67 89.8781 108.88C89.9579 108.953 90.0156 109.068 90.0378 109.171C90.0999 109.479 90.4682 109.796 90.1265 110.095C89.8648 110.322 89.5409 110.065 89.2436 110.031C88.6757 109.967 89.0262 109.406 88.791 109.141ZM29.0385 109.843C29.3314 109.911 29.5621 109.988 29.4246 110.296C29.3181 110.523 27.5078 111.332 27.2549 111.272C27.0197 111.216 26.8156 111.101 26.7846 110.844C26.7624 110.63 26.8955 110.485 27.0952 110.421C27.7518 110.219 28.4174 110.027 29.0385 109.843ZM23.2838 133.994C23.3104 133.673 23.2128 133.228 23.7985 133.215C24.2954 133.202 24.8767 133.904 24.8944 134.486C24.9077 134.965 24.5661 135.012 24.1934 135.021C23.519 135.029 23.2838 134.773 23.2838 133.994ZM34.9042 8.83144C34.7844 8.83144 34.6735 8.83572 34.5537 8.83144C34.2298 8.8186 33.9103 8.75012 33.9014 8.37357C33.897 8.05264 34.181 7.96707 34.465 7.94568C34.9086 7.91573 35.2769 7.77452 35.5342 7.40224C35.6585 7.21823 35.8493 7.21823 36.0267 7.34233C36.2264 7.47926 36.3551 7.64185 36.2752 7.90288C36.1155 8.45059 35.5653 8.83144 34.9042 8.83144ZM24.5173 8.62177C24.7924 8.64745 24.9432 8.76724 24.7879 9.12241C24.4596 9.88408 23.9494 10.4489 23.1108 10.7099C22.9288 10.7656 22.7514 10.9153 22.6183 10.6928C22.5295 10.5645 22.5695 10.3933 22.6715 10.2735C23.0842 9.78139 23.5012 9.29358 23.9272 8.81004C24.0603 8.66028 24.2511 8.6132 24.5173 8.62177ZM30.1611 9.28929C30.0679 9.28929 29.8372 9.29785 29.602 9.28929C29.4024 9.28073 29.2205 9.22083 29.1672 9.00259C29.1007 8.74585 29.2293 8.53191 29.4645 8.48056C30.0235 8.3479 30.5915 8.25804 31.1594 8.18102C31.4611 8.13823 31.6696 8.28372 31.7406 8.59181C31.8116 8.92986 31.5587 9.0625 31.3236 9.17804C31.0041 9.33208 30.6447 9.27217 30.1611 9.28929ZM36.1332 179.463C36.1199 178.586 36.2353 178.445 36.8343 178.432C37.5131 178.423 37.5264 178.838 37.522 179.313C37.5176 180.054 37.2513 180.473 36.75 180.409C36.1421 180.328 36.1022 179.874 36.1332 179.463ZM35.1793 172.3C35.1083 171.834 35.1882 171.47 35.7872 171.453C36.2796 171.436 36.6391 171.564 36.5814 172.137C36.5503 172.535 36.75 172.852 36.8964 173.199C37.1049 173.691 36.8964 173.909 36.3773 173.819C35.5121 173.669 35.2148 173.288 35.1793 172.3ZM31.4478 213.88C31.8605 213.931 32.0512 214.41 31.8116 214.898C31.4922 215.574 31.1017 216.22 30.7113 216.862C30.6004 217.046 30.414 217.204 30.2276 217.337C30.0413 217.47 29.7928 217.555 29.5798 217.401C29.3225 217.209 29.5177 217.003 29.6331 216.828C30.2055 215.989 30.9243 215.24 31.0529 214.179C31.0795 213.991 31.257 213.875 31.4478 213.88ZM93.8314 107.507C93.8314 107.909 93.8358 108.131 93.827 108.354C93.8181 108.572 93.8802 108.854 93.5741 108.901C93.3034 108.944 93.0061 108.863 92.8996 108.581C92.6112 107.845 92.4116 107.087 92.4648 106.296C92.4826 106.039 92.6201 105.769 92.9529 105.744C93.2014 105.726 93.3788 105.876 93.5208 106.073C93.8891 106.565 93.9113 107.113 93.8314 107.507ZM34.2032 16.752C33.2315 16.7092 32.7035 16.2428 32.6413 15.3656C32.6059 14.8992 32.8854 14.6381 33.3513 14.7622C33.8748 14.9077 34.3496 15.1901 34.7445 15.541C34.9885 15.7464 35.237 16.0759 35.0817 16.4268C34.922 16.7819 34.5759 16.8589 34.2032 16.752ZM51.6448 43.9882C51.7336 44.0481 51.8711 44.0823 51.9155 44.1679C52.0797 44.476 51.9332 44.7926 51.7336 44.9895C50.9882 45.7212 50.0919 46.2176 49.0182 46.3331C48.641 46.3759 48.4813 46.055 48.7164 45.7383C48.8717 45.5244 49.0625 45.3232 49.2844 45.1906C49.941 44.8012 50.6199 44.446 51.2943 44.0866C51.3919 44.0352 51.5162 44.0224 51.6448 43.9882ZM27.9825 230.701C27.601 230.662 27.1573 230.773 27.0952 230.316C27.0286 229.862 27.4856 229.823 27.7962 229.704C28.7457 229.34 29.8327 229.301 30.6314 228.561C30.7379 228.458 30.9287 228.45 31.0441 228.591C31.1683 228.728 31.0707 228.856 30.9952 228.985C30.3031 230.119 29.1938 230.534 27.9825 230.701ZM58.9702 219.887C59.3918 219.887 59.6979 219.883 60.0085 219.887C60.4788 219.892 60.5099 220.093 60.2747 220.435C59.9907 220.867 59.5249 220.94 59.0767 220.991C58.2027 221.098 57.3197 220.842 56.4367 220.991C56.2371 221.03 56.0419 220.91 56.0241 220.696C55.9975 220.397 56.1971 220.106 56.4811 220.17C57.3907 220.362 58.1893 219.695 58.9702 219.887ZM86.8033 107.605H86.821C86.821 107.083 86.8166 106.557 86.821 106.03C86.8254 105.799 86.8698 105.56 87.1627 105.521C87.4289 105.487 87.6152 105.658 87.6596 105.893C87.877 107.036 88.0678 108.178 87.9524 109.347C87.9214 109.697 87.7084 109.907 87.3534 109.903C86.9763 109.894 86.8166 109.62 86.8077 109.291C86.7899 108.726 86.8033 108.17 86.8033 107.605ZM77.9382 109.886C77.916 109.008 78.1778 108.756 79.114 108.867C79.4202 108.906 79.7041 109.12 79.8062 108.64C79.8417 108.469 80.0014 108.397 80.1523 108.414C80.3785 108.435 80.4584 108.611 80.4717 108.807C80.5028 109.192 80.3697 109.65 81.0574 109.655C81.2127 109.655 81.226 109.958 81.0885 110.121C80.8311 110.421 80.5117 110.669 80.1035 110.609C79.642 110.545 79.2028 110.566 78.7369 110.626C78.0846 110.716 77.956 110.562 77.9382 109.886ZM30.6092 182.955C31.572 183.011 32.5171 183.246 33.4932 183.207C33.8083 183.195 33.968 183.426 34.0124 183.717C34.0656 184.02 33.9591 184.204 33.6441 184.316C32.3352 184.773 31.1151 184.483 29.9348 183.935C29.6997 183.819 29.4645 183.485 29.5532 183.169C29.6508 182.831 30.0147 182.993 30.2587 182.959C30.3696 182.942 30.4894 182.955 30.6092 182.955ZM59.9331 216.742C60.0218 216.742 60.1372 216.729 60.2481 216.742C60.4344 216.755 60.6607 216.7 60.7716 216.888C60.887 217.08 60.7184 217.239 60.6119 217.388C60.4832 217.572 60.3723 217.799 60.1105 217.825C59.5781 217.872 59.2098 218.236 58.7573 218.437C58.0207 218.766 57.2531 219.036 56.4589 219.177C56.0907 219.25 55.4562 219.391 55.4074 218.826C55.3541 218.249 55.9531 218.347 56.3613 218.317C57.2842 218.261 57.4883 218.095 57.5859 217.239C57.5992 217.089 57.5637 216.871 57.7323 216.926C58.4911 217.157 59.1699 216.682 59.9331 216.742ZM32.5704 57.0436C33.0141 57.0521 33.4622 57.2019 33.866 57.4116C34.4339 57.6983 35.0551 57.8694 35.6452 57.8951C37.0827 57.9722 38.1521 59.0291 39.5453 59.1703C39.7715 59.1917 40.0954 59.4484 39.9668 59.7437C39.8159 60.0946 39.4121 60.0004 39.1592 59.8806C38.6667 59.6495 38.2009 59.4142 37.664 59.2858C35.907 58.8536 34.1677 58.3658 32.4239 57.8994C32.1311 57.8224 31.9314 57.6427 31.9802 57.3346C32.0291 57.0393 32.3086 57.0693 32.5704 57.0436ZM91.2935 108.692H91.2491C91.2491 108.504 91.2225 108.315 91.2535 108.131C91.3112 107.798 91.0317 107.224 91.5375 107.186C92.03 107.147 91.9679 107.725 91.9723 108.071C91.9856 108.683 92.4293 109.137 92.558 109.723C92.6467 110.151 93.0283 109.334 93.3877 109.556C93.5474 109.65 93.756 109.702 93.8846 109.83C94.1686 110.13 94.4215 110.275 94.7055 109.847C95.1625 110.245 95.5529 109.74 95.9789 109.762C96.2362 109.774 96.4669 109.877 96.5024 110.121C96.5424 110.365 96.3028 110.403 96.1076 110.408C95.6772 110.412 95.4376 110.519 95.6151 111.011C95.7349 111.323 95.6284 111.64 95.2778 111.739C94.9362 111.837 94.7232 111.623 94.5457 111.332C94.0932 110.583 93.0594 110.194 92.2518 110.433C91.6307 110.622 91.3999 110.523 91.3023 109.92C91.2402 109.522 91.2935 109.103 91.2935 108.692ZM39.2302 166.742C39.9623 166.742 40.6989 166.733 41.431 166.737C41.777 166.737 42.2207 166.69 42.3095 167.092C42.4071 167.512 42.03 167.747 41.6661 167.905C41.4931 167.982 41.2979 168.021 41.1115 168.038C39.6429 168.141 38.1875 168.055 36.7411 167.811C36.3506 167.743 36.0756 167.576 36.1155 167.161C36.1465 166.746 36.4882 166.742 36.7988 166.742C37.6107 166.737 38.4227 166.742 39.2302 166.742ZM27.8317 225.519C27.5078 225.48 27.0996 225.579 27.0863 225.138C27.073 224.778 27.3836 224.624 27.7208 224.637C28.2798 224.659 28.7856 224.445 29.3092 224.329C29.6908 224.248 30.0502 224.008 30.0191 223.555C29.9836 223.182 29.6952 222.96 29.3536 222.849C28.8034 222.673 28.2443 222.519 27.6853 222.369C27.4102 222.301 27.1351 222.249 27.1085 221.924C27.0907 221.672 27.2993 221.518 27.4856 221.394C27.7341 221.218 28.0491 220.957 28.3153 221.06C29.2382 221.411 30.2587 221.646 30.7823 222.596C31.1372 223.238 30.9642 223.803 30.5604 224.372C29.8816 225.33 28.8078 225.33 27.8317 225.519ZM26.5538 128.987C26.5538 128.812 26.5494 128.696 26.5583 128.585C26.5938 128.2 26.4341 127.734 27.0064 127.562C27.5522 127.396 27.7296 127.879 28.0535 128.102C28.302 128.277 28.3242 128.542 28.3552 128.803C28.3952 129.253 28.5682 129.663 28.6925 130.096C28.9321 130.887 29.3136 131.61 29.6819 132.346C29.8194 132.625 29.8993 132.941 29.673 133.189C29.3979 133.493 29.0341 133.408 28.7102 133.262C27.7385 132.839 27.1085 132.043 26.8467 131.127C26.6559 130.438 26.4651 129.676 26.5538 128.987ZM39.2214 73.0473C39.1814 73.4024 39.2968 73.9074 38.8309 74.0956C38.2985 74.3181 38.0766 73.826 37.8814 73.4837C37.2469 72.3883 36.6302 71.2843 35.9336 70.2188C35.4987 69.5598 35.1704 68.841 34.8022 68.1435C34.6957 67.9466 34.6469 67.553 34.9353 67.6985C35.6319 68.0365 36.4971 67.9424 37.0606 68.6784C37.5708 69.3459 37.7838 70.1931 38.3562 70.758C39.0306 71.4212 39.1104 72.1915 39.2214 73.0473ZM7.70123 107.678C7.76334 107.481 7.92307 107.37 8.20259 107.434C8.58861 107.524 8.90364 107.729 9.19203 107.99C10.2658 108.974 11.4371 109.822 12.7327 110.51C13.6024 110.977 14.2102 111.713 14.8847 112.376C15.1287 112.62 15.1731 112.924 14.9911 113.198C14.8137 113.472 14.4942 113.403 14.2457 113.317C12.9679 112.855 11.6501 112.342 10.7627 111.358C9.82652 110.322 8.82378 109.329 7.98962 108.2C7.88313 108.05 7.69679 107.956 7.70123 107.678ZM42.3095 53.4363C41.7504 53.2994 41.1159 53.1496 40.4814 52.9785C38.8043 52.5292 37.0606 52.4564 35.3612 52.0842C33.0939 51.5921 30.9775 50.6079 28.6747 50.2356C28.5727 50.2228 28.4662 50.1415 28.3863 50.073C28.2621 49.9703 28.2088 49.8291 28.2399 49.6708C28.2754 49.4996 28.4129 49.4226 28.5727 49.414C28.7634 49.3969 28.9675 49.3841 29.1539 49.4269C31.399 49.9232 33.6086 50.5522 35.9025 50.8689C37.309 51.0615 38.6889 51.4765 40.0555 51.8788C40.903 52.1269 41.7726 52.2639 42.6156 52.5163C42.8996 52.6019 43.2102 52.8116 43.0948 53.1753C42.9972 53.5005 42.6511 53.4021 42.3095 53.4363ZM25.4845 111.114C25.8306 111.165 26.3631 110.934 26.474 111.426C26.5938 111.944 26.2876 112.368 25.7685 112.581C25.449 112.714 25.0985 112.774 24.7746 112.902C23.3149 113.484 21.7753 113.822 20.3199 114.439C19.1175 114.952 17.8574 115.32 16.5618 115.564C16.2513 115.624 15.9096 115.645 15.7188 115.333C15.4969 114.965 15.8608 114.798 16.0516 114.593C16.2512 114.374 16.442 114.148 16.7659 114.041C19.1264 113.219 21.4824 112.38 23.8384 111.546C24.3753 111.358 24.8412 110.938 25.4845 111.114ZM39.3412 121.003C38.8176 120.994 38.3118 121.093 37.9657 120.712C37.5043 120.207 37.0295 119.702 36.75 119.081C35.9424 117.306 35.1394 115.521 34.3762 113.728C34.1854 113.288 34.0346 112.783 34.0701 112.32C34.11 111.841 34.1189 111.469 33.7328 111.105C33.4666 110.857 33.5376 110.549 33.8526 110.344C34.1765 110.134 34.4561 110.249 34.6602 110.515C34.7755 110.664 34.882 110.836 34.9175 111.011C35.1882 112.35 35.9558 113.484 36.5814 114.661C37.5043 116.42 38.6889 118.042 40.0378 119.544C40.335 119.882 40.6767 120.301 40.4548 120.754C40.2285 121.208 39.6828 120.921 39.3412 121.003ZM28.6392 90.3775C28.5017 91.8238 27.7208 92.7694 26.1856 92.8165C24.4995 92.8721 22.8756 93.0347 21.3715 93.8307C21.1142 93.9719 20.8479 94.0061 20.6349 93.7536C20.4442 93.5311 20.422 93.2444 20.5551 93.0133C20.8036 92.5812 21.1496 92.2688 21.7131 92.1747C23.0487 91.9521 24.362 91.6355 25.7064 91.4943C26.5228 91.4087 26.7491 91.1477 26.7935 90.3176C26.8289 89.6072 26.789 88.9097 26.5361 88.2165C26.0613 86.9414 26.0214 85.6705 26.789 84.4552C27.002 84.1215 27.1528 83.7321 27.6587 83.9674C28.0491 84.1471 28.2221 84.4296 28.018 84.8831C27.5211 85.9871 27.6675 87.104 28.1512 88.1566C28.4928 88.9055 28.3109 89.7228 28.6392 90.3775ZM32.6059 107.823C32.6103 108.221 32.6369 108.525 32.2908 108.696C31.9891 108.842 31.7628 108.683 31.5321 108.555C31.2215 108.375 31.0396 108.08 30.8577 107.793C30.5516 107.314 30.2986 106.8 29.957 106.355C28.4795 104.451 27.459 102.346 26.789 100.07C26.5893 99.3891 26.3808 98.7045 26.2743 98.0027C26.1945 97.4422 26.6781 97.164 27.175 97.4636C27.5699 97.6946 27.9116 97.9984 28.089 98.4478C28.5017 99.4961 28.9321 100.536 29.3757 101.571C29.8061 102.573 30.2676 103.583 31.0352 104.374C32.0291 105.388 31.9758 106.783 32.6059 107.823ZM64.157 164.388C64.1482 163.823 63.984 163.365 64.5519 163.288C65.142 163.203 65.3816 163.609 65.4704 164.084C65.5325 164.379 65.5103 164.692 65.5769 164.979C66.2069 167.734 65.781 170.297 64.126 172.655C63.2652 173.879 61.9474 174.392 60.5853 174.79C59.9686 174.974 59.3563 174.701 58.8593 174.32C58.5931 174.127 58.4866 173.832 58.6153 173.515C58.7262 173.25 58.988 173.28 59.2143 173.271C59.5648 173.263 59.9153 173.25 60.2614 173.271C60.9225 173.318 61.3529 173.092 61.6502 172.493C62.0007 171.787 62.4399 171.115 62.6707 170.357C62.7905 169.985 62.9236 169.604 63.3761 169.557C64.2547 169.459 64.4011 168.907 64.3922 168.201C64.3878 166.857 64.4809 165.509 64.157 164.388ZM72.1746 181.487C72.2678 179.741 72.5917 178.201 72.9067 176.66C73.2439 175.013 73.8518 173.443 74.2955 171.825C74.8457 169.81 75.6354 167.858 76.0969 165.813C76.3143 164.837 76.7269 163.9 77.0819 162.955C77.215 162.617 77.4901 162.377 77.9027 162.522C78.2754 162.659 78.2355 163.01 78.1645 163.297C77.8584 164.525 77.53 165.757 77.2017 166.981C76.7447 168.667 75.9682 170.267 75.7641 172.03C75.6887 172.638 75.5822 173.301 75.1296 173.815C74.9433 174.029 74.8723 174.277 74.8945 174.542C74.9433 175.21 74.6549 175.783 74.4419 176.382C74.189 177.084 73.7542 177.747 73.7409 178.509C73.7142 179.686 73.1419 180.738 72.9999 181.889C72.9777 182.091 72.8535 182.236 72.6183 182.223C72.3876 182.21 72.2722 182.065 72.2367 181.864C72.1968 181.68 72.1746 181.496 72.1746 181.487ZM13.944 71.0147C15.7011 70.8992 17.4669 71.1687 19.1175 71.5838C21.9438 72.2941 24.7702 73.0473 27.4989 74.117C28.4706 74.4979 29.327 75.1098 30.3164 75.4179C31.0307 75.6361 31.3058 76.1153 31.1727 76.5518C31.0574 76.9369 30.4451 77.0311 29.7396 76.6845C27.6675 75.6618 25.5023 74.8488 23.3282 74.0657C21.8817 73.5394 20.4042 72.9574 18.8735 72.8504C16.6728 72.6964 14.5297 72.1529 12.3201 72.1187C11.9785 72.1101 11.6812 71.9946 11.6501 71.6266C11.6235 71.1987 11.9208 71.0318 12.3157 71.019C12.857 71.0019 13.4027 71.0147 13.944 71.0147ZM26.9931 211.09C27.1972 209.72 27.4146 208.364 27.6098 206.995C27.8228 205.446 28.3508 203.944 28.6525 202.403C29.0075 200.619 29.5665 198.864 29.7751 197.05C29.8327 196.549 30.0058 196.31 30.5782 196.365C31.1949 196.434 31.0973 196.952 31.0618 197.208C30.9864 197.846 31.0618 198.484 30.9509 199.108C30.2099 203.182 29.3136 207.23 28.8611 211.351C28.7856 212.074 28.373 212.331 27.6631 212.215C26.9399 212.108 27.033 211.578 26.9931 211.09ZM90.7566 140.481C90.7522 140.648 90.7965 140.943 90.4327 141.016C90.1443 141.071 89.8825 141.003 89.7183 140.751C89.5542 140.498 89.4566 140.216 89.3767 139.92C88.6357 137.246 87.7838 134.614 86.3684 132.175C86.1067 131.717 85.907 131.225 85.8848 130.69C85.8715 130.378 85.7561 130.126 85.6097 129.852C84.8333 128.41 83.7462 127.113 83.4001 125.47C83.3779 125.367 83.3114 125.265 83.2448 125.17C82.6236 124.28 82.5305 123.211 82.2288 122.218C82.0868 121.752 82.4373 121.538 82.912 121.747C83.2936 121.914 83.4578 122.252 83.6308 122.599C84.9575 125.333 86.4172 128.016 87.593 130.819C88.3473 132.607 89.2125 134.383 89.7272 136.262C90.0999 137.631 90.6102 138.966 90.7566 140.481ZM13.0344 113.81C13.3983 113.848 13.9618 113.668 14.0239 114.139C14.0816 114.593 13.5136 114.597 13.1543 114.7C13.1187 114.708 13.0788 114.712 13.0433 114.725C12.8259 114.798 12.5686 114.867 12.5819 115.145C12.5996 115.401 12.8259 115.525 13.0611 115.573C13.7932 115.714 14.3034 116.159 14.7604 116.685C14.9068 116.852 15.0976 116.997 15.2973 117.109C16.6683 117.875 18.0482 118.624 19.4237 119.385C21.0742 120.292 22.7558 121.152 24.3664 122.124C25.2449 122.654 26.1235 123.005 27.1617 123.057C27.9471 123.095 28.6614 123.45 29.358 123.775C29.9881 124.066 29.9259 124.747 29.2915 125.072C28.7812 125.333 28.2576 125.286 27.703 125.2C26.2166 124.957 24.7968 124.456 23.377 124.015C22.3521 123.694 21.265 123.313 20.7059 122.321C20.3554 121.696 19.8895 121.182 19.2728 120.896C17.7021 120.155 16.34 119.094 14.8181 118.273C13.3007 117.455 12.116 116.291 11.0911 114.961C10.7538 114.528 10.8825 114.178 11.4371 114.053C11.9607 113.929 12.4709 113.707 13.0344 113.81ZM17.8352 29.5677C17.2274 29.5249 16.7437 29.6533 16.3577 29.2811C16.0294 28.9601 16.0471 28.5579 16.4598 28.5108C17.2762 28.421 18.026 28.0102 18.8247 28.0016C21.4913 27.976 24.0115 27.2271 26.5538 26.6024C28.6037 26.0932 30.5959 25.3015 32.7789 25.5069C33.1782 25.5412 33.5554 25.477 33.8438 25.1774C34.0079 25.0106 34.181 24.8779 34.4339 24.8394C35.4987 24.6768 36.5547 24.4671 37.6285 24.3259C38.7999 24.1676 39.8692 24.9164 41.0272 24.4671C41.2801 24.3687 41.5907 24.7067 41.6395 25.0277C41.6794 25.2887 41.4354 25.3786 41.218 25.4855C39.9535 26.1017 38.6002 26.3199 37.1981 26.4098C36.1998 26.4697 35.1749 26.4997 34.1987 26.7008C31.9004 27.1843 29.5532 27.3983 27.2504 27.9246C25.3425 28.3568 23.4302 28.8189 21.4558 29.0072C20.1913 29.127 18.9445 29.3923 17.8352 29.5677ZM68.8203 93.2273C68.7937 93.544 68.878 93.8435 68.5097 93.9333C68.1459 94.0232 67.9151 93.8478 67.7687 93.5439C67.7155 93.4413 67.6667 93.3386 67.6312 93.2316C66.7882 91.0193 65.3107 89.1023 64.441 86.8986C64.0284 85.8417 63.283 84.9516 62.7771 83.9375C62.0184 82.4141 61.3928 80.8608 60.288 79.4616C59.09 77.9382 58.216 76.141 57.1112 74.5235C56.1705 73.1371 55.505 71.6223 54.693 70.1846C54.0985 69.1362 53.3664 68.1862 52.7541 67.1593C52.4923 66.7314 52.55 66.2222 52.1639 65.8371C51.6315 65.2979 51.2588 64.6346 50.895 63.9714C50.6731 63.5734 50.1762 62.9786 50.5223 62.7561C50.9305 62.4951 51.3387 63.1498 51.7025 63.4664C51.88 63.6205 51.9066 63.8858 52.0486 64.0398C52.5056 64.5362 52.3503 65.315 52.8473 65.7472C54.0275 66.7742 54.7596 68.1221 55.4473 69.4229C56.5432 71.4982 57.9542 73.3639 59.2276 75.3194C59.6668 75.9913 59.9464 76.7187 60.3723 77.3734C62.0096 79.8681 63.5048 82.4441 64.867 85.0843C65.1243 85.5849 65.3683 86.0984 65.6745 86.5691C66.9346 88.5161 67.7598 90.6599 68.7227 92.7395C68.7937 92.9064 68.7981 93.1032 68.8203 93.2273ZM31.0396 137.858C29.5621 138.106 28.0846 137.593 26.5672 137.64C26.1323 137.657 25.6842 137.379 25.2361 137.272C24.7613 137.156 24.5794 136.835 24.6548 136.437C24.7258 136.061 25.1207 136.099 25.4268 136.108C26.7003 136.138 27.987 136.086 29.2426 136.24C31.0662 136.459 32.8765 136.27 34.6779 136.18C35.8892 136.125 37.0428 135.509 38.1831 135.051C38.5203 134.918 38.7244 134.644 38.7289 134.259C38.7377 132.826 39.2968 131.491 39.5408 130.104C39.8869 128.157 40.6013 126.27 40.3084 124.25C40.2774 124.037 40.3262 123.801 40.375 123.587C40.4238 123.373 40.6722 123.215 40.8009 123.356C41.2934 123.891 42.0788 124.161 42.2252 125.038C42.3361 125.71 42.1054 126.373 42.3317 127.032C42.5358 127.618 42.3849 128.187 42.1719 128.778C41.9412 129.428 41.3422 129.95 41.4798 130.742C41.5197 131.016 41.3689 131.324 41.3112 131.619C41.1115 132.706 40.6101 133.703 40.4504 134.824C40.2285 136.343 39.5896 136.912 38.4404 136.976C37.5575 137.032 36.6524 136.899 35.938 137.593C35.8448 137.674 35.6407 137.674 35.4854 137.661C34.0079 137.558 32.5659 138.093 31.0396 137.858ZM60.7362 204.072C60.8781 202.467 60.8382 200.914 61.242 199.429C61.9519 196.785 62.0628 194.038 62.7638 191.397C63.2342 189.622 63.2563 187.765 63.8731 186.006C64.2857 184.842 64.6717 183.64 64.8093 182.429C64.9868 180.828 66.0339 179.626 66.5663 178.197C66.6373 178.013 66.8414 177.914 67.0455 177.931C67.3295 177.957 67.4005 178.179 67.4049 178.423C67.4138 178.719 67.4626 179.027 67.4049 179.313C67.2008 180.34 67.2496 181.402 66.8725 182.399C66.4421 183.524 66.3445 184.726 66.0694 185.882C65.6301 187.722 65.5547 189.63 64.9823 191.47C64.685 192.412 64.4632 193.417 64.3833 194.423C64.2236 196.477 63.74 198.488 63.2741 200.473C62.786 202.562 62.4399 204.637 62.2758 206.764C62.1915 207.898 61.8143 208.95 61.344 209.981C61.1488 210.409 60.7761 210.491 60.3856 210.456C59.8843 210.418 59.9774 209.994 59.9464 209.673C59.8931 209.1 59.9331 208.539 60.2836 208.056C60.5232 207.731 60.5809 207.371 60.6341 206.999C60.7894 205.998 61.0201 205.005 60.7362 204.072ZM34.2653 216.165C34.4827 214.316 34.7445 212.468 35.0196 210.619C35.45 207.705 36.3107 204.868 37.0295 202.014C37.6862 199.408 38.2985 196.785 39.1504 194.213C40.162 191.132 41.2712 188.077 42.3272 185.013C42.5846 184.269 43.0194 184.196 43.6494 184.688C44.031 184.983 44.1952 185.407 44.0177 185.788C43.4853 186.926 43.472 188.197 43.0016 189.335C42.6911 190.08 42.5491 190.833 42.4071 191.616C42.2296 192.596 42.0965 193.627 41.6705 194.517C41.2402 195.42 40.6811 196.25 40.5879 197.264C40.5658 197.487 40.4282 197.688 40.3528 197.902C39.9357 199.066 39.4964 200.234 39.4077 201.466C39.3234 202.669 38.4271 203.755 38.9108 205.026C38.9463 205.12 38.9196 205.253 38.8886 205.36C38.1387 207.47 37.9746 209.755 36.6834 211.693C36.3418 212.207 36.2087 212.836 36.923 213.259C37.238 213.443 37.2735 213.713 37.2957 214.017C37.3534 214.8 37.0517 215.412 36.3995 215.865C36.0534 216.1 35.6762 216.302 35.5209 216.725C35.379 217.127 35.3523 217.735 34.6824 217.555C34.0922 217.388 34.3052 216.819 34.2653 216.396C34.2564 216.314 34.2653 216.242 34.2653 216.165ZM141.16 39.722C141.396 39.722 141.626 39.7006 141.857 39.7262C143.694 39.9487 145.495 40.4408 147.368 40.3852C147.732 40.3724 148.157 40.4494 148.277 40.7789C148.588 41.6133 149.032 42.4349 148.881 43.3677C148.801 43.8684 148.486 44.2064 147.936 44.1807C146.498 44.1208 145.078 44.3048 143.65 44.4161C141.444 44.5915 139.226 44.2535 137.016 44.6129C136.302 44.7327 135.53 44.8825 134.838 44.8012C133.897 44.6985 133.014 44.7541 132.087 44.8354C129.154 45.0879 126.221 45.3618 123.271 45.3233C122.885 45.319 122.499 45.4088 122.121 45.4345C120.533 45.5543 118.945 45.6827 117.365 45.6356C116.158 45.6014 114.978 45.4987 113.78 45.7298C112.875 45.9009 111.956 46.0806 111.007 45.9694C108.997 45.7383 106.987 45.657 104.973 45.9822C104.711 46.025 104.427 45.9779 104.161 45.9309C103.202 45.7597 102.989 45.3831 103.353 44.5059C103.424 44.3348 103.544 44.1807 103.637 44.0138C103.921 43.479 104.103 42.9698 103.921 42.3065C103.69 41.4421 104.041 41.1597 105.035 41.0442C106.463 40.8816 107.897 40.8559 109.321 40.7275C112.063 40.4794 114.814 40.5521 117.565 40.2312C120.706 39.8589 123.918 40.1199 127.104 39.983C129.607 39.8846 132.131 39.7562 134.651 39.9017C136.817 40.03 139 40.0728 141.16 39.722ZM145.376 45.5586C147.283 45.5586 149.187 45.5586 151.095 45.5543C151.574 45.5543 152.129 45.5286 152.151 46.1491C152.173 46.9792 152.484 47.7623 152.444 48.601C152.395 49.4611 152.475 50.3169 152.559 51.1813C152.772 53.2224 153.109 55.2549 153.14 57.3217C153.18 60.0132 153.642 62.6877 153.606 65.3878C153.606 65.499 153.619 65.6145 153.646 65.7215C153.965 67.155 153.89 68.6227 154.019 70.069C154.147 71.4811 154.32 72.8975 154.356 74.3224C154.427 76.7872 154.644 79.2476 154.755 81.7124C154.808 82.949 154.729 84.1899 154.791 85.4266C154.822 86.1369 154.84 86.8387 154.813 87.5533C154.729 89.5002 154.635 91.4601 154.853 93.3985C155.021 94.9218 155.274 96.4323 155.243 97.9728C155.23 98.5847 155.061 98.9313 154.458 99.2993C153.659 99.7914 152.972 100.185 152.009 99.847C151.756 99.7571 151.476 99.8983 151.228 100.018C150.917 100.172 150.58 100.232 150.234 100.296C148.61 100.592 146.982 100.57 145.353 100.412C144.972 100.373 144.71 100.438 144.461 100.767C143.911 101.49 143.423 101.627 142.607 101.203C142.003 100.887 141.422 100.84 140.819 101.041C140.242 101.233 139.661 101.221 139.084 101.144C137.726 100.972 136.377 100.335 135.02 101.186C134.851 101.298 134.563 101.216 134.332 101.255C133.906 101.319 133.511 101.4 133.338 101.892C133.134 102.466 132.814 102.359 132.531 101.931C132.38 101.7 132.238 101.447 131.936 101.443C130.853 101.435 129.771 100.938 128.706 101.229C127.535 101.554 126.35 101.661 125.152 101.773C123.683 101.918 122.219 102.222 120.742 102.064C119.743 101.957 118.749 101.845 117.738 101.85C115.985 101.858 114.233 101.888 112.515 102.201C110.306 102.598 108.105 102.992 105.847 102.984C104.107 102.979 102.377 102.962 100.642 103.001C99.9943 103.014 99.3687 103.262 98.7076 103.005C98.5035 102.924 98.2684 103.078 98.0509 103.159C97.1103 103.501 96.1652 103.715 95.1359 103.488C94.5413 103.36 93.8846 103.304 93.3078 103.613C92.6734 103.951 92.0566 103.946 91.4044 103.685C90.9784 103.514 90.5347 103.3 90.1931 103.865C90.0733 104.07 89.816 104.07 89.5675 104.058C88.0012 103.989 86.4439 103.942 84.8776 103.891C84.7623 103.886 84.6469 103.895 84.5271 103.908C84.15 103.959 83.9148 104.216 84.0523 104.528C84.3408 105.217 84.2121 105.936 84.3408 106.638C84.5537 107.806 84.607 109.004 84.3496 110.189C84.3097 110.369 84.3452 110.583 84.0701 110.6C83.7906 110.613 83.5953 110.459 83.582 110.219C83.5421 109.543 83.267 108.914 83.2936 108.221C83.3469 107.023 83.3069 105.825 83.3203 104.622C83.3247 104.25 83.3069 103.908 82.8189 103.908C82.4195 103.908 81.8827 103.685 81.6608 104.152C81.4922 104.498 81.4434 104.995 81.967 105.196C82.3486 105.341 82.3441 105.594 82.3752 105.906C82.4329 106.544 82.4373 107.117 81.6342 107.318C81.3103 108.392 80.5472 107.802 79.9304 107.733C79.6287 107.699 79.5976 107.468 79.5799 107.233C79.5488 106.826 79.7574 106.604 80.1434 106.501C80.3386 106.45 80.5871 106.381 80.6403 106.612C80.7069 106.912 80.6315 107.241 81.1151 106.92C81.4612 106.689 81.4479 106.462 81.2038 106.171C81.0397 105.97 80.8711 105.756 80.7513 105.525C80.099 104.284 79.8816 104.173 78.5239 104.34C78.1113 104.391 77.814 104.601 77.5078 104.841C76.7669 105.414 76.6826 105.363 76.443 104.438C76.1812 103.429 76.2877 102.419 76.4164 101.417C76.6205 99.7657 76.6293 98.1268 76.2389 96.5008C76.1324 96.06 76.0614 95.615 76.0747 95.1614C76.1191 93.8521 75.8795 92.5512 75.7641 91.2589C75.5911 89.359 75.4802 87.442 75.4225 85.5464C75.316 82.0247 75.1074 78.5116 74.9033 74.9942C74.8812 74.6048 74.8457 74.2711 74.4641 74.0272C73.8119 73.6035 73.1862 73.1585 73.2173 72.2642C73.2217 72.1187 73.0354 71.9261 72.889 71.8234C71.7487 71.0233 71.3627 69.6882 70.4841 68.704C70.2534 68.4516 69.9473 67.968 70.28 67.7113C70.6882 67.416 71.1807 67.7156 71.5357 68.0108C71.7043 68.1477 71.7753 68.3916 71.8596 68.597C71.9528 68.8538 72.077 69.0891 72.2767 69.2688C73.0221 69.9278 73.5279 70.6852 73.3992 71.7165C73.3815 71.8577 73.4392 72.0246 73.5146 72.1529C73.7409 72.5338 74.1535 72.8076 74.5528 72.7648C74.961 72.7178 74.8723 72.23 74.8945 71.9048C74.9921 70.4927 74.9122 69.0635 74.8102 67.6685C74.6371 65.3792 74.7347 63.0984 74.6638 60.8134C74.6549 60.4026 74.6815 59.9747 74.5706 59.5896C74.1358 58.1048 74.3887 56.6413 74.5484 55.1565C74.7081 53.6375 74.9477 52.1013 74.2511 50.625C74.1624 50.4324 74.1979 50.1201 73.8784 50.1415C73.5323 50.1714 73.4924 50.4838 73.5013 50.7448C73.5634 53.5176 73.3016 56.2948 73.6654 59.059C73.7497 59.6966 73.7808 60.3342 73.6477 60.9632C73.4746 61.7206 73.3726 61.7762 72.6538 61.4296C71.722 60.9803 70.7415 60.7107 69.7254 60.8862C68.4431 61.1044 67.2052 61.0359 65.923 60.8947C63.9574 60.6765 62.1027 60.1716 60.4034 59.2516C58.4822 58.2075 56.4323 57.6555 54.2582 57.4801C53.4462 57.4116 52.6343 57.3474 51.8267 57.2704C50.8062 57.1762 50.4513 56.3974 50.0742 55.6572C49.7369 55.0067 50.2782 54.6687 50.6421 54.3307C51.0991 53.9199 51.3165 53.4192 51.4629 52.8758C51.5916 52.3666 51.6626 51.8445 51.7913 51.3353C52.0752 50.2741 52.5012 49.3199 53.393 48.5454C54.3691 47.6896 54.6043 46.4914 54.4312 45.2719C54.2671 44.1037 54.5643 43.5817 55.6115 43.0211C56.5654 42.5033 57.5904 42.5333 58.562 42.6018C61.4816 42.8072 64.3745 42.3236 67.2851 42.3964C67.365 42.3964 67.4448 42.3878 67.5158 42.3793C69.5879 42.0669 71.6333 41.8829 73.7586 42.1439C75.986 42.4178 78.2533 42.0155 80.4984 41.8273C81.8073 41.716 83.1206 41.6946 84.4339 41.7074C84.6558 41.7117 84.9353 41.7331 85.0196 41.9856C85.1217 42.2894 84.9131 42.4777 84.6646 42.6189C83.551 43.2479 83.267 44.2535 83.2981 45.4045C83.3025 45.6313 83.3025 45.8581 83.2981 46.0806C83.2803 47.2531 83.196 47.3387 81.9448 47.3472C80.9687 47.3558 80.0014 47.3173 79.0297 47.343C77.6764 47.3772 76.3054 47.5312 75.2494 46.4272C75.2051 46.3759 75.1074 46.3673 75.0409 46.3245C74.4197 45.948 74.3487 45.7255 74.819 45.1863C75.2228 44.7199 75.3825 44.2193 75.2361 43.6373C75.1873 43.4319 75.1562 43.1538 74.8856 43.0981C74.544 43.0297 74.3532 43.342 74.3265 43.5517C74.2467 44.2064 73.9228 44.8098 74.0781 45.5201C74.2689 46.3802 74.504 47.2402 74.2289 48.1688C73.9982 48.9476 74.4197 49.2857 75.2761 49.1316C75.7686 49.046 76.2344 48.7978 76.7225 48.7294C79.3359 48.3785 81.9803 48.4127 84.607 48.31C86.9719 48.2159 89.3456 48.1688 91.6972 47.9763C94.2041 47.7666 96.711 47.5526 99.2223 47.343C99.7636 47.2959 100.278 47.1205 100.833 47.1247C103.792 47.1418 106.747 47.1376 109.707 47.1247C110.266 47.1205 110.812 47.1804 111.273 47.4671C111.921 47.8693 112.604 47.8821 113.301 47.7366C115.572 47.2488 117.902 47.2146 120.2 46.9193C122.468 46.6326 124.766 46.7482 127.033 46.4743C130.183 46.0935 133.374 46.393 136.537 45.8538C138.374 45.5372 140.309 45.4302 142.225 45.5458C143.268 45.6057 144.324 45.5543 145.376 45.5586ZM136.55 111.349C136.821 111.144 137.136 110.977 136.967 110.536C136.706 109.864 137.025 109.424 137.695 109.278C138.356 109.137 138.445 108.717 138.423 108.191C138.405 107.742 138.338 107.293 138.347 106.848C138.352 106.497 138.463 106.146 138.92 106.129C139.368 106.116 139.315 106.492 139.403 106.766C139.749 107.84 139.501 108.923 139.452 109.997C139.434 110.348 139.452 110.605 139.878 110.63C140.286 110.652 140.255 110.348 140.286 110.087C140.309 109.869 140.326 109.637 140.402 109.428C140.468 109.244 140.637 109.115 140.85 109.154C141.005 109.184 141.152 109.299 141.165 109.458C141.209 109.967 141.254 110.386 142.008 110.318C142.221 110.301 142.465 110.789 142.727 111.007C142.895 111.144 143.122 111.298 143.361 111.204C143.627 111.097 143.565 110.823 143.556 110.613C143.516 109.676 143.61 108.747 143.823 107.827C143.849 107.729 143.871 107.609 144.031 107.622C144.178 107.631 144.204 107.742 144.226 107.849C144.32 108.29 144.044 108.897 144.386 109.141C144.679 109.347 145.109 108.735 145.628 108.833C146.174 108.931 146.396 108.611 146.374 108.097C146.369 107.952 146.396 107.793 146.449 107.656C146.542 107.442 146.516 107.057 146.924 107.164C147.257 107.25 147.257 107.498 147.137 107.798C146.951 108.247 147.403 108.632 147.341 109.085C147.328 109.158 147.465 109.261 147.541 109.334C147.718 109.505 148.157 109.043 148.162 109.518C148.162 109.847 147.665 109.599 147.505 109.843C147.465 109.907 147.399 109.958 147.363 110.023C147.044 110.613 146.831 110.386 146.618 109.941C146.538 109.77 146.392 109.608 146.165 109.693C145.93 109.783 145.966 109.993 146.037 110.168C146.192 110.528 146.085 110.759 145.691 110.827C145.322 110.887 145.229 110.647 145.202 110.352C145.18 110.121 145.127 109.86 144.852 109.843C144.488 109.822 144.466 110.134 144.408 110.395C144.337 110.754 144.138 111.118 144.528 111.43C144.834 111.683 145.096 111.529 145.371 111.379C145.469 111.323 145.597 111.302 145.708 111.302C146.525 111.302 147.359 111.525 148.122 111.443C148.863 111.366 149.568 110.968 150.372 111.187C150.793 111.302 150.926 111.045 150.971 110.712C151.068 109.958 151.112 109.21 150.766 108.504C150.664 108.302 150.482 108.136 150.549 107.892C150.629 107.562 150.678 107.143 151.104 107.139C151.516 107.13 151.445 107.536 151.507 107.823C151.676 108.593 151.481 109.385 151.72 110.151C151.956 110.904 152.248 111.178 153.047 111.084C153.655 111.011 154.254 110.844 154.857 110.707C155.004 110.673 155.226 110.639 155.274 110.54C155.745 109.608 156.699 108.94 156.867 107.845C157.094 106.415 157.315 104.982 157.524 103.548C157.551 103.373 157.515 103.176 157.457 103.001C157.098 101.948 157.071 100.865 157.111 99.7743C157.169 98.0926 156.876 96.4323 156.69 94.7678C156.632 94.2415 156.636 93.728 156.756 93.2016C156.96 92.3159 156.947 91.4344 156.699 90.5358C156.348 89.2735 156.202 87.9812 156.157 86.659C156.06 83.9632 156.242 81.2716 156.184 78.5758C156.162 77.6772 156.224 76.7743 155.878 75.91C155.811 75.7388 155.727 75.5206 155.78 75.3665C156.038 74.6177 155.762 73.8902 155.754 73.1542C155.74 71.464 155.585 69.7866 155.381 68.1178C155.146 66.2222 155.368 64.3137 155.07 62.4138C154.906 61.3868 154.924 60.3385 154.587 59.3243C154.476 58.9863 154.516 58.5669 154.596 58.2075C154.769 57.4544 154.72 56.7355 154.556 55.991C154.187 54.2922 154.693 52.5762 154.52 50.8689C154.458 50.2741 154.502 49.675 154.387 49.076C154.263 48.4213 154.138 47.758 154.285 47.0734C154.418 46.4315 154.232 45.7897 154.019 45.1949C153.775 44.4888 153.282 43.9625 152.399 43.9796C151.734 43.9924 151.246 43.8042 151.277 43.0297C151.29 42.6232 151.095 42.3194 150.713 42.1182C150.407 41.9556 150.278 41.6732 150.376 41.3523C150.496 40.95 150.873 41.0613 151.166 41.057C152.324 41.0442 153.486 40.98 154.604 41.4678C155.123 41.6946 155.718 41.7802 156.317 41.7331C156.543 41.716 156.801 41.7117 157.005 41.7887C158.837 42.5076 160.816 42.8457 162.573 43.7571C162.777 43.8641 163.012 43.9539 163.168 44.108C164.206 45.1478 165.453 45.8881 166.788 46.5214C167.458 46.838 167.915 47.4285 168.479 47.8821C170.222 49.2771 171.984 50.6935 172.565 52.9913C172.738 53.6845 173.284 54.1467 174.029 54.3093C174.988 54.5147 175.999 53.83 176.226 52.756C176.763 50.2228 177.171 47.6553 176.922 45.0665C176.82 43.9411 176.754 42.8499 176.936 41.7331C177.144 40.4665 176.7 39.2085 176.851 37.929C177.184 35.1177 176.714 32.3235 176.447 29.5378C176.314 28.1043 176.004 26.6623 175.738 25.2288C175.6 24.4799 175.502 23.7439 175.866 23.0293C176.022 22.7213 175.995 22.3789 175.729 22.2078C174.757 21.6044 174.726 20.5732 174.42 19.6746C174.265 19.2124 174.211 18.7161 174.052 18.2582C173.821 17.5992 173.359 17.1884 172.592 17.1713C171.869 17.1585 171.323 17.4366 170.972 18.0656C170.52 18.8573 170.249 19.7216 169.974 20.5732C169.788 21.1637 169.521 21.6986 169.162 22.1821C167.849 23.9322 166.58 25.7209 164.929 27.2057C164.818 27.3084 164.694 27.4111 164.556 27.471C162.72 28.2712 161.14 29.4779 159.458 30.5091C156.632 32.2379 153.482 32.8969 150.318 33.5687C149.04 33.8425 147.834 34.3774 146.485 34.3945C144.311 34.4202 142.221 35.0706 140.047 35.2418C137.975 35.4044 135.88 35.5199 133.822 35.8195C133.538 35.858 133.285 35.7981 133.019 35.7296C132.371 35.5627 131.696 35.5798 131.049 35.6783C129.669 35.8922 128.289 36.042 126.896 36.0976C124.047 36.2131 121.163 36.1661 118.368 36.6025C115.311 37.0818 112.24 36.9406 109.188 37.1288C107.329 37.2401 105.421 37.4498 103.535 37.2444C103.384 37.2316 103.216 37.2316 103.074 37.2743C101.618 37.6937 100.305 37.2529 99.0537 36.6111C98.3393 36.2516 97.554 36.2559 96.813 36.0462C95.4908 35.674 94.0621 35.7681 92.7532 35.2846C91.2491 35.8922 89.7183 35.4943 88.1876 35.4258C87.1316 35.3787 86.4749 35.9992 86.3108 37.0176C86.049 38.6051 85.8848 38.772 84.2653 38.7849C81.8916 38.802 79.54 38.9261 77.2106 39.4053C76.5051 39.5508 75.7375 39.4823 75.001 39.4566C73.519 39.4096 72.0681 39.7177 70.6039 39.7861C69.6145 39.8289 68.6162 39.8974 67.6223 39.9231C65.1731 39.9787 62.7239 39.9958 60.2836 40.1798C59.1699 40.2611 58.0474 40.3638 56.9337 40.5136C56.3081 40.5992 55.6026 40.6206 55.2521 40.0258C54.8794 39.3967 54.977 38.6394 55.0435 37.9376C55.079 37.561 55.5094 37.5995 55.7845 37.5011C56.7651 37.1374 56.8183 36.9748 56.4634 35.9992C55.8333 34.2405 54.7019 32.9696 52.8517 32.3406C52.6387 32.2678 52.4346 32.1438 52.2394 32.0197C51.5383 31.5661 51.5916 30.7402 52.3459 30.3423C53.393 29.7903 53.5217 29.2511 52.8206 28.3097C52.6165 28.0358 52.3725 27.7919 52.1373 27.5437C51.667 27.026 51.5872 26.3799 51.6315 25.7551C51.6803 25.156 52.0663 24.7067 52.7186 24.5827C53.2155 24.4885 53.7169 24.4029 54.2183 24.3944C55.3098 24.3772 56.3879 24.3387 57.4706 24.1761C59.729 23.8424 62.0451 23.8937 64.2946 23.4658C65.6212 23.2133 66.8991 22.7812 67.9151 21.8098C68.3455 21.3905 68.2257 21.0909 67.7687 20.8385C67.5424 20.7101 67.2673 20.5903 67.01 20.5732C65.3905 20.4619 63.7755 20.2266 62.1338 20.3507C60.8204 20.4448 59.4938 20.3507 58.1716 20.3164C57.0757 20.2865 55.9842 20.3635 54.9237 20.6074C54.1384 20.7871 53.4019 20.7016 52.6298 20.5689C51.9776 20.4534 51.7291 20.1068 51.7957 19.5633C52.0486 17.6121 51.139 15.909 50.5622 14.1417C50.1274 12.8238 49.4885 11.57 49.0581 10.2478C48.8451 9.60165 48.5212 9.09674 48.0287 8.66455C47.3011 8.03125 46.7287 7.29099 46.1386 6.54642C45.4642 5.69489 44.5856 4.95032 43.5829 4.45824C42.4825 3.92336 41.3245 3.49118 40.1842 3.04187C38.8353 2.51128 37.3623 2.58401 35.978 2.27592C34.7312 2.00633 33.4089 2.36577 32.2332 1.71964C31.9226 1.54848 31.6297 1.80093 31.3457 1.89508C30.2676 2.25452 30.0014 2.13043 29.6553 1.07779C29.3713 0.209137 29.2071 0.149231 28.2576 0.0379791C26.3675 -0.188812 25.103 0.594238 24.0337 2.04912C22.9644 3.49973 21.6776 4.78773 20.0448 5.71201C18.8912 6.3667 17.9462 7.23108 17.3339 8.41209C16.8236 9.37917 16.2956 10.3419 15.5458 11.1721C15.1819 11.5786 15.0133 12.1263 14.9645 12.6227C14.8314 14.0947 14.1659 15.434 13.9307 16.8718C13.8198 17.5393 13.6956 18.1983 13.6822 18.8787C13.66 19.9655 13.6068 21.0524 13.5003 22.135C13.4116 23.0892 13.5669 24.0178 13.8508 24.9079C14.0771 25.6053 14.2103 26.2857 14.1614 27.0046C14.1038 27.7748 14.3567 28.4852 14.614 29.1912C14.8447 29.8074 14.9778 30.4364 14.8048 31.0654C14.4365 32.4262 14.8935 33.7484 14.9202 35.0877C14.9512 36.7737 15.9761 38.1002 16.4642 39.615C16.7881 40.612 17.3383 41.5491 17.6267 42.5547C17.8929 43.4833 18.4963 44.1379 19.1752 44.7413C20.28 45.7255 20.9544 47.0605 22.1346 47.9977C22.8312 48.5539 22.7159 49.0417 21.9394 49.5424C21.5667 49.782 21.4425 50.0473 21.3804 50.441C21.2251 51.3482 21.2783 52.3152 20.5773 53.0897C20.3332 53.3593 20.5418 53.7402 20.5684 54.0739C20.6527 55.0881 20.3554 55.8069 19.3083 56.3504C17.9772 57.0393 16.5441 57.3303 15.1287 57.6812C13.5846 58.0663 12.1249 58.6055 10.6562 59.2045C9.25861 59.7693 7.93639 60.4497 6.62305 61.1472C6.0773 61.4339 5.52711 61.7334 5.40288 62.4181C5.31413 62.9016 4.81721 63.107 4.51993 63.4151C3.65916 64.3094 3.02467 65.3963 1.91544 66.0895C1.12566 66.5816 0.624283 67.4075 0.211655 68.1991C-0.516006 69.6069 0.735199 71.4298 2.38132 71.4512C3.58372 71.4726 4.79059 71.4469 5.99744 71.464C6.8804 71.4726 7.10223 71.7593 6.90701 72.5723C6.88927 72.645 6.87152 72.7221 6.84045 72.7862C5.89983 74.746 5.63805 76.8556 5.22542 78.9481C4.85715 80.8095 4.7551 82.7351 3.96974 84.5152C3.92538 84.6136 3.89432 84.7334 3.9032 84.8403C4.07181 87.0013 2.8605 88.8969 2.65196 90.9765C2.62979 91.122 2.55435 91.2718 2.47005 91.3916C1.33862 92.9107 1.7202 94.4982 2.22601 96.0943C2.28371 96.2697 2.3192 96.4965 2.44786 96.5992C3.19327 97.1683 2.93149 97.7973 2.56323 98.4007C2.3325 98.7944 2.39906 99.0768 2.50554 99.5175C2.91374 101.203 3.67247 102.757 4.2404 104.383C4.37352 104.759 4.40013 105.209 4.34689 105.607C4.04517 107.896 4.07181 110.232 3.28645 112.453C3.21103 112.659 3.21103 112.894 3.19328 113.116C3.04686 115.851 2.95367 118.585 3.17996 121.332C3.33525 123.185 3.53937 125.029 3.26427 126.929C2.98918 128.803 3.18884 130.746 3.21103 132.663C3.22878 134.798 3.11786 136.921 2.82945 139.043C2.55437 141.054 2.7274 143.095 2.74957 145.119C2.75401 145.962 2.66971 146.767 2.41237 147.563C1.80006 149.467 1.88882 151.393 2.27483 153.322C2.38576 153.874 2.47006 154.435 2.61205 154.978C3.02467 156.545 4.06737 157.683 5.4162 158.547C7.31078 159.771 9.37396 160.605 11.6945 160.699C11.8853 160.708 12.0849 160.755 12.2668 160.811C14.2102 161.474 16.2823 161.555 18.2612 162.086C18.9534 162.27 19.6499 162.3 20.3377 162.154C22.6405 161.675 23.1285 162.313 24.1401 164.337C24.3886 164.837 24.5616 165.364 24.961 165.787C25.0408 165.869 25.103 165.971 25.1473 166.07C25.8972 167.67 26.8467 169.163 27.7651 170.674C27.8938 170.892 27.8849 171.183 27.9781 171.427C28.1911 172.009 28.3552 172.591 28.6925 173.164C29.2604 174.136 29.4645 175.261 28.6969 176.327C28.1245 177.127 27.5788 177.936 27.6187 178.992C27.6276 179.348 27.3436 179.669 27.1129 179.981C26.474 180.837 26.0747 181.778 26.0569 182.882C26.0436 184.234 26.1412 185.578 26.119 186.93C26.0924 188.372 25.6576 189.737 25.5378 191.154C25.4269 192.527 25.1562 193.884 25.0985 195.27C25.0275 196.875 24.7791 198.475 24.5971 200.075C24.3753 202.052 23.9449 204.004 24.0115 206.028C24.0381 207.063 23.8473 208.171 23.4524 209.203C23.235 209.755 23.1507 210.362 23.0486 210.948C22.707 212.938 22.4097 214.945 22.5961 216.969C22.7691 218.86 22.1346 220.508 21.1763 222.078C20.5728 223.075 20.3066 224.055 20.8612 225.155C21.0565 225.553 21.0964 226.024 21.2384 226.447C21.4647 227.136 21.1629 227.628 20.7503 228.176C19.8674 229.374 19.0155 230.606 19.2062 232.215C19.3882 233.769 18.8912 235.219 18.3721 236.649C18.0526 237.526 18.1547 238.283 18.696 238.976C19.2063 239.64 19.4325 240.376 19.539 241.159C19.6766 242.173 20.2134 242.708 21.3049 242.896C22.2589 243.054 23.235 243.024 24.1801 243.29C24.6948 243.435 25.1695 243.23 25.4535 242.725C25.5644 242.528 25.6975 242.344 25.8173 242.151C26.5228 240.966 26.9487 240.846 28.2843 241.368C28.8921 241.608 29.5133 241.835 30.1478 241.984C31.683 242.344 32.9697 243.221 34.3762 243.82C35.836 244.441 37.3712 244.599 38.9063 244.642C40.8142 244.697 42.7088 244.667 44.5546 245.224C44.9184 245.335 45.3266 245.335 45.7126 245.339C47.4608 245.344 49.1823 245.558 50.9127 245.763C51.5117 245.84 52.2704 245.994 52.5855 245.318C52.8961 244.655 52.8561 243.902 52.3192 243.307C51.6005 242.507 50.7308 241.873 49.768 241.368C49.4308 241.189 49.0936 240.97 48.7298 240.872C47.2611 240.461 46.0765 239.486 44.6655 238.963C44.2218 238.805 43.8402 238.544 43.5163 238.21C42.4603 237.115 41.2535 236.152 40.335 234.941C39.6162 233.978 38.5203 233.426 37.6906 232.571C37.3978 232.267 37.0872 231.984 36.9186 231.599C36.2042 229.965 35.7029 228.292 35.8892 226.481C35.9336 226.118 36.0445 225.844 36.3418 225.617C37.948 224.419 38.1299 222.776 37.6729 221.051C37.4377 220.187 37.6196 219.558 38.2985 219.074C39.3234 218.338 39.7804 217.311 40.1931 216.199C40.974 214.085 41.5774 211.933 41.9989 209.716C42.1098 209.177 42.3317 208.642 42.5668 208.129C42.9306 207.333 43.2235 206.528 43.1436 205.634C43.0993 205.116 43.5563 204.757 43.6628 204.282C44.0754 202.493 44.6478 200.747 45.2556 199.014C45.3 198.869 45.3444 198.723 45.3976 198.586C46.7997 195.035 48.1618 191.47 49.453 187.88C49.9721 186.442 50.5888 185.026 50.8728 183.511C50.9127 183.301 51.0813 183.117 51.1878 182.921C52.124 181.2 53.038 179.476 53.4595 177.546C53.4906 177.439 53.495 177.324 53.5394 177.221C53.6548 176.926 53.921 176.866 54.205 176.887C54.5111 176.909 54.5377 177.14 54.5643 177.371C54.7374 178.971 54.8572 180.554 54.6487 182.18C54.4224 183.995 54.6353 185.856 54.551 187.692C54.4934 189.108 54.2804 190.507 54.0497 191.907C53.6903 194.085 53.0824 196.216 52.9005 198.428C52.8118 199.532 52.5056 200.619 52.3814 201.731C52.2216 203.049 52.1063 204.354 52.2749 205.651C52.4213 206.785 52.2971 207.902 52.3059 209.019C52.3148 209.827 52.0308 210.576 51.6138 211.261C50.509 213.075 50.509 215.052 50.7086 217.038C50.7574 217.5 50.7619 217.906 50.651 218.356C50.3315 219.665 49.7769 220.906 49.5018 222.228C49.3775 222.819 49.2223 223.392 49.2444 223.995C49.2888 225.232 49.1513 226.469 49.0891 227.697C48.9915 229.524 49.8168 231.022 50.5489 232.579C50.7619 233.024 51.1435 233.2 51.5872 233.148C52.4834 233.041 53.3752 233.204 54.2671 233.2C55.2299 233.191 55.5893 233.046 55.7002 232.138C55.8067 231.342 56.2637 231.377 56.8272 231.381C57.7146 231.385 58.5044 231.796 59.2365 232.138C60.3324 232.648 61.4771 232.981 62.5908 233.396C64.3123 234.043 66.0694 234.607 67.9506 234.813C69.4015 234.967 70.8169 235.403 72.2989 235.515C72.8712 235.557 73.448 235.656 74.0293 235.66C75.5911 235.664 77.144 235.622 78.7014 235.673C79.9393 235.711 80.9554 235.211 81.9359 234.599C82.4417 234.282 82.5305 233.692 82.1711 233.225C82.0158 233.016 81.7939 232.832 81.5677 232.703C80.3919 232.04 79.2294 231.364 78.271 230.41C77.7563 229.9 76.9976 229.849 76.3809 229.627C75.2317 229.207 74.3265 228.309 73.0354 228.176C72.0016 228.073 71.2162 227.354 70.4087 226.807C69.7387 226.349 69.0466 225.938 68.3766 225.493C67.3916 224.817 66.7305 223.918 66.3312 222.84C66.1581 222.382 66.0516 221.869 66.2335 221.402C66.7305 220.127 66.3755 218.895 66.1004 217.654C66.0694 217.508 66.0561 217.359 66.0073 217.213C65.5148 215.604 66.0694 214.171 66.8725 212.827C67.5247 211.723 67.8353 210.606 67.9418 209.331C68.0749 207.602 67.9551 205.801 68.7582 204.175C69.6012 202.489 70.1159 200.709 70.5773 198.89C70.879 197.705 71.3183 196.537 71.7975 195.407C72.2678 194.29 72.4187 193.096 72.8047 191.962C73.2484 190.644 73.8873 189.412 74.2822 188.073C74.6061 186.973 74.9255 185.848 75.3382 184.756C75.8218 183.464 76.0703 182.099 76.6027 180.807C76.9976 179.848 77.1573 178.783 77.4635 177.786C78.0846 175.817 78.728 173.862 79.3581 171.902C79.4424 171.654 79.5222 171.406 79.5799 171.149C79.8106 170.092 79.9393 169.009 80.6048 168.085C80.6891 167.97 80.7557 167.794 80.7291 167.662C80.5117 166.433 81.0441 165.317 81.2615 164.157C81.4257 163.271 81.9714 162.497 82.1622 161.611C82.2909 160.99 82.5172 160.383 82.5882 159.754C82.7346 158.56 82.3131 158.145 81.1062 157.833C79.8417 157.507 78.6215 157.871 77.4147 158.004C76.2211 158.136 74.9832 157.987 73.8429 158.402C72.2989 158.975 70.6882 158.654 69.1353 158.898C68.0083 159.078 66.8547 159.219 65.7277 159.476C64.37 159.788 63.0167 159.955 61.5925 159.848C60.1771 159.741 58.7661 160.105 57.404 160.537C55.7712 161.05 54.0674 161.183 52.3681 161.32C52.1373 161.337 51.8977 161.307 51.6714 161.35C51.1479 161.457 50.9482 161.906 51.3254 162.257C52.1906 163.057 52.6431 164.2 53.6769 164.863C53.7968 164.94 53.9165 165.06 53.9787 165.193C54.1295 165.479 54.4756 165.77 54.2227 166.113C53.9742 166.438 53.6548 166.13 53.3752 166.065C52.7763 165.933 52.1817 165.693 51.5738 165.646C50.8062 165.586 50.469 165.184 50.3271 164.538C50.1806 163.866 49.8035 163.293 49.5018 162.689C49.0403 161.791 48.5745 161.513 47.6338 161.842C45.8058 162.488 43.9955 162.261 42.1409 162.047C41.0361 161.923 39.9002 161.863 38.7821 162.137C38.4449 162.219 38.0855 162.214 37.7394 162.219C36.1465 162.227 34.5492 162.227 32.9519 162.219C31.6297 162.214 30.3297 162.403 29.0341 162.621C27.8583 162.822 26.7225 162.518 25.5644 162.424C25.4136 162.415 25.2583 162.373 25.2139 162.189C25.1651 161.97 25.2804 161.838 25.4491 161.718C25.7197 161.53 26.0392 161.56 26.3497 161.555C27.6276 161.542 28.8966 161.483 30.1744 161.363C32.2598 161.162 34.3629 161.14 36.4571 161.123C37.9746 161.102 39.4654 160.926 40.9606 160.708C41.6839 160.601 42.4337 160.652 43.1747 160.648C43.645 160.648 44.1242 160.635 44.528 160.379C45.3 159.878 46.1918 159.818 47.0703 159.767C47.8823 159.715 48.7031 159.75 49.5195 159.754C50.2428 159.758 50.9793 159.878 51.5694 159.292C51.7868 159.078 52.1373 159.078 52.4612 159.078C53.2643 159.073 54.0852 159.232 54.8749 158.889C55.1722 158.757 55.4828 158.949 55.7623 159.078C56.4412 159.386 57.1023 159.386 57.7678 159.014C58.5443 158.581 59.3429 158.38 60.1727 158.919C60.3723 159.048 60.501 158.941 60.6785 158.825C61.2109 158.479 61.77 158.427 62.4355 158.569C63.5536 158.808 64.6717 158.504 65.7854 158.355C67.3871 158.136 68.9889 157.892 70.5995 157.743C71.5313 157.653 72.4364 157.49 73.3327 157.238C74.4375 156.925 75.5511 156.758 76.7181 156.664C78.1601 156.536 79.6553 156.493 81.0796 156.074C81.3369 155.997 81.5943 155.924 81.8738 155.967C84.1588 156.313 86.4261 156.284 88.6579 155.599C89.2081 155.428 89.8026 155.398 90.3794 155.325C92.2341 155.085 93.9734 154.444 95.6816 153.75C96.3649 153.472 97.1059 153.468 97.7803 153.126C98.8851 152.565 99.6172 151.649 100.416 150.793C100.616 150.58 100.584 150.301 100.584 150.04C100.593 149.668 100.562 149.287 100.598 148.915C100.673 148.162 100.975 147.597 101.809 147.31C102.554 147.049 103.309 146.865 104.072 146.835C105.643 146.78 107.16 146.356 108.598 145.903C110.071 145.44 111.242 144.336 111.482 142.655C111.526 142.338 111.428 142.06 111.331 141.778C111.127 141.17 110.958 140.549 110.696 139.967C110.009 138.457 109.6 136.869 109.112 135.29C108.66 133.84 107.803 132.501 107.262 131.067C106.49 129.034 105.576 127.049 104.711 125.051C103.211 121.606 101.601 118.208 99.7015 114.948C99.0848 113.887 98.8851 112.774 98.8807 111.606C98.8762 111.088 98.7564 110.814 98.1707 110.857C97.9844 110.87 97.7758 110.827 97.6117 110.746C97.4386 110.66 97.3277 110.485 97.3721 110.275C97.412 110.044 97.6117 109.95 97.8025 110.014C98.2506 110.177 98.5346 110.095 98.9117 109.766C99.2534 109.471 99.7858 109.877 99.8169 110.378C99.8745 111.118 99.7947 111.875 100.021 112.599C100.074 112.757 100.114 113.005 100.363 112.988C100.598 112.971 100.642 112.748 100.673 112.569C100.744 112.081 100.731 111.555 100.531 111.131C100.159 110.352 100.327 109.531 100.154 108.743C100.119 108.602 100.141 108.444 100.172 108.298C100.216 108.08 100.296 107.81 100.54 107.772C100.899 107.72 100.979 108.05 101.006 108.294C101.095 109.145 101.565 109.924 101.454 110.814C101.419 111.097 101.512 111.409 101.596 111.691C101.916 112.761 103.149 113.095 104.032 112.342C104.236 112.171 104.382 111.901 104.658 111.875C105.257 111.828 105.496 111.525 105.634 110.977C105.727 110.596 106.069 110.528 106.561 110.626C107.666 110.844 108.429 111.199 108.314 112.483C108.278 112.979 108.704 113.112 109.134 112.885C109.525 112.68 109.955 112.594 110.359 112.543C111.175 112.432 111.801 112.231 111.774 111.272C111.77 111.011 111.979 110.87 112.254 110.925C112.564 110.981 112.697 111.187 112.702 111.49C112.702 111.73 112.294 112.162 112.884 112.154C113.274 112.145 113.358 111.721 113.301 111.362C113.248 110.99 113.163 110.626 113.114 110.254C113.03 109.612 113.248 109.295 113.749 109.312C114.312 109.334 114.508 109.655 114.41 110.142C114.277 110.836 114.485 111.482 114.658 112.132C114.698 112.282 114.823 112.393 115 112.376C115.253 112.355 115.275 112.158 115.289 111.965C115.289 111.927 115.28 111.893 115.28 111.854C115.306 111.495 114.654 111.281 115.027 110.857C115.262 110.596 115.608 110.498 115.945 110.403C116.278 110.318 116.393 110.13 116.203 109.821C116.14 109.727 116.038 109.616 116.052 109.526C116.092 109.244 115.714 108.752 116.274 108.722C116.655 108.7 117.152 108.893 117.143 109.445C117.139 109.702 117.059 109.958 117.019 110.215C116.908 110.883 116.824 111.555 117.059 112.213C117.165 112.509 117.378 112.791 117.738 112.718C118.159 112.633 117.897 112.299 117.893 112.068C117.889 111.58 117.871 111.092 117.875 110.605C117.88 110.339 117.911 110.061 118.266 110.005C118.612 109.954 118.878 110.07 119.016 110.395C119.082 110.57 119.126 110.754 119.171 110.938C119.308 111.465 119.464 111.961 120.147 112.042C120.413 112.072 120.484 112.333 120.653 112.483C120.95 112.753 121.252 112.723 121.367 112.342C121.607 111.546 122.445 111.55 122.978 111.157C123.191 110.998 123.492 111.118 123.657 111.396C124.029 112.021 124.779 112.017 125.347 112.32C125.627 112.47 125.831 112.273 125.76 112.008C125.653 111.606 125.573 111.212 125.573 110.797C125.573 110.438 125.316 110.391 125.019 110.378C124.806 110.369 124.606 110.284 124.704 110.04C124.788 109.813 125.01 109.86 125.196 109.933C125.857 110.198 126.55 110.322 126.634 111.285C126.691 111.97 127.437 112.149 127.952 111.743C128.187 111.559 128.182 111.46 127.836 111.512C127.734 111.525 127.614 111.46 127.517 111.409C127.379 111.341 127.228 111.255 127.251 111.08C127.286 110.84 127.508 110.771 127.685 110.827C128.218 110.977 128.608 111.003 128.582 110.288C128.573 110.074 128.79 109.988 129.008 109.997C129.331 110.014 129.518 110.194 129.522 110.493C129.527 111.024 129.686 111.362 130.325 111.328C130.756 111.302 131.093 111.221 131.182 110.75C131.208 110.6 131.248 110.455 131.319 110.322C131.457 110.065 131.701 109.941 131.994 110.005C132.273 110.07 132.344 110.301 132.335 110.532C132.3 111.075 132.499 111.473 133.005 111.739C133.689 112.098 134.425 112.522 135.184 112.385C135.725 112.291 136.209 111.798 136.577 111.323C135.752 110.887 135.508 110.112 135.41 109.312C135.326 108.683 135.361 108.037 135.401 107.404C135.423 107.04 135.153 106.48 135.814 106.411C136.466 106.338 136.284 106.98 136.466 107.301C136.55 107.447 136.497 107.665 136.506 107.849C136.542 108.636 136.439 109.419 136.302 110.185C136.227 110.635 136.311 110.994 136.55 111.349Z" fill="#214784"/>
<path d="M86.0584 68.9578L85.9927 68.0305L86.9266 67.8031C87.15 67.7514 87.2935 67.6695 87.3573 67.5575C87.4202 67.4336 87.4395 67.1992 87.4151 66.8544L86.8055 58.2405C86.7845 57.9432 86.7282 57.7381 86.6365 57.6251C86.5568 57.5113 86.3972 57.4509 86.1577 57.4439L85.2381 57.3656L85.1724 56.4382L90.3087 56.0748L90.3743 57.0022L89.4392 57.2117C89.2277 57.2625 89.0905 57.3499 89.0276 57.4738C88.9647 57.5978 88.945 57.8262 88.9685 58.1591L89.2159 61.6546L94.8158 61.2583L94.5634 57.6915C94.5424 57.3943 94.4865 57.1951 94.3957 57.094C94.3159 56.9801 94.1559 56.9138 93.9156 56.895L93.0138 56.8154L92.9481 55.888L98.0666 55.5258L98.1322 56.4532L97.2149 56.6615C96.9907 56.7012 96.8475 56.789 96.7855 56.9249C96.7225 57.0488 96.7028 57.2772 96.7264 57.6101L97.3359 66.2241C97.3578 66.5332 97.4082 66.7387 97.4871 66.8407C97.5779 66.9418 97.7435 67.0018 97.9838 67.0206L98.8869 67.118L98.9525 68.0454L93.8341 68.4076L93.7684 67.4802L94.6845 67.2541C94.9078 67.2024 95.0514 67.1206 95.1152 67.0085C95.1781 66.8846 95.1974 66.6502 95.173 66.3054L94.9042 62.5067L89.3042 62.903L89.5781 66.773C89.6 67.0822 89.6503 67.2877 89.7293 67.3896C89.8201 67.4908 89.9797 67.5512 90.2081 67.5708L91.129 67.667L91.1946 68.5944L86.0584 68.9578ZM104.3 67.9179C103.527 67.9726 102.888 67.7968 102.381 67.3906C101.886 66.9835 101.613 66.4173 101.562 65.692C101.515 65.0262 101.643 64.4794 101.947 64.0516C102.264 63.623 102.789 63.2811 103.524 63.026C104.259 62.7708 105.248 62.5694 106.492 62.4216L106.401 61.1375C106.369 60.6738 106.276 60.298 106.124 60.01C105.984 59.7093 105.777 59.4969 105.506 59.3727C105.246 59.2477 104.902 59.2003 104.474 59.2306C104.165 59.2525 103.859 59.3219 103.557 59.4389C103.254 59.5559 103.031 59.6912 102.887 59.8448C103.019 60.0267 103.126 60.1864 103.207 60.324C103.3 60.4489 103.361 60.5581 103.392 60.6515C103.433 60.7322 103.457 60.8082 103.462 60.8796C103.478 61.1173 103.392 61.3266 103.201 61.5074C103.022 61.6754 102.772 61.7708 102.451 61.7935C102.106 61.8179 101.833 61.7536 101.631 61.6006C101.428 61.4357 101.315 61.1987 101.294 60.8896C101.263 60.4616 101.396 60.0578 101.692 59.6784C101.988 59.299 102.401 58.983 102.933 58.7303C103.464 58.4657 104.062 58.3098 104.728 58.2627C105.513 58.2072 106.169 58.2802 106.697 58.4818C107.237 58.6826 107.649 59.0179 107.934 59.4877C108.229 59.9448 108.403 60.5419 108.455 61.279L108.75 65.4522C108.769 65.7257 108.849 65.9232 108.989 66.0447C109.129 66.1662 109.324 66.2182 109.574 66.2005C109.704 66.1912 109.828 66.1705 109.946 66.1383C110.074 66.0934 110.214 66.0476 110.366 66.001L110.596 66.7196C110.385 66.9496 110.119 67.1477 109.796 67.3139C109.473 67.4802 109.157 67.5742 108.848 67.5961C108.313 67.634 107.887 67.5267 107.57 67.2743C107.254 67.0218 107.042 66.6485 106.936 66.1542C106.758 66.5132 106.546 66.815 106.301 67.0594C106.055 67.3038 105.764 67.4977 105.428 67.641C105.104 67.7953 104.728 67.8876 104.3 67.9179ZM105.046 66.5567C105.379 66.5331 105.665 66.4412 105.905 66.2809C106.156 66.1078 106.349 65.885 106.485 65.6125C106.621 65.34 106.677 65.0373 106.654 64.7044L106.559 63.3668C105.87 63.4275 105.298 63.5337 104.843 63.6854C104.4 63.8363 104.08 64.05 103.885 64.3268C103.688 64.5916 103.604 64.9202 103.632 65.3125C103.661 65.7287 103.797 66.0476 104.04 66.2694C104.295 66.4904 104.63 66.5861 105.046 66.5567ZM112.375 67.0956L112.31 66.1682L113.137 65.9484C113.336 65.8984 113.468 65.8233 113.533 65.7232C113.597 65.6111 113.621 65.4421 113.605 65.2162L113.218 59.759C113.199 59.4855 113.156 59.2974 113.089 59.1946C113.022 59.0918 112.898 59.0289 112.717 59.0058L111.832 58.9071L111.91 57.9875L116.351 57.6733L116.415 58.5828L115.658 58.7797C115.471 58.8289 115.351 58.915 115.3 59.0381C115.26 59.1485 115.251 59.3523 115.272 59.6495L115.705 65.7666L119.236 65.5168L118.798 59.3283C118.779 59.0667 118.737 58.8905 118.671 58.7996C118.616 58.6959 118.492 58.633 118.299 58.6108L117.466 58.4905L117.528 57.59L121.951 57.277L122.015 58.1865L121.258 58.3835C121.071 58.4326 120.951 58.5187 120.9 58.6418C120.848 58.753 120.833 58.9573 120.854 59.2545L121.287 65.3716L124.818 65.1217L124.38 58.9333C124.362 58.6717 124.319 58.4955 124.253 58.4046C124.186 58.3018 124.056 58.2393 123.863 58.2171L123.03 58.0968L123.11 57.195L127.551 56.8807L127.615 57.7903L126.84 57.9885C126.641 58.0384 126.515 58.125 126.464 58.2481C126.413 58.3593 126.397 58.5635 126.418 58.8608L126.794 64.1753C126.814 64.4607 126.864 64.6603 126.944 64.7741C127.023 64.8761 127.171 64.9433 127.389 64.9757L128.185 65.0807L128.248 65.9724L112.375 67.0956ZM130.772 65.7938L130.708 64.8842L131.5 64.6847C131.688 64.6356 131.808 64.5554 131.859 64.4442C131.91 64.3211 131.925 64.105 131.903 63.7959L131.526 58.4635C131.507 58.19 131.463 58.0019 131.396 57.8991C131.329 57.7963 131.205 57.7334 131.024 57.7103L130.121 57.6129L130.2 56.6933L134.658 56.3778L134.723 57.2873L133.966 57.4843C133.778 57.5334 133.659 57.6195 133.608 57.7426C133.556 57.8538 133.54 58.058 133.561 58.3553L133.824 62.0648L137.571 58.2866L137.551 58.0012C137.533 57.7397 137.49 57.5634 137.424 57.4725C137.357 57.3697 137.233 57.3068 137.052 57.2838L136.202 57.1647L136.281 56.2629L140.74 55.9474L140.804 56.857L140.012 57.0564C139.812 57.1064 139.687 57.1929 139.636 57.316C139.584 57.4273 139.568 57.6315 139.589 57.9287L139.971 63.3146C139.989 63.5762 140.032 63.7584 140.099 63.8612C140.165 63.9521 140.294 64.0087 140.487 64.0309L141.374 64.1474L141.437 65.0391L136.836 65.3647L136.771 64.4551L137.528 64.2582C137.716 64.2091 137.836 64.1289 137.887 64.0177C137.939 63.9065 137.955 63.7022 137.934 63.405L137.667 59.642L133.921 63.438L133.941 63.7234C133.961 63.9968 134.004 64.1849 134.071 64.2877C134.137 64.3787 134.261 64.4356 134.441 64.4587L135.292 64.5777L135.355 65.4694L130.772 65.7938ZM87.295 91.1763C86.4151 91.2385 85.6408 91.1021 84.9718 90.7671C84.3029 90.4321 83.7656 89.9324 83.3602 89.268C82.9657 88.591 82.7349 87.7768 82.6675 86.8257C82.5977 85.8389 82.721 84.9638 83.0374 84.2006C83.3657 83.4365 83.8544 82.8284 84.5035 82.3762C85.1518 81.9121 85.9336 81.6477 86.8491 81.5829C87.4911 81.5375 88.0694 81.6041 88.5839 81.7828C89.0976 81.9495 89.5038 82.2016 89.8025 82.5389C90.113 82.8754 90.2839 83.2636 90.315 83.7035C90.3327 83.9532 90.3007 84.1765 90.219 84.3735C90.1374 84.5705 90.0052 84.7292 89.8226 84.8496C89.6399 84.9701 89.4178 85.0396 89.1562 85.0581C88.7996 85.0833 88.5143 85.0199 88.3004 84.8677C88.0865 84.7156 87.9698 84.5028 87.9505 84.2293C87.9404 84.0867 87.9647 83.9236 88.0234 83.7402C88.094 83.556 88.2131 83.2967 88.3806 82.9622C88.1557 82.8228 87.9222 82.7317 87.6802 82.6891C87.4501 82.6457 87.1626 82.6361 86.8178 82.6605C86.3779 82.6917 85.9957 82.8621 85.6711 83.1718C85.3575 83.4689 85.1178 83.8801 84.9518 84.4057C84.7969 84.9185 84.7443 85.5256 84.7939 86.2271C84.8722 87.3328 85.171 88.178 85.6903 88.7626C86.2215 89.3464 86.9151 89.608 87.7712 89.5474C88.223 89.5154 88.6396 89.4083 89.021 89.2259C89.4143 89.0428 89.7669 88.7908 90.0788 88.47L90.7713 89.1379C90.4057 89.7134 89.9252 90.1836 89.3297 90.5483C88.7341 90.9131 88.0559 91.1224 87.295 91.1763ZM95.1724 90.3679L95.108 89.4584L95.9718 89.2538C96.1595 89.2047 96.2793 89.1245 96.3312 89.0133C96.3822 88.8902 96.3968 88.6741 96.3749 88.365L95.9358 82.1587L95.3472 82.2003C95.05 82.2214 94.8075 82.2565 94.6198 82.3056C94.4432 82.342 94.2992 82.4179 94.1878 82.5333C94.0757 82.6368 93.9737 82.7994 93.8818 83.021C93.8018 83.2417 93.715 83.5346 93.6214 83.8997L93.3788 84.7772L92.3139 84.6734L92.567 81.4113L101.181 80.8017L101.891 83.9957L100.851 84.2485L100.484 83.3604C100.296 82.9076 100.13 82.5789 99.9838 82.3741C99.8497 82.1685 99.6736 82.0436 99.4554 81.9993C99.2491 81.9541 98.9438 81.9458 98.5396 81.9744L97.9689 82.0148L98.4131 88.2925C98.4316 88.554 98.4688 88.7426 98.5248 88.8581C98.5918 88.9609 98.7153 89.0179 98.8954 89.029L99.8532 89.1405L99.9163 90.0322L95.1724 90.3679ZM107.1 89.7748C106.327 89.8295 105.688 89.6537 105.181 89.2474C104.686 88.8403 104.413 88.2742 104.362 87.5489C104.314 86.8831 104.443 86.3363 104.747 85.9085C105.064 85.4799 105.589 85.138 106.324 84.8828C107.059 84.6277 108.048 84.4263 109.292 84.2785L109.201 82.9944C109.168 82.5307 109.076 82.1549 108.924 81.8669C108.784 81.5662 108.577 81.3538 108.306 81.2296C108.046 81.1046 107.702 81.0572 107.274 81.0875C106.965 81.1094 106.659 81.1788 106.357 81.2958C106.054 81.4128 105.831 81.5481 105.686 81.7017C105.819 81.8835 105.926 82.0433 106.007 82.1809C106.1 82.3058 106.161 82.4149 106.192 82.5084C106.233 82.5891 106.256 82.6651 106.262 82.7364C106.278 82.9742 106.192 83.1835 106.001 83.3642C105.822 83.5323 105.572 83.6276 105.251 83.6504C104.906 83.6748 104.633 83.6105 104.431 83.4575C104.228 83.2926 104.115 83.0556 104.093 82.7465C104.063 82.3184 104.196 81.9147 104.492 81.5353C104.787 81.1559 105.201 80.8399 105.733 80.5872C106.264 80.3226 106.862 80.1667 107.528 80.1196C108.313 80.0641 108.969 80.1371 109.497 80.3387C110.037 80.5395 110.449 80.8748 110.733 81.3446C111.029 81.8016 111.202 82.3987 111.255 83.1359L111.55 87.3091C111.569 87.5825 111.649 87.78 111.789 87.9016C111.929 88.0231 112.124 88.075 112.374 88.0574C112.504 88.0481 112.628 88.0274 112.746 87.9952C112.874 87.9503 113.014 87.9045 113.166 87.8579L113.396 88.5765C113.185 88.8065 112.919 89.0046 112.596 89.1708C112.273 89.3371 111.957 89.4311 111.648 89.453C111.113 89.4908 110.687 89.3836 110.37 89.1311C110.054 88.8787 109.842 88.5053 109.736 88.011C109.558 88.3701 109.346 88.6719 109.101 88.9163C108.855 89.1607 108.564 89.3546 108.228 89.4978C107.904 89.6522 107.528 89.7445 107.1 89.7748ZM107.846 88.4136C108.179 88.39 108.465 88.2981 108.705 88.1377C108.956 87.9647 109.149 87.7419 109.285 87.4694C109.421 87.1969 109.477 86.8942 109.454 86.5613L109.359 85.2237C108.67 85.2844 108.098 85.3906 107.643 85.5423C107.2 85.6931 106.88 85.9069 106.685 86.1836C106.488 86.4485 106.404 86.7771 106.432 87.1694C106.461 87.5855 106.597 87.9045 106.84 88.1263C107.095 88.3473 107.43 88.443 107.846 88.4136ZM117.315 88.801L117.251 87.8915L118.115 87.6869C118.302 87.6378 118.422 87.5576 118.474 87.4464C118.525 87.3233 118.54 87.1072 118.518 86.7981L118.079 80.5918L117.49 80.6334C117.193 80.6545 116.95 80.6896 116.763 80.7387C116.586 80.7751 116.442 80.851 116.331 80.9664C116.219 81.0699 116.117 81.2325 116.025 81.4541C115.945 81.6748 115.858 81.9677 115.764 82.3328L115.522 83.2103L114.457 83.1064L114.71 79.8444L123.324 79.2348L124.034 82.4288L122.994 82.6816L122.627 81.7935C122.439 81.3407 122.273 81.012 122.127 80.8072C121.993 80.6016 121.817 80.4767 121.598 80.4324C121.392 80.3872 121.087 80.3789 120.682 80.4075L120.112 80.4479L120.556 86.7256C120.575 86.9871 120.612 87.1757 120.668 87.2912C120.735 87.394 120.858 87.451 121.038 87.4621L121.996 87.5736L122.059 88.4653L117.315 88.801ZM126.675 88.1387L126.611 87.2291L127.421 87.0284C127.609 86.9793 127.729 86.8991 127.78 86.7879C127.831 86.6648 127.846 86.4487 127.824 86.1396L127.447 80.8071C127.427 80.5337 127.384 80.3455 127.317 80.2427C127.25 80.14 127.126 80.077 126.945 80.054L126.042 79.9566L126.138 79.0357L130.686 78.7139L130.751 79.6234L129.906 79.8445C129.718 79.8936 129.593 79.9802 129.53 80.1041C129.478 80.2153 129.463 80.4195 129.484 80.7168L129.606 82.4467C129.959 82.362 130.277 82.3036 130.562 82.2715C130.858 82.2386 131.19 82.2091 131.559 82.183C132.237 82.1351 132.82 82.1953 133.31 82.3638C133.812 82.5314 134.207 82.7962 134.496 83.1582C134.796 83.5193 134.965 83.9673 135.003 84.5024C135.052 85.192 134.92 85.7748 134.607 86.251C134.293 86.7154 133.806 87.0844 133.144 87.3583C132.481 87.6203 131.639 87.7874 130.616 87.8598L126.675 88.1387ZM130.979 86.9021C131.645 86.855 132.145 86.6583 132.479 86.3121C132.812 85.9539 132.955 85.4538 132.91 84.8118C132.871 84.253 132.668 83.8431 132.303 83.5822C131.95 83.3204 131.47 83.2109 130.864 83.2538C130.614 83.2715 130.395 83.293 130.205 83.3184C130.028 83.3429 129.85 83.3674 129.673 83.3919L129.92 86.8874C130.088 86.8994 130.263 86.911 130.443 86.9221C130.622 86.9214 130.801 86.9147 130.979 86.9021ZM137.581 87.3669L137.517 86.4574L138.309 86.2579C138.497 86.2088 138.617 86.1286 138.669 86.0174C138.72 85.8943 138.734 85.6782 138.712 85.3691L138.335 80.0367C138.316 79.7632 138.272 79.5751 138.205 79.4723C138.138 79.3695 138.014 79.3065 137.834 79.2835L136.931 79.1861L137.009 78.2665L141.467 77.951L141.532 78.8605L140.775 79.0574C140.587 79.1066 140.468 79.1927 140.417 79.3158C140.365 79.427 140.35 79.6312 140.371 79.9285L140.633 83.638L144.381 79.8598L144.36 79.5744C144.342 79.3129 144.3 79.1366 144.233 79.0457C144.166 78.9429 144.042 78.88 143.862 78.8569L143.011 78.7379L143.09 77.8361L147.549 77.5206L147.613 78.4302L146.821 78.6296C146.621 78.6796 146.496 78.7661 146.445 78.8892C146.393 79.0004 146.378 79.2047 146.399 79.5019L146.78 84.8878C146.798 85.1494 146.841 85.3316 146.908 85.4344C146.974 85.5253 147.104 85.5818 147.296 85.604L148.183 85.7205L148.246 86.6123L143.645 86.9379L143.58 86.0283L144.337 85.8314C144.525 85.7822 144.645 85.7021 144.697 85.5909C144.748 85.4796 144.764 85.2754 144.743 84.9782L144.476 81.2152L140.73 85.0112L140.75 85.2965C140.77 85.57 140.813 85.7581 140.88 85.8609C140.946 85.9518 141.07 86.0088 141.251 86.0319L142.101 86.1509L142.164 87.0426L137.581 87.3669Z" fill="#214784"/>
</g>
<defs>
<clipPath id="clip0_193_708">
<rect width="177" height="245.833" fill="white" transform="matrix(-1 0 0 1 177 0)"/>
</clipPath>
</defs>
</svg>
