<svg xmlns="http://www.w3.org/2000/svg" width="160" height="79.254" viewBox="0 0 160 79.254">
  <g id="Groupe_34989" data-name="Groupe 34989" transform="translate(0 -57.846)">
    <g id="Groupe_30838" data-name="Groupe 30838" transform="translate(0 57.846)">
      <path id="Tracé_74" data-name="Tracé 74" d="M4.039,72.326a3.951,3.951,0,0,1,2.137.474,1.767,1.767,0,0,1,.846,1.531c0,1.394-1.22,2.046-2.439,2.174-.22.02-.5.02-.667.02l-.937-.209V77.7c0,.911.061.946,1.248,1.007v.469H.63v-.469c1.117-.063,1.131-.146,1.131-1.007V73.8c0-.941-.172-.976-1.131-1.007v-.469ZM2.98,75.785a2.494,2.494,0,0,0,.928.156c.887,0,1.78-.372,1.78-1.559,0-1.072-.811-1.556-1.835-1.556-.476,0-.663.065-.756.148s-.117.169-.117.4Z" transform="translate(0.537 -0.091)" fill="#fff"/>
      <path id="Tracé_75" data-name="Tracé 75" d="M14.767,79.248V78.78c.865-.074.881-.176.73-.535-.172-.426-.359-.874-.544-1.3H12.237c-.126.309-.278.678-.419,1.048-.228.609-.143.707.87.789v.469H9.641V78.78c.935-.1,1.017-.126,1.459-1.07l2.47-5.35.654-.119c.794,1.843,1.589,3.633,2.385,5.463.387.885.515.993,1.472,1.076v.469Zm-1.154-5.563c-.328.818-.77,1.794-1.13,2.643h2.235Z" transform="translate(8.213 -0.163)" fill="#fff"/>
      <path id="Tracé_76" data-name="Tracé 76" d="M27.843,79.282c-.2,0-.428-.022-.624-.043a2.4,2.4,0,0,1-1.93-.97c-.409-.494-.837-1.113-1.176-1.6a.936.936,0,0,0-.906-.367h-.585v1.4c0,.891.115.944,1.143,1.007v.469H20.3v-.469c1.05-.063,1.133-.107,1.133-1.007V73.793c0-.911-.117-.946-1.133-1v-.469h3.291a4.31,4.31,0,0,1,2.017.339,1.6,1.6,0,0,1,.92,1.463,1.991,1.991,0,0,1-1.544,1.809c.2.315.7.95,1.063,1.424a6.226,6.226,0,0,0,.931,1.022,2.211,2.211,0,0,0,.943.452Zm-4.585-3.5a2.383,2.383,0,0,0,1.37-.3,1.269,1.269,0,0,0,.607-1.2c0-1.081-.859-1.439-1.752-1.439a1.317,1.317,0,0,0-.731.126.622.622,0,0,0-.13.456V75.78Z" transform="translate(17.288 -0.091)" fill="#fff"/>
      <path id="Tracé_77" data-name="Tracé 77" d="M30.434,79.176v-.469c1.037-.052,1.131-.1,1.131-1.007V73.8c0-.911-.106-.956-1.131-1.007v-.469h3.493v.469c-1.026.063-1.143.1-1.143,1.007v3.9c0,.911.117.956,1.143,1.007v.469Z" transform="translate(25.925 -0.091)" fill="#fff"/>
      <path id="Tracé_78" data-name="Tracé 78" d="M42.918,74.174c-.233-.828-.53-1.433-1.619-1.433a1.081,1.081,0,0,0-1.233,1.1c0,.63.52.985,1.485,1.365,1.039.417,2.237.948,2.237,2.131s-1.107,2.081-2.811,2.081a6.017,6.017,0,0,1-1.985-.35,14.293,14.293,0,0,1-.367-1.754l.544-.119a2.08,2.08,0,0,0,2.043,1.7c.87,0,1.348-.43,1.348-1.143,0-.75-.646-1.148-1.62-1.55-.948-.4-2.044-.937-2.044-2.08,0-1.081.991-1.883,2.635-1.883a8.755,8.755,0,0,1,1.717.211c.046.37.106.826.211,1.648Z" transform="translate(32.903 -0.163)" fill="#fff"/>
      <path id="Tracé_79" data-name="Tracé 79" d="M55.3,79.239v-.383c.885-.063.983-.137.983-.913V73.819c0-.55-.231-.581-.759-.635l-.307-.02v-.343a11.092,11.092,0,0,0,2.215-.569v5.691c0,.756.083.85,1,.913v.383Z" transform="translate(47.038 -0.154)" fill="#fff"/>
      <path id="Tracé_80" data-name="Tracé 80" d="M65.486,75.049a2.092,2.092,0,0,1,.841-.191,2.12,2.12,0,0,1,2.309,2.089,2.583,2.583,0,0,1-2.7,2.457,2.609,2.609,0,0,1-2.7-2.794c0-2.289,2-3.643,3.357-4.067a10.965,10.965,0,0,1,1.709-.326l.093.435a7.376,7.376,0,0,0-1.428.4,3.585,3.585,0,0,0-2.293,2.352Zm.283.513a3.084,3.084,0,0,0-1.178.3,2.967,2.967,0,0,0-.081.731c0,1.354.541,2.335,1.661,2.335.906,0,1.25-.876,1.25-1.587a1.565,1.565,0,0,0-1.652-1.778" transform="translate(53.868 -0.183)" fill="#fff"/>
      <path id="Tracé_81" data-name="Tracé 81" d="M77.7,72.476c-1.193,2.2-2.45,4.452-3.637,6.72l-1.007.067-.083-.128c1.265-1.843,2.711-4.163,3.7-5.887H74.01c-.8,0-.9.115-1.2.828h-.463c.143-.717.2-1.287.261-1.75h4.963Z" transform="translate(61.632 -0.091)" fill="#fff"/>
      <path id="Tracé_82" data-name="Tracé 82" d="M84.064,72.246c1.95,0,2.689,1.794,2.689,3.561,0,1.713-.739,3.574-2.676,3.574s-2.724-1.722-2.724-3.563c0-1.68.8-3.572,2.711-3.572m0,.478c-1.089,0-1.4,1.393-1.4,3.072,0,1.657.406,3.117,1.413,3.117,1.065,0,1.389-1.424,1.389-3.117s-.361-3.072-1.4-3.072" transform="translate(69.301 -0.159)" fill="#fff"/>
      <path id="Tracé_121" data-name="Tracé 121" d="M68.334,33.956c0,.72-1.315.507-2.035.806-1.357.593-2.672,2.757-3.52,3.606a8.812,8.812,0,0,1-1.061,1.7c-1.485,2.376-2.843,4.328-4.328,6.872a20,20,0,0,0-.976,1.781c-.083.128-.3.213-.381.381s-.043.467-.126.594c-.085.213-.383.424-.594.722-1.061,1.7-1.909,2.969-3.352,5.046-.594.807-1.272,1.57-1.824,2.419-1.867,2.885-4.115,6.067-6.363,9.037-.763,1.017-1.654,2.035-2.544,3.011-.128.128-.128.381-.256.467-.467.552-1.23,1.187-1.781,1.824a34.547,34.547,0,0,1-6.744,5.769c-.17.128-.3.128-.467.256-.128.043-.256.3-.381.381a9.111,9.111,0,0,0-.976.339c-.128.085-.17.256-.341.381a24.469,24.469,0,0,1-7.465,2.885c-.424.085-.891.043-1.315.128a18.341,18.341,0,0,1-2.461.254,7.83,7.83,0,0,1-6.957-4.369,6.032,6.032,0,0,1-.848-2.97v-.3a8.674,8.674,0,0,1-2.291-1.443A8.083,8.083,0,0,1,7.5,72.347a3.163,3.163,0,0,1-.678-2.037,4.5,4.5,0,0,1,1.526-3.267c.426-.424,1.146-1.1,1.4-1.1.085,0,.128.043.128.083,0,.17-.552.509-.68.68-.931,1.23-1.781,2.206-1.781,3.987a3.074,3.074,0,0,0,1.909,2.843,4.792,4.792,0,0,0,1.909.976A18.623,18.623,0,0,1,18.49,63.65a10.209,10.209,0,0,1,2.291-1.528,29.241,29.241,0,0,1,3.48-1.7,24.458,24.458,0,0,1,3.731-1.443c.213-.043.341-.256.594-.256h.341c.424,0,.806-.3,1.1-.339a4.867,4.867,0,0,1,1.1-.128,19.231,19.231,0,0,1,3.393-.339c3.139,0,7.976.765,7.976,3.946a6.942,6.942,0,0,1-1.867,3.859c-.17.213-.424.381-.594.594-.339.339-.891,1.187-.976,1.187a9.626,9.626,0,0,0-1.443,1.231,15.664,15.664,0,0,0-1.611,1.187h-.17c-.083,0-.126.17-.126.254H35.5c-.128,0-.085.256-.254.256-.043,0-.128-.043-.17-.043a.875.875,0,0,0-.085.254c-3.776,1.57-6.531,3.522-11.241,4.456-.976.211-1.952.339-3.1.509a14.5,14.5,0,0,1-2.756.381,40.334,40.334,0,0,1-4.837-.637,3.257,3.257,0,0,0-.213,1.23A6.834,6.834,0,0,0,14.842,81c.128.085.256.043.381.126.722.722,2.631,1.019,3.861,1.019.72,0,1.443-.169,2.333-.169h.424c.254,0,.467-.256.763-.256h.381c.3,0,.381-.128.68-.211,4.709-1.231,7.083-3.013,10.478-5.431.552-.507,1.272-1.059,1.909-1.7.128-.128.339-.128.467-.254,1.994-1.656,3.648-4.115,5.3-6.237a26.38,26.38,0,0,0,3.013-4.241A56.176,56.176,0,0,0,48.1,58.389c.126-.169.381-.3.381-.467,0-.085-.043-.128-.043-.211,0-.128.211-.128.254-.17C50.136,55,51.749,52.408,53.4,49.949c.211-.383.3-.933.594-1.443.083-.128.3-.256.381-.381a17.122,17.122,0,0,1,1.528-2.757c.72-.933,2.163-3.141,3.265-4.709,1.189-1.315,2.97-3.691,4.709-5.3a30.676,30.676,0,0,0-6.872,1.824A26.652,26.652,0,0,0,49.8,42.61a16.735,16.735,0,0,0-3.733,4.92,7.866,7.866,0,0,0-1.57,4.624c0,1.187.383,2.376,1.613,2.376,1.611,0,3.139-1.952,4.411-3.394.806-.933,2.461-3.139,2.419-3.1.085.043.085.085.085.169a7.279,7.279,0,0,1-1.443,2.461c-1.528,1.867-3.437,4.2-5.3,4.2a4.016,4.016,0,0,1-2.885-1.909,5.7,5.7,0,0,1-.467-2.63c0-2.461,1.315-4.709,2.757-6.661,3.181-4.411,8.865-7.211,15.907-8.526a12.354,12.354,0,0,0,4.072-1.1c.085-.043.637-.339.509-.339.17-.128.467-.043.722-.128s.083-.254.678-.254c.552,0,.72.128.763.467ZM41.482,60.3c-1.061-1.146-3.394-1.824-5.557-1.824a15.652,15.652,0,0,0-3.35.381c-.467.085-.933.043-1.317.128-.467.128-1.1.594-1.569.594h-.3a.931.931,0,0,0-.424.254A28.925,28.925,0,0,0,22.1,63.056a24.228,24.228,0,0,0-3.859,3.139A24.846,24.846,0,0,0,16.2,68.486c-.085.128-.043.256-.128.381-.083.085-.3.128-.381.213A14.035,14.035,0,0,1,14.5,71.032a11.929,11.929,0,0,0-1.443,3.944,28.775,28.775,0,0,0,4.92.68,19.322,19.322,0,0,0,2.672-.426c1.485-.211,2.843-.339,4.074-.593a13.267,13.267,0,0,0,1.822-.594c1.146-.381,2.419-.763,3.48-1.23.509-.213.933-.594,1.443-.848a14.375,14.375,0,0,0,1.95-.933,5.863,5.863,0,0,1,1.57-.85,25.155,25.155,0,0,0,4.667-4.115h.211a13.09,13.09,0,0,0,1.1-1.569,5.953,5.953,0,0,0,1.23-2.843v-.17a2.455,2.455,0,0,0-.72-1.187" transform="translate(5.814 -33.319)" fill="#fff"/>
      <path id="Tracé_122" data-name="Tracé 122" d="M44.022,44.8c0,.383-.424.68-.593.933-.085.128-.043.3-.128.383-.256.381-.68.72-.976,1.1-.594.806-1.144,1.7-1.7,2.5a26.082,26.082,0,0,0-1.656,2.544,4.843,4.843,0,0,0-.891,2.248c0,.213.043.806.3.806.169,0,.254-.3.381-.3h.254c.128,0,.3-.3.68-.467,1.443-.933,3.1-4.285,3.733-4.326.041.083.083.126.083.211,0,.256-.381.552-.593.848-.085.17-.128.467-.213.594-.211.211-.72.891-1.23,1.443a6.421,6.421,0,0,1-.722.976c-.083.085-.254.043-.339.126-.678.341-1.187,1.231-2.078,1.231a1.73,1.73,0,0,1-1.867-1.741,5.541,5.541,0,0,1,.806-2.248c-.043,0-.085-.043-.128-.043-.126,0-.72.85-.848.976-.848,1.1-2.843,2.757-3.691,2.757-.637,0-1.483-.339-1.483-2.206,0-1.611,1.654-3.691,2.672-5.217a12.713,12.713,0,0,1,1.654-1.824c.128-.128.339-.128.509-.256-.043.043.381-.594.339-.467a7.6,7.6,0,0,1,2.885-1.357,3.258,3.258,0,0,1,1.443.509,5.731,5.731,0,0,1,.126,1.23v.467c.85-.3,1.1-2.035,2.291-2.035a1.25,1.25,0,0,1,.976.467Zm-3.944-.254c-.256,0-.381-.128-.467-.128h-.043a9.383,9.383,0,0,0-2.544,2.08c-.085.083-.043.211-.128.339-.043.085-.256.128-.339.254-.085.085-.043.256-.128.341-.17.211-.381.339-.467.509-.085.083-.043.211-.128.339-.128.169-.381.339-.467.467-.17.254-.211.509-.381.72-.128.213-.339.3-.467.509-.169.213-.128.509-.254.722-.128.169-.383.339-.467.467a7.364,7.364,0,0,0-1.4,3.478,1.168,1.168,0,0,0,.043.381,3.187,3.187,0,0,0,2.163-1.443c.381-.381.763-.635,1.1-.976.424-.424.722-.891,1.1-1.315.17-.211.424-.381.594-.593.594-.807,1.272-1.824,1.907-2.757a5.194,5.194,0,0,0,1.1-2.461,2.079,2.079,0,0,0-.254-.933Z" transform="translate(26.516 -24.186)" fill="#fff"/>
      <path id="Tracé_123" data-name="Tracé 123" d="M45.013,52a19.117,19.117,0,0,1-2.63,2.672,5.149,5.149,0,0,1-.594.213c-.594.339-.72.55-1.315.55-2.248,0-3.139-1.23-3.139-2.757A12.083,12.083,0,0,1,38.522,48.4c.933-1.613,3.522-4.5,5.77-4.5.678,0,1.781.211,1.781,1.187,0,2.078-1.443,4.285-2.757,4.285a1.077,1.077,0,0,1-.085-.509c0-1.146,1.315-1.272,1.909-1.909a2.975,2.975,0,0,0,.594-1.613.934.934,0,0,0-.976-1.059c-1.443,0-2.631,2.078-3.1,2.544a1.955,1.955,0,0,0-.254.509c-1.061,1.57-2.8,4.5-2.8,6.32a1.4,1.4,0,0,0,1.485,1.485c.678,0,1.357-.254,3.35-2.035.17-.17.426-.17.509-.256s.128-.339.213-.467c.211-.254.594-.635.848-.976a5.065,5.065,0,0,0,.509-.467c.043-.169.17-.72.594-.72h.128A8.439,8.439,0,0,1,45.013,52" transform="translate(31.804 -24.304)" fill="#fff"/>
      <path id="Tracé_124" data-name="Tracé 124" d="M60.586,44.94c0,.55-.637.763-.933,1.1-3.224,4.115-6.533,8.315-9.757,12.683-.126.213-.381.3-.55.552-.637,1.061-1.656,2.333-2.757,3.861a6.555,6.555,0,0,1-1.443,1.824c.043.043.085.043.169.043.341,0,.509-.509.722-.765a21.88,21.88,0,0,1,6.83-4.963,5.221,5.221,0,0,1,2.206-.678c.254,0,2.757.339,2.757,2.417a12.885,12.885,0,0,1-.211,1.4h.043c.041,0,.169.085.169.128,0,0-.678,1.654-.933,2.078-.339.552-.891.893-1.485,1.824-.211.341-.339.3-.891.722-.126.085-.083.381-.3.381h-.211c-.17,0-.128.381-.3.381-.085,0-.128-.043-.211-.043-.213,0-.17.381-.383.381h-.211c-.17,0-.509.469-.594.552-.3.17-.509.085-.763.213a20.67,20.67,0,0,1-8.867,2.459c-2.843,0-7-1.739-7-4.156a6.078,6.078,0,0,1,.467-1.824c.17-.637.128-1.443.893-1.824a.515.515,0,0,1,.254.424c0,.507-.848,1.272-1.146,1.611a.54.54,0,0,1,.043.256c0,.424-.254.931-.254,1.4a3.3,3.3,0,0,0,1.1,1.824c0,.041.043.041.043.083,0,.085-.043.17-.043.256,0,.043,0,.043.043.043.083,0,.169-.043.254-.043.043,0,.043.043.085.043A7.607,7.607,0,0,0,42.6,71.112c3.267,0,10.478-2.163,12.811-5.387a9.043,9.043,0,0,0,1.7-4.624,2.855,2.855,0,0,0-.765-1.993,3.207,3.207,0,0,0-.891-.128,10.364,10.364,0,0,0-4.793,1.781,14.793,14.793,0,0,0-1.315,1.1c-.213.169-.552.211-.722.339a58.982,58.982,0,0,0-4.581,4.963h-.083c-.383,0-.128.891-.68.891-.17,0-.256-.128-.509-.128h-.213a.961.961,0,0,1-.211-.635c0-.891,1.019-1.781,1.485-2.5.254-.339.339-.806.552-1.1.126-.17.465-.213.55-.383.128-.169.085-.381.213-.55,2.291-3.309,5.091-7.339,7.507-10.648-.72.17-.933.848-1.441,1.315-.128.128-.933.213-.933.381v.3c0,.041,0,.041-.043.041H49.9a3.473,3.473,0,0,1-2.417.976c-.933,0-1.443-1.1-1.443-2.163a5.191,5.191,0,0,1,.381-1.739A22.294,22.294,0,0,1,49,47.7a5.777,5.777,0,0,1,1.274-1.441c.126-.128.083-.383.211-.383.085,0,.17.043.256.043.254,0,.763-.763,1.017-.933a5.738,5.738,0,0,1,3.1-1.1,4.139,4.139,0,0,1,1.654.339,8.43,8.43,0,0,1,.467,1.7.8.8,0,0,1-.085.341.23.23,0,0,0,.17.126A9.467,9.467,0,0,0,58,45.322c.467-.552.128-1.231,1.059-1.231a3.843,3.843,0,0,1,1.485.509.938.938,0,0,1,.043.341m-4.072.678c0-.3-.085-1.4-.891-1.4a8.128,8.128,0,0,0-3.861,2.928,30.825,30.825,0,0,0-2.206,3.139,6.561,6.561,0,0,0-1.1,1.824c-.041.085-.339.128-.381.211a5.044,5.044,0,0,0-.72,2.165c0,.211,0,.211.213.211a4.934,4.934,0,0,0,2.883-1.485c.17-.083.424-.041.552-.169.424-.341.891-.891,1.315-1.272.509-.509,1.061-.85,1.443-1.315.17-.17.213-.509.381-.722.213-.254.509-.3.722-.552.169-.169.211-.509.381-.72.635-.933,1.272-.933,1.272-2.419Z" transform="translate(30.397 -24.323)" fill="#fff"/>
      <path id="Tracé_125" data-name="Tracé 125" d="M57.814,49.962c-.128.17-.381.3-.467.467-.128.17-.128.424-.254.594-.128.211-.341.635-.467.848a10.91,10.91,0,0,0-.68,1.187c-.126.17-.381.3-.467.467-.126.213-.126.424-.254.637a1.863,1.863,0,0,0-.467,1.061,6.044,6.044,0,0,0,2.5-1.485c.383-.552.424-.424.807-.806a15.469,15.469,0,0,0,1.526-1.7c.128-.169.637-.933,1.1-.933-.424,1.317-2.08,2.419-2.843,3.224-.467.68-.509.552-1.1.976-.254.256,0,.256-.635.467a2.717,2.717,0,0,1-1.613.722,1.622,1.622,0,0,1-1.187-.807c0-1.781,1.357-2.926,1.909-4.241a3.174,3.174,0,0,1,.637-1.061c.083-.213.041-.594.254-.722,0-.126.126-.126.126-.254-1.611,1.611-2.417,3.478-4.835,5.643-.635.552-1.4,1.315-2.12,1.315-.891,0-1.189-1.019-1.189-1.824a8.048,8.048,0,0,1,.426-2.5c.041-.126.254-.169.339-.339.128-.17.043-.339.128-.467s.339-.254.38-.381c.085-.17.043-.339.128-.467.552-1.061,1.231-2.206,1.909-3.267.381-.552,1.1-1.357,1.1-1.781,0-.17-.381-.213-.381-.509a1.714,1.714,0,0,1,.763-.213c.635,0,1.528.469,1.528,1.019,0,1.739-1.4,2.97-2.037,4.115a6.7,6.7,0,0,1-.509.976l-.467.594A17.677,17.677,0,0,0,49.245,55.1c1.357,0,2.97-2.248,3.606-2.885.128-.128.128-.339.254-.467.213-.254.509-.467.722-.72.211-.3.467-1.23,1.315-1.57.085-.635.637-.976.976-1.443.552-.763,1.315-1.7,1.781-2.417.128-.128.043-.341.128-.467.3-.381.848-.933.72-.848.17-.085.128-.383.552-.383a1.4,1.4,0,0,1,1.4.85v.126c0,.765-.891,1.528-1.231,2.163-.126.17-1.526,2.759-1.654,2.928" transform="translate(40.973 -24.382)" fill="#fff"/>
      <path id="Tracé_126" data-name="Tracé 126" d="M62.9,45.465a6.623,6.623,0,0,1-1.57,2.037,5.658,5.658,0,0,1-.256.509c-.083.085-.254.043-.339.126-.254.17-.678.637-1.315,1.061-.128.085-.3.043-.381.128-.043.043-.085.211-.128.254a7.008,7.008,0,0,1-1.57.594,7.793,7.793,0,0,0-1.313,3.861c0,.552.211,1.1.891,1.1,1.483,0,2.417-1.526,2.969-1.611a10.746,10.746,0,0,1,1.443-1.781c.128-.17.381-.213.467-.383.211-.3.467-1.1,1.1-1.187V50.3c0,.72-.722,1.144-1.1,1.569s-.722.976-1.189,1.443c-.254.256-.678.509-.974.848a4.475,4.475,0,0,1-2.5,1.315,2.853,2.853,0,0,1-2.843-2.756c0-2.885,2.631-5.856,4.285-7.509a6.3,6.3,0,0,1,3.309-1.4,1.826,1.826,0,0,1,1.272.467c0,.085-.043.17-.043.254,0,.17.043.3.043.467-.043.213-.17.256-.254.467m-.637-1.187c-.722,0-2.078,1.7-2.757,2.5a10.811,10.811,0,0,0-1.656,2.8A8.892,8.892,0,0,0,60.86,47.5c.763-.891,1.781-1.57,1.909-3.1a1.133,1.133,0,0,0-.509-.128" transform="translate(46.242 -24.381)" fill="#fff"/>
      <path id="Tracé_127" data-name="Tracé 127" d="M65.042,54.023a8.605,8.605,0,0,1-5.6,1.824,1.02,1.02,0,0,1-.933-.381c-.126-.085-.422-.085-.593-.256-.085-.083-.085-.339-.256-.593-.085-.17-.294-.213-.339-.341a6.326,6.326,0,0,1-.128-1.569,1.639,1.639,0,0,1,1.146-.68c.169,0,.678.128.678.424,0,1.019-.635,1.317-1.357,1.57a1.527,1.527,0,0,0,1.613,1.357c2.333,0,4.454-4.03,4.454-7.126,0-.213-.043-.424-.043-.637-.3,0-.509.3-.72.509-1.189,1.187-1.741,1.994-3.056,3.267a.251.251,0,0,1-.169.043.092.092,0,0,1-.085-.085c0-.3.678-.763,1.019-1.189,2.672-2.672,1.95-2.5,3.011-3.35a3.206,3.206,0,0,1-.043-.637,2.59,2.59,0,0,1,2.163-2.5,1.558,1.558,0,0,1,.893.339c0,.72-.68,1.061-.933,1.569-.68,1.274-.426,2.589-.637,4.115a7.292,7.292,0,0,1-.213.933c-.085.341-.043.722-.126.976-.043.085-.256.213-.256.256a7.937,7.937,0,0,1-2.5,3.224,5.364,5.364,0,0,0,2.5-1.315c.17-.085.467-.213.722-.341.678-.593,2.331-2.715,2.757-2.715a.155.155,0,0,1,.126.043c-.126.552-1.993,2.291-3.094,3.267" transform="translate(48.719 -24.499)" fill="#fff"/>
      <path id="Tracé_128" data-name="Tracé 128" d="M23.95,59.389c-2.594.261-2.833.439-2.833,2.78V72.963c0,2.311.256,2.489,2.833,2.765v.715H13.815v-.715c2.63-.287,2.817-.441,2.817-2.765V67.47H7.3v5.493c0,2.339.289,2.489,2.817,2.765v.715H0v-.715c2.509-.246,2.815-.411,2.815-2.765V62.168c0-2.341-.307-2.531-2.815-2.78v-.715H10.117v.715c-2.526.261-2.817.439-2.817,2.78v4.163h9.331V62.168c0-2.326-.343-2.506-2.817-2.78v-.715H23.95Z" transform="translate(0 -11.72)" fill="#fff"/>
      <path id="Tracé_129" data-name="Tracé 129" d="M36.17,72c-.17.852-.952,3.756-1.206,4.463H17.777v-.7c3.022-.287,3.244-.424,3.244-2.791V62.193c0-2.394-.285-2.587-2.663-2.78V58.7H29.075c3.465,0,4.731-.028,5.1-.054.033.774.187,2.761.341,4.187l-.926.109a6.564,6.564,0,0,0-1.469-2.472c-.615-.574-1.219-.739-3.1-.739h-2.4c-1,0-1.135.083-1.135.815v6.137h3.33c2.32,0,2.539-.509,3.033-2.322h.928V70.1h-.928c-.511-1.811-.7-2.322-3.048-2.322H25.49v5.281c0,1.9.3,2.361,2.417,2.387H30.12c1.967,0,2.461-.2,3.267-.943a10.356,10.356,0,0,0,1.907-2.663Z" transform="translate(15.143 -11.745)" fill="#fff"/>
      <path id="Tracé_130" data-name="Tracé 130" d="M53.7,76.621c-.187,0-.88,0-1.289-.013-4.217-.15-5.393-.831-6.487-2.135a49.936,49.936,0,0,1-3.431-4.756,2.242,2.242,0,0,0-2.261-1.2l-.6-.013v4.415c0,2.257.272,2.463,2.817,2.807v.715H32.419v-.715c2.561-.331,2.817-.522,2.817-2.807V62.169c0-2.231-.272-2.531-2.817-2.78v-.715h9.539c2.917,0,4.641.259,6.043,1.039a3.8,3.8,0,0,1,2.165,3.424c0,2.6-2.333,3.857-4.306,4.5.513.778,2.093,2.935,3.081,4.18A23.217,23.217,0,0,0,51.486,74.7a4.6,4.6,0,0,0,2.381,1.274ZM40.434,67.64a5.974,5.974,0,0,0,3.507-.724,3.568,3.568,0,0,0,1.481-3.228,3.755,3.755,0,0,0-3.961-4.133,2.894,2.894,0,0,0-1.483.23c-.241.15-.344.407-.344.956v6.9Z" transform="translate(27.616 -11.719)" fill="#fff"/>
      <path id="Tracé_131" data-name="Tracé 131" d="M60.568,66.6c3.641.493,6.328,1.9,6.328,4.526,0,1.85-1.3,3.324-3.156,4.17a16.816,16.816,0,0,1-6.687,1.148H48.14V75.73c2.524-.291,2.815-.469,2.815-2.794v-10.8c0-2.339-.391-2.485-2.8-2.75v-.715H58.12a11.6,11.6,0,0,1,5.569.972,3.328,3.328,0,0,1,1.978,2.963c0,2.381-2.77,3.607-5.1,3.991m-3.793-.228c3.157,0,4.319-1.078,4.319-3.228,0-2.619-1.876-3.55-3.809-3.55a3.548,3.548,0,0,0-1.552.233c-.341.193-.343.522-.343,1.181v5.363ZM55.39,72.994c0,1.926,1.022,2.541,2.9,2.528C60.3,75.509,62,74.1,62,71.357c0-2.693-1.5-4.078-5.324-4.078H55.39Z" transform="translate(41.008 -11.72)" fill="#fff"/>
      <path id="Tracé_132" data-name="Tracé 132" d="M63.233,76.443v-.715c2.58-.276,2.817-.454,2.817-2.878V62.265c0-2.422-.289-2.643-2.817-2.876v-.715H73.368v.715c-2.528.276-2.835.439-2.835,2.876v10.57c0,2.454.256,2.6,2.835,2.893v.715Z" transform="translate(53.865 -11.72)" fill="#fff"/>
      <path id="Tracé_133" data-name="Tracé 133" d="M97.507,59.389c-2.172.3-2.752.63-2.837,2.185-.067.954-.152,1.756-.152,4.374V76.785H93.154L78.339,62.552v6.6a40.106,40.106,0,0,0,.137,4.237c.137,1.543.589,2.1,3.452,2.337v.715H73.755v-.715c2.265-.22,2.819-.631,2.989-2.241a37.7,37.7,0,0,0,.187-4.333V62.322A2.424,2.424,0,0,0,76.3,60.5c-.756-.824-1.47-.963-2.941-1.115v-.715h6.593L93.094,70.926V65.948c0-2.619-.069-3.422-.135-4.306-.1-1.557-.774-2.033-3.68-2.254v-.715h8.228Z" transform="translate(62.493 -11.72)" fill="#fff"/>
    </g>
  </g>
</svg>
