<svg xmlns="http://www.w3.org/2000/svg" fill="none" viewBox="0 0 1707 600"><path fill="#214784" d="m147 0-1 4v1l-2-1-1-1-2 2c0 3-2 5-3 2-1-2-3-1-3 3l-2 4c-1 2-1 2-3-1-4-3-5-3-4 0l2 2 3 2c3 5 5 5 4 0l1-3 1 3c0 3 3 4 3 2 1-3 4-1 5 3l-1 4-1-2-1-2c-1 0-2 2-2 6 0 5 0 7-2 7-4 1-4 1-1-2l1-2-4-4c-2-4-5-8-5-5l2 6c6 17 7 21 6 29-1 5-1 6-3 4-1-1-2-2-1-3v-8l-2-8c1-1 0-4-2-6l-3-7c0-8-3-17-6-17l-1 2c0 2-1 3-2 3-2 0-2 0-1 2l1 2c-1 1-1 1 0 0s7 9 11 20c3 10 3 12 1 11l-2-3c1-2-4-8-5-6-1 3-3 2-5-2-3-6-3-8 0-7 2 1 2 1 0-1s-3-2-5-1c-2 2-2 2-1 4l3 4c3 2-1 2-5 1l-4-1-1 3c-2 1-6-2-8-6-1-4-4-5-4-2l-1 2-3-2c-3-3-4-2-2 1l2 5c0 2 0 3-2 1-3-2-4-1-4 5l-1 4-1-1-3-3-3-1h3c6 0 3-9-3-9-2 0-2 1-2 5 1 4 1 4-3 6-5 3-5 3 2 3 6-1 12 2 14 8 1 3 2 5 3 4l4 2c2 1 1 1-5 1l-7-1h-3c-2 1-3 0-2-6 0-7-1-9-3-4-1 3-1 3-2 0l-1-3-1 3c0 2-1 3-2 2-1-3-4-1-2 2 0 3 0 3-3 1s-4-2-4 0l2 4c1 1 1 1-1 1s-2 0-1 1l3 1 2 2c0 2-3 5-4 3h-5c-3 0-4 1-2 1 3 2 2 4-2 4-3 0-3 0 0 2 2 1 2 1-1 1l-3 2c0 2 1 2 6 1l7-3 4-3c3-1 3-1 2 1-1 4-5 7-10 8l-6 2c0 1-1 1-2-1-2-2-2-2-4 0s-2 3-1 3c2 1 2 10 0 10l-4-3c-2-2-9-5-9-4-1 1 0 3 4 6 4 2 6 5 2 4-2-1-2 0-1 2 1 3-3 3-6-1l-3-1 5 5c3 3 4 5 3 6v1c3 0 4 2 2 4-1 1-10-2-10-4s-2-2-3 0l-4 2c-4 0 11 5 19 6 4 1 6 1 7-2 2-3 11-4 10-1 0 2-12 8-12 7s-10 3-12 5c-3 3-12 2-12-1 0-1 0-2-2-1l-6-2c-4-4-5 1 0 5l3 5 3 5 7 8c2 5 2 6 1 7-2 1-1 4 2 4 4 0 12-4 12-6 0-3 2-2 5 1 2 2 3 2 5 1l2-4 4-4c5-3 6-1 1 3l-4 4h4c6 1 7 6 2 8l-6 7c-1 4-3 6-4 7l-7 9c-5 10-6 14-2 11l2-1c0 2-4 5-6 4 0-1-2 1-2 3l-3 5-3 5c0 2-3 6-6 9-6 6-6 9-1 4 3-3 17-11 21-12h4l-2 2c-2 0-2 0-1 3 2 3 1 4-3 8-5 4-6 7-1 6 4-1 8 0 9 3s1 3 2 1c1-3 1-3 1-1s1 3 3 1c4-2 3 1-4 6-7 7-7 8 4 13v-1l-2-2-2-4 1-3 5-3c5-4 9-6 11-5 0 0 0 2-2 2-1 1-2 2-1 3l3-1c2-2 3-2 3-1l-6 7c-5 5-6 5-3 5 4-1 4-1 3 3-1 3 0 4 1 6 4 2 2 3-4 3-6-1-6-1-7 2-2 4-3 5-3 1 1-2-4-4-5-1-1 2-13 2-14 1s1-4 4-7l4-7-3-5-4-4c0-1 0-2-2-2l-5-8-3-5c-2 0-1 5 1 8 3 4 2 5-5 3-8-3-8-3-5 1 3 5 3 8 0 9-7 4-9 9-3 7 4 0 5 1 2 4-4 6-1 6 8 0l14-6-5 6c-3 4-4 6-4 10l2 6-2 2c-3 2-4 2-9-2l-5-4 1 4 3 7c1 3 2 5 1 6s5 7 6 6l1 2c0 2 1 2 2 1v-4c-2-4-2-4 2-4 5 0 5 2 1 8l-3 7c0 1 3 0 7-3 4-4 5-3 4 1 0 2-3 4-7 6l-7 4c0 1 3 0 7-3 9-4 9-4 9-1l2 3c4 2 5 1 3-1-3-3-3-5-1-6v-3l-3-3c0-2-2-3-6-1l-3 1c5-9 6-11 4-13-1-2-1-3 1-6l4-3 1-2-3-1c-1 1-2 0-1-2 0-4 7-5 12-1 4 3 4 5 1 7s-4 2-5 0h-2c0 1 2 3 5 4 5 2 6 4 2 7v7c0 1 0 2 3 2h5l2 4c1 2 0 3-2 3s-2 0 0 2l2 4c0 2 1 3 2 3l1-4c0-2 0-2 2 0 2 1 2 2-1 4-3 4-7 4-6 0 1-2 1-2-1-1h-4l-1 1 3 2c2 1 2 2 0 4s-1 2 2 1c6-2 6-1 1 4-2 3-4 5-3 6 0 1 1 1 2-1l4-5 5-8 5-5c2-1 2-3 2-4-1-1 0-1 1-1v1l2 1c2-1 4 0 6 1 2 2 3 3 1 3-3 0-6 5-5 8 1 2 9 2 11 0l3-6c0-3 1-4 2-3h3c1-1 14 11 14 14 1 3-1 3-2 0 0-2-2-4-4-5-3-2-3-2-3 1l1 2c3 0 6 7 4 9v2c2 0 2 1 0 2l-1 5c2 4-2 5-5 3-4-3-4-4 0-7s5-5 1-3c-4 1-4 1-4-3v-4l-4 5-4 6 4 5 6 7 2 2 3 2 3 2c1 0 2 2 1 4 0 4 1 5 3 5 3 0 7 7 7 11 0 3 4 9 5 8v-5c-1-5 0-9 2-13l1-5c-1-1-2 0-3 3-2 5-2 5-5 1-1-2-1-3 1-5l3-2h1l2-2c2 0 3 7 1 15v9l2 10c1 10 1 11 4 11 2-1 3 0 3 1 1 1 0 1-1 1-2-1-1 10 1 14 1 1 1 2-1 3v2c2 2 3 5 1 6l-1-1c-1-1-1 2-1 6a490 490 0 0 1 0 25c2 8 4 4 4-8v-14c0-3 2-4 2-1 0 2 1 3 3 3 2-1 2-3 2-15a377 377 0 0 0-2-55c2 0 3-2 3-7 1-5 1-7-1-9s-2-2 0-1c4 1 4-1 4-13 0-10 0-11 2-10l4 2c1 4 3 2 4-4 0-7 0-8 1-7l3-1 2-1c4 6 5 9 4 9l-3-3-3-2c-3 0 2 5 5 6 2 0 4 2 4 3 2 4 4 5 4 2 0-1-2-6-4-7l-5-12-1-1-2-4-3-7-2-6-3-2c-2 0-2 0-1 1 2 3 3 12 1 15-1 2-1 2-2 0l-1-9c-1-6 0-7 3-9 2-1 3-3 2-3l1-1 4-4c2-3 2-3 4-1l1 3 2 1 3 2c1 3 2 1 1-3 0-2-1-2-3-2-3 1-4-2 0-4l1-1-3 1h-2c0-1 2-3 5-4 5-1 5-1 10 3l2 4c-4 0-4 4 0 6l4 4c0 2 6 5 7 4l-9-17-3-3c-1-1-1-3 2-5l4-4c2 0 2 1-1 4-4 4-4 4-2 5h4v-2l1-3 1 2h2l1-4 1-2c2 1 6-4 9-12 2-5 4-7 6-7s2 1 2 6c0 6 0 6 3 6 2 0 4-1 5-3l6-2 5-2c2-2 10 0 10 3l-1 1c-1-1-3 0-6 2l-9 3-4 1-4 2c-3 1-4 6-1 9 2 1 2 1 1-1 0-3 0-3 2-3l4-2c0-2 1-3 2-2l3-2 3-2 3-1 1-1 9-3 8-4v5c0 4 0 5 2 7 2 1 3 2 3 4l1 3c1 1 2 0 1-2 0-2 1-3 5-7l6-4 5 5c8 10 10 12 11 11l-3-4-4-4-2-3-2-4c0-3 1-4 4-5l5-4c1-3 3-4 3-1 0 2 4 5 5 4l-1-3v-1c2 1 2 1 1-1l1-6c2-3 2-3 2 5l2 9c1 2 1 2 5 0l4-4-3 1c-5 3-7 2-6-7 2-10 2-11 8-13 5-2 7-5 4-7l-4 1c-2 2-2 0 1-4s4-7 3-7l-2 1c0 3-4 4-5 3s10-13 12-13 2-4-1-5c-1-2-2-2-2 0v2c-1-1-6 5-11 13l-2 8c1 2 1 2 1 0 0-3 3-4 3-1s-3 7-4 6l-3 1v1c3 0 2 4-1 6-5 3-8 2-9-1 0-2-1-4-3-4l-1 3v3l-2 2c0 1 1 1 2-1 2-2 2-2 4 1v3c-1 0-2 1-2 3v4l-1-4-1-1c0 4-3 3-3 0 0-4-6-14-9-15-3-2-7 0-7 3 0 2 0 2-3 0l-5-2-3-1-2-2c-3-2-4-2-6 0s-2 2-7-1c-4-2-4-4-4-6 0-3-3-5-5-2-1 1-1 1-4-2-2-3-3-7-1-6h2l-1-2-3-4c-2-4-2-5 7-13 4-4 6-6 3-5-3 2-3-13 0-19 4-6 5-5 5 7l-1 10v2l1 12c-1 11-2 12-4 10-3-2-3-5-1-5l-1-3c-4-4-6-4-5 0v2l-2 2h1l4 2 4 4 4 4c2 5 6 4 6-1l1-4 1 2c0 4 1 5 3 5 3 0 3 0 1-3-3-4-3-7-1-7l1-2-3-1c-3 1-2-1 1-3 4-1 5-5 2-6h-2v2c-3 2-3-2-4-14l-1-17c-1-5-1-5 1-4 3 3 4 1 2-2l-1-5c1-2 0-3-1-3l-2-2 2-2v-3c-3-6 1-7 7-2l6 3c1-1 2 1 2 3l2 3 1-4c-1-3-1-3 1-2h2l1-4c0-2 0-2-3-2h-1c2-1 2-2 0-4-2-3-2-3-2-1l-2 4v3c2 1 2 1 0 1s-6-6-6-9c0-2 0-2 2-2 1 1 2 0 3-1 0-1 1-1 5 2 2 2 5 4 6 3l1 4-1 5c-3 1-3 7-1 8s2 1 1 3c-2 1-1 2 1 2 1-1 2 4 2 10 0 1 0 2 1 1l3 1c2 2 7 22 6 23l-5-10-2-1c-3 0 4 14 8 15 2 1 2-7 0-14l-2-5 5 5c3 3 5 4 5 3l-3-8-2-8v6c1 7-1 6-3-1-1-5-1-5 1-6l2-4h-4l-3-4-2-3v8h-2c0 2-1 2-1 0v-1l1-3c0-1 0-2-1-1l-1-1 1-1c1 0 2-3 2-7l2-9v-4c-1-1-2 0-3 2-2 6-3 3-3-5 0-6-1-8-2-10-3-2-3-2-4 0-2 4-4 2-4-3 0-6 0-7-4-5-3 1-3 1-2-3l1-7c0-2-1-2-3-3-4 0-5-3-2-4 2-1 0-2-4-3-4 0-4 0-4-3l-2-9c-2-4-4-5-6-4-1 0-2 0-1-1l2-1 6-4c5-4 5-4 2-3l-7-1-3-1 3-1 3-4c0-2 0-3 1-2l3-2c2-2 3-3 1-4-1-1-1-1-2 1l-2 2-4 2c-1 3-2 3-3 1s-2-2-4-1-2 2-1 2c2 2 2 4-1 3-2-1-3 0-3 1 0 2-1 1-1-1-1-3-1-2-2 2v7c0 2 0 3-1 2h-2l-6 4c-5 3-6 3-4 1 3-3 3-4 2-4l-5 7c-4 7-6 9-5 4 1-2 1-2-1-1l-4 3-6 4c-4 4-5 4-4 2 2-2 2-3 0-4v-3c1-2 2-2 2-1l2 2c2 0 5-7 4-8l-1 1-2 1c-1 0-2 0-1-4l1-4 2-5c2-1 3-4 3-5v-3l1-4c1-1 2 0 3 3l2 4v-4l2-4c1-1 1-2-1-2-3 0-2-2 1-5l3-2-3-2-3-6c0-4-1-7-3-7v2l2 6c0 3-1 4-3 4-1-1-2-1 0 0 2 2 1 6-2 5 0 0-2-2-2-5-1-3-2-3-2-2l-3 2-1-2v-3c-2 0-2-11 1-13 2-2 1-3-2-4-3-2-4-3-3-5 1-4 1-4-1-1-3 3-3 4 0 7 2 2 2 2-1 3-2 1-5 4-3 4v13c-2 2-5 1-6-1v-8l-1 1-2 1c-1-1-1 0-1 1 1 3 0 4-3 1-3-2-5-1-8 5s-3 6-4 2l1-6v-3c-1 0-1 0 0 0l1-2h1l2-1 4-3c3-1 3-2 3-5-1-3 0-3 2-3 2 1 3 0 3-1l1-4c1-1 0-2-1-2h-2c2 2 0 7-2 6v-4l-1-5c-2-2-2-2 1-2h3l-1-1c-2 0-2-4 0-6 3-3 2-4-2-1l-2 1c0-4-3-2-6 5-4 9-5 4 0-6 4-9 4-10 0-9l-3-1c1-2-1-5-3-4Zm10 33-2 2v-2l1-2 1 2Zm-80 8-1 1-1-1 1-1 1 1Zm16 5c1-2 3-1 5 4 2 2 2 6 1 8 0 5-3 6-5 3l1-2 1 1 1 1c1-1-1-10-3-10v2l-1 2-1-2-2 1c-3 2-3 2-5 0-1-1-2-3-1-5 1-1 1-2 2-1 2 3 3 2 4-2 0-3 0-3 1-1 0 2 1 2 2 1Zm8 0-1 1-1-1v-1l2 1Zm19 2c3 2 4 6 2 6s-9-6-9-7c0-2 5-1 7 1Zm-4 5 1 1h-4c-3-2-3 0 0 3 3 1 4 7 3 7-2 0-6-9-7-11 0-4 0-5 3-2l4 2Zm42 1-2 18-2 6c-1 2-1 3 1 4 1 2 1 3-1 5l-3 4-3 4c-3 2-3 2-3-1 0-2 1-3 2-3s2-14 1-17c0-1 0-5 2-8l3-10 2-2c1 1 1 0 1-1l2-2v3Zm5 1c1 1 0 1-1 1-2-1-3-2-1-2l2 1Zm-42 3v1l-2-1 1-2 1 2Zm-29 1c0 1-1 2-3 1l-1-1c1-2 4-2 4 0Zm72 2c-2 2-3 3-4 2s4-5 6-5l-2 3Zm-37-1-1 4-2 3v-8l3 1Zm57 0 3 4c0 4-2 4-5-1-2-5-2-5 2-3ZM73 63l-1 2h-1l-1-3c-1-1 0-2 1-2s2 1 2 3Zm36 0-1 2-1-2c2-2 2-2 2 0Zm60 0c0 1-4 5-5 4l5-6v2Zm-36 4v8l2 5c3 1 4 9 3 15-2 5-1 20 1 20l2-5c2-6 5-8 4-2v4c1 0 2-1 2-3 0-4 1-5 7-5 5 1 6 1 6 4l-3 4-6 3c-3 2-4 2-5 1h-2v2c1 1 0 2-1 3-1 3-1 3 1 5l4 3 1 7 2 8c2 1 5 5 5 8s-4 0-10-7-9-9-6-4l1 4v2l6 3c4 4 4 5 2 8-2 5-1 6 5 1l6-5c2-1 3-3 3-5 1-6 4-7 9-4 3 3 4 4 3 7l-2 3v3l-3 6c-4 3-5 3-7 1-1-2-2-2 0-4l1-4c0-1 0-2-1-1l-4 1-2 1 2 2c3 1-1 6-7 8-8 3-9 6-2 5h5l-3 6-4 7c-2 0-4-2-3-4s-2-1-4 1c-1 2-2 2-2 0-1-3-2-2-4 5v3l-3-5-3-8-1-3-1 3v3h-3c-2 2-2 0 0-7l3-5v2h1c2-1 2-2 2-4l-1-9-1-6c-2 3-6 3-5 0 1-1 0-2-1-2l-2-2c1-1 2-2 5-2 2 1 4 0 5-1 1-3 1-4-2-2-3 1-3 0 0-4l2-5c-1-2-3-2-4 2l-3 4-1-1c1-1 0-2-1-3-1-2-1-3 1-5l5-2c2 1 2 0 2-2 0-4-1-4-5 0l-5 3c-2 0-6-3-5-4 2-2 4-1 3 0-2 3 1 1 7-3 3-3 5-6 5-8l4-6c3-3 3-4 1-5l-2-3c0-3-4-10-6-11l-2-4v-4l2 3c2 3 3 3 3-1l2-3v-6l-1-3c-1 3-1 3-2 0-2-3-1-9 2-9l3 4Zm49 1v5l-1 3-3 4-3 4c0 2-1 1-2 0-2-3-2-3-2 0l1 3c2 1-2 4-6 5-3 1-3 1-2-4l2-7v-2l-2-2c0-3 3-2 7 2 3 3 5 3 4 0l3-14c1-2 3-1 4 3Zm-45 4c0 4 0 5-1 2-2-5-2-9 0-8l1 6Zm-52-4c1 1 2 2 1 4l2 4c2 1 2 1 1-1v-2l2 1 4 6c5 4 5 7 2 7l-2-4c-2-4-4-5-4-1 0 3 0 3-4 0l-6-3-4-1c-2-2-3-2-4 0h-2l1-5 1-4c-1-2 0-2 5-2l7 1Zm18 1-2 1-1-2 1-1 2 2Zm6 2c2 3 1 3-1 3l-2-3c-1-4 1-4 3 0Zm63 2-2 2c-2 0-4-4-3-6 2-2 5 1 5 4Zm-77-2c2 3 0 4-3 1l-3-3h3l3 2Zm69-1-1 2c-1 1-2 0-2-1l2-2 1 1Zm63 15a280 280 0 0 0-2 10v-3c1-3-1-4-3-3-3 3-4 1-2-2l3-4 1-3c1-1 4 2 3 5ZM73 87l3 6c-2 1-5-2-6-4 0-3 0-3-1-1-2 3 2 6 7 6l5 2-1 1c-4 0-3 1 2 7l5 5h-6s-2-2-5-2c-3-1-5-3-6-5l-3-2-1-2-1-4c-1-2-1-3 1-5 2-3 2-4 1-6-2-1-1-1 1-1s4 1 5 5Zm11 0 5 2c1-1 2 0 2 1 2 4-2 3-9-1l-7-6h2l7 4Zm28-1-1 1-2-2c0-1 1-2 2-1l1 2Zm72 4c0 2-4 6-5 5l4-7 1 2Zm-99 3c5 3 6 3 8 0 1-1 2-2 4 0l5 1 5 4 3 3-3 2c-4 3-5 2-5-1s-1-3-5-3l-5 2c-1 2-7-1-9-6-3-5-2-5 2-2Zm130-1c0 1-4 5-6 5l2-3c3-4 4-4 4-2ZM57 93c1 2-2 3-4 1-1-2-1-2 1-2l3 1Zm177 1c1 2-2 3-3 2-2-1-1-3 1-3l2 1Zm-59 3c2 0 3 1 3 3l-1 3-1-1c0-3-6-4-8-3-3 3-4 2-4-1 0-2 1-2 4-2l7 1Zm42 1c0 4-4 6-9 4h-4c-1 2-9 11-11 11l-1-3c1-2 2-4 5-5l5-4 4-1 7-2c3-3 4-3 4 0Zm-56 0v2l-2-2 1-1 1 1Zm-108 4h-1c0-2 0-3 1-2v2Zm68-1-1 1-1-1 1-1 1 1Zm38 0c0 1-7 3-8 2v-2c1-1 8-2 8 0Zm-94 3c5 2 4 4-1 2-5-1-6-1-5-3 1-1 1-1 6 1Zm-11 3 3 3c-1 1 0 2 2 3l6 3 3 2-3 3c-1 1-3 3-5 3l-1 1 2 1c2 0 2 1 0 2-3 4-7 2-5-3v-5c-1-1-1-1 1-1 2-1 1-1-2-4-3-2-5-5-5-7-1-4 0-4 4-1Zm166 4-2 1c-2 0-11 11-11 14l4-2 4-6 1-1v5c-1 6 3 6 6-1 0-2 1-4 2-3l1 1 1 3c-1 3-1 4 1 6 3 4 4 4 3 1-1-1 0-2 1-2l5-2 4-3 1-2c0-1 1-2 3-1l2-1 2-3c1 0 2 0 1 2-2 4-3 12-2 13l1 3c0 2 0 2-3 1l-5-5c-1-3-2-3-2-1-1 1 0 3 1 4 2 3 2 3 0 3h-5l-6-2c-3 0-3 0 1 2l2 2c-2 1-7-2-7-4l-2-2c-2 0-2 1 0 5s2 11 0 11l-3-5-3-4-1 2c2 5 3 8 1 8l-1 1h5c3 2 4 6 3 6l-2 2-1 2c-1-1-1 0-1 1s0 2 1 1l1 1c-2 2-4 1-4-2 0-4-2-5-6-3s-4 2-4 0l2-2 4-3h-2l-6 1h-3c-1 2-3 0-3-3 0-2 0-2 4-1l4-1-2-1-4-1v-3l5-3c2-2 2-2-1-4-2-3-2-3-1 0 0 2 0 2-2 1-4-2-8-7-6-7 1 0 1-1-1-3-3-2-3-2-2-3l7-5c2-2 6-5 8-5l5-3c0-2 2-3 3-3l2-2c1-2 1-2 2 1v4Zm12-4c-2 2-2 3 0 4s2 2 0 5c-1 2-2 3-2 1l-5-4-4-2 5-3c7-4 8-4 6-1Zm-106 1h-2c-1 0-1-1 1-1l1 1Zm80 0-2 2-1-2 3-1v1Zm-167 3-2 2c-3 0-3 0-1-3 1-3 4-2 3 1Zm75 1-3 1v-2c1-2 2-2 3-1v2Zm61-2-8 10c-7 6-10 8-10 6l2-4 2-3c0-4 2-7 3-7v2l-1 3c1 1 2 0 2-1 1-2 7-8 9-8l1 2Zm-97 2-2 2c-3 1-5-1-3-2h5Zm49 1-3 2c-2 0 2-4 3-4v2Zm-79 0c0 3-4 4-6 2-1-2-1-2 1-1l2-1 2-1 1 1Zm43 0 2 2h-1c-2 0-3 1-2 2v1c-3-1-3-6-1-6l2 1Zm106 3-4 3c-1 0 0-2 2-3 4-3 5-3 2 0Zm43-2-1 1h-2l2-2 1 1Zm-188 2v1l-2-1 1-1 1 1Zm137-1-1 4c-1 3-2 3-5 3-2-1-3-1-3 1 0 3 6 12 11 18l5 7 1 6c1 5-2 5-7 0l-3-4-3 3-3 2 3-5c3-3 3-5 0-2-2 1-3 1-4-1l-4-3-1-1-2-2-3-1c-2-3-9-1-8 2 0 3-4 4-6 2l-1-3 9-10 10-6 8-6 3-2 4-2Zm-148 4-1 2-1-2 1-2 1 2Zm110 3c0 2-1 3-3 3-3 0-3-1 0-5 4-3 4-3 3 2Zm86-3-1 2v-2l1-2v2Zm-138 3c3 3 3 3 1 5-2 1-3 2-4 1l1-1 2-3h-3l-4-2c-1-2-1-2 1-2l6 2Zm-11 0-1 2-2-2 2-1 1 1Zm20 3c-2 1-3-1-2-3h2v3Zm125-3-2 2c-2 1-3 1-3-1l3-1h2Zm-162 4c3 4 5 7 3 7l-5-2c-4-2-5-3-5-5 0-5 2-5 7 0Zm121 4c1 3 1 3-3 1l-3-4c2-2 5 0 6 3Zm-106 0c7 4 11 13 7 19-1 3 0 3 3 0 3-2 3-2 5 3 0 3 0 3-2 3l-2-1h-1c-2 2-4 1-9-4-3-2-6-5-8-5-1 0-3-1-5-4s-2-3 1-2l6 1h3v3c2 3 2-3-1-8-3-7-2-7 3-5Zm-51 2c-1 2 2 2 7 2 4 0 2 2-3 4l-4 4h-1l-7 1-5 2h5l4-1-3 3c-4 3-5 3-8-2-3-4-3-6-1-6l4-1h5c3 0 4-1 4-3l2-3c2-2 2-2 1 0Zm80 3c-1 2-4 2-5-1s1-4 3-2c2 1 3 3 2 3Zm-54 0 6 1c1-1 2 0 2 1l-2 1-2 1-3-1c-3-2-4-2-7 0l-3 3-2 2-7 4c-5 5-8 6-8 3 0-2 3-4 5-3 1 1 2 0 1-1v-2c2 0 8-5 9-9 2-2 6-3 11 0Zm203 4c0 3 0 3-2 1s-3-3-2-4c1-2 3 0 4 3Zm-71-1 3 1c2-1 3 0 3 1 0 4-2 4-6 0l-3-4 3 2Zm51 3c1 5 1 5-3 3-2-1-2-2-1-2l1-3c0-3 3-1 3 2Zm-14-1c2 1 2 3 2 6l1 8 2 6c0 2-1 2-2 0-1-1-2-2-5-1l-4-1 2-1 3-5v-6c-2-1-2-2-2-3v-2l-2-1h5Zm-169 3c3 3 1 4-3 3-3-1-4-2-2-4 1-1 4-1 5 1Zm49 4 3 2 2 1c1-1 3 0 3 2 2 2 1 4 0 6l-1 3c1 0 2 1 1 3 0 6-3 4-7-3s-7-16-5-16l4 2Zm-60 1-1 2-1-1c0-3 1-3 2-1Zm-18 8c-2 2-3 2-5 1-2-2-2-6 1-8 2-1 3 0 4 2 2 2 2 2 0 5Zm146-2c-1 1-2-1-1-2 1-2 1-2 1 0v2Zm-130-1-1 2-2-1 2-1h1Zm143 6c2 4 2 4-2 7-3 2-10 2-10 0s8-12 9-12l3 5Zm-99 6 9 11-1 7c-2 6-5 6-5 0 0-3-1-5-2-5-1-1-6 4-6 7h1c0-2 4-2 4 0l-1 4c-2 2-1 3 0 4l2 2c-1 2 0 2 3 2s4 1 4 2c0 4-2 6-4 5l-5 2c-3 3-4 3-7 1-2-1-2-2-1-8l3-8c1-1 0-5-3-6-1 0-3 0-3 2-2 3-4 1-2-3l1-4s0-2 2-3l6-9c0-1-7 0-9 2-2 1-5-1-4-4 1-2 1-2 2 0h3v-3c-2 0-2-8 1-8l12 10Zm-18-7-1 2-4 5c-3 5-4 3-2-3 2-5 5-7 7-4Zm191 0v1l-2-1 1-1 1 1Zm-85 4c-3 2-3 2-1-1l2-3c1 1 0 2-1 4Zm23-3-2 2v-2h2Zm12-1-2 2-1-1 1-1h2Zm12 14c-2 6-4 5-5-2-1-5 0-6 2-7 5-1 6 3 3 9Zm-22-7-2 3c-2 2-2 3 2 3 1 1 3 0 4-1 1-3 2-2 6 1 3 3 3 4 3 8l1 7c1 2 1 3-1 3-1 0-1 1 1 2 1 1 1 2-4 6-3 2-4 4-3 4 2-1 3 0 3 1 0 4-2 4-3 1-1-1-2-2-3-1l-2-1 1-1c1-1 2-2 1-3-1-3-1-3-4 0-1 2-2 3-3 2l-5 2c-5 2-8 6-5 6 2 1 2 8 0 8-1 0-4-5-3-7l-1-2-1-5-1-2c0 2-1 3-2 3l-1-3c0-2 0-4-1-3l-1 3c0 3 0 3-4 3l-10 2c-6 2-10 2-10 0l1-1c3 0 7-2 7-4l2-1h4c3-1 3-1 1-2s-2-1 0-2l1-3c-1-1-2-1-4 1l-2 3-3-4-4-4-1-3 1-4 2 3v1c1-2 2-1 4 0 3 3 3 2-1-3-3-5-3-8 0-8l1-1 2-4c2-1 3-1 5 1 3 3 7 11 7 12l-3-2-2-1c0 3 7 9 11 10l4 1-4-5-5-7c0-3 4-6 6-4l1-2 1-3c1 0 2 1 1 3s0 4 3 7c5 5 5 8 1 10-3 1-3 2-2 2 2 1 2 1 0 2l-3 1-1 4v3l3-2 4-7c2-3 3-4 5-3 3 1 4-1 1-3v-4c1-2 0-3-1-2-1 0-2-1-1-2l1-5c0-4 2-8 4-8l1 1Zm15 3-1 1-2-1 2-1 1 1Zm-38 4h-2c-1-2 0-4 2-3v3Zm12-2c-1 1-1 2-2 1l1-1c1-2 2-2 1 0Zm-33 2-2 3v-3c1-3 3-3 2 0Zm-47 3c4 3 4 6 2 8-1 0-2 0-2-2l-2-3-2-6 4 3Zm-5 3 3 9c1 5 2 8 5 10 4 3 4 4-1 3l-4 1c0 2 4 4 5 3 1 0 2 1 2 3l3 8c3 4 2 6-1 5-1-1-2-2-1-3 0-2 0-2-2 0l-2 4h-3c-1-2-2-5-2-11 0-11-2-15-4-9s-7 12-7 9l1-7c2-7 0-12-3-9-4 2-2-2 1-5 2-2 4-4 4-6v-3l1-2h5Zm-58 4c0 2 0 3 2 3s2 0 0 1l-4 3c-2 3-2 3 0 4h3l2-2-1 3c-2 4-3 4-5 2-1-1-3-3-5-3l-4-1 3-4 3-3c1 1 3-1 4-3 2-4 3-5 2 0Zm105 1v2l1 3 3 6 3 3-1-3c-1-3-1-3 1-1 3 3 1 5-4 6-4 1-7-1-4-4v-3h-5c-3 0-4-2-1-4l3-4 3-3 1 2Zm-34 5c1 2 1 2 2 0s1-2 1 1v3c1-1 2 0 2 2 0 4-3 5-4 1 0-2-1-3-2-3l-1-2-1-1-2-1c-1-3 4-3 5 0Zm21-1-2 2v-2l1-1 1 1Zm-76 1-2 1h-1l1-2 2 1Zm-6 8c-1 3-1 4-4 2-2-1-2-1 0-5 3-4 5-3 4 3Zm12-3-1-1 1-2v3Zm-6 2c-2 4-5 4-3 1l3-4v3Zm154 5c-4 3-5 2-1-3 3-4 3-4 4-2l-3 5Zm-69-5c0 1-4 4-5 3s1-4 3-4l2 1Zm-73 0c0 3-3 9-5 8v-4c2-4 5-5 5-4Zm54 12c0 4 1 7 2 7l-2 8c-3 1-6-8-6-14 2-8 2-10 4-9 1 0 2 3 2 8Zm-88-6c1 1 2 2 1 3-1 3 1 4 4 2 2-2 3-2 6 0l5 4c1 2 2 2 4 0 3-3 6-3 6-1 0 3-4 5-5 5-1-1-3 0-4 1l-4 2 4 1c2 1 4 0 8-4l5-4 1 5c-1 4-1 5-5 5l-3 1 1 3c0 2 1 2 3 2l4 1 1 4c1 3-3 3-5-1l-8-2-5-2 1-1 1-1h-3c-2 0-2 0-2-2 1-2 1-3-1-2l-3 2h-3l-1-1c0 2-4 4-5 2l3-3c2-2 2-2 0-2s-2-1-1-3c1-3-2-6-4-3h-2c-1-2-1-2-2 0 0 2-3 4-6 6l-6 3 4-5 5-4 1-1 2-4 2-4 1-3 5 1Zm107 0-1 2c-1 1-2 0-2-1l2-2 1 1Zm49 3-3 1-1-1c0-1 1-2 3-2l1 2Zm9 4-3 9c-3 3-4 6-4 7l9-13c1-2 3 0 3 4l-1 3c-1 0-2 1-2 4s-1 4-8 3l-2 3-2 2v-1c2-3 2-6-2-7s-4-2-4-9c1-4 2-5 5-7 6-2 10-1 11 2Zm-175-1-3 2c-1 0-1-1 1-2 3-2 4-2 2 0Zm144 0c3 1 4 2 3 4-1 5-5 10-8 10-2 1-5-4-6-11-1-3-1-4 2-4l5-1 4 2Zm-83 3c0 3 0 3-4 1-2-1-2-1-1-3 2-2 4-2 5 2Zm13 3c0 4 0 5-2 5-1 0-2-1-1-3 0-2 0-2-1-1-2 1-2 1-2-1l6-4v4Zm39-3c-2 1-3 2-3 9v8l-1-7c-2-8 0-11 5-11 2 0 2 0-1 1Zm12 2-4 5c-4 4-5 4-6 2-1-3-1-6 1-6l2-2c0-2 5-2 7 1Zm-77 3-2 1-1-1 1-2 2 2Zm84 5 5 5c2 2 3 1 6-2l3-4 2-1 3-1c2-2 2-2 3-1 0 1 2 4 5 6 4 5 4 7 2 7v2l1 2-9 4c-2 0-2 0-2 2 1 1 0 2-1 3-2 0-5 1-7 3-4 2-6 3-6 0 0-1 0-2-1-1l-1-1 1-2 1-2c0-3 4-3 5 0 2 3 5 0 5-6-1-6 1-10 3-8 3 1 2 3-1 2l3 4 5 4c2-1 2-10 0-9l-5-2c-4-3-7-2-8 4-1 5-1 6-4 3-2-1-2-1-1 1 0 2 0 2-3 3-4 0-4 1-4 5s-1 5-2 3l-4-6c-1-5-1-6 1-8s3-4 2-8l1-6 2 5Zm-72-1c0 3-3 5-4 2-2-2-2-5 1-5 2 0 3 1 3 3Zm6 4c2 2 2 2 0 2l-2-3v-2l2 3Zm-14-1-2 1h-1l1-1h2Zm72 1-2 2c-4 0-3-2 1-3l1 1Zm-104 1-2 1v-1l1-1 1 1Zm55 1 8 2c5 0 7 2 7 8 0 4-3 5-6 3-1-2-3-2-4-2-3 0-10-8-10-11s1-3 5 0Zm-56 6c3 1 2 4-2 4-2 1-3 0-3-1l-1-2c-2 1-5-3-4-3l3-2c3-1 3-1 3 1l4 3Zm47-1c1 3 0 3-1 2-3-2-3-6-1-5l2 3Zm51 5-5 3c-4 0-4-5 0-8 3-2 3-2 5 0v5Zm61-6-1 1-2-1 1-1 2 1Zm-126 6v2l-3-3c-3-3-3-5 0-4 2 1 3 3 3 5Zm133-2-1 1-2-3c0-2 1-2 2-1l1 3Zm-147 2 5 1c4-1 2 3-2 5-5 3-7 3-7 0l-2-3c-2-1-2-1 0-3s1-2 6 0Zm60 2-1 4c-1 1-1 0-1-3s0-5 1-4l1 3Zm96-1c-1 1-4 0-4-2h2l2 2Zm-128 2-2 2c-1 1-2 0-3-1-2-3 0-4 5-1Zm58 1 1 4c-1 1 1 2 3 3 6 4 7 7 3 12-5 6-9 8-12 7s-6-10-4-11l5 3c5 5 10 6 5 1-5-6-8-15-5-15v-2c-2-1-2-2 0-4s3-2 4 2Zm71 2h-5c-5-2-5-4 0-3l5 3Zm10 1c2 3 2 4-2 4-5 0-6-1-5-6 1-3 1-3 3-2l4 4Zm-21-1-2 1-1-2 1-1 2 2Zm-6 0-2 1-1-1 2-2 1 2Zm37 1v4h-3c-2-3-2-7 0-6l3 2Zm19 1c1 1 2 4 1 5 0 3-9 18-10 18l-3 1c-5 2-1-7 5-13 4-3 4-6 2-6l-1-4c0-4 2-5 6-1Zm-186 1-2 2v-2c2-2 4-2 2 0Zm9-1-3 3c-1 2-2 2-2 1 0-2 3-5 5-5s2 0 0 1Zm31 1c-2 3-6 4-6 2v-2c-1-2 0-2 4-2 5 0 5 0 2 2Zm28 2-2 4c-1 0-2 5-1 10v4c-2 0-4-6-4-14 0-5 1-7 2-7 4-1 5 0 5 3Zm76-3v1c-1 2-6 1-6-1l3-1 3 1Zm31 2v3l-2-1-1-3 1-2 2 3Zm-155 1c0 2-4 3-6 1-1 0 2-3 5-4l1 3Zm106 0c6 1 10 3 10 4 1 1-3 8-5 8l-1-3c0-5-4-8-7-5-4 1-8 1-10-2-2-4 0-4 13-2Zm-190 2-2 1-1-2 1-1 2 2Zm54-1-2 1-1-1 2-1 1 1Zm60 3-1 4-1-3 1-4 1 3Zm-51 7-3 1-3 3v3l-3-3-2-5 1-2h1l3-1c0-1 1-2 2-1l2-2c0-2 1-2 2 1v6Zm17-7-3 2c-2 1-5 2-6 1-2-1 4-5 6-4l3 1Zm16 0-1 1-1-1v-2l2 2Zm9 1h-1c0-1 1-3 2-2l-1 2Zm66-1c3 4 2 17-2 17l-1-1-3-2c-3 0-5 0-9 3l-6 5h-1c-1-1 1-4 6-9 8-7 11-9 9-5v4l2-4 2-4 1-2c0-2-4 0-8 4-5 4-5 2 0-4 5-4 8-5 10-2Zm-84 2c1 3 1 9-1 9l-1-2-2-2c-2 1-2-3-1-6 3-2 4-2 5 1Zm126-2c1 1-3 6-5 6l-2-2c0-1 1-2 2-1 2 0 2 0 2-2 0-1 2-2 3-1Zm-207 8c-7 4-9 4-4 0l4-5v-2s2 0 3 2c3 2 3 2-3 5Zm222-6s0 2-2 3c-2 2-2 2-3 0l-1-3h6Zm-9 4v-2 2Zm-112 3c-1 1-2 4-1 7l-1 5c-1-1-1 1-1 4l1 5c2 0 2 0 0 1l-1 4c0 3 0 4 1 3 1 0 2 0 1 2l-1 5c0 3-7 3-9 0-2-2-2-5 0-5l4-4c1-5 0-10-3-16-2-5-1-7 4-11 6-4 9-4 6 0Zm74-3-1 1-1-1 2-1v1Zm-130 5c4 4 6 8 3 9-3 2-4 1-4-3 0-3 0-5-1-4l-1-1-1-3c-1-3 0-2 4 2Zm22 3h-1l-2-2c-1 0-2-1-2-3v-2l2 3 3 4Zm-2 2c1 2-1 12-2 11-3-1-6-7-4-10 2-2 5-3 6-1Zm24 2v6c-2 0-5-5-4-7s3-1 4 1Zm-53 3c5 3 6 7 1 7-4 0-10-7-8-9s2-2 7 2Zm96-1-1 2-1-1c0-3 1-3 2-1Zm24 1-3 1c-1-1 2-3 4-3l-1 2Zm-104 3-2 1-1-1c-1-1 0-2 1-2 2 0 2 1 2 2Zm38 6c0 2-3 0-4-3-2-3-2-3 1 0l3 3Zm-85 1-2-1c-2-3-1-4 1-2 1 1 2 2 1 3Zm54-2v3l-3 1-1 1-2 4c-1 2-2 2-5-1l-4-4c0-2 6-2 7 0 1 1 2 0 3-2 2-4 3-4 5-2Zm-25 2-2 2-2-2 3-1 1 1Zm42 4c1 2 0 3-2 3-3 0-3 0-2 3l-1 4-1-3-1-5v-4c0-2 1-3 4-2 1 1 3 2 3 4Zm14 1c0 4-2 4-4 0-2-5-2-5 1-3 2 0 3 2 3 3Zm-94 0c1 3-1 4-3 3l-2-3h5Zm5 0h-2c-1 0-1-1 1-1l1 1Zm124 2-1 4c-1 1-1 1-1-1l-1-4 1-2 2 3Zm-42 2c1 0 7 9 7 11l-2 1c-3 0-10-6-11-10-1-5 0-6 3-4l3 2Zm-81 0-2 1-1-1 1-1 2 1Zm62 0-2 2-2 4c0 2 0 3-2 2s-2-2 1-6c3-3 5-4 5-2Zm-14 3-1 1-3-1 2-2 2 2Zm3 8-2 1-2-1c-1-1 0-2 2-2s3 1 2 2Zm45 2c1 2 0 2-2 2s-3-1-1-4c0-2 2-2 3 2Zm-23 3-1 3c-1 0-2-2-2-5s1-4 2-2l1 4Zm5-4-1 2-1-2 1-2 1 2Zm10 3c0 2-1 3-2 3v2l-2 5c-1 2-1 2-2-2l-1-6c-3-1-1-4 3-4 3 0 4 0 4 2Zm-9 8 2 7c1 3-2 2-4-1-2-4-2-5 0-4s2 1 0-1-2-6 0-6c1 0 2 2 2 5Zm17-2 2 3c2 1 2 4 2 17 0 14-1 20-4 22-2 1-3-1-3-10 0-6-1-8-3-11l-3-2v4c-1-1-2-17 0-17l2-3c1-6 7-9 7-3Zm-42 9-2 2-1-2 2-2 1 2Zm35 20-1 1-1-1 2-1v1Zm1 4c2 2 2 5 1 5-2 0-6-4-5-6 1-1 2-1 4 1Zm-5 5c1 1 0 3-2 5l-3 1c0-3 3-9 4-9l1 3Zm12 6c2 0 3 1 3 3l1 2 1 4c0 3 0 3-1 0-2-3-5-5-8-3l-6 2h-4l3-2c5-2 6-4 4-6v-3c1-1 1-1 2 1l5 2Zm-8 2-1 1h-2l2-2 1 1Zm-5 9-2 2-1-1 1-2 2 1Z"/><path fill="#214784" d="M132 138h1l2-1-2-1-1 2ZM137 145l-1 2c1 1 1 0 2-1 1-2 0-3-1-1ZM145 155c0 1 0 2-1 1-2 0-6 7-6 9 1 1 0 4-2 6-3 5-2 6 2 6s8-4 5-5c-1 0-1-1 1-4 2-2 3-5 2-6l1-5c2-2 2-3 0-3l-2 1ZM147 177c-1 2 0 3 2 1l1-2-3 1ZM86 204v2l1-2c1-2 0-2-1 0ZM204 175l2 1h1l-3-1ZM208 184c2 5 5 6 5 2l1-5c1-2 1-2-2 0-2 3-3 3-3 1l-1-2v4ZM111 14l1 2h1l-1-2h-1ZM103 27l1 2 1 1 2 3v-2c-1-1 0-2 2-1 4 1 3-2-2-4-4-2-4-2-4 1ZM71 34l3 2c1-1 0-2-2-3-3-1-3-1-1 1ZM100 33l2 2v-2l-1-1-1 1ZM682 36l-2 1-2 1-2 1 4 1c6-1 10 1 16 6l6 3h5c0-2-5-4-7-4h-1l-1-2-2-1c0-3-9-7-14-6ZM84 38l2 2v-2l-1-1-1 1ZM666 40l-13 3a216 216 0 0 0-36 9c-3 0-16 4-19 6h-4l-4 1-3 1c-1-1-10 1-12 3l-6 1-7 2c-2 2 0 2 15-1l14-2 13-4 9-2 6-1h1l4-2 6-2 13-3 10-3c12-2 20-5 20-6 0-2-2-2-7 0ZM162 43v3l2-5-2 2ZM187 45l2 3 2 1-2-3-2-1ZM169 49l2 2 1-2-1-2-2 2ZM204 52l2 1 1-2-1-1-2 2ZM225 52l-1 3-3 7c-3 5-3 6 0 5s7-11 6-14l-2-1ZM712 55l8 11c3 7 11 16 18 20l34 25 23 9c14 4 20 7 27 14l11 8 11 9 14 10 6 6c1 2 2 2 9 2 12-1 17-2 22-5l6-3 5-4 4-2 5-2c4-3 6-3 16-2 9 1 13 0 19-2s8-2 11-1l7 1c2 0 5 2 10 6 4 4 7 5 8 5h2c-1 1 1 4 3 4v-2c-2-2-2-2 2 0 3 2 5 2 8 1l3-2c0-1 3-2 16-2 10-1 23 2 28 6 6 5 19 5 32 1l14-4 6-3 4-2c3 0 4 0 3 1l-1 8v7l1-6c1-6 2-10 2-6 0 3 7 2 9-1l4-3c1 1 3 0 4-1 3-3 5-2 12 3a1280 1280 0 0 0 31 21l-2 5-2 4c0 2 6-3 7-7l2-2 2 2 22-3 9 4c3 2 9 6 13 7l36 18a297 297 0 0 0 47 20l24 10 8 3c2 0 27 24 31 31 5 6 12 13 14 13l1 2 6 6c4 4 5 5 4 6s0 1 3 2c7 1 10 3 7 5-1 1-1 1 1 3l2 2-22-1c-1-1-4 0-6 1l-5 2c-1-1-2 0-3 1l-6 2-9 3c-6 5-9 5-8 2 1-4-6-5-9-1-2 2-1 4 0 2 2-2 5-2 5 0 0 1-7 6-19 11-6 3-8 4-14 3-3-1-7-2-8-4l-3-2-6-2c-5-4-7-4-7-2h-2c-7-7-7-7-14-4h-17c-11 2-13 2-22 0l-7-1c-1 1-5-1-10-3-8-4-8-5-10-3l-2 2-2-3c-2-4-12-6-26-6l-12-2c-1-1-2 0-3 1s-1 1-1-1-1-2-10-1l-13 1-16 3-11 3-8 2-12-5c-10-6-11-6-17-6l-11 2c-5 1-6-1-3-4 1-2 1-3-2-5l-4-4-1-3c-1-2-1-4 1-7v-7c-2-4-3-5-5-2s-9 6-9 5c0-2 3-5 4-5h1c-1-1-2-2-4-1l-4 1-4 1c-2 1-9-4-10-7 0-4-3-4-3-1s-3 6-5 6l-2 3-2 5v1l3-1h3c1 3-1 5-4 4-5 0-8-1-8-3l-2-2c-3 0-1 7 2 10 3 2 2 7-1 8h-3l-3 3-2 1-2-2-1 1-4 5c-4 4-5 4-2 5 2 0 3 1 3 2l2 1c1-1 3 0 3 1l1 2-2 2c0 1-1 4-4 6l-4 5-2 3c-2 3-2 3 1 3 2 0 3-1 4-3l3-5h2l-2 4c-2 1-2 1 0 1l2-1 2-1 3-4c1-5 3-5 7 1 1 3 4 6 5 6 2 1 2 2 1 4-2 4-4 3-7-2s-5-4-6 1c0 2-1 5-3 6-2 3-5 4-4 1l-1-2c-2 0-3-1-3-2l-2-2-2 4 1 2 2 1c1 3-2 4-4 2l-3-1v-9c0-5 0-6 3-8 2-1 3-3 3-5l2-5c3-6-6-6-15 0l-8 3-9 2c-5 2-9 2-18 2-24-1-25-1-26 1l-3-1c-2-2-5-4-8-4l-6-3-3-1c-1 1-2 0-4-1l-5-2c-3 0-3 4 1 5l3 2 3 2c4-1 7 4 6 9-1 3-1 3-1 0-1-2-2-3-5-2l-3-3c-2-4-4-4-5-1-1 2-1 2-1-1 1-2 0-5-1-6l-1-4c1-2-4-4-5-2l-3 1c-1-1-3 0-4 1-2 2-3 6 0 6v1h-3l-2-2h-1l2-2v-2l-3 1v4c2 1-1 8-4 10-3 1-3 1-2-1 0-2 0-3-1-2-2 0-2-1-2-6 1-5 1-6-1-4h-2l2-2c1-1 2-1 2 1 1 3 1 3 5 0 1-2 4-4 4-6 2-2 2-2 0-1-2 2-3 2-3 0s0-2-2-1c-3 3-3 1 0-3 2-3 3-4 1-4-3-2-4-2-4 0 1 1-1 3-3 5l-3 4v2l-4 5c-2 2-2 2-3 0h-2c-2 2-5 0-5-4 0-8 1-14 4-14 2 0 3 1 3 2l2 1c3-1 4 0 1 2v2l4-4 4-4c3-1 14 1 13 3s2 1 4-1c1-2 0-3-5-3-3 0-3-1-2-2 2-2 1-3-2-2s-2-2 1-7 4-6 2-9l-2-2-2-4-2-5-1-4c1-3-2-2-4 2l-5 5c-4 3-5 2-7-5 0-4 0-4 1-3 3 3 4 2 3-4l-1-10-1-5 3 3c1 2 2 3 1 4v3l5 4-2-7c-5-12-10-20-10-16l-3 3c-2 1-2 1-2-4 1-5 1-6-1-6-1 1-2 0-2-1 0-4-2-5-6-2l-3 3v-3c0-3-2-3-4 1l-4 4c-2 0-2-3-1-4 2 0 1-1-1-4l-3-4-2 4c-2 5-3 5-4 3-2-3-3-1-4 5l-3 5v2c4 5 7 40 3 40l-1-2v-3l-1 3-2 3c-2 0-2 0-2-2 1-3-1-3-3 0-2 1-2 3-2 4 1 3-1 3-2 1-1-1-1 1-1 4v4c-1 0-2-2-2-5s0-3-1 0c-2 4-2 4-5 2-5-2-8-5-7-7l-2-3-5-2-6-2 2 1 3 5 2 6c2 1 1 2-3 3l-5 2c-2 2-2 2-4-1-3-6-4-6-7-4-2 1-2 1 0-2 2-2 2-5 2-6l-1-3-1-3h-4c-3 2-2 0 2-8l4-7h-4c-3 0-4 0-7-5-1-4-3-6-4-6 0 0-2 0-2-2-1-1-3-2-9-2s-7 1-8 3c0 2-1 2-2 2h-2l-3 2c-2 1-3 1-2 4l1 7c1 2 1 2 0 0-3-2-4-1-5 1-1 3-1 3-5 1l-4-3c0-2-6-8-8-8l-6-2c-3-3-5-4-7-1 0 2-1 2-2 1 0-1-2-2-5-2s-4 0-5-3c-2-5-4-4-7 1l-4 4-2 1-2 1c-2 0-2 1-2 3 1 3 1 3-1 3-2-1-3 1 0 3 2 2 0 3-2 2-3-2-8 0-7 2l-3 1-3 1c0 2 3 5 7 7s4 3-1 2l-5-4c-1-4-4-4-6-1-1 2-2 2-5 0l-4-3 1 4c0 5 0 5-5 3-4-2-6-2-4 1 1 1 0 3-1 4-2 2-3 4-2 7 0 3 0 3-2 3-4 0-4-1-2-5l2-7c0-4 0-4-5-4-3 1-4 0-4-2 2-3-6-5-16-3h-10c-3-1-5 3-2 5l1 4c0 1-2 0-5-3-4-4-5-6-5-8 1-2 1-2-2-1-5 2-6 2-4-4v-22c0-4 0-6-2-6s-4-2-5-8-3-6-4 0c-1 7-2 7-5 2-1-3-1-5 1-6 3-4 2-7-2-7-3 0-4 0-1-3v-7c-1-4-2-4-6-4h-4l1-7 3-12c7-13 7-12 4-12l-4 2-3 1 1-2c1-2 1-2-1-1l-4 2-2 3 1 2 1 1-2 1c-3 0-10 4-10 6l-1 1h-2l-3 1c-2 0-2 0 1-3l3-5c0-3 1-4 3-4 4-1 10-7 9-10l-2-2c-3 0-9 5-8 7l-2 4c-3 3-6 9-7 14-1 3-1 3 1 3 2-1 3 0 2 1-1 2-1 2-5 0-2-1-3-1-4 1-2 3-3 3-4-5-1-5 0-7 1-8 2-2 3-2 4 0 3 5 6 1 6-6l2-5c2-1 2-2 2-3l6-6c4-3 6-4 8-3l3 1c1-1-1-4-3-4l-1-1c3-4 2-6-4-6-4 0-5-1-4-2l-1-5c-1-1 0-2 1-3 1 0 1 0 0 0l-3 1c-1 5-3 2-2-3 0-3 0-5-1-4l-1-3c0-3-1-4-3-3l-6 3c-1 1-3 2-4 1-2 0-3 1-5 5l-3 4-2-4c-1-3-3-5-4-5s-2 0-2-2l-2-3c-3 0-3-2-1-5 1-3 1-4-2-1-2 2-5 2-5-1 1-2-3-2-6 0-2 2-3 1-1-2v-1l-3 3c-1 5-4 11-5 11l-3-4-3-4-2 3c-1 3-1 3-3 2l-3-4-3-3c-1 0-2 0-1 4 1 5-1 6-2 1-1-6-4-5-3 0 0 5-4 7-5 2-1-2-4-4-4-1l-2 1c-3 0-3 0-2-2 2-3 1-4-2-4-2 0-4 2-6 5-2 4-4 5-4 4-1-1 0-3 1-4l3-4 3-4c3-2 3-2 2-4-3-3-6-2-9 2s-5 5-6 1c-1-2-3-4-6-4l-5-2-7-5v4l2 2c1 3 1 3-2 3l-5-2h-3v8l2 3 5 7c2 5 3 6 5 6h3c0 3 2 1 3-3l1-4 3 3c2 3 2 4 0 5l-4 3-3 1-3 3c-2 3-4 3-4-1l-1-3-2 9-2 9-2-3c2-11 2-19 1-19s-2 2-2 5l-1 4c-2-1-2 1 0 2 2 2-1 7-3 6-2 0-3 0-2 3l2 5c1 4-2 2-8-3-5-5-6-9-4-13 2-2 0-7-2-7v3c1 3 1 4-1 5-4 3-5 2-5-6 0-6 0-8-1-6l-1 5v4c-2 3-1 6 2 7 5 0 8 5 12 16 2 5 3 7 5 8 2 0 4 2 4 4v47c-1 11 0 15 1 16l1 8c0 5 0 6-2 4-3-4-4 0-1 4 2 4 2 4 3 2 0-2 1-3 2-2l3-1c2-3 3-28 1-27v-3l2-10c0-4 1-7 2-7l1-2c0-1-1-2-2-1l-1-3-1-5c-2-1-2-10 0-12 1-2 3-2 5-2 2 1 3 0 3-1l-2-1c-2 0-6-5-6-8-1-4 1-8 4-8 1-1 1-1-1-2-2-2-3-8-1-11s5 0 5 7c0 5 0 5 2 3 2-1 2-3 2-4-1-2 7-5 8-4l-1 4-4 6-3 3c-2 0-7 7-7 9l2-1 3-3 1 6c1 10 3 9 2-1l1-10c3-2 5-1 5 3 0 2 1 2 3 1 2-2 3-1 5 7l3 5c2 0 1 4-1 4l-3-4c0-4-1-5-4-5l-2-2v-1c-1 0-2 2-2 5 0 4 0 5 1 4 2-3 4-1 8 7 3 5 3 5 1 8l-2 5c0 2 1 3 3 2 3-1 4 0 4 1 0 3 2 4 6 2 4-3 5-3 6 0 1 2 5 3 5 1s4-1 6 3c4 5 3 6-2 2-4-3-6-1-2 3l6 8 3 6 1-1v-2c2 0 1-2-1-4-3-3-4-6-1-5l4 1c2 1 2 1 2-1v-15c1-3 1-2 3 3 1 5 4 6 3 0 0-3 0-5 2-7 2-3 2-3 3-1l2 11c0 8 0 9-2 8-2-2-2 0 1 5 4 6 5 7 3 8-2 0-3 1-6 5l-1 4-2-1c-2-1-3-3-2-3l-2-4c-2-3-2-4 0-8l2-4-3 3c-2 2-2 3-2 7v3l-2-1c-1 1 0 5 2 5l7 6c5 5 6 6 8 5v-2c-2 0-2-2-2-6 1-5 1-6 3-6s3 1 3 4v8c-2 3-1 5 0 7v6l-2 7-3 2c-2 0-2 1-2 3l1 3 1-1 2-1h1c0 3 0 4 1 2 1-1 2 0 2 3l1 10c1 5 1 5 2 2l1-14v-12c3-3 4-7 3-7l-2 2c-1 1-1-2-1-6 0-7 0-8 2-4 1 6 3 5 2-1l1-5c2 0 3 1 4 3 1 1 2 1 3-3 1-3 3-6 5-7 2-2 2-2-2-1-3 0-3 0-3-3 0-5 2-6 4-2l3 3h3c1 2 2 1 3-1 0-3 1-2 4 4l4 11c0 2 1 3 2 3 2 0 2 0 0 2-1 2-4 3-5 2-2 0-2 0-2 2 1 2 0 3-2 3-5 2-12 9-12 12l-1 3c-3 0-7 5-7 8l4 2 4 1 4 1c5-1 6 3 1 6-3 3-3 3-1 6 3 4 8 3 14-3l6-5 1 4-1 5c-3 2 0 3 4 1l4-5c1-2 1-2 3 0l3 1-2-2-1-3c1-3 0-4-2-3-2 0-3-1-4-3-1-3-4-3-5 1s-7 6-11 4c-2-2-2-2 1-3l4-4c2-4 4-5 8-3h2l-1-1-1-2-6-1h-6l-2-1c-1 0-2 1-1 2l-5 1-6-1 1-2 5-3 5-3c1 1 2 0 2-1l5-3c3-2 4-3 3-5-1-3 3-5 4-2 0 1 1 1 2-1 3-2 6 0 6 4 1 3 6 18 8 20 2 3 3 2 1-3l-1-4 8 8c4 5 7 7 8 6l3-1c-2 2 4 5 7 4 2-1 3 0 3 3 0 4-2 7-6 11l-1 3c1 2 7 0 6-1l1-1c2 0 1 1-3 7-3 4-4 5-2 5l2-2c0-3 7-8 13-9 6 0 8 2 3 3-3 1-3 2 0 5 2 2 2 3-2 6l-9 6-5 3v-7l-1-1c0-1-5-2-6 0v4l2 3v-3l2-3c1 0 2 1 1 2l-1 5c0 2 0 3-1 1h-1l3 5c3 4 3 4 3 2 0-1 1-4 3-5 4-4 15-13 18-14s3-2 3-4v-4c1 0 2-1 2-3l4-4c4-2 5-2 6 0 1 4 0 9-3 10-4 2-4 4 0 6s3 3-2 6l-5 3h5c3 0 4 0 4 2l2 3 2-3 2-4c2-1 2-2 1-4-2-4-2-10 0-10v-1c-1-2 2-5 5-4 2 1 2 3-1 5-2 1-2 1 1 2h4l-4 4c-4 4-5 6-2 6 2 0 2 0 1 1l-1 3c1 1 0 3-2 4l-3 5c-1 2-1 2-2 0-2-4-3-4-2-1l-1 3c-2 0-2 3 1 5 2 2 2 2 1-1 0-2 0-3 1-2l3-3 2-2 2-2c2-4 6-5 8-3l5 2c3 0 4 0 3 5 0 4 0 5 1 4l2-4c-1-1 1-2 3-3 6-2 7-1 6 3-1 3-1 4 2 3l5-2c3-3 6-1 5 5 0 6 2 15 4 15v2c-2 2 0 6 3 6 2 0 3-2 5-4 0-3 2-5 2-5l4-1h4c1 2 3 1 3-1l1-3c3 0 5-3 4-6-1-2-1-2-1 0l-2 2c-1-1 0-4 3-6h5c2 1 3 2 2 3h4c4 0 4 0 2-1s-2-2-1-4c2-4 4-4 5-1l2 1 1 2c1 1 2 2 5 2h4l-1 2c-3 0 0 4 4 6l4 1c-1-2 3-6 6-5 2 0 2 1 0 2-3 3-2 5 0 4l5-1 3-1c2-2 3-6 1-6l-2-2 2-1c2 0 5 9 4 10 0 1 0 2 1 1s1 0 1 1c0 2 1 1 3-2 4-9 6-13 9-13 2-1 2 0 1 2-2 3-1 4 6 4l5 1c-1 1 2 10 5 17l1 6c0 3 1 4 3 5 2 0 2-1 2-11v-12l1-5c1-3 3-1 4 2l1 2 3 1c3 3 2 0-2-5l-5-7c0-2-1-2-2-1l-3 2-4 1c0 1-9 3-10 2s0-3 3-6c4-3 6-4 7-2 1 1 2 0 4-2l4-3c3 1 5 5 3 6l1 3c4 2 4 2 4 0l3-2c2 0 3 1 2 2l1 2 1-2c0-1 1-2 3-2s3 0 2 3v4l2 7c1 6-1 7-5 1-2-3-2-4-1-5 2-2 2-4 1-4l-3 3c0 2-1 2-2 1l-3-1c-1 1 0 2 2 3l2 3 3 4c4 2 4 3 3 7l-2 8-2 7c0 3 0 3-1-1s-1-4-1 2v7c2 4 3 2 4-4 0-7 2-14 5-13 3 0 3-2 1-5s-2-3 0-4c3-2 4-6 1-9-1-1-1-2 3-6s4-4 2-5-2-2-1-2l2-1-2-1c-2 1-5-5-5-11-1-3 0-4 2-4 1 1 2 0 2-1l1-6v-11l2 3 3 3v-2c-2-1-2-6-1-5l2-1c0-2 1-2 5-2l7 3 2 1-3-5-2-3 2-4c4-4 4-5 1-4-1 0-2 0-1-3 0-3 2-3 6 2 3 4 4 11 2 13l-1 5c0 3-1 4-2 4v2l1 17-2 28c0 13 0 14-3 16-2 2-3 3-2 4l2-1c3-3 4-2 4 5a629 629 0 0 1 6-34c1 2 2 3 2 0l-2-4c-2-2-1-22 1-30l1-11 1-6 1-6 2-6v3c0 1 0 4 2 5 1 2 2 3 1 7-1 3 0 5 2 8l3 4-3 4c-2 1-4 5-5 8l-3 5-1 3c0 2 0 2 3 0 2-3 2-3 2 0-1 3 0 4 2 2 1-2 5 0 5 2l-6 9c-7 8-8 11-3 9 2-1 4-1 5 1 2 1 2 2 2 0l3-2c3-2 3-2 2 2l1 4c1 1 2 2 1 4 0 3 0 4 3 4l5-2c2-3 2 3 3 20 0 15-1 17-2 18-2 1-2 1 1 2l5 2v-17l1-17v-2c-1-2-2-5 0-10v-11c0-4 0-4 3-2 2 1 3 2 2 6-1 7 1 8 9 4 4-2 5-3 4-1 0 1 0 3 2 3l1 4 2 1c1 0 4-3 3-5l1-1c1-1 10-11 10-13l-3 1-4 1 1-2c2 0 2-1 2-5s0-5-1-4v4l-5 4c-3 1-4 2-3 3l1 1-5 1c-5 0-5 0-4-3l3-5 3-3-1 3v3l3-3c0-3 1-3 3-3 3 1 3 0 1-3-1-1-1-1 1-1l1-1 1-2 1 2c1 1 1 0 1-2l1-1c1 1 2 1 3-1 2-3 5-4 4-1v14c-3 2-2 5 1 5l2-2c1-1 1 0 1 2l-1 3c-2-1-2 2 1 4 2 2 3 2 3-1v-5c2-1 1-2-1-4-3-3-4-8-1-9 2-1 2 0 1 2l1 4 1-2c0-2 1-2 2 0h3c1-1 2 0 2 3l-1 4h-2l2 2 1 1c0 2 0 2-2 0l-3-1c-2 0-2 6 0 8v3l-2 3c0 3 1 3 2-1 2-2 2-5 2-7v-1c3 1 3 7 2 8l-2 4-1 2-4 3c-3 2-3 2-5 0l-2-5c0-2 0-2-1 0l-4 4c-4 2-5 1-2-2 3-2 2-4-1-3l-4-1-2 1c-2 2-3 3-2 6l-1 3-1-3c0-3-1-3-5-1-5 2-6 2-5-4l-1-4c-2 0-10 9-9 11v1c-1-1-1 2-1 5 0 5 2 7 4 4l6-1c3 0 4-1 4-2 0-2 2-2 8-2l8-3c8-5 11-3 7 5l-1 5c1 3-1 5-2 4h-3c-3 2-3 2 0 1l3 1h2l3-1 2-1c2-2 2-2 3 1 2 7 3 7 3 0l1-6 2 7c2 8 4 10 3 2l1-5c2 0 6 5 9 9 2 2 2 2 1-1-1-2 0-3 2-3l4-2c2-2 2-2-1-1-2 1-3 0-3-1l2-2c2 0 4-2 5-5 3-6 8-9 6-4-2 3-2 12-1 14l3 3 2 2c0 2 0 3-1 2l-3 1h-3l-4-3-3-3v5c0 3 0 4 2 2 1-2 1-2 4 0l4 6c1 3 6 1 11-3l3-2 5-2c4-3 4-3 3 0s1 3 5-1c3-3 3-6-1-6-2 0-2-1 1-7 4-5 3-8-2-8-2 0-2 0-1-1l1-5c0-6 1-10 3-12h-1l-3 1h-3c-4 2-5 1-3-3 1-3 3-3 9-3 4 0 10-4 9-6-1-1 0-1 1-1s2-1 1-2l2-1c1 0 2 1 1 3-1 1 0 2 1 2 2 0 2-1 2-3s1-3 2-3l1 2-1 5c0 2-1 3-3 2-2 0-3 0-3 3 0 2 1 5 3 6v2c-1 0-3-1-3-3-1-2-2-3-4-3-3 0-4 0-4 3s3 4 5 1l3 3c2 4 2 4-1 4-2 1-2 1 1 3l4 2c2-1 2-1-1 7-4 12-4 12-1 11 3 0 3-1 2-3s-1-4 2-9l3-6c-1-1 1-1 3-2l4-1c1 1-1 5-3 5s-2 1-1 3l2 8 1 7c1 1 4-1 7-4 4-4 4-6 3-7-2-1-2-1-2 1l-1 2-2-3v-7l2 1 1 2 1-2 2-1c2 0 1-3-2-3-3-1-5-5-2-5 2 0 2-1 2-3-1-2 0-3 1-3l1 1 9 9c7 6 9 8 8 11l-1 6c-1 2-2 6-1 10 0 7-1 9-3 5l-2-2c-1 1 1 3 2 5 6 7 4 11-1 5-3-4-5-4-5-1l-1 1c-2-1-2 1 1 3l3 8 2 4 1 1-2 2v10l5-4c3-4 3-6 0-3-2 2-2-2 0-8 1-3 1-4 3-1 2 2 2 0 0-5-1-2 0-4 1-6 2-2 2-2 3 1 2 4 2 12 1 12l-1 6c-1 3 0 6 1 6l4-4c2-3 3-3 3-2l-2 6c0 2-2 5-3 5-2 1-2 3-2 4v3c-1 0-2 0-2-2 0-3-3-7-4-5-2 1 1 11 4 15v4l-4-2-3-2s1 3 4 5c7 7 9 7 6-2-2-8-1-10 2-4 1 2 2 4 3 3l5-2c3-1 5-2 5-4v11c-1 11-1 15 1 15l1 4 1 5c2 0 2-1 3-11 0-12 3-34 4-36 1-1 9 4 10 7 0 3 5 2 8 0 1-2 1-2-1-2s-2-1 1-6l12-4 11-3c2-1 6 2 6 5l1 1 1-1h14c1 1 2 0 1-1l3-4 3-3v3l2 3 1 6c0 6 0 7-3 6s-4-1-2 1c1 1 1 2-1 5-3 3-3 5-2 8 0 4 0 5-4 8-6 5-8 5-8 0 0-4 0-4-3-4h-3l-2-1c-1 1-2 0-2-1 0-2-9-9-11-9s-4 2-6 4c-1 3-4 5-5 5-2 0-2-1 0-5 2-6 2-7 0-7l-10 10-8 10v-5c3-14 0-12-3 2-4 16-2 16 6 2l8-10c2-1 2-1 2 5-1 6 0 7 2 7h1l-2-4c0-3 1-4 3-4 3 0 9-2 10-4 4-5 9-2 11 5l-1 5-4-2c-1-2-2-2-6 2-6 4-6 6 0 3 2-2 4-3 5-2l4 2h5c2 1 3 1 3-2 1-5 4-4 4 1l1 5 12-8c5-4 5-4 4-9s0-8 2-7l1-1 2-3c2 0 3-1 3-5l1-5c3-1 3 6 2 12-3 10 0 11 7 6 5-3 7-3 7 0s3 3 5 2c3-2 5 0 7 8 3 8-2 10-5 2-1-3-3-5-4-5l1 3v5c-2 2 4 7 8 6 3 0 4 0 5 2s3 2 7-1c2-2 3-2 3-1l2 4c1 1 3 0 7-5 7-8 8-8 7 0l1 6c2 0 7-7 6-7-2-1-2-4 1-6 3-3 4-2 3 2v7l1 6c0 5 2 3 4-4 1-4 2-7 4-8s2-3 0-3l-4-2c-1-3-1-3 2-3l5-1c2-2 7 6 5 8-1 1 0 3 4 6 5 4 6 5 11 4 5 0 7-1 8-2l3-2c3 1 2-2 0-3l-3-3c0-1 1-1 4 1l4 2 2-3c1-1 2-3 4-3s2 0 1 2c-2 2-2 2 0 2l5-2 2-2c2 0 8 11 8 13l5 5 10 9 6 4-3-4c-4-3-4-5 1-3l6 2c4 1 4 0-3-5l-5-6 3 1c1 3 3 2 5-1 2-5 4-4 2 0-2 5-1 6 5 2 5-2 5-2 3 0-3 3-3 5-1 6l-1 5c-3 4-3 5-2 8l1 4c-1 1-4 0-9-1l-9-1-2-6c0-5-1-6-4-8l-10-7c-9-8-15-9-10-2 2 3 2 12-1 12l-2 2c-1 1 0 1 2 1h3l3 2c2 0 2-1 1-3l-2-6v-3l4 3c4 4 5 4 6 2 1-1 1 0 3 4 6 9 9 12 17 13 7 1 8 1 10-1 2-1 3-3 3-5 1-3 8-5 10-2 2 1 2 1 9-3l8-4c2 0-3 6-6 6-1 1-3 2-3 4-2 3 0 3 6 0 5-3 7-3 3 0-3 2-4 5-2 7l5-3 4-4 4 5 4 7c0 2 2 4 4 5 3 2 3 2 3 0l-1-2v-7l3 1c2 2 3 3 5 1 4-2 6-1 11 5 5 7 7 7 3-1l-2-5 6 4c6 4 8 4 7 1-1-1 0-2 1-1 2 1 2 0 2-4l1-5 7 5c10 12 19 16 25 12 4-3 4-5 0-9-5-6-2-6 8 1l9 5 7 2c5 2 7 1 3-3s-7-12-5-12 7 3 12 8l5 3 8-6c5-6 6-6 8-4 2 1 2 2 1 4v8l3-3 2-5c1-3 1-2 2 4 0 5 1 8 2 8 1 1 5-2 8-5l8-6 1 3 1 4c2 0 6-10 6-16v-3l7 5c9 8 13 8 16-1 1-2 1-2 2 2 3 10 9 11 15 2l5-5 5 5c4 7 7 9 12 7 4-1 4-1 5 3l1 4 1-6 1-6 1 15c0 13-1 15-2 3-1-4-1-3-2 3v9l2 6c0 8 1 18 3 18l1-5c0-4 0-4 1-1 1 2 1-5 1-15 0-16 0-18 2-20 2-1 3-3 2-6-1-4 1-10 3-10l1-1h-3l-2-1 1-2 4-4c3-6 4-6 4 1 0 3 0 7 2 9l2 5 3-6c4-7 6-8 8-5s2 3 6 1c3-2 3-2 3 1 0 2 3 4 4 3 1-2 9-5 10-4v7c0 4 1 6 3 7s2 3 1 4a179 179 0 0 0 1 39c1 0 2 1 1 6l1 6 1-13c0-12 0-13 2-12l2 4 1 3v-3l-1-10v-6c-2 0 0-15 2-17l1-4h2c3 2 4 4 4 8 1 9 3 9 9 4 5-5 5-5 1-2-4 2-5 3-6 1-2-3-1-7 3-7 4-1 4-1 3-5l-2-7c0-3 1-3 8 2 6 5 7 5 9 3l2-2 1 1c-1 2 0 2 2 2s3 1 2 4c0 3 0 4 2 4l2-6c0-4 0-5-2-6-2 0-3-2-3-3l-1-10c0-5 0-6 2-8 3-1 4-1 6 2s5 3 5 0l-2-2c-3 1-3-5 0-5l5-3c2-1 3-1 6 2l5 3 1-8c0-7-1-8-2-1l-1 5-3-3-3-2 3-4c2-2 4-4 3-5 0-1 1-2 4-2 6-1 8 1 10 13l3 6c3 0 3-3 1-8l-2-7c0-2-4-7-7-8-4-1-2-3 4-3 5 0 5-2 1-4-3-2-5-4-3-6l3 1h4c3-1 1-7-2-12l-3-5-1-3-1-5v-5l-2-2h-2c-1-1-2-1-2 1l-3 3-1-1c2-2-3-6-4-4l-9 1c-7 1-10 3-9 6l-1 5c-2 2-3 2-5 0-4-3-2-9 2-10l3-3c-1-1 2-2 7-4 8-2 12-6 8-6-3 0-3-2-1-2h6c4 0 4 0 5-4l-1-7v-4c2-1 2-3 0-8l-2-8-2 3c-2 2-2 1-2-3 0-6-2-8-4-5-3 2-5 2-8-1-3-2-3-2-2-4 2-2 2-3 0-4l-4-2-1-2c1-1-6-8-7-8v2c1 2 0 2-1 0v-4l-2-6-3-3v3l-1 2c-1-1-2-2-4-1-3 1-2-1 2-5v-1c-4 3-6 2-5-3 1-4 1-5-3-9-6-6-8-6-12-2-6 5-7 8-4 11l1 5c0 3-2 2-5-2l-4-4-1-1c2-3-1-1-5 3-3 4-3 4-5 2 0-2-3-3-5-3l-6-3c0-2-1-3-4-2-2 0-3 0-4-2 0-2-2-3-3-3l-4-1-4-1-7-2c-6-2-21-3-27-1-7 2-20 3-22 1-1-1-2-1-3 1-2 1-2 1-6-2l-11-9-3-2-6-2-10-2-7 2c-1 2-3 3-5 3l-8 3c-5 2-8 3-17 3l-14 1h-4v-2l-14-10c-10-5-19-12-25-20l-11-11-16-17c-10-10-23-21-27-21l-11-4a670 670 0 0 0-56-24l-6-2c-4-1-9-4-11-6l-7-3-4-2-3-2-6-3c-8-5-11-6-12-4-1 1-1 1-1-1 1-1-1-3-6-5-7-3-8-3-20-2-14 1-16 0-29-8l-9-6-9-7c-2-3-6-5-9-5l-4-1c-3-2-14-2-15-1l-27 11-10 5h-11c-9 0-10 0-18-3-12-5-26-8-33-6l-9 1-8 1c-6 2-6 2-11-1l-6-2-4-4c-6-5-20-7-29-3l-21 1c-10-1-11 0-17 3l-9 5-9 4c-7 3-14 6-19 6-4 0-21-11-29-19l-11-8c-2-1-7-4-10-8-6-6-14-10-26-13s-20-7-33-16l-21-15c-12-8-18-14-22-22-3-6-7-10-12-13l3 3Zm-332 58-1 2-3-3 2-1 2 2Zm-13 7 4 7c0 3-3 0-6-6l-3-7v-1l5 7Zm17 2c6 5 6 8 2 8-2 0-4-2-5-4l-4-6c-3-2-3-3-1-3s5 3 8 5Zm65-4c0 3-1 6-3 6s-3 3-3 8c0 3-1 4-2 4-2-2 0-14 3-17 2-2 5-2 5-1Zm-22 9c3 3 5 3 5 0s2-3 3 0c1 2 0 3-2 5l-4 3h3c3 0 3 0 1 2l-2 3-2 1-5 3c-3 5-2 5 4 1l7-3c1 1-6 8-7 7l-3 2-4 2c-3 0-9-6-9-9l3 2 5 3-2-4c-4-3-4-4 2-6 5-2 10-5 7-5l-2 1-3 1c-2 0-2 0 0-1l2-3c-2-3-5-2-6 0 0 2-2 3-3 3s-2 0-2 2l-2 2-1-3c1-2 0-2-1-1l-1-2 1-3c0-2 4-2 5 0v-1c0-3 1-3 4-3l3-1c0-2 2-1 6 2Zm-34 1-2 2v-2l1-2 1 2Zm58 2c5 4 9 11 7 11l-2 3c0 3-3 3-6 0v-3l2 1c1 1 1 0 1-2s-1-3-3-3l-3-2-1-5c-1-5 1-5 5 0Zm37-3-2 4c-2 2-2 2-1 0v-4l2-1 1 1Zm-81 2-2 1v3l2 8v4l-4-5c-5-5-5-6-1-9 3-4 5-4 5-2Zm60 8c4 3 4 3 2 5l-3 2c-1 0-5-10-4-12v-1l5 6Zm-83 0-3 2c-2-2 2-5 4-5s2 0-1 3Zm102-1c1 1 0 3-1 5-3 5-2 5 5 0l6-3-1 4c0 3-1 3-2 2-1-2-1-2-1 0l-3 4c-2 1-3 3-2 3 1 1 2 0 4-2 5-4 7-4 5-1l-3 3v4c0 2 0 3-2 4-2 0-3 1-3 2-2 3-4 1-4-4l-1-4-2-2-2-3c-2 0-3-1-3-5l-2-4v-1l3 1c1 1 2 1 4-2 2-4 4-4 5-1Zm-107 3c0 1-8 7-9 6s6-7 8-7l1 1Zm21 4c3 3 5 4 6 3h2c3 0 6 12 5 16-1 3-1 3-5-1-3-3-4-3-6-2-2 2-2 1-2-1s0-3-1-2c-2 3-7-3-7-8l-2-4c-1-1-2-2-1-3 2-2 7 4 7 7l7 7v-3c0-2-1-3-2-3s-3-2-5-6c-3-7-2-7 4 0Zm39-1v1l-2-2c0-1 1-1 2 1Zm25 6 3 6c0 3 3 4 5 1l2-2c1 1-6 11-7 11h-3l-3 4c-2 3-2 1-1-23 0-2 2-1 4 3Zm9 0c0 2 0 3-1 1-1-1-1-1-1 2 0 2-1 3-2 3s-1-3 1-7c1-3 3-3 3 1Zm31-1-1 1-1-1 2-2v2Zm-61 9-2 4c-1 1-2 3-1 4 0 1 0 2-1 1l-2-3-1-1c-2 0-2-9 0-10 2-2 2-1 4 1l3 4Zm16-4-2 5c-1 3-1 3-1 0l-1-3c-2 0-4 9-3 13 0 4 0 5-1 4-2 0-2 0-1 1 0 2 0 3-2 3-3 1-3 2 0 5 2 2 3 4 2 5 0 3-1 3-4 3l-4 1c-3 2-4-2-4-12 1-9 1-10 3-8 2 3 7 0 7-4v-4l-2 3c-2 4-4 5-4 1 0-2 0-4 3-5 2-2 3-3 3-7s0-4 5-4c4 1 6 1 6 3Zm-26 1v2l-1-2v-3l1 3Zm692 0-2 1-1-1 1-1 2 1Zm-644 2-2 1c-2 0-2-1-1-2s3 0 3 1Zm-121 2v5l-1 3-1-3c-2-3-2-8-1-8l3 3Zm61-2v4l2 3 3-3c3-4 5-5 5-1l1 3c2 0 2 1 0 2v3c1 1 1 0 1-1 1-1 1 0 3 2 2 4 2 17-1 17l-2-6c0-4-1-5-2-3l-1 4c3 3 5 10 3 12h-3v2l-1 3-1-1c0-1-7-3-8-2l2 6c3 9 3 11-1 8l-5-6c-2-5-6-7-9-4-3 2-8 3-8 2l1-1 3-4c2-3 3-4 1-6s-1-2 0-3c3-2 4-2 9 2l4 3-5-6-7-7v-7c-1-6 1-6 8 1 3 4 6 6 7 6 1-1 2 1 2 5l1 6 1-6v-9c-2-3-2-3-2-1-1 3-3 3-5-1l-2-3v-7c1-6 2-7 5-7 2 0 2 1 1 1Zm692 1-1 1h-1l1-2 1 1Zm-722 4c3 3 4 3 5 2 2-2 4-1 4 3 1 3 0 3-3 4-3 0-5-1-9-4l-4-6c2-3 3-3 7 1Zm89 6c0 4-3 5-3 0 0-2 0-3-1-2l-1 2v1l-1 1c0 3-6 6-8 4s3-7 9-11c4-3 4-3 5-1v6Zm-126-4 2 2c0 5-4 3-7-2-1-3-1-3 1-2l4 2Zm102 5-1 4v-4l1-6c1-1 2 2 0 6Zm-53 8c2 3 0 4-2 2l-2-4c0-2 3-1 4 2Zm-10 0-1 1-1-1 2-2v2Zm82-1-2 1h-1l1-2 2 1Zm36 6-2 1v2l-3 3c-6 2-10 4-11 3l5-5c5-5 11-7 11-4Zm-45 13c0 3 0 4 2 4 2-1 10 2 14 5 2 2 2 2 3 0s2-2 5 4c5 9 4 21-1 15-1-1-3-3-5-3l-3-3-4-3c-3 0-4-1-3-2l2-4-2 1c-2 2-2 2-5 0-5-3-6 0-6 8l-1 7-5-2c-6-5-5-18 2-18 1 0 3-1 3-3 2-2 2-3 0-3l-2-1 1-1c2 0 3-6 2-7h-2l-2 2c-2 0-2-2 1-6l3-4 1 5 2 9Zm5-2c-1 1-3-3-2-4l2 1v3Zm35 2-2 4h-3c-4 3-3-1 1-5l4-3v4Zm-62-1-1 1-2-1 2-1 1 1Zm5 6-1 3c-1 0-3-5-2-7 1-3 3-1 3 4Zm8-4-1 1-1-1 2-2v2Zm-46 7-3 1 1-2c3-2 4 0 2 1Zm100 0c2 6 2 8-1 9-3 3-3 4 1 3l4-5c1-2 1-2 1 0l1 1v3l-2 3-1 2v2l-2-2-3-1c-2 0-3-1-3-4-1-3 0-3 2-3l2-1c-2-1-2-9 0-9l1 2Zm-7 3-1 2-2-1c0-2 1-3 2-3l1 2Zm-60 4c-2 2-3 0-2-2h2v2Zm26 2v3l1 2c2-2 5 0 5 3 0 2 0 2-2 1h-3c-3 1-4 1-4-3l-2-2-1-2c0-2 1-3 2-3l4 1Zm39 11-2 2-1 1c2 2-3 6-7 6-8 0-7-12 1-13 4 0 9 2 9 4Zm-25 3-1 1-2-2c0-2 1-2 2-2l1 3Zm36 2c-2 3-4 4-4 2l5-5-1 3Zm-9-1-2 1h-1l1-2 2 1Zm-19 4-2 5-2 2-1 2c-2-1-2-1-1-7 0-4 1-5 3-5s3 1 3 3Zm-36 4 1 2c0 3-3 2-4-1-1-5-1-7 1-4 0 2 2 3 2 3Zm345 0c1 3-4 11-5 9v-9c0-5 0-6 2-4l3 4Zm13-2c-3 4-3 10 0 9 2 0 3 0 3 2 1 4 4 3 4-2 0-3 1-4 2-4l3 1v4l2 1c2 0 5 5 3 7-1 0-2 0-2-2l-2-3c-3 0-3 4 0 8s3 6 0 4l1 2c3 3 4 5 3 8-1 6-1 6-4 4-4-2-5 0-2 3l1 3c-2 0-5-4-5-7 0-2-3-5-5-5l-1 4-2 4-1-1-1-2-3-1c-2-1-3 0-3 2-1 4-3 5-4 2-2-3 2-10 9-18 6-7 7-8 5-10l-2-1-2 6-4 2c-1 0-5 4-5 6s-2 3-2 1l1-3 1-2v-11c1-10 1-10 5-9 3 0 5-1 6-3l3-2c0 1 0 2-2 3Zm-307 5-3 3c-3 2-3 2-1-1 1-2 4-4 4-2Zm-9 2c-2 7-2 8 1 9 2 1 2 1 2-1-1-1 0-2 2-2 3 0 3 3 1 5l-1 2c1 1 0 1-2 1-3 0-8-3-8-6l-2-2 1-3 4-3 3-1-1 1Zm16 3 1 15c-1 0-4-6-4-9l-2-3v-3c1-2 4-2 5 0Zm136 2c0 1 0 1 0 0v-2 2Zm-125 3c0 2-3 4-5 3v-3c2-2 5-2 5 0Zm188 1 1 4-5-5c0-3 3-2 4 1Zm-178 3c0 1-3 2-7 2-2-1-1-1 1-2 5-2 6-2 6 0Zm185 2h-1c0-3 1-4 2-2l-1 2Zm-52 4-1 6-2-2c0-1 0-2-2-1-3 1-3 1-1-3 4-8 5-8 6 0Zm37-1c1 6-2 5-3-1l1-4 2 5Zm-184 2-1 1-1-1 1-1 1 1Zm135 0c0 2-3 3-4 2 0-1 1-3 3-3l1 1Zm67 2h-2c0-2 2-3 3-2l-1 2Zm-79 0-2 1-2-1 2-2 2 2Zm-141 1v1l-2-1 1-2 1 2Zm7 0v1l-2-1 1-2 1 2Zm140 3 3 9c3 6 2 10-3 15-3 3-5 4-6 3-1-2-4 0-3 2l-1 2-1-3c0-3-2-4-7-4 0 1-2-1-2-3l-1-2c2 1 2-1 0-3v-1l3 4c2 5 6 6 5 2-1-3 0-3 5-3l5 1 2 1c2-1 2-4-1-5-2-1-2-2 0-3 3-3 2-6-3-6l-5-2c0-3 1-4 3-2 3 2 4 1 4-3 0-5 2-4 3 1Zm-126-1 1 2c2 3 2 9 0 11-1 1-2 1-4-1s-2-2-1 1c1 6-2 4-8-3l-2-6h3l5-3c4-2 7-3 6-1Zm112 2c-1 1-1 0-1-1l1-2v3Zm65 0c2 2 3 5 3 7 0 4 0 4-3 2-4-2-6-8-5-11 1-2 2-1 5 2Zm29 2-3 1-2 2-1 3c-1 1-1 0-1-1 1-1 0-3-1-4-3-2-2-3 2-4s5-1 6 1v2Zm-195-1c0 2-1 2-2 1-2-1-2-4 1-4l1 3Zm178-1c0 2-2 5-3 4l1-3c1-3 2-4 2-1Zm-29 2-1 2c-1 2-2 2-3 1-3-2-3-4 0-5 2 0 4 0 4 2Zm-12-1-3 3-3 3 3-3 3-3Zm-13 5c-1 3-1 3-1 0v-3c2-2 2 0 1 3Zm-81 0h-2l1-2h2l-1 2Zm-46 1-2 1-2-2 2-1 2 2Zm13 0-2 1-2-1c0-2 1-2 2-2s2 0 2 2Zm96 3c-3 2-4 2-7 1-4-2-4-3 3-4 6-1 7 0 4 3Zm50-3-2 1-1-1 1-1 2 1Zm-22 3-7 3c-2-2 1-4 4-4l3 1Zm24 4v5l-2-4c-2-3-2-4 0-5l2-2v6Zm-124 0-1-2c0-2 1-2 1-1v3Zm133-2 3 4 3 1c2 0 3 1 3 4 0 4-2 5-4 3 0-1-1-2-3-2-3 0-8-7-7-10s1-3 5 0Zm-220 2c-1 2-2 0-1-2h1v2Zm251-2-1 6-1 4-4-3c-3-4-4-6-2-5l3-1c2-2 4-3 5-1Zm75 2c-1 1-1 0-1-1l1-2v3Zm23-1c1 2-2 9-4 9l-2-1-2-3c-3-1-2-3 1-2 2 0 3-1 3-2 1-3 3-4 4-1Zm199-1-2 3v-2c0-2 3-3 2-1Zm-443 2c0 5-7 7-8 2 0-3 1-3 4-3l4 1Zm16 1c-4 3-7 3-6 1s3-3 7-4c1 0 1 1-1 3Zm76 2c0 1-5 4-6 3s-1-5 1-6c1-2 5 0 5 3Zm143 7v1c0-2-2-3-3-3-3 0-3-2-1-6l1-4 1 4 2 8Zm-347-8v1l-2-1 1-1 1 1Zm53-1-1 2-2-1 2-1h1Zm94 2c-1 1 0 2 1 2v3l2 1-5 2c-4 0-4 0-2-1 2-2 3-5 0-6-2 0 0-3 3-3l1 2Zm233-1c2 0 2 1 1 2-2 2-5 1-4-1 0-2 0-2 3-1Zm524 1-2 1-1-2 1-1 2 2Zm-821 3c4 4 5 5 2 5l-4-2h-4c-4 3-4 2-4-3 0-3 1-4 3-4l7 4Zm48-1c0 1 1 2 3 2s3 1 3 4c-1 3 0 3 3 3 4 0 5 1 2 3v2l-1 4c-3 1-4 1-4-2s-4-6-8-6l-5-1 4-10c2-1 4-1 3 1Zm80 2c3 5 3 8-3 10l-4 4-2-2v-4l3-5c1-6 2-7 6-3Zm-192 2c1 1 0 2-1 2l-2-3 1-2 2 3Zm177-2-2 1-1-1 1-1 2 1Zm141 2-1 2c-1 0-2-1-2-3l2-2 1 3Zm-146 0v4l-1 3-2 2c-3 2-3 2-4 0l1-4 1-2c-2-1 0-5 2-5s3 1 3 2Zm359 3-4 5-2 2c-2 0-3-1-3-2h-3c-2 0-3 0-2-2v-3c-2-1-1-4 1-4l4 2c2 1 2 1 0 3-1 2-1 2 1 1l2 1 1 1v-3c0-3 0-4 3-4 5-2 5-2 2 3Zm18-2c1 3-8 7-10 5-1-3 0-4 3-4l4-2c1-3 2-2 3 1Zm-194 6-2 2c-3 1-3-2-2-7l1-3 2 3 1 5Zm-368-5-3 3c-3 2-3 2-3-1 0-2 0-3 2-3l4 1Zm243 0-1 1-2-1 2-1 1 1Zm36 2c0 2 0 3-2 3l-2-4c0-2 0-2 2-2l2 3Zm9 0c5 7 3 9-4 4-4-4-5-6-2-6 3-2 3-1 6 2Zm261 2c-3 2-3 1-2-3 2-3 2-3 2-1v4Zm-489-3c-2 2-4 2-3 0l3-1c2 0 2 0 0 1Zm33 1-2 2-1-2 1-2 2 2Zm242 3c0 4 2 7 6 8 2 1 2 2 2 8l1 10-2 7c-3 3-4 6-2 6l2 2-2 1-2 2c0 3 5 2 6 0 1-4 3 1 3 10 0 8 0 8-4 11-6 3-6 2-3-5 4-6 4-9 1-9-1 0-2 1-2 3l-2 4c-2 1-2 0-2-3 1-3 0-4-2-7-3-2-3-3-1-3l2-2 1-3c2 0 2-1 0-2-3-1-8-10-7-11l-1-2c-1-2-1-3 2-6l3-4h2c3 1 3-2 1-4s-4-12-3-14c1-3 3-1 3 3Zm-181-1-5 4-6 5c-1 3-1 3-2 0-1-1 0-3 4-6l5-4c2-2 4-1 4 1Zm71-1c2-1 4 6 5 15 2 19 3 21 5 21h1c0 1-7 5-9 4-2 0-6 4-4 5v4c0 3 0 3-3-1-1-2-3-5-5-5l-3-2 3-3 3-4 1-1 1-3c0-3 1-3 5-1l2 4c0 4-1 4-4 2h-1c0 3 4 5 5 3 2-2 3-12 1-12v-1l-1-2c-2 0-2-1 0-2l1-4c-1-1-1-1-1 1l-2 2c-1 0-2 1-2 3 0 3-1 2-2-3 0-2-1-3-3-4-6-1-6-5-1-11l3-5c-1-2-1-2 1-1 1 1 3 2 4 1Zm-111 2 3 3c2 0 1 1-3 5-5 5-8 5-5-1 2-2 2-4 1-4v-3c2-3 3-3 4 0Zm132 4-4 6c-3 5-4 5-4-1 0-5 2-8 7-10 4-2 5 2 1 5Zm27-3v1c2-3 6-1 7 2l3 4c2 0 2 2 2 2-2 3-13 0-13-4 0-1 0-2-2-1-1 0-2-1-2-4s1-4 3-3c1 0 2 1 2 3Zm86-3-2 3c-3 2-5 2-3-1l5-2Zm-297 3c0 2-7 4-8 3-1-2 5-5 7-5l1 2Zm21 0c2 2 2 2-1 1l-4-2c-1-2 1-2 5 1Zm91 1-1 2c-2 0-2 13 0 15 1 1 1 4-1 7-3 3-6 1-6-5s-3-7-4-2-3 4-3 0c0-3 3-8 4-7 2 2 7-3 7-5l-2-2h-3c0-1-1-1-3 1-3 4-3 3 0-3 2-3 4-4 7-4 4 0 5 1 5 3Zm-78 1-2 1-2-1c0-1 1-2 3-2l1 2Zm32 5c0 8-2 9-5 3v-7l-1-2h3c2 0 3 1 3 6Zm27-5-2 2c-1-1 1-4 2-4v2Zm52 2-2 1v-3c1-1 1-2 2-1v3Zm136-1c-1 1-1 1-1-1 0-1 0-2 1-1v2Zm213-1-1 1-1-1v-2l2 2Zm-12 0-1 1h-1l1-1h1Zm6 4c0 8-2 18-3 18l-1-11c0-9 0-11 2-11 1 0 2 1 2 4Zm-266-2v1l-2-1 1-1 1 1Zm259 11 1 11v5c-2-2-5 2-5 6l-2 5v2c2 0 3 5 1 6v12c0 12-1 13-5 6-2-3-2-5-1-6s1-2-1-3l-1-1c3 0 5-5 4-7 0-1-1-2-2-1v-1l2-1 1-2c1-3 0-3-2-1-2 1-2 1-2-1 0-1 1-2 3-2s2 0 1-5v-9l1-4h-2c-1 1-2 0-1-2l2-4c2 0 2-6-1-6-1 0-2 1-2 3 0 3-1 4-3 2v-2c3-1 2-4 0-5h-5c-5 1 0-2 5-4 4-1 4-1 6 2 1 4 4 5 5 1 1-2 0-2-1-2-2 1-2 1 0-2 0-2 1-2 2 2l2 8Zm27-11c0 2-2 2-3 0l1-1 2 1Zm-502 1v2l-2-2 1-1 1 1Zm84 2h-1l-1-2h1l1 2Zm58 0c0 2-5 6-8 6-1 0-1-1 2-4 5-4 6-4 6-2Zm57 0-1 1-2-1 2-2 1 2Zm-82 2c2 1-3 7-5 8-1 0-2-1-2-5 0-5 0-5 3-5l4 2Zm14-1-1 1-2 2-2 3c-4 2-4 1 0-4 3-3 5-4 5-2Zm-43 2-2 4c0 2-1 2-2 0-1-1-1-1-4 8l-3 1-3-1c-2 0-2-7 0-9 1-2 4-3 7-3l6-1c2-2 3-1 1 1Zm34 2-2 1-1-2 1-1 2 2Zm82 1c-2 1-4 1-4-1l2-1 2-1h1c1 1 0 3-1 3Zm288-2-1 6c-2 8-5 9-4 3v-5c-1 0-2-1-2-3-1-3 0-3 3-2l4 1Zm-443 1v2c-1 1-5-1-5-2 0-2 4-2 5 0Zm150-1-1 1h-2l2-2 1 1Zm297 1-1 1-1-1 1-2 1 2Zm-494 1-2 2-1-1 1-2 2 1Zm181 5-6 2c-2-3 0-6 3-7 6-1 7 1 3 5Zm276-3-2 3c-1 1-2 3-1 5 1 3-1 8-2 8l-3-3c-2-3-1-4 0-5l3-2c0-1-5-2-6 0-2 2-3 1-3-3 0-2 1-3 2-3l3-1c2-3 8-2 9 1Zm401-2-1 1-3-1c-1-1 0-1 2-1l2 1Zm68 0-1 1-1-1 1-1 1 1Zm-885 2v3c-1 2-1 3 1 3 1 0 2 0 0 1-1 2-2 2-2 1l-3-1c-2 2-2-2 0-4 2-1 1-1-1-2s-2-1 1-2 4-1 4 1Zm12-1v2l-2-2 1-1 1 1Zm11 6c1 2 8 6 12 6l4-4c1-3 4-2 3 2-1 3-7 9-9 9l-1-2c1-3-5-6-6-3l-3 2-3 3c-1 4-2 4-3 2v-3h-1l-5 2-5 1c-1 1-2 1-2-1 0-1 1-2 4-2l5-1 3-1c2 0 2-1 1-4-3-5-3-6 0-7 2 0 3-2 3-4s0-2 1 0l2 5Zm130-4c3 1 3 3 3 5-1 3-2 3-4 3-3-1-4 0-6 4-1 3-3 5-4 4-3-1-2-2 1-4 4-1 5-4 2-9v-5c1-1 5 0 8 2Zm409 0-1 2v-3l1-1v2Zm-462 0c-1 1 0 2 2 2s3-1 3-2l2 1c1 3 0 5-2 4l-5 3c-2 2-4 2-5 2v-3h-3c-3 0-3 0-3 4l-1 4c-1-1-2 1-2 3l4 8c5 5 4 8-2 4-5-2-6-5-5-9 1-3-1-7-4-9-1-2-1-2 1-4l4-2 6-2c2-3 5-4 7-5l3-1v2Zm478 0c1 2 1 2-2 2h-3c-2 2-3 2-3-1s5-4 8-1Zm-491 2c-3 2-5 2-2-1l3-1-1 2Zm45 2c0 3-2 6-4 6s-1-9 0-10c3 0 4 1 4 4Zm324-3-1 1-1-1 2-1v1Zm370 0-2 1-1-1 3-1v1Zm-814 1-3 1-2-1 2-1 3 1Zm154 2c-1 1-3-1-2-2h2v2Zm303-2v1l-2-1 1-1 1 1Zm-299 7-3 4c0 2-5 5-6 3v-2l-1-2c-1-1-1 0-1 1 0 2-1 3-2 3l-1 2-1 3c-2 1-1-7 1-10h9l3-4c2 0 3-2 3-3 0-2 0-2 1 0s0 3-2 5Zm-100 0c-1 1-1 0-2-1-1-2-1 0-1 4l-1 7-1-1c0-1-1-2-3-1l-8 1-7 3c-2 2-3 2-6 2l-3-2 3-3c0-2 1-3 2-3l4 2c2 0 2 0 1-3 0-4 3-5 8-2 4 2 4 2 6-1l2-3 2-3h3l1 4Zm6-3c0 3-5 9-6 7-1 0 0-2 2-3l3-5v-2l1 3Zm378 1c1 2 2 4 1 6 0 2-1 2-2 0-1-1-1-1-3 1s-2 2-2 0c-1-2-1-2-2 1l-5 10-3 8-1-7c-1-9 0-16 3-14 3 1 8-2 9-5 1-4 2-4 5 0Zm377-2-1 1-1-1v-2l2 2Zm-751 1-1 1-1-1 2-1v1Zm169 3-1 2c-2 1-2 0-2-1 1-3 3-4 3-1Zm235-1-1 2-1-2 2-1v1Zm73 0h-3l1-1 2 1Zm-94 2v1l-2-1 1-2 1 2Zm12 3h-2c0-2 2-4 3-3l-1 3Zm-380 2 3-1 3-3-3 5c-3 3-4 4-4 2v-2c-1 0-2-1-2-3 0-3 3-2 3 2Zm397-3-2 2c-2 0-2-1-1-2h3Zm124 2c-1 1-1 0-1-1l1-2v3Zm-611-1c0 2-3 5-7 4-2 0-2 0 1-2 5-3 6-3 6-2Zm246 1c1 2-3 8-4 8-2 0-3-3-1-5s2-2 0-2-2 0 0-1c4-2 4-2 5 0Zm167 6c-2 1-3-3-2-5 2-3 2-3 2 1v4Zm121-4-2 1c0-2 2-4 3-3l-1 2Zm-460 5c0 3 0 3-2 3-4-1-5-2-4-5 1-5 6-3 6 2Zm373 0v3c1-1 2-2 4-1 2 0 3 0 4-3l2-4 7 11c6 9 7 12 7 17l1 8c2 2 1 2 0 3l-2 2h2c1-1 2-1 2 1 0 5 3 2 4-3l1-2c1 6 0 9-3 12-3 2-3 2-4-1-1-2-1-2-4 0-2 2-3 1-1-2 1-2-1-7-3-6-1 1-5 0-5-2l2-1c2 0 2-2 2-6l2-8 2-4c0-3 0-3-2-1s-2 2-5-1-5-4-5-1-2 2-6-2l-5-3v-8c2-4 4-4 3 2Zm-217-2-2 1v-1l2-2v2Zm366 1h-2l-2-1 2-1 2 2Zm10 0c-2 2-4 3-4 1l3-2c4-2 4-2 1 1Zm-306 0-1 3c-2 2-3 2-3-1s2-5 4-2Zm7 1h-1l1-2v2Zm161 0-2 1-2-2 2-1 2 2Zm-210 1-4 2-6 2c-2 0-2 0-1-2l3-2 4-1c1-1 4 0 4 1Zm172 4c0 3-1 5-2 5l-1-6 1-4c1 0 2 2 2 5Zm55-2v-2 2Zm93-2-2 2v-2l1-1 1 1Zm120 0-2 2v-2l1-1 1 1Zm344 3-3 3 2-3 3-3-2 3Zm-984 0c0 2-1 3-2 2v-3c1-2 2-2 2 1Zm40 0-1 8c-1 1-1 0-3-3v-5c2-2 4-2 4 0Zm256 0v1l-2-1 1-1 1 1Zm126 0 2 2v1l-2 1c0 3 2 4 5 2 2-1 2-1 2 1l2 5c2 1 2 2 1 4s-1 2-2 0l-2-3c-2 0-3-1-2-3 0-1-1-1-2 1-3 4-3 4-2 7 1 1 2 1 4-1s2-2 1 0l1 3-1 2c-2 2-2 2-7 0-3-2-4-3-4-5l1-4 2-1c3 1 2 0-1-4-3-2-3-3-2-6l3-3 3 1Zm64 0-1 1-1-1 2-1v1Zm4 0c0 5 0 6 2 3 3-3 3-1 1 2s-1 3 2 2l2-3 1-2 1 3c-1 3 0 3 4 0l2-3v3l-3 4c-2 2-3 2-8 0s-5-2-8 1l-6 3-3 2-3 2 8-10 5-3 1-3 1-2 1 1Zm19 5c-3 2-3 1-2-3s1-4 2-1c2 2 1 3 0 4Zm-529-4-3 3c-3 2-3 5 0 5 2 0 2 0-1 3v3c2-1 1-1-1 4l-3 4c-3 0-5-17-3-21 2-2 11-3 11-1Zm266 3v4c2 2 1 6-2 5l-5 2-3 3v-6c0-5 0-6 1-3 2 3 3 3 6 1s3-2 0-2c-2 0-2-1 0-3l2-4h1v3Zm6-3c0 1 1 2 3 2 4-1 6-1 6 1h-2c-2 0-1 0 1 2s3 3 2 4l-5 6-4 4-4-2c-3-1-3-2 0-3 2-1 3-2 3-4l1-5c0-2 0-2-2-1-3 0-3 0-2-2 0-3 3-4 3-2Zm131 7-3 10c-2 3-1 3-4-3 0-3 4-15 6-15l1 8Zm31-4-1 4-1-4c0-5 0-5 2 0Zm141-1v-3 3Zm19-2-3 2-1-1c0-1 1-2 3-2l1 1Zm7 0-1 2-1-2 2-1v1Zm9 0-3 2 1-2h2Zm35 1c0 3-3 4-10 5-5 0-6 0-5-1l4-2 2-1c0-2 3-2 6 0 1 1 1 0 1-1l1-2 1 2Zm21 0c0 1 0 2-1 1l-1-2 1-1 1 2Zm-679 2-1 4-1-4 1-3 1 3Zm19 3c-5 7-7 8-7 2 1-5 2-7 3-4 1 1 1 1 3-1l3-3c2 0 1 2-2 6Zm323-1 3 3c3 1 3 2 3 3l1 2 1 1c0 2-3 2-6-1l-1-1c3 2 2-1-1-3l-3-5c0-3 0-3 1-2l2 3Zm128-4-1 1h-2l2-2 1 1Zm108 2-1 2-1-2 2-1v1Zm-354 4c-1 2-2 2-2 1v-3c2-3 3-2 2 2Zm77-3-2 1-2-1 3-1 1 1Zm366 0-1 1-1-1v-1l2 1Zm-355 5c-2 2-2 2-2-1s2-5 2-3v4Zm11-2-2 2-1-2c0-3 3-3 3 0Zm188-1-2 2c-2 1-2 1-3-1 0-2 1-3 3-3l2 2Zm38 0c1 1 0 3-2 4h-3l2-2 1-2c0-2 1-2 2 0Zm-176 3-2 1-3 5-3 4 5 5c6 7 5 9-2 3l-6-6-1-2c-3 0-1-3 5-8s9-6 7-2Zm7-2 2 6 1 5 2 1c0 2-3 2-6-1s-5-9-3-11c1-2 2-2 4 0Zm89 1-2 2-1-1h-1l-2-1 3-2c2 0 3 0 3 2Zm203 1v-3 3Zm341-2-2 1v-1l1-2 1 2Zm-584 3 6 3c1 3-2 12-5 15l-3 2 1-4-1-5-1-4c2-5 1-6-1-6-2 1-3 0-3-2l1-2 6 3Zm167 3v-5 5Zm62-3-1 1-2-3 2-1 1 3Zm91-2-2 1-1-1 1-1 2 1Zm15 0-2 1v-1c3-2 3-2 2 0Zm-466 3c0 3 0 4-1 2l-1-4c1-2 2-1 2 2Zm267-2-4 3c-3 1-4 3-4 4l-2 2c-4 0-10 5-11 8v-3c0-5 0-6 1-5 1 2 1 1 1-1s1-3 2-2c2 1 2 1 1-2l-2-3 3 3c3 3 5 3 5 0 0-2 5-5 9-5l1 1Zm-343 2c1 2 1 3-1 4s-3 1-3-1c-2-4 2-7 4-3Zm84 2c-3 2-4 1-4-1 0-3 0-3 3-1 2 1 2 1 1 2Zm343-3-2 2v-2l1-1 1 1Zm356 2-2 2-1-3 1-1 2 2Zm-424 1h-2c0-1 2-3 3-2l-1 2Zm287 2 2 1-2 2c-2 0-5-5-4-7 1-1 2 0 2 2s1 3 2 2Zm18-1c-2 1-3-1-2-2 1-2 1-2 2 0v2Zm106-2v1l-2-1 1-2 1 2Zm-452 2c0 2 0 1 0 0v-2 2Zm50 0c0 2-1 3-2 3v-3c1-3 2-3 2 0Zm25 2-3 2-3 2c-1 2-1 2-2 0l3-3 4-3c1-2 2-2 2-1 1 1 0 2-1 3Zm239-3-1 1-1-1 2-1v1Zm3 1-1 3-1-3 2-2v2Zm-365 2v-3 3Zm81 1-1 4-1-2-1-2v-2c2-3 2-3 3 2Zm35-3v2l-2-2 1-1 1 1Zm25 0c2 2-1 6-2 5h-2l1 2h1c-1 2-6-2-6-5 0-1 0-2 1-1l2-1h5Zm6 4c-1 3-1 5 1 6s2 2 0 3-2 1-2-1-4-2-7 1l-3 1c-1-1 2-5 4-5s5-4 4-5 0-5 2-5l1 5Zm8-4 2 2h-3c-1-1-1 0-1 1v1l-2-3c0-2 1-2 4-1Zm-416 3c0 1-1 1-1-1 0-1 0-2 1-1v2Zm193 4c-1 5-1 6-5 8l-4 1c-2-2 6-16 8-16l1 7Zm47-4-2 6c-1 2-1 2-2-1 0-3 3-8 4-8v3Zm58-1c-1 2-3 3-3 1l3-3v2Zm8-1v2c-1 1-2 0-2-1 0-2 1-2 2-1Zm49 1-1 1-1-1 2-2v2Zm80 0-2 2c-1-1 1-4 2-4v2Zm87 0-2 1v-1l1-2 1 2Zm-378 3-1-2v-1c1 1 2 2 1 3Zm103 0 1 2 2-2 1-1 1 5c0 4-1 5-3 4l-3 1c0 2 3 4 4 3v9c2 2 1 6-1 6l-4 1c-4 1-4-2-1-4 2 0 3-2 3-4s0-2-1-1l-6 2c-4 0-6 1-9 3-4 5-6 5-4 1 1-5 7-11 8-9h1l1-4c1-4-1-4-6 1s-7 5-5 0 7-8 8-6h2l2 1c2 2 4 1 4-2 0-2 0-3 1-2l2-2-1-3-1-1 2-1c2 0 3 1 2 3Zm11-2-2 2-1-1 1-2 2 1Zm15 1v5c0 2 1 2 1 0 0-3 5-3 6 0l-2 1-2-1-1 1c-1 3-7 7-7 4l-4 4-7 3 1-2c1 0 1-1-1-2l-3-3h1l3-2 4-3 3-2c1-2 3-3 4-2l3-2 1-1v2Zm58-1-2 1-1-1 2-1 1 1Zm43 1-2 1-1-2 1-1c1 0 2 0 2 2Zm18-1c-1 1 0 2 1 3 2 1 2 2 1 2l-2 2-1 3c-2 0-7 4-7 6 1 0 2 0 3-2 2-3 4-3 8-2l4 2c-1 2-7 6-10 7s-4 0-3-1c1-3 0-3-2 0-2 2-2 2-2 0l-2-2c-2 0-2-2-2-6 1-5 4-9 4-4l1 2 1-3 1-5c2-1 2-1 1 2l-1 4 3-3c1-1 2-3 1-4l1-2c3-1 3-1 2 1Zm-217 7 1-2c0-2 1-3 2-2 2 0 2 4 0 12-1 9-6 2-5-9v-4l2 5Zm-127-5-2 4-2 5-2 3-3 4c0 2 4 1 10-4l5-4-1 3c-1 4-5 10-5 7 0-2-2-1-7 2l-5 3v-4c1-4 0-5-2-6-4 0-4-2 0-5l4-4 1-3c2-2 8-2 9-1Zm531 2-2 2c-1 0-2-2-1-4s3-1 3 2Zm-270 1v-2 2Zm24 0-4 2c-1-1 2-5 5-5 1 0 1 1-1 3Zm-281 1-1 1-1-1 2-1v1Zm299 5c-3 2-3 2-1-3 1-3 2-3 2-2l-1 5Zm-240-1c-1 0-4-1-4-3h2l2 3Zm43 0 1-2 1-2c2 0 2 2 2 4l3 6 3 4-5 1c-6 0-6 0-5-3l1-3c-2-1-4 1-4 3l-1 2c-2 0-2-3 0-4v-3l-2-5c1-2 1-2 2 0l4 2Zm131-1-2 2v-2l2-2v2Zm22-1v4c0 2-1 2-1-1l-1-3v3c-1 5-1 5-5 2-2-1-4-2-5-1l-1-1c0-3 3-3 4-1h3c3-3 3-3 6-2Zm-319 5c-2 5-4 6-4 3s3-7 4-7v4Zm88 0c-2 3-3 3-7 3l-6-1c-2 0 5-4 8-4l5-1 1-1c1 1 0 2-1 4Zm29-2c0 2 0 1 0 0v-2 2Zm300-1-2 2v-1c0-3 3-3 2-1Zm-348 6c-1 1-2-1-1-3s1-2 1 0v3Zm145-3-2 1-1-1 1-2 2 2Zm89 0 1 3-1 4-1-2-1-4v-2l2 1Zm-3 6v1l-4-2c-2-1-2-2-1-4 2-2 2-2 3 1l2 4Zm43-3v5c0 1 0 2-1 1-2 0-2 1-2 8 1 4 4 2 5-2s4-5 5-3c1 1 1 1 1-1 0-4-2-5-3-3s-4 1-4-2l1-1c2 2 12 2 14 0h4c3 3 5 3 5-1 0-2 1-3 2-3v3c0 1 0 2 2 1s2 1-1 3c-2 1-2 2 0 2s2 0 1 3-3 4-8 5c-4 1-9 3-10 5l-2 2v-1c1-3-2-3-5-1-4 3-6 2-5 0s1-2-1-1c-2 4-9 7-10 6l-3-2c-3-1-3-1 0-3 3-1 5-4 4-6l-2 1-2 2c-3 0-3 0-4 3 0 2-1 1-1-2l1-3 3-1 3-2c3 0 8-5 8-9 0-3 0-3 1-1s1 2 2-1c0-3 1-4 2-4v3Zm15-2-2 1-1-1 1-1 2 1Zm-350 2-3 2 1-2c2-2 3-2 2 0Zm321-1c4-1 2 2-3 4-3 2-5 2-8 1-5-2-4-4 2-3 4 0 5 0 4-1-1-2 0-2 1-1h4Zm-126 1-4 5c-1 2-3 3-2 4l-2 3c-3 1-3 1-5-1-2-3-1-4 5-8s8-5 8-3Zm15 0 2 2c0 2-6 8-9 8l-5 3c-4 2-4 2-5 0l1-2 1-3c0-2 0-2 1 0 1 1 2 1 3-2 2-4 5-6 5-3l2 1 1-2c0-3 0-3 3-2Zm49 2c0 2 0 2-1 1l-1-3c1-2 2-1 2 2Zm23 3c-1 5 0 6 2 5s2 0-1 3c-2 3-5 2-3-2l-1-4c0-2-1-1-2 1l-1 1-1-2-3 6v4l-1-4v-7c2-2 2-2 0-3v-1l2 1c1 2 3 1 4-1 0-2 0-2 0 0l2 2 1-1 2-4v6Zm97 0-4-1c-2-1-2-1 0-1s3-1 3-2c0-2 0-1 1 0v4Zm117 1c-1 2-2 2-3 1s-1-2 1-3l3-3c0-2 0-2 0 0 1 1 0 3-1 5Zm-172 1c-2 1-4 1-5-1l2-2 3-2c1-2 1-2 1 1 1 1 0 3-1 4Zm494-1c0 7-3 12-6 12-2 0-4 3-4 8s-2 11-5 11c-1 0-2-2-2-7l-1-8 6-8a67 67 0 0 0 11-14l1 6Zm-784-3-2 1-1 3-1 3-1-2 1-4 2-2 2 1Zm50 0-3 7-3 7-2-1c-3-1-3-4 2-12l6-1Zm691 4 2 2c1 0 2 2 2 7s-1 7-2 7l-2-1-1-8-2-9c-1-3-1-3 1-1l2 3Zm-516-1h-3 3Zm288 3v-1c0-2 1-2 1-1l-1 2Zm-479 1c0 5-1 8-2 8-2 0-2-4-1-9 1-4 3-3 3 1Zm102-1c0 2-1 3-2 3-3 0-3 2 0 4 2 2 2 2 0 5-2 2-2 2-3 0l-3-7-3-5 3-1c5-2 8-2 8 1Zm97 0-1 2c-2-1-2-4 0-4 1 0 2 1 1 2Zm33 0c0 1-6 8-8 8l-6 4-6 5c-2 0-4 3-4 7l-1 3v-6c0-4 0-4-2-3-2 2-5 2-4-1l-1-5h-4l-3 4c-1 2-5-3-5-6s9-7 11-5l-1 2-2 1h3l3 1 1 1c1-1 2 0 1 3 0 3 0 4 2 2 1-1 3-2 4-1l1-1 4-5 9-6c4-4 8-5 8-2Zm83-1-4 2c-5 2-5 2-5 0l2-1 4-1c1-2 3-2 3 0Zm-155 4-2 7-1 6c-1 1 0 2 1 2 2 0 2-1 2-3l5-8 6-7 4 5 4 4-2 7-3 6v-4c-1-7-4-7-7-2-1 4-2 4-4 4-2-1-4 0-5 1-4 3-4 5-1 4 2-1 2-1 1 1l-3 1c0-1-2-1-3 1l-2 1c-3 0-2-3 1-4l3-3-3-1c-3 1-4-1-1-2s3-3 1-3c-3 0-5 2-5 5s-1 3-2 0l-1-4-1 4c0 3-2 5-4 6-5 3-5 5-2 5s7-2 7-5c1-1 2 0 2 2 1 4 3 6 3 3l4-1c2 1 3 0 5-2l4-2 5-4c3-3 4-3 4-2l2 4c0 2-3 10-5 12l-3-1c-1-2-1-2-1 0l1 2 2 3 1 2v-3c0-1 0-2 1-1l2-1c1-3 2-1 3 7 1 7 1 7-2 7-2 0-3 0-2-2l-2-2c-9-2-12-2-12-4h4l-2-3-2-4c0-3-3-5-4-2h-2c-2 0-3 1-9 10l-4 4-5 1c-7 3-9 3-6 0l3-4 2-1 1-2 2-3 2-2c-1-1-6 3-9 8-2 3-2 3-2 0l1-3v-4c0-4 0-5 8-11 7-7 7-8 7-13l-1-6c-2-1 6-9 8-9v2c-2 3 0 3 6-1 6-3 8-3 7 2Zm16-2c0 2 0 2-2 0-2-1-2-2 0-2l2 2Zm72 0-2 1-3 1-3 2-2 2-2 3-1-3c0-3 1-4 2-4 1 1 2 0 3-1 2-3 9-4 8-1Zm55 0-1 2-1-2 2-1v1Zm100 2c1-2 2-2 1 0s-3 2-3 0 0-2 0 0h2Zm128-2-3 3c-3 3-3 3-1-1 1-2 4-4 4-2Zm-551 5c-1 2-2 3-3 2l2-4c3-3 3-2 1 2Zm407-3-2 1c-2 0-2 0-1-1 3-2 3-2 3 0Zm-299 5c0 6 0 6-2 5-4-2-5-4-4-7 1-2 2-3 4-3s2 1 2 5Zm289-2v-3 3Zm303-1-1 1-1-2c2-2 2-1 2 1Zm-566 0c1 1 1 2-1 4l-3 3v-4c0-4 1-5 4-3Zm120 4c0 3-1 3-2 1v-5l2 4Zm213-3-1 1h-2l2-2 1 1Zm54 1v1l-2-1 1-2 1 2Zm93-1c0 1-3 2-4 1l2-2 2 1Zm-478 5c-2 3-4 2-1-1l2-2-1 3Zm381-2c0 1 0 1 0 0v-2 2Zm16 1c-1 2-3 1-2-2h2v2Zm95-3-1 1h-1l1-1h1Zm155 2c1 1 3 5 3 8l1 5-5-4c-4-5-5-9-3-11 1-1 2-1 4 2Zm-520 1c0 1 0 2-1 1-1-3-3-1-3 2 0 2 0 3-1 2v-4c1-4 5-4 5-1Zm-115 0 5 2c6 0 6 3 0 9l-20 16 7-8c8-8 10-11 6-9l-2-1c0-3-1-3-4 2l-4 3v2c2 3 0 6-2 4l-2 1c-2 5-3 1-3-7l2-8c1 1 2 0 3-1l5-2 5-2c1-2 3-2 4-1Zm250 0-2 2v-2l1-1 1 1Zm94 2c4 4-1 4-6 0l-3-3h3l6 3Zm-386 5c4 6 7 8 9 4 0-2 1-3 2-3l4-1c2-1 2 1 2 14-1 21-2 23-5 27-2 2-3 5-3 8s0 3-1 2c-1-2-2-1-1 2l-1 4c-1 0-4-5-4-8 0-2 1-2 2-1 1 2 1 1 1-1 0-3 2-6 4-8l3-5-2 1c-2 4-3 1-2-3 2-3 2-7 1-14 0-10-2-13-3-8-1 3-3 3-5 0-1-2-2-2-3-2-2 2-5-3-5-9 0-7 2-7 7 1Zm286-3c-1 1-3-1-1-2 0-2 1-2 1 0v2Zm108 1h-3c-2-1-2-1 0-3 1-2 1-2 2 1l1 2Zm-378-1-2 1c0-2 2-4 3-3l-1 2Zm134 1-1 3v-3l1-3v3Zm118-1-2 1v-1l1-1 1 1Zm103 0-3 1-1-1 3-1 1 1Zm35 3h-2l-3 1 2 1v2h-3l-3 1c0 2-1 2-2 1-2-1-2-1 1-2l2-5c0-3 1-3 4-1l4 2Zm64-3-2 1-1-1 1-1 2 1Zm22 5 4 6c0 3-7-4-9-9-1-5 1-3 5 3Zm-174-4c0 2-6 5-8 4-1-1 0-2 3-3 4-2 5-2 5-1Zm-184 4c-1 1-2 2-3 1-1 0-1 0 0 0l2-3c0-1 0-2 1-1v3Zm230-3-6 4-9 4-5 1c-1-1 0-1 1-2l4-3 6-2 4-2h5Zm88 1-1 2-1-2v-2l2 2Zm151 1 5 10h-2l-1-1-3-6-4-5c0-1 3-1 5 2Zm-11 1c0 2 0 3 1 2l3 3c1 2 2 3 4 3 1 0 3 1 4 4s3 5 4 5c3 0 3 0 0 3-4 4-7 3-9-3l-6-10c-4-6-5-7-4-8 3-2 4-1 3 1Zm-465 1c-1 1-1 2-2 1l1-2c1-2 2-1 1 1Zm133-1c0 2-3 3-4 2-1 0 1-3 3-3l1 1Zm3 2v-3 3Zm123-2-3 2 1-2h2Zm138 0v2c-1 1-2 0-2-1 0-2 1-3 2-1Zm148 0v2l-2-2 1-1 1 1Zm-571 4c1 2 3 5 5 5 2 1 3 2 3 5 0 4 2 5 6 2s5-2 2 5l-3 6-4-4c-5-5-7-10-5-10l1-1-1-2c-3 0-9-5-9-7 0-4 3-3 5 1Zm431 2-2-1-2-3c0-2 0-2 2 0l2 4Zm-229-2c-1 3-3 3-4 2 0-1 2-4 4-4v2Zm69 0c0 2-3 3-4 2l-2-2-2-1c1-1 8 0 8 1Zm-123 1-1 1v-2c2-2 2-1 1 1Zm18 3v-4 4Zm-2 0-2 4v-5c1-4 2-4 2 1Zm97 0c0 3 0 4-3 4-2 0-3-1-3-2h1l1-1c0-2 1-2 2-2 1 1 1 0 1-1l1-2v4Zm103-3c0 1-1 2-3 2-2 1-2 0-1-1 2-2 4-3 4-1Zm71 0c1 1 0 1-1 1-2-1-3-2-1-2l2 1Zm-405 3-1 2c-1 0-2-1-1-2l1-3 1 3Zm129 3c0 1-1 2-2 1l-1-4c0-3 0-3 1-1l2 4Zm93 0c-1 1-1 0-1-3s0-3 1-1v4Zm-257 4c0 4-1 4-3 3-3-1-4-9-2-11 2-1 5 4 5 8Zm356-6c0 2 0 2 2 2 2-1 3 3 1 4-1 0-3-1-6-7l1-1 2 2Zm71-1-2 1-1-1 3-1v1Zm64 1v4c-1 2-1 2-2 0-1-3-2-3-3-1-2 3-5 2-5-1 0-4 9-5 10-2Zm-468 2h-3l1-2c3-1 4 0 2 2Zm16 0c-2 1-2 1-1-1l1-1v2Zm155 0c-1 2-3 0-1-2h1v2Zm240 0h-2l-1-2h2l1 2Zm-151-1-1 2-1-1c0-2 1-2 2-1Zm66 2c-1 1-1 1-1-1 0-1 0-2 1-1v2Zm123-1-2 2-1-2 1-2 2 2Zm-90 5c0 2-2 1-3-2-2-3 0-4 2-2l1 4Zm-108-1c0 2 0 2-1 1-2-3-2-4 0-4l1 3Zm58-3-2 2-1-1 1-1h2Zm-123 3-2 4-2-2 1-2 2-1v-1l1 2Zm8-1-1 2-1-2 2-1v1Zm332 2c-1 1-1 0-1-1l1-2v3Zm-656 0v1l-2-1 1-2 1 2Zm292 2-1 4-1-4 1-4 1 4Zm12 1c2 0 2 1 0 4s-2 3-3 0l-1-6c1-3 1-3 1-1s1 3 3 3Zm101-3-1 1-1-1 2-2v2Zm-118 4-4 3c-1 0-2 1-1 2 1 2 0 2-1 1-2-2-2-2 0-4l2-3 2-2c3-1 3-1 2 3Zm110-1c0 2-1 3-2 3l1-4c2-3 3-2 1 1Zm204-2-1 2c-2 0-3-2-2-3 2-1 3 0 3 1Zm-584 8c-4 5-5 4-2-3 2-4 3-5 3-3 1 2 0 4-1 6Zm315-7-3 2c-1 1-1 0-1-1s1-2 3-2 2 0 1 1Zm30 1c2 0 3 3 1 3l-2 4c0 6-2 3-2-4 0-3 0-5 1-4l2 1Zm269-1c3 1 3 3 0 3l-3-2c-1-2 0-3 3-1Zm-350 1-2 2-1-2 2-1 1 1Zm59 3 1-2c0-3 2-2 4 2 1 3 1 4-1 4l-3-2h-1l-2 2c1 0 0 1 0 0l-1-4 1-2 2 2Zm116-3v2l-2-2 1-1 1 1Zm53 2-3 4 2 4 2 3h-5c-6-1-6-5-1-10s6-5 5-1Zm142 2-4 3c-2 0-2-1-1-5 1-2 2-3 4-2 2 2 2 2 1 4Zm-614-1c1 2 2 2 2 1l3-3c3 0 3 0 3 2l-2 5-2 3v-2l-1-2-1 3-2 5c-2 0-2-1-2-7 0-8 0-9 2-5Zm518-1c0 2-2 1-3 0l1-2 2 2Zm-450 2-1 3-2 2v-3c-1-3 0-4 1-4l2 2Zm13-1c2 2 3 5 1 4s-5-5-3-5l2 1Zm93 0c1 2 0 2-1 2-2 0-3-1-2-2 1-2 2-2 3 0Zm162-1-1 2-1-1 1-1h1Zm150 0-2 2-1-1 1-1h2Zm-380 5c2 2 2 4 1 3s-3 0-5 2l-3 2v-4c-1-8 3-10 7-3Zm238-2c0 2-1 3-2 3v-3l2-2v2Zm150 1 1 3c-1 1-5-3-5-5s2-1 4 2Zm80 3 3 6c-1 1-7-2-7-3s-2-2-5-1l-5 1 4-4 3-4c0-2 2-1 7 5Zm21 0-1 3v2l-2-1-2-1c-1 0-2-1-2-4 0-2 1-3 2-2l2-1c0-2 1-2 2 0 2 2 2 3 1 4Zm-34-1-3 2s0-2 2-3c1-2 2-3 3-2l-2 3Zm-265-1c2 2 1 2-1 3-3 2-6 0-4-3 2-2 3-2 5 0Zm41 1v-2 2Zm168 0-2 2c-2 1-3 0-3-2s1-3 3-2l2 2Zm-389 5c-2 1-2-1-1-4l1-3v7Zm172-1c0 2-1 2-3 2s-3 0-3-2l1-1 1-3h2l2 4Zm338-3-1 5v1l-3-1c-4 1-4-1 0-5 4-3 6-3 4 0Zm-391-1c0 2-2 2-3 1l1-1h2Zm37 1-1 2c-1 1-1 0-1-1 0-2 1-3 2-1Zm96 1-2 2v-2l1-2 1 2Zm61 0-2 2-3-2c-1-2-1-2 2-2s3 0 3 2Zm11 3c-2 6-4 7-7 4-2-2-2-3-1-4l4-2c4-4 5-3 4 2Zm-356-3-1 3h-3v-3h4Zm88 1-2 1-1-1 2-2 1 2Zm78 3 1 4v-4c0-4 0-4 1-1 1 2 1 3 2 1l1-2c1 1 1 0 1-1 0-2 3-3 3 0 1 4 0 12-2 14s-2 3 0 3c1-1 2 0 2 1s0 2 1 1l1-6c0-6 1-8 5-6 1 1 1 2-1 5l-2 3 2-2c4-3 5-1 3 4-1 4-1 4-2 2-1-4-3-3-3 1 0 2-1 2-2 2h-2c0 3-2 2-3-1l-1 2-1 4c-1 1-2-1-1-5 0-5 0-6-2-6-2-1-3 0-3 1 0 2-5 4-7 3-2 0-2-1-1-1l2-3 2-4c3-1 3-5 1-5l-2 2-1 2-1-5c0-6 1-7 5-7 2 0 3 1 4 4Zm169-1-4-2c-2-2-2-2 1 0 2 0 3 1 3 2Zm33-1-1 5c0 2-1 2-3 2-3 0-3-1 0-3l2-4 1-3 1 3Zm99-2-1 1h-2l2-2 1 1Zm-456 3-3 6c-1 1-3 3-3 5-2 2-2 2-3 0l4-8c4-6 7-7 5-3Zm124 2c0 5 1 6 6 3l3-5c-1-3 0-3 3 0 3 2 4 5 1 4-2-1-4 2-2 4s6-1 5-5c0-2 0-3 2-3s2 1 2 2v2c1 0 1 7-1 8s-3 1-2-1 0-2-1-2l-1 4c0 2-1 2-2 2l-6-2c-3 0-4-2-2-3 2-2 2-4 0-3l-3 3c0 2-1 3-2 3v-4l-3 1-4 2c-2 0-2-1 0-3l3-2c1 1 1 0 1-2l-1-2-2-1v1l-3 2c-2 0-2-1 1-4 5-4 8-4 8 1Zm5-1-1 3-1-3v-2h-1c2-2 3-2 3 2Zm56 2v2c3 1 2 3 0 2-1-1-2 0-2 1h-2l-1-2h1l1-4c-1-5-1-5 1-3l2 4Zm-7 2v-5 5Zm237-4c-1 4-1 5 2 4 3 0 3 0 2 2-3 3-4 2-8-2-3-4-4-5-1-4l3-1c1-2 3-1 2 1Zm-459 0h-3c-1 0-1-1 1-1l2 1Zm53 2c-1 2-4 3-4 2l5-5-1 3Zm398 3c4 6 4 8 0 8-1 0-2-1-1-4v-4c-3-1-5-6-3-6l4 6Zm-393 5-1 6-1-1-2-5v-6c2-3 3-1 4 6Zm11-7 1 4c0 2 1 3 3 3l3 2-1 1 2 5 3 6 4 4c5 4 4 5-4 10-7 4-7 4-4-1l3-4c2 0 1-2-1-3l-4 1c-2 2-3-1-3-7 0-2 0-3 2-3 3 0 2-2-1-5l-2-3c1-1-5-8-7-8l-2 2-1-2c0-3 1-3 4-3l5 1Zm70 0-1 2-2-1 2-2 1 1Zm18 4h-2c-2 0-3-1-2-2 1 0 2-1 1-2h1l2 4Zm383-3v1l-2-1 1-2 1 2Zm-287 1-1 2-1-2v-2l2 2Zm116 0c3 3 1 5-2 3-3-1-4-5-2-5l4 2Zm103 0-5 6c-6 5-6 2 0-4 5-4 7-6 5-2Zm-197 0c0 2-3 3-4 2v-2h4Zm103 1c1 4 1 5-1 3s-3-5-1-5l2 2Zm41-1v2l-2-2v-1l2 1Zm101 0-5 4c-8 4-7 6 1 5 7-1 9 1 4 2l-3 3-3 3c-2 2-3 2-3 1l1-2 1-2c0-2-1-2-4-2-4 1-9-1-9-5l20-8v1Zm10 1-1 2c-2 0-4-2-3-3 2-1 3-1 4 1Zm-571 1c0 1-1 2-2 1-1 0 0-3 2-3v2Zm278 0v2l-1-2v-2l1 2Zm21 0 1 2 1 3-3 2v-8c1-1 2-1 1 1Zm-213 1-2 4-3 3v-3c0-5 3-7 5-4Zm178 1-2 2-1-3 1-1 2 2Zm86 0c0 2-1 1-1 0l1-2v2Zm20-1-2 1c-2 0-2 0 0-1 2-2 2-2 2 0Zm30 0-1 1-1-1v-1l2 1Zm54 1c0 1 1 2 3 2s2 0 0 1a359 359 0 0 1-13 7c2-1 2-2 2-4v-3l2-2c0-2 2-3 5-3l1 2Zm-301 3c-2 3-3 2-2-1 0-2 2-3 2-2v3Zm119-1c-1 1-2 1-1-1 1-1 1-2 2-1l-1 2Zm111-2v2l-2-2 1-1 1 1Zm134 5-1 5v-6c0-4 0-5 1-4v5Zm-540-1-1 1c0-2 1-4 2-3s0 2-1 2Zm146 2v-4 4Zm213-4-2 4c-1 2-1 2-1-1l1-3h2Zm38 1-1 2-1-1 1-2 1 1Zm38 5-2 4c-3 4-5 2-6-5l-1-6 5 3 4 4Zm25-4v1l-2-1 1-1 1 1Zm-361 4c0 2-3 4-4 3v-4c1-3 4-3 4 1Zm104-1c0 2-2 3-3 0-1-1-1-1-2 1-2 2-2 2-2 0s2-3 6-4l1 3Zm23 0c1 3 1 4-2 4l-3 3-1 2-2 1c-1 1-2 1-3-1-2-1-1-2 2-3 4-2 4-5 0-5l-2-1h7l1-1c0-3 3-3 3 1Zm87-1c-1 2-4 2-4 0 0-1 1-2 3-2l1 2Zm29 2v-3 3Zm-52-1-2 1c-3 0-3 0-1-1 2-2 2-2 3 0Zm161 4c0 3-10 2-12-2-1-2-1-2 3-3 5 0 9 2 9 5Zm41-4-4 4c-5 3-6 6-3 6 2 0 2 0 0 2-3 3-3 4 1 4 2 0 2 0 1-1-3-2 2-4 10-5 8 0 8 0 1 3-4 1-4 2-2 2s3 1 3 2-3 2-8 2c-2 0-2 2 0 3l2 2c-2 4-4 3-6-2l-1-3-5 2c-3 1-5 2-6 1v-1c2-2 1-6-2-7l-2-4c0-2 1-4 9-7 10-5 12-6 12-3Zm28 1-2 1c-1-1 0-2 1-2 2-2 3-1 1 1Zm-411-1-1 2-1-1 1-1h1Zm51 2c4 1 5 4 2 4h-5l-3 1h-4c-2-2-2-2 0-5 2-2 3-2 5-2l5 2Zm73 0-1 1-1-1v-2l2 2Zm11 4h-1l-2 2c0 3 0 3-6 0l1-3 3-1c1 0 2 0 3-2s1-2 2 0v4Zm83 2-2-1v-4c1-3 1-3 2 1v4Zm6-6-2 1-1-2c1-2 3-2 3 1Zm15-2-1 2-2-1 2-1h1Zm151 2 3 2-2 1-8 1h-3l3-3c4-4 7-4 7-1Zm97-2-3 5-2 3 2-4c2-4 3-6 3-4Zm7 10-3 8s-2 1-2 3l-4 5a211 211 0 0 0-12 2l5-7a65 65 0 0 0 11-15c5-8 6-7 5 4Zm-478 3c-1 5-1 5-3 2-3-3-2-9 0-12 3-2 3-1 4 2l-1 8Zm139-8c-1 1-1 0-1-2 0-1 0-2 1-1v3Zm102-2-1 3-1-3 1-2 1 2Zm188-1c-3 1-1 7 3 12 4 6 4 7-1 2l-6-4c-1 0-2-1-2-3 0-4 2-8 5-8 2 0 2 0 1 1Zm-24 2-2 4-1 3c-2 0-2-7 0-8 3-1 4-1 3 1Zm-398 2-1 1-2-2 2-1 1 2Zm405 0-1 1-1-2 1-1 1 2Zm-421 1c0 3 0 3-1 2-2-3-2-4 0-4l1 2Zm543-1-2 1-1-1 1-1 2 1Zm-457 3c-1 2-3 2-2-1l3-2c1 0 1 1-1 3Zm385-2-2 3-2 5-5 3c-4 2-5 2-5-1s9-11 12-11l2 1Zm32 1-1 1v-2c1-2 2-1 1 1Zm-432 2 1 4c-2 2 4 7 6 6l2 2c0 4-1 4-5 0l-14-8c-4 0-3-3 2-5 6-2 6-2 8 1Zm89-1-3 2v-2l3-2v2Zm29 0-1 1-1-1v-2l2 2Zm7 1h-1c0-1 1-3 2-2l-1 2Zm9 2c-1 3-4 4-4 2 1-3 2-7 3-6l1 4Zm37-2h-2c0-1 2-3 3-2l-1 2Zm84 1c-1 3-3 4-3 1 0-2 3-5 3-4v3Zm125 3c-1 1-4-3-4-5s1-2 2 1c2 1 3 3 2 4Zm-409 0c-1 1-8-2-9-4l4 1 5 3Zm99-2-3 1 1-3c4-2 5-1 2 2Zm202-2-4 7c-3 6-4 7-7 7-6 0-7-2-2-8 3-5 6-6 12-7l1 1Zm-249 2c-2 1-2 1 0 2 2 0 3 1 1 3-1 2-6 1-6-2s3-5 6-5l-1 2Zm126-1v1l-2-1 1-1 1 1Zm92 0 3 6c4 5 5 6 2 7-1 1-2 0-1-2l-3-6c-4-4-5-6-2-6l1 1Zm-264 1-1 1-2-1 2-1 1 1Zm62 2 1 6c1 4-1 3-4-2l-2-4c1 1 2 1 2-1 0-3 3-2 3 1Zm69 1-1 4-1-4 1-4 1 4Zm244-3-2 2v-2l1-1 1 1Zm-261 2v6l1 4c3 0 1 4-2 4s-3-1-2-4v-4c-3-1-2-8 1-8l2 2Zm121 2-2 1-1-3 1-1 2 3Zm229-2-1 2-2-2 2-2 1 2Zm-393 1v1l-2-1 1-1 1 1Zm8 0v1l-2-1 1-1 1 1Zm17 2c-2 3-5 4-5 2l6-5-1 3Zm55-1v1l-2-2c0-2 1-2 2 1Zm102 2-5 3 4-4 4-3-3 4Zm-165 0c0 2 0 2-2 1-1-1-2-2-1-3 1-2 3 0 3 2Zm37-3-1 2-1-1 1-1h1Zm11 0-1 2-2-1 2-1h1Zm12 1-2 2c-2 1-3-1-1-2 1-2 3-1 3 0Zm-129 6-3-1-3-4 3 1 3 4Zm182-5-2 2-2-2 3-1 1 1Zm27 1v3c-1 2-1 2-4-1l-4-4 3 1 5 1Zm-258 1-2 2c-3 2-4 2-4-1s4-4 6-1Zm205 0v1l-2-1v-2l2 2Zm178-1-4 1c-1-1 0-2 2-2l2 1Zm-88 3-6 12-2 5-1 4c-1 1-1 0-1-2 0-5-5-5-11 0l-5 2 5-9 10-7c9-6 11-7 11-5Zm-192 3 4 6c1 5 1 5-2 4l-3-4-2-6c-3-3-1-4 3 0Zm85-2v2l-2-2 1-1 1 1Zm79 1c5 2 5 2 3 6s-2 4-3 1c-3-3-5-9-4-9l4 2Zm-40 0-1 1h-1l1-2 1 1Zm26 2-2 1-1-2 1-1 2 2Zm132 1c-2 3-4 3-4 0 0-1 5-4 6-3s0 2-2 3Zm59 0c-1 3-3 4-5 4-1 0-2 0-1-2 3-6 9-8 6-2Zm-111 0c-1 3 0 3 9 1l8-2c1 2-6 15-11 19-7 6-8 6-10 2l-3-6c-3-4-3-5 1-11 5-6 7-7 6-3Zm-279 4 3 3-4-2c-4-1-7-3-7-5s5 1 8 4Zm128-2-2 2c-1-1 0-2 1-3 2-3 3-2 1 1Zm64 0c1 1 3 7 2 9l-4-2c-3-5-7-5-8 0-1 3-2 5-6 6-8 3-7 1 4-9l4-5c0-2 5-1 8 1Zm118-1-2 2v-2c2-2 4-2 2 0Zm-203 3 5-1 3-1c3 0 4 0 4 3 0 2-1 3-2 3-3 0-3 2-1 3s2 3-1 3l-5-2-4-1c-2 1-10-2-10-3l2-2c2-1 2-2 2-4-1-2-1-2 0 0l7 2Zm26 0-1 3-1-4c0-1 0-3 1-2l1 3Zm192-3-2 4c-2 3-3 3-4 1v-4c3-2 5-2 6-1Zm-166 1-2 1h-1l1-1h2Zm205 1-1 1-2-1 2-1 1 1Zm-24 3c-2 1-3 2-4 1l2-2 3-1-1 2Zm37-2c-1 2-6 3-6 1 0-1 2-2 5-2l1 1Zm-169 7v-3c0-2 0-2 2 0s0 5-5 6c-3 1-4 1-6-3-3-6-2-8 3-3 2 2 5 4 6 3Zm41-6c2 1 2 2 1 6-2 5-1 8 3 9 5 1 7 7 4 9-4 3-5 2-4-2s-2-5-3-1c0 2-3 5-6 7l-7 6c-2 2-2 2-5 0l-3-4-2-4c-3-4-5-2-3 2s1 4-5 2c-8-3-9-1-7 6 2 4 2 5 1 5l-4-2c-10-11-9-11-11-9s-2 2-7 0l-5-2c-2 0 0 6 3 10s3 5 1 7-2 2-7-1l-7-6c-1-2-2-3-4-2l-1-2-1-1-4-1c-2-2-2-2 0-4l8-4c3 0 6-2 6-3 0-3-2-3-6 0-5 4-4 1 1-4l6-4 3 4c1 3 4 5 6 6 3 0 4 0 8-4 3-4 4-4 6-3l3 4c1 3 3 3 8-3l7-5v9l8-5c7-4 9-4 5 2-2 5-1 10 1 10l6-3 6-5 1-1c0-1-3 0-5 2-6 3-6 2-2-6 3-6 3-6 1-8-3-2-3-2 0-5s4-3 6-2Zm-172 2-2 1-1-1 2-2 1 2Zm56 1 4-2c0 1 1 2 3 1l1 3-2 6c-1 1-1 1-2-1 0-3-2-4-2-1 0 1 1 5 3 7l3 5-12-7h2c3 1 3-3 0-5l-3-6v-3l2 3 1 3 2-3Zm235-1c0 1 0 2-2 3l-2 4c-2 5 2 4 9-1 7-6 7-6 10-3 1 1 0 3-4 7-7 6-7 6-7 3s-4-2-7 3l-4 4c-2 0-1-12 1-15l2-4c-1-3 2-4 4-1Zm-275 1-2 4c0-1-1-2-4-1-5 1-5 0-1-2s7-3 7-1Zm255 0v1l-2-1 1-1 1 1Zm-225 3h-2l-1-2h1l2 2Zm66 0 4 3-3 3c-3 3-4 3-5 1v-10l4 3Zm112-1-6 11c-3 0-3-5 1-9 3-4 5-4 5-2Zm167-1-1 1-1-1 2-1v1Zm-146 4-2 1c0-2 2-4 3-3l-1 2Zm25 1c4 2 5 4 2 10-1 3 0 5 1 6 1 2 1 2-1 2s-3 3-2 8c0 2-3 3-8 1-2 0-3-2-4-6 0-5 0-6 2-9 4-3 3-6-1-5-3 1-4-3-2-5l8-4 5 2Zm-78 6c0 5-2 6-5 5-2-2 1-11 3-10s2 2 2 5Zm120-2-3 2 1-3 3-2-1 3Zm-267 3c3 4 4 6 3 7-1 2-1 2-3 0l-1-2 1-2c-1-2-3-1-4 2v3l-3-3c-2-2-2-4-1-5v-3c-1-2 0-2 2-2s4 2 6 5Zm54-2-4 2c-3 0-3-1 0-2 4-3 6-3 4 0Zm226-1v1l-2-1 1-1 1 1Zm-247 3c0 4 0 4-3 1-3-1-3-2-2-3 3-2 5-1 5 2Zm134 7-3-1c-2-1-2-2 0-5l3-3v9Zm20-7-3 2-3-2c0-1 1-2 3-2s3 1 3 2Zm-164 1-1 2-1-1 1-1h1Zm307 1 1 6c0 5 0 5-4 2-2-2-3-7-1-8h4Zm-283 4c-2 4-6 6-7 5s5-9 7-9v4Zm208-3v5l-2 2c-2-3-2-8 0-8l2 1Zm-226 7 2 8c1 4-1 4-7-1-7-4-7-7-1-8 2-1 3-1 2-2l-1-3c1-1 3 1 5 6Zm262-5-2 2c-3 1-3 0-2-2 2-2 4-2 4 0Zm-137 6c0 1-8 5-10 4-3-1-2-3 2-7l3-3 3 2 2 4Zm25-1c1 6-1 8-5 6-3-2-3-3 0-8 2-4 3-3 5 2Zm136-4c-3 0-13 10-11 10l3-1c2-2 4-1 5 4 0 6-1 7-3 3s-3-4-5-2-2 2-3-4l2-6v-3c-1-2 0-2 7-2 4 0 6 0 5 1Zm-122 3 5 3c2-1 2 0-1 4-3 5-5 5-7 0l-2-10 5 3Zm68-2-2 2-1-2 1-1 2 1Zm22 0-2 3c-2 2-5 0-4-3 1-1 6-2 6 0Zm-266 2-2 1-1-1 1-2 2 2Zm-19 6c0 2-1 1-3-1-3-3-3-3 0-2l3 3Zm13 0c2 2 2 2 0 2-3 0-6-2-6-4s3-1 6 2Zm279 0-1 4c-1 2-1 2-1-2-1-2 0-5 1-5l1 3Zm-148 4-1 3c-1 0-2 0-2-2l2-3 1 2Z"/><path fill="#214784" d="M463 158c-2 2-2 4 0 4 1 0 3-4 2-5l-2 1ZM457 210c-2 1-1 3 1 3l2-1c0-2-2-3-3-2ZM805 242l2 1v-1l-1-1-1 1ZM805 247l1 1v-3c-1-1-2 0-1 2ZM705 308v2l2-1c0-3-1-3-2-1ZM676 322c-2 1-2 3 0 3l2-2c1-2-1-3-2-1ZM1075 339l-2 2v2c2 2 3 0 3-3l-1-1ZM1052 352l1 2c1 1 1 0 1-1-1-2-2-2-2-1ZM1094 367l2 5v-3c0-2-1-2-2-2ZM1113 367v1l2-1v-2l-2 2ZM1202 376l-1 4c-1 1 0 2 2 2 2 1 2 0 2-3 0-4-2-6-3-3ZM1197 377l-2 2c2 0 6-2 5-3l-3 1ZM1176 383v4l1 3 2-3 1-4c0-1-4-2-4 0ZM1189 384v3c2 0 6-4 5-4l-3-1c-2 0-2 1-2 2ZM1193 387h2l1-1h-1l-2 1ZM1068 388c0 2-1 2-5 2s-4 0-4 3 0 3 1 1l3-2v2c-1 2-1 2 2 0l4-1c2 1 2-4 0-6l-1 1ZM1278 439c1 3 3 4 5 3 3-1 1-5-2-5s-3 0-3 2ZM1274 444c0 1 0 1 0 0v-2 2ZM205 63l-3 4c1 1 0 3-1 4l-2 3 4-3 4-2 1-2c0-1 1-2 2-1 2 1 3-2 1-4s-2-2-6 1ZM230 68l1 2 1-2v-3l-2 3ZM549 68v2-1l2-1h2c0-2-3-2-4 0ZM556 67h2-2ZM325 72l-1 5c0 2-1 1-4-2-1-1-3-2-5-1-3 1-3 2-2 5 0 3 0 4-1 3l-1-2-2-2-1 1-1 1c-1-1-3 0-4 2-2 2-4 2-5 1h-4c-2 2-2 3-1 3 1 1 2 0 2-1 1-3 1-3 1 0s-2 7-4 6c-1-1-3 3-2 5h-1l-3 3c-2 4-1 4 0 4 2 0 2 1 2 5-1 3 0 4 1 5 2 1 6-3 4-4l-1-4c0-3 1-4 4-5h4l2 1 4 3 4 4c4 1 4 0 1-3-2-2-2-2 0-5l2-7c0-3 1-3 2-3 1 1 2 0 2-1h2v2c-2 2-2 4 0 3 1-1 1 0 1 1l2-2c1-2 2-4 1-5 0-2 0-2 2-2s2 1 0 6-2 9 1 9h3l3 1c2 0 1 5-1 6l-2-1-1-3c-2 0-2 0-2 2l-2-1-3-6c0-3-1-2-1 2l-2 4-1 1 2 1 1 5a293 293 0 0 0 0 20l-1 6h-1c-2-1-3-13-2-12l1-1-1-1c-2 0-3-2-3-3-1-4-3-4-9 1-3 2-5 4-6 3-2-3-4-1-8 6-4 8-6 9-6 5l2-4c1 0 1-1-1-1l-11-5h7l-3-1-5-4-2-2 1 3v2l3 6c3 2 4 4 3 5l-3-2-3-3-1 3v7c3 5 4 5 3 1-1-3 2-6 4-3 1 3 1 8-1 7-1-1-1-1 0 0 2 3 3 13 2 13s-2-1-2-3c0-3-1-4-3-3l2 6c4 9 11 12 7 3l-1-8c0-3 0-3 1 1l4 6 2 3 3 1c3 0 1 8-5 13l-3 5 5-2 4-4-1 4c0 5 0 5 3-2l4-7c2-1 1-3-2-2-2 0-2 0-2-2 0-4 0-3 8 3 6 5 6 5 4 7l-3 3c-2 0-10 6-9 6l5-3c5-3 6-2 4 2v2c3 0 6-3 5-5-1-1 2-5 4-4v3c-3 2-3 2-1 2 3-1 4 0 1 3-2 1-5 10-5 13 0 2-6 5-8 4l2-4 2-4c-2-1-12 6-12 9l-2 4-1 4h7c0-2 11-6 16-7 4-1 4 0 4 2s-1 5-3 7c-3 4-2 7 1 6 4-1 1 9-2 13l-1 2c1-2 2-2 3-1 1 2 0 13-2 16v2c2 0 2 2 2 12-1 14 0 20 3 20 3-1 4-10 4-28 0-6 1-9 2-8v-3c-2-2-1-7 1-7l1 1v2l2 2c1 1 1 0 1-3l1-6 1-2-4 1c-2 3-3 3-3 1-1-3 4-9 7-9l3-2c0-2 1-3 2-3v3l-1 4-1 1v2l3 1 1-5 1-3c4 1 5-1 5-9l-1-8-2-1v1l-1 2-2 4-1 5c-1 2-12 7-13 7l1-12 1-25c0-10 1-15 2-17 3-3 3-7 0-4-2 2-2-1 1-5 1-3 1-3-1-3s-2-1-1-9l1-16c1-7 1-9 4-11s2-3-2-1c-1 1-2 1-3-1v-7c1-3 2-3 5-3l4 1 7 1h7c0 3 3 1 4-2l1-5c1-2-2-2-5 0l-2 1-3 1h-1l1-2 1-4c0-3 4-4 8-2 2 2 3 2 3 1v-4c1-2 2-2 2 3 0 4 3 3 3-2 0-4 0-4 5-6l7-1-1-1c-1-1-7 0-14 3-3 1-3 0 0-3 2-2 2-2 0-2l-3 1-3 1v-1c2-2 2-4-1-3l-5-1-4-1-3-3-2-2c-1 1-3 0-4-1h-3c-2 1-2 1-2-1l1-4 1-2c-1-2-3-1-5 2Zm-12 15v1l-2-1 1-1 1 1Zm26 0h3l2 1c-2 1-7 3-7 1s-2 0-2 3l-4 4c-3 3-3 3 2-6 3-4 6-6 6-3Zm-30 2v2l-2-2 1-1 1 1Zm-11 5c-4 4-5 4-2-1 1-3 2-4 3-3s0 3-1 4Zm47-2c0 3-2 4-4 3v-4c3-2 4-2 4 1Zm3 3c-1 1-1 0-1-1l1-2v3Zm-10 3c-1 2-3 2-3 0 0-1 1-2 3-2v2Zm3 4c-1 3-3 3-4 2s0-2 2-3c4-2 4-2 2 1Zm-4 7h-1l-1-2 1-1 1 3Zm-26 16h-2c0-1 2-3 3-2l-1 2Zm-6 3-3 5 2-8c3-2 3-1 1 3Zm8 3c-1 5-1 6 3 9 2 3 3 3 1 4-2 0-2 1-1 2l3 1v1l-1 5c1 4-1 6-4 4-1-1-1-2 1-2v-1c-1-2-5 0-4 3s-1 3-2 1c0-1-1-1-1 1s1 3 3 2c3-1 4 0 4 1l2 6c1 3 2 4 0 4l-3-4-3-2-12-8 5-6c2 2 4-4 3-7 0-2-4-4-4-2h-2c-3-3-3-5 1-7 3-2 3-2 3 1 0 4 3 5 5 3v-2c-3-1-2-5 0-9 3-4 4-4 3 2Zm-17 3h-1c0-3 1-5 2-3 1 1 0 2-1 3Zm2 5c-1 2 0 4 1 4v3c0 3 0 4 2 1 3-2 4-2 4 0s-5 7-7 7l-1-2c0-2 0-2-1 0-2 0-2 2-2 3 1 2 1 2-1 1-2-2-2-2 1-8l2-6-4 4c-2 3-4 5-3 6h-1c-1-1-2-9 0-12 1-3 1-3 2 0s3 3 4 0v-1h-2l6-4v4Zm13 33c1 2-1 1-3-2-3-3-3-3 0-2l3 4Zm5 17-2 2c-2 0-2-1-1-3 1-1 3-1 3 1Zm0 8c0 5-1 5-5 2-2-2-2-2 0-4 4-2 5-2 5 2Zm-19 9-1 1-1-1 1-1 1 1Zm19 10-1 2-2-2 2-1 1 1Zm25 2-1 1-1-1 2-2v2ZM533 70c-1 1-1 2 1 2l2-2h-3ZM539 71c0 1 1 1 4-1 1-1 1-1-1-1s-3 1-3 2ZM581 70v2l2-2h-2ZM518 72h-7l-9 1-9 1c-1 1 1 1 13 2l5-1 3-1c2 1 7-1 7-3 0-1-2-1-3 1ZM470 76c-6 2-6 3 0 2 5 0 7-1 7-3 0-1-1-1-7 1ZM485 75c-4 1-5 3-1 3 2 0 6-2 5-3h-4ZM567 75l1 2c1 1 1 0 1-1l-1-2-1 1ZM572 75l1 1 2-1-2-1-1 1ZM562 77l-3 2-4 2c-2 0-4 1-4 3-2 3-1 3 2 0l5-2c1 1 2 0 3-2 0-2 1-2 2-1 1 2 1 2 3 0s-1-4-4-2ZM210 78l1 2v2c-1 3 2 3 3 0v-4h-4ZM244 79v1c1 0 3-2 2-3l-2 2ZM196 80l-3 5c-3 5-3 8 0 4 3-2 7-9 7-10 0-2-3-1-4 1ZM438 79l-11 2-13 2-7 1-6 2c-1 1 9 1 17-1 4-1 4-1 5 2l4 2c3 0 3 0 1-1s-1-1 1-1c2 1 3 1 4-1 0-1 2-2 4-1l4-1 7-3 6-2h-16ZM522 81h3-3ZM545 82h-1l-2 1c-1 3-3 3-3 0 0-1-1-1-2 1-3 4-5 4-5 0-1-3-1-3-1 0s-2 4-5 6l-6 2-1 1-4 1-4 2-11 6-5 3c-3 4 2 4 7 1l5-3-4 3-8 5-4 3c0 1 1 1 5-1 2-2 3-2 5-1 1 2 2 1 1 0v-2l2 3 1 2v-3c-1-3 0-6 2-6 3 0 4 4 3 7l1 2 1-3 1-6c1-1 0-2-1-1v-1l9-5 8-6c-1-1 0-1 2-1 5 0 6 0 6-2l4-1c2 0 3 0 3-2h3v-7l-2 2ZM497 87l1 2 1-2-1-3-1 3ZM391 87h-4c-3 0-5 1-5 2-1 1 0 2 4 1l7-1 5-1 1-1h-8ZM505 92l2 2 1-3-1-2c-1 0-2 1-2 3ZM245 94l-3 4c1 3 3 4 3 1l3-4c3-3 1-5-3-1Z"/><path fill="#214784" d="M295 102c-2 2-1 5 3 5 2 0 3-1 0-4-1-2-2-2-3-1ZM754 109c0 4 0 5 2 2 2-2 2-5-1-6l-1 4ZM301 107l2 2h1l-1-3-2 1ZM488 107l1 1 2-1-2-1-1 1ZM462 112l2 1 1-1c-1-2-3-3-3 0ZM724 114c0 3 0 4 1 2 2-3 2-5 0-5l-1 3ZM728 112l1 1 2-2h-2l-1 1ZM761 112l3 3c3 1 3 1 1-1-2-3-4-4-4-2ZM273 113c0 2 4 7 5 7l2 1 3 1c3 0 4 0 2-2-1-2-1-3-2-1-1 1-2 1-2-1s-1-4-3-5h-5Zm7 4-1 1-2-2 2-1 1 2ZM433 113l2 2 1-2-1-1-2 1ZM299 117c2 2 3 4 4 3l-1-3c-4-5-5-4-3 0ZM733 115l1 1 1-1-2-2v2ZM335 116l1 1 2-1v-1l-3 1ZM475 117l1 2 1-2-1-2-1 2ZM480 116h3c1-1 0-1-2-1-1 0-2 0-1 1ZM354 121c-2 1-3 3-2 4 0 1 6-5 5-6 0-1-2 0-3 2ZM470 120c-2 0-2 1-1 2l3-1c2-2 1-2-2-1ZM283 125l1 2 1-1-1-2-1 1ZM348 132c1 2 2 3 3 2l1 2 1 2 1-5c-1-3-1-4-2-3h-3c-2-1-2-1-1 2ZM814 138l2 1v-1l-1-2-1 2ZM818 139l1 4c1 2 1 2 1-1 0-4-1-5-2-3ZM823 145l2 4c2 0 2-3 0-6-1-2-2-1-2 2ZM3 150l1 2c1 0 2 1 1 2-1 0-2 0-3-2-2-2-2-2-2 0s4 6 7 6c2 0 3 2 3 3-1 1 0 2 1 2 2 0 2 1 2 2v2c3 0 4-2 4-6-1-5-1-6-3-5-1 1-2 0-3-1v-3c2-2 3-2 5 0 3 3 4 1 1-2-2-2-2-3-6-1H6c-2-2-3-2-3 1ZM818 153c3 2 4 2 3-1l-3-2c-2 0-1 1 0 3ZM827 153l1 1 1-1v-1l-2 1ZM830 160c0 2 0 4 1 3 1-2 4 4 3 6v2c3 1 2-6 0-9-2-2-2-4-2-5l-1-2-1 5ZM921 160c0 3 1 3 2 2v-4c-1-2-2-2-2 2ZM765 161l2 1 1-1-1-2-2 2ZM1120 162c0 2-2 3-5 4-4 1-4 2-4 5s0 4 2 2c1-1 2-2 1-3 0-2 1-2 2-2l4-2 5-1c1 1 2 0 1-1 0-1-2-2-3-1l-2-2c0-2-1-2-1 1ZM46 165l-5 6c0 1 6 0 8-2h-1c-3 1-3-1 0-5 2-1 3-3 2-3l-4 4ZM259 162h1l1-1h-1l-1 1ZM823 163l1 4c1 1 1 1 1-2s-2-5-2-2ZM20 164l1 2 2-2-2-1-1 1ZM768 164l-1 3c1 2 6 5 6 4l-1-2c-2 0-3-2-3-4l-1-1ZM248 167c-1 1 0 8 1 8l2 5c0 7 3 12 5 10v-7c2-3 1-4 0-5-2-1-3-3-3-5 0-3-3-7-5-6ZM818 167v3c1 2 2 0 2-3-1-2-1-2-2 0ZM6 168l2 1 4 3c2 3 2 3 0 6-2 4-5 4-9-1-4-4-4-1 0 4l2 6c-1 2 0 3 4 2 5 0 10-3 5-3-1 0-2-1-2-3 0-3 1-4 3-3l3-1 2 2c2 3 2 3 5 1 1-1 3-2 2-3l-2 1c-2 1-3 1-4-1l-2-4c0-1-1-2-3-2l-3-3c0-1-1-2-3-2H6ZM334 170l8 11-4-9-2-2-1-3c-1 0-2 1-1 3ZM778 170c0 2-1 3-2 3h-2l1 2c2 1 6-4 5-7-1-1-1 0-2 2ZM30 170h-5c-4-1-6 1-3 3 2 2 3 2 3 1l5-1c3 1 6 2 7 1 2 0 2-1-1-3-3-3-2-3-6-1ZM347 171l1 1 1-1-1-2-1 2ZM781 173v5c1 0 2-1 2-3 0-5-1-5-2-2ZM346 177l-2 5 3-4c2-5 1-6-1-1ZM796 174l2 3c3 2 3 2 1-1l-3-3v1ZM829 177l1 4 1 2c2 1 1-4-1-7-2-2-2-2-1 1ZM33 178c-3 2-3 2 0 2s5-2 3-3l-3 1ZM260 178l1 2 2-2-2-2-1 2ZM1064 176v6c2 0 3-5 1-6h-1ZM939 179c0 1 0 2 1 1v-3l-1 2ZM352 179l-1 2h1l1-2h-1ZM928 179c-1 1 0 3 1 4l2 2c-1-3-2-7-3-6ZM940 183c-1 3-3 4-3 3-2-2-4-2-4 1 0 2 1 3 2 2l2 1c0 2 2 4 3 5l2 2c-2-1-2-1-1 1l1 6c-1 2 0 4 1 4 2 1 2-5 1-14v-2l4 5 2 7c-1 6 0 10 3 10 1 0 2 0 1-1l1-2c2-3 0-5-3-4-2 1-2 0 0-1 2-2 2-9 0-9l-1-2-2-1c-2 0-2-2-2-4 0-3-1-4-2-4l-3-4v-3l-2 4ZM1159 181v2l1-1c1-3 1-3-1-1Z"/><path fill="#214784" d="M25 185c-3 2-5 5-5 6l6-4c7-7 6-8-1-2ZM329 182c-2 1-1 2 2 5s5 3 5 0l-2-1c-1 1-2 0-3-2s-1-3-2-2ZM364 183l2 2c2 1 2 1 1-1 0-2-3-3-3-1ZM375 184l1 4c1 3 1 3-1 4-3 1-4 3-4 5h1c1-2 4-2 4-1l-2 3c-2 2-2 4 0 5 1 1 2 0 2-3l2-4c1-1 2 0 1 2-1 3-1 3 1 0 3-3 3-5 0-7-2-1-2-1 0-2 2-3 2-4-1-3-1 0-2 0-2-2l-1-2-1 1ZM805 186l1 5 2 4v-5c-1-5-2-7-3-4ZM1141 191c-1 3-1 3 1 1 2-1 2-2 2-3l-3 2ZM338 193c-1 4 0 8 3 7v-4c-1-5-2-6-3-3ZM791 194c0 2 0 2 1 1v-2c-1-1-1 0-1 1ZM25 195h2l2-1h-2l-2 1ZM12 197l-5 5c0 3-2 6-4 7l-3 6c0 3 1 3 6-3l7-6 2-1-2-1-1-3c0-3 6-6 9-4l2-1c0-2-5-1-11 1ZM330 196l1 1 1-1v-1l-2 1ZM386 197v1-3 2ZM1134 199l-3 4-4 6c-4 4-5 4-6 2h-1c0 3-1 4-3 8l-6 8c-2 1-4 3-3 4l2-2 4-2 1-1c0-1 1-3 4-4l4-4 4-6c3-2 5-5 5-6l1-2c1 1 2-1 3-4l2-5-4 4ZM818 198v1-2 1ZM823 197l2 2v-2l-1-1-1 1ZM2 203c-2 4-1 4 2 2v-3c0-1-1-1-2 1ZM248 204l1 1 2-1-2-2-1 2ZM793 203l3 1h1c-1-2-4-2-4-1ZM1136 204c-1 2-2 5 0 5 1 0 4-4 4-6 0-1-2-1-4 1ZM391 209c1 1 0 3-1 5-2 2-2 4-1 4l2-2 1-2 1 1c-1 1 0 1 1 2 2 0 0 5-3 5l-4 1-3 2c-1-1-1 0-1 1 0 2 4 3 7 0 6-6 7-6 6 3-1 7-1 7 1 2 0-2 2-6 4-7 4-4 4-6 1-6-1 0-2 0-1 1h-2c-2 0-2-1-2-2 1-3-1-8-4-9l-2 1ZM252 211l2 3c2-1 3 3 1 5l-3 4c1 2 0 3-2 3-1-1-2 0-1 1h5c5 0 5 0 5-4 0-3 0-4 2-3 1 0 2 0 2-4 0-5 0-5-2-3-2 3-2 3-5-1l-4-4v3ZM382 210c-2 2 0 4 2 3 3-1 4-4 1-4l-3 1ZM399 211l2 1c2-1 2-2 1-2l-3 1ZM796 212c0 2 1 2 1 1v-3l-1 2ZM931 213c0 1 0 2 1 1v-3c-1-1-1 0-1 2ZM1128 216l-3 6c2 0 9-11 8-11l-5 5ZM272 212l-1 2h1l1-2h-1ZM301 213l1 2 1-2v-2l-2 2ZM433 213c-1 3-1 4 1 2s3-4 1-4l-2 2Z"/><path fill="#214784" d="m247 216 1 4c3 1 3-1 1-4l-2-3v3ZM296 216c-2 2-2 2 0 1l3-3-3 2ZM290 217c-3 2-2 4 1 2l2-3c0-1-1-1-3 1ZM265 225l3 2c1 1 3 2 3 4 1 2 1 2 3 1 2-2-1-8-5-8l-4 1ZM341 229c-2 6-2 7-4 5h-2l1 2c3 2 1 5-4 10-3 3-6 5-7 4-3-1-3 0 0 1l4 2c1-1 2 0 2 3 0 5 2 9 5 9s3-1 1-1c-3-1-6-10-4-10l2-4 2-5c3-2 4-2 5-14 1-8 0-10-1-2ZM275 237l2 1v-1l-1-1-1 1ZM472 237c-1 0-2 1-1 2l3-2c3-2 1-2-2 0ZM786 237c-1 2-2 2-4 2s-2 0 0 3l5 3c3 0 3-1 3-4 1-2 0-3-1-3-1 1-2 0-3-1 0-2 0-2 0 0ZM369 238l2 1v-1l-1-1-1 1ZM478 239v4c0 3 0 2 1-1 1-5 0-6-1-3ZM344 241c-2 5 0 6 1 2l1-5-2 3ZM380 240l2 3v4c-2 1-2 1 0 2h4c2-2 2-6-1-6l-1-2-2-2-2 1ZM57 244v2l2-2-1-1-1 1ZM1292 246l1 2 2-1-2-2-1 1ZM406 247l2 1v-1l-1-1-1 1ZM389 250c-1 1 0 2 1 2l2 3 1 2v-4l-1-4-3 1ZM463 250c-2 2-2 2 0 2l3-1c2-2 0-3-3-1ZM776 249c0 2 3 4 7 4h3l-3-2c-3-3-7-4-7-2ZM1039 249l1 2h1l-1-2h-1ZM367 251v6c1 5 0 7-3 4-1-2-1-2-1 0 1 3-2 5-3 2l-3-4-2-2 1 2v4c0 2 4 5 6 3h6c2 0 3-1 3-3l-1-4-2-6-1-2ZM407 252l1 1 1 2c-1 2 0 2 1 2l1-1v-3l-2-2-2 1ZM457 252c-1 2 0 4 2 3v-4l-2 1ZM1082 253l-4 4c-3 0-10 11-10 14l2 1 2-3c0-1 6-7 8-7l1-2 4-4c3-2 4-4 4-5l-2 2c-3 2-3 2-3-1-1-2-1-2-2 1ZM307 255h1l1-1-1-1-1 2Z"/><path fill="#214784" d="m360 257 1 1v-1l-1-2v2ZM1300 257l1 1v-1l-1-2v2ZM343 256c0 2 8 8 8 8l-3-4c-3-4-5-5-5-4ZM386 257c-1 1-1 3 1 3l2-1c0-2-2-3-3-2ZM428 257l-1 4c0 4-2 8-5 11l-2 4c-2 4 4 5 6 2l4-3 2-2c0-2 0-2-3 0s-6 3-6 1l1-1 2-1 3-2c2 0 5-8 4-9l-3-1-1-2c1-2 0-3-1-1ZM440 258l1 2v-3l-1 1ZM768 258l4 2 3 1h2c1-1 2-1 4 1 3 3 4 1 2-3-2-3-3-3-9-3-7 0-7 0-6 2ZM757 260l-1 2c-2-2-2 3 1 6 2 4 4 4 4 1l2-2 1 1 1 3 2 2h2c1-1-2-6-7-11-4-4-5-4-5-2ZM1027 258l1 2 2-2v-1l-3 1ZM1257 257v6c-1 4-1 4 2 2 3-3 3-7 0-8h-2ZM1307 259c0 2 5 9 5 6l-3-5c-1-2-2-3-2-1ZM397 261v2l2-1c0-3-1-3-2-1ZM1083 261l2 1h2l-2-2-2 1ZM486 264v1-3 2ZM1303 262l2 2v-2l-1-1-1 1ZM47 264c-2 2-2 2 1 1l3-2c0-1-1-1-4 1ZM462 266v2l2-1v-3l-2 2ZM489 265l2 2 2 1-2-3h-2ZM496 269v4c3 1 3 0 2-4s-1-4-2 0ZM1064 268l1 1v-3l-1 2ZM1285 268l-1 3c2 1 5-2 5-4s-2-1-4 1ZM353 268c0 2 3 4 4 3 0 0 0-2-2-2l-2-1ZM1252 270l-1 3c1 1 2 0 2-2l1-3-2 2ZM1259 269l1 1 2-1v-2l-3 2ZM1333 269l2 1v-1l-1-2-1 2ZM283 270l4 8 1-2-5-6ZM203 272c0 1-1 2-3 2s-3 2-4 3l-1 3c-2 0 0 4 2 4 1 1 2 1 1-1s0-7 2-6 4-3 4-5h-1ZM237 274c-2 2 0 2 2 0v-2l-2 2ZM1063 275l-2 2-3 3c1 2 3 2 5-1 3-2 3-5 1-5l-1 1ZM1339 275l4 4v-1l-4-4c-2 0-2 0 0 1ZM1070 277c1 1 1 2 2 1l-1-2c-1-1-2-1-1 1ZM229 279l-4 2c-1-1-3 4-2 5s8-3 8-5l2-3 1-2-5 3ZM296 277v3c1 2 1 1 1-1 0-3 0-4-1-2ZM437 279c-4 3-2 3 3 0l2-3-5 3ZM256 280c1 1 0 4-2 6l-1 4 2-1c0-2 2-1 3 1l1-1c0-5 1-5 8-2 3 1 6 2 7 1l-5-3-8-4c-2-3-5-3-5-1ZM766 280h4c1-1 1-1-2-1-2 0-3 0-2 1ZM202 281v5l2 5v-6c0-5 0-5-2-4ZM291 282l1 2c1 1 1 0 1-1 0-2 0-2-2-1ZM282 285l1 3c1 1 1 0 1-1l1-1 1 6c-1 4 0 6 1 6l1-1 2-2c2 0 2 0 0-4-1-3-5-8-7-8l-1 2ZM295 287l1 3 2-1 2-2h-1c-1 1-3 0-3-1-1-1-1-1-1 1ZM459 286l-1 3v1l-2-1c0-2 0-2-1 0l-10 1-8 1 3 1 5 2 6 1 7-1 6-3c2-2 2-2-1-1-3 0-4-1-1-3 2-2 0-2-3-1ZM277 288l2 1 1-1-1-2-2 2ZM1239 289c0 3 0 3 1 1 2-2 2-4 0-4l-1 3ZM198 289l1 1 1-1v-1l-2 1ZM219 290l1 4 1 1c2-2 1-7-1-7l-1 2ZM2 290v7l1 7 1 1 1-2-1-8c0-6-1-7-2-5ZM206 290l1 1 1-1v-1l-2 1ZM250 291c0 2-1 3-2 3l-1 2-1 4c-1 1-2 3-1 4l-2 2c-2 1-2 0-1-5 0-6 0-7-1-6-3 1-4 7-4 16 0 6-1 8-2 10-3 1-3 4-4 19l-1 22c0 4 6 15 8 15 3 0 4-9 6-32v-14l4 2c3 2 5 1 5-2 0-2 0-3-1-2-1 5-7 0-7-6l-2-7c-1-3-1-3 1-6l3-6 2-6c1-2 2-5 1-7v-3 3Zm-10 12c-1 1-1 0-1-1 0-2 0-3 1-2v3ZM514 291l-4 3h-6l1 2c2 1 5 12 5 15-1 1 0 2 1 1 1 0 3 1 4 4 4 5 5 3 1-3-3-6-3-8 2-4 4 3 6 4 6 1l-4-3c-4-2-4-3-4-5s-1-4-3-4c-3-3-3-4 1-3 3 0 3 0 3-2v-3l-3 1Zm-2 12c0 4 0 4-1 1-2-4-2-6-1-6s2 2 2 5ZM201 293l-1 1c-1-1-3 0-4 1-2 2-2 3 1 2h2c1 1 5 0 5-2l-1-3-2 1ZM236 293l1 1 2-1-2-2-1 2ZM255 295l-2 2c-2 0-2 0-1 1 3 4 5 3 5-1s-2-6-2-2ZM233 296c0 1 1 2 2 1v-2c-1-2-2-1-2 1ZM171 298l2 7c1 4 1 4 3 3 1-1 2-1 5 1s4 2 4 1l-4-3c-3-1-5-3-5-4l-3-4c-2-3-2-3-2-1ZM271 298l-1 1c1 0 2 2 1 5 0 3 0 4 2 5l1 2c-1 2 4 11 6 11l1 2h1l-2-6-5-13c-2-7-3-8-4-7ZM12 301c-8 4-11 9-12 16l1 4 3-1c7 0 8-1 8-3l4-4c5-1 7-4 3-3l-5 1-2 1c0 2-6 6-8 4-1-1 3-7 8-12s5-6 0-3ZM230 301l1 2c1 1 1 1 1-1 0-3-1-4-2-1ZM476 301l1 1 2-1c1-1 0-2-1-2l-2 2ZM217 301v4l-1 3-1 3-1 7c-1 2-2 1-7-3-7-7-9-7-2 0l5 6c-1 2 6 1 8-2 2-2 3-2 4-1 2 2 3 2 3 0h2l1-3c1-4 0-4-3 0l-2 3 1-3c0-2 2-4 3-4l3-3c1-3 0-3-4 1-3 3-4 3-6 2l-1-2v-5c-1-3-1-4-2-3ZM267 302l1 1 1-1v-2l-2 2ZM295 302h-2c-3 0-3 3 0 5 1 1 2 0 2-2v-4 1Z"/><path fill="#214784" d="M253 303c-1 1-1 1 1 1l2-1c0-2 0-2-3 0ZM518 304l4 3-1-3-4-2 1 2ZM1229 302l2 2h2l-2-2h-2ZM776 309l2 4v-4l1-3h1c-2-3-4-2-4 3ZM42 307l1 2 2-2c0-1 0-2-2-2l-1 2ZM167 309l1 2c3-1 7 5 10 15l4 7c2 3 3 3 3 1l1-4 2-3c3-2 3-2 5 0v6c-2 4 1 6 5 5 2-1 2 0 3 4 1 5 2 7 3 4h3c3 3 3 0-1-4l-3-6c1-2-3-3-7-2-3 1-3 1-1-1l2-4c0-3 1-4 2-4 3 0 3-2 1-6l-2-5-1-2-1 7c0 6-2 9-3 5h-3c-4 2-5 2-5-1 0-4-2-6-3-4-1 1-2 0-3-3l-3-4-4-2c-4-4-5-4-5-1ZM255 317l-1 9 1 1 1-2c1-2 1-2 2 1 2 3 2 3 2-1 0-3-1-4-2-4-2 0-2-1 0-3 1-2 0-9-2-9l-1 8ZM502 316c-5 6-6 7-2 6l2-1 3-5c5-6 3-6-3 0Z"/><path fill="#214784" d="m191 317 3 2-1-2-2-3v3ZM15 318l1 1 1-2h-1l-1 1ZM33 319v2l-3 2-3 5c0 3 1 2 4-1l5-7 2-2c-2-2-3-1-5 1ZM170 320l2 3c2-2 2-4 0-5s-2 0-2 2ZM553 319l-2 1c-2-1-9 7-10 10-1 5 0 5 4 4h3c0 2 4 4 6 2 1-1 1-1-1-1s-2 0-2-4c0-2 0-2 1 0s1 1 1 0c0-2 0-3-1-2l-4 2-5 1c-1-2 4-8 9-10 3-1 4-3 3-3h-2ZM512 323l1 2c1 1 2 0 2-1l-2-3-1 2ZM774 324l-1 3c2 0 4-5 3-6l-2 3ZM505 326l7 4 3 1 3 1v-1l-2-2-2-1-9-4-1-1 1 3ZM493 327l2 1v-1l-1-1-1 1ZM770 328v1-3 2ZM562 328c-1 0-2 1-1 2 0 1 1 2 2 1v2l1 2c1 0 3-6 2-7h-4ZM265 331l-1 2v2h3v-7l-2 3ZM777 330v2l2-2c0-2-1-2-2 0ZM95 331l2 1v-1l-1-1-1 1ZM868 335c0 4 3 5 4 1l-1-1c-2 1-2 1-1-1l-1-3-1 4ZM559 335c0 1 0 2 1 1v-3c-1-1-1 0-1 2ZM780 333l1 2 2-2-2-1-1 1ZM221 334l2 3 2 6c2 5 2 5 1-1l-2-8h-3ZM26 337c-2 1-3 2-2 3l8-4c0-2-1-1-6 1ZM176 336v4c1 1 2 1 2-1 2-3 0-5-2-3ZM587 336c-2 1-2 1 1 1l3-1c1-2 0-2-4 0ZM76 338l-6 1-2 1c1 2 7 1 10-2 3-2 3-3-2 0ZM214 340l2 4v-3c-2-4-3-5-2-1ZM599 339l2 1v-1l-1-2-1 2ZM556 341l1 1 1-2c-1-2-2-2-2 1ZM18 341h3c1-1 0-1-2-1-1 0-2 0-1 1ZM552 342c2 3 4 3 2 0l-2-2v2ZM563 341l1 1 1-1-1-1-1 1ZM882 341h3c1-1 0-1-2-1-1 0-2 0-1 1ZM548 345c-2 3-1 4 1 3 1-1 2-2 1-3h-2ZM556 345l2 2 2-1-2-2-2 1ZM785 345l2 1v-1l-1-1-1 1ZM178 350l6 4c1-1-7-9-9-9l3 5ZM611 349l1 4 1 1c2 0 5-7 4-8l-3 2c-2 2-2 2-2 0l-1-2v3ZM653 350c-2 3-2 5 1 5 1 0 3-7 2-8s-2 1-3 3ZM225 351v2c1 1 2 0 2-1 0-2-1-3-2-1ZM574 351l1 2 2-2-1-1-2 1ZM698 356v1-4 3ZM747 356c0 1 0 2 1 1l2 1c2 1 2 1 1-1-2-4-4-4-4-1ZM804 356c-1 1-1 1 1 1s3-1 2-2c-1-2-1-2-3 1ZM648 358c-1 1-2 4-4 4-2 3-2 5 1 3 2 0 3-3 4-5 2-5 1-6-1-2ZM768 357l1 3c3 0 5 7 3 10-1 3 0 7 2 7v-2c-1-3 1-6 2-5v5c0 3 0 4 2 4l3 3c1 2 1 2 3 1 2-2 2-2 1-5-2-2-2-3-2-1 0 3-2 3-4 0-2-1-1-2 3-6l4-6-3 3c-3 3-5 3-9-5-4-7-6-9-6-6ZM876 357v4c2 1 3-3 2-5l-2 1ZM798 359v1-3 2ZM942 360c0 1 0 1 0 0v-2 2ZM946 365l3 2c1-1-2-4-4-4l1 2ZM940 366l2 1c1 0 2-1 1-2-1-2-3-1-3 1ZM803 372c1 3 1 4-1 7-2 4 0 7 2 3 1-2 1-1 1 4-1 7 1 10 3 5l4-6c4-5 4-7-1-3l-3 4v-4l-1-6c0-2 0-3 2-3 3 0 2-2-2-4l-5-1 1 4ZM944 369l-1 2c1 1 3 0 2-2h-1ZM838 386c-3 2-4 5-3 5 0 1 2 0 3-2l3-2 5-2c2-1 5-2 6-1 3 0 3 0 1-1l-4-1c-1 1-3 0-3-1-2-1-2 0-2 1 0 3 0 3-1 1s-2-1-5 3ZM820 386l1 1 1-2c-1-1-2-1-2 1ZM818 388l-8 10c-3 3-6 10-3 9l1-4c0-1 2-4 6-7 3-3 5-6 4-8 0-1 0-1 0 0ZM944 388l2 5c1 3 2 4 3 3s2-2 1-4l-1-4-2-1-3 1ZM976 389c0 2 0 3-2 2l-2 1 1 1 2 1c2 0 2 0 2-2s1-2 2-2c1 1 1 0 1-1-1-3-4-3-4 0ZM848 392c-2 3 0 5 1 2 2-2 2-5 1-5l-2 3ZM857 392l-2 2-1 5c-1 1 0 2 1 2l1-1c-1 0 0-2 2-3 2-2 3-7 2-6l-3 1ZM861 393c0 6 2 7 7 4 4-3 6-6 2-4-4 1-5 1-5-1l-2-1-2 2ZM969 396c0 3 0 4-2 3-1 0-2 0-2 4 0 5 1 5 5 5 3 0 4 1 6 4 3 6 3 8 0 14l-3 6-2 4c-2 3-3 3-5 2-1-1-2-2-3-1s17 18 21 19 4 1 4-2l-1-3-2 1c0 2 0 2-3 0-2-1-6-3-8-6l-5-5 5-4 5-3 4-3c3-5 3-6 0-2l-3 3 1-6v-15c0-5-1-6-3-4s-6-3-6-8l-1-5c-1-1-2 0-2 2ZM963 397h1v-2c-1-1-1 0-1 2ZM895 398c0 3 5 12 7 12s2-3 0-3l-2-2-3-6c-1-2-2-2-2-1ZM940 399l-1 4c0 2-1 3-2 3l-1 1c0 3 5-2 6-6 1-3 0-4-2-2ZM930 403c-2 5-1 6 4 2 3-3 5-5 2-4h-1c0-3-3-1-5 2ZM905 403l2 4c3 2 3 0 0-3-2-3-2-3-2-1ZM147 403l2 2v-2l-1-1-1 1ZM945 408l1 4 1-4v-3c-1 0-2 1-2 3Z"/><path fill="#214784" d="M953 407c0 3 0 3-2 1-2-3-2-1 0 4 1 3 1 3-1 5h-5c-3-2-5 0-2 2 2 3 6 3 9 0 2-3 2-3 4 0 1 3 1 2 1-2l-1-9c0-4-3-5-3-1ZM933 411l3 1 1-1-2-1-2 1ZM964 415l1 3v-5l-1 2ZM915 424l2 6c0 4 6 14 10 19 3 4 6 5 6 2l3-2c2 0 3 0 2-2l-2-6c-1-5-3-3-4 3 0 5-2 7-3 3-1-1 0-2 1-2v-1h-2c-1 0-7-10-7-13l-2-6c-2-4-5-5-4-1ZM941 426v5c2 3 3 0 2-4s-1-4-2-1ZM952 425c0 2 4 4 4 3 1-1 0-2-1-3h-3ZM945 431l-1 2h2l1-2h-2ZM957 432l3 1h1c-1-2-4-2-4-1ZM1058 436c-3 2-3 2 0 1 3 0 3 1 1 7 0 3 0 4 3 5l3 3c0 1 5 2 6 1 1-2-2-9-5-10l-1-5c0-4-3-5-7-2ZM955 439l1 3c3 1 3 0 2-3h-3ZM1050 440l-2 2c1 1 2 0 4-2 4-3 2-3-2 0ZM1078 439l-1 8-2 10c0 2 0 2 2 2h5l3 1-2-2c-3-1-2-8 2-13 3-4 2-7-1-5l-3-1h-3ZM945 444c-1 3 0 12 2 12v-5l1-6c2-2 1-5-1-5l-2 4ZM952 443c0 3 3 9 6 10h2l-5-9-2-2c0-2-1-1-1 1ZM960 443c0 2 2 4 5 4 3 1 2-1-2-3-2-2-3-2-3-1ZM1072 447l1 2 1-3c-1-1-2-1-2 1ZM1117 466c2 7 3 9 5 9s1-4-2-10c-4-8-5-7-3 1ZM1698 491c-1 3-1 3-3 1-3-2-2 2 1 7 2 3 3 5 2 6s-6-4-7-8c-1-6-3-5-3 1s0 6-4 5c-4-2-3 0 1 4 5 4 6 4 6-1v-3l3 3c3 3 7 4 8 2l3-1c2 1 2-1 0-3l-5-9-2-4ZM1676 502l-1 4c0 2-1 3-2 3-2 0 0 5 2 8 2 1 4 2 5 1l4 2c5 7 5 0 0-7l-2-4-1 3c-1 4-1 4-3-2-2-5-2-7 0-8 1-2 1-3-2 0ZM1571 517l3 3c3 0 2-1 0-4-4-4-5-4-3 1ZM1648 523l1 1 2-2h-2l-1 1ZM1611 529v5l2-10-2 5ZM1550 545v13l1-6c1-6 1-8-1-7ZM1560 567l1 1v-3l-1 2ZM1561 588v7l1 5v-7c0-7 0-8-1-5ZM1621 593l1 2v-3c-2-1-2-1-1 1Z"/></svg>