<svg xmlns="http://www.w3.org/2000/svg" fill="none" viewBox="0 0 1920 513"><path fill="#214784" d="M1805 184c3 1 1-3 2-4s1 4 2 1l5-10v-1l-8 2c-4-1-5 1-3 5v3c-2 1-1-1-2-2v-1h-1c-1-3-4-2-6-4l-1-10 1-1c1-1 1 0 1 1l1 2 1 3 2-2c2-2 3-5 3-7l1-1 1-1 3 3c2 2 3 2 5-1l1-4 1-2 1 1 3 4c0 1 1 2 2 0v-6c2-5 2-6-1-11l-2 3-1-2c-2 2-4 1-6 1s-3 0-4-2v-2c-2-2-4-1-6 1 0-3-2-4-4-2 0-3-2-3-4-3 0-2-2-1-3-1-4-3-5-3-8 2h-1l-4 2c-2 1-3-1-3-2v-3c-2-1-1 1-2 2-4 0-7-1-10-3 0-2-2-2-3-3 2-2 3-7 1-10-1-1-1-1-1 1l-17-7c-2-1-5 1-7 5h-1c-2 1-3 2-3 5l-3 2-7 11-2 4-1 1-2 5-3 4-4 7c-1 4-4 6-6 9l-1 4c-2 1-1 3-2 4l-2 2-2 5c-2 1 0 2 0 2-2 2-4 4-4 7a7588 7588 0 0 1-9 15h-1l-2 6c-3 5-4 4-4 7-3 1-3 4-5 6l-3 6c-2 7-3 8-9 7 1-3 4-5 3-9 1-2 3-4 2-6l-1-4c-1-2-2 1-3 0l-2 1v-1c2-1 1-4 3-5 2-2 0-6 4-6l-1-2 1-2c2-1 3-4 4-6l1-2c3-2 3-5 4-8 3 0 1-2 1-4 2-1 4-2 4-5 2 0 3-1 3-3l4-10 1-1c1-2 0-4 2-4v3c1-2 3-2 3-5-1 0-1 2-3 1l2-4 1-3c1-1 1-3 3-3l1-1 3-5v-1c2 0 4-2 3-2v-3c2-2 1-5 1-8-2 1-4 0-6-2s-2-1-3 1c-1-2-2-2-4-2l-3-2c0-1 0-4-2-2-1 2-3-1-4 1-1-1-4-2-2-4v-3l3-6h1l2-2s2 0 1-1c0-2-1-1-2-2l2-1c0-2 3-2 2-4l2-4c0-1 0-2 1-1v1h1c0-1 2-1 0-2v-2c2-2 5-5 4-9 1 0 2-1 1-3l2-3 1 2 3-5-2-1 2-2-3-1c-2 2-3 1-4-1v-1c1-3 3-3 6-3 1-1 3 0 4-2v-4l-4-4c-2 1-4 4-4-1l-2-1-3 1c-1 0-3 0-3-2 1-3-2-1-2-3l-2 1c-2 0-3 1-5 3-1-2-3-5-5-4-3 2-4-1-5-3 0-2-1-2-2-2 0-1 2-2 0-3-5-2-8 0-10 6 0 1 0 2-2 2 0-1 0-2-1-1s-4 2-3 5l-2 4-2 2-1 4c-2 1-4 0-6 2-3-1-5-4-8-2l-1-2-2 1v1h-1c-1-2 0-5-2-6-2 0-4-2-5 0h-1c-2 1-1-3-3-3 0-1 0-3-1-2s-2-1-4-2-5 2-7 6h-1l-1 1c-2 0-3 1-4 3-1 1-1 4-4 4-1 0-2 2-1 3-2-2-3 1-5 2v1l1 1c-2 3-3 6-6 7v-3l-3-1-2 2v-1l-1-3-8-1-1-1c1-1 2 1 3-1-1-2-3 1-5-1s-2 0-4 1c-1 0-3-2-4 0l-1 2c0-1-3 3-1-2l-3 3c0 3-1 4-3 5h-7c-3 1-6 0-7 4-1 2-2 0-3 1l-1 3c-2-1-1-3-1-5v-1c2-1 1-5 4-4 0-3 2-4 3-7l5-9c3 0 3-4 5-5v-1c-3-1 1-2 0-4 2 1 1 3 2 3l1-6c0-2 3-2 1-4 2 0 4-2 6-4l2-6c2 0 1-1 2-2-4-1-1-2-1-3 2-4 1-11-1-14-2 3-5 3-7 4 1-1 1-1-1-1-2-1-5-1-6-4s-3-2-5 0l-1-1c-3 1-2-2-4-3 1-1 1-1-1-1-1 3-7 5-4 11 2 4 4 5 7 1l2-1c0-1-1-4 1-4l3 4 1 4 1 1c0 4-1 6-5 5h-1c-4-3-8-3-13-3 0-1 2-3-1-3-1 0-3-2-4 0s1 4 2 5l5 3h1l1 1v3l1 6c2 1 3-2 4-4v-2l1-1 1 1 2 2c-1 2-3 3-2 5 0 2-2 2-3 2-3-2-6 1-8 3l-3 1v-2l2-6c0-2-3 0-4-1l-1-1c0-2 0-4 3-4l1-1-1-2c-2-1-6 2-7 5l-3 1v-8c3-3 1-5 2-8-2-1-3-5-6-2h-1v1c-3 4-4 4-7 0v2c-1-1-3-2-3 1-3 1-3 6-6 7v2c-2 2-6 2-4 7l-4 2v-1l-4 4c0 1-2 1 0 3l-1 2h-1c-2 0 1-2 0-2l-2 1c-1 1-2 2-3 1 0 0-2-1 0-3l-2-1-3 2c-2 0 0-7-3-2l-1-1c-1-2-2 0-3 1-1 2-2 1-4 1 0-3-1-1-2-1h-5c-1-1 0-4-2-4-2-3-3 2-4 1l-1-1c2-3-2-3-2-5l-4 1h-1l-4-2c-3 2-8 2-8 7v1c-4 0 0 1 0 2-3 1-3 5-7 5-1-2-3-4-6-3 0-1-1-3 1-4 1-2 1-5-1-8-1-1-1-2-3-1-1 2-3 1-3 3-1 2-1 1-2 1v-1c1-2 0-2-1-2l-2 3v-3l-3 2c1-6-4-4-6-6s-2 2-4 1l-2-5c-4 0-4-3-6-4v-1c-2-2-4 1-6 0l-2-1c-1-2-2-1-3 0-2 3-2 1-3-1l-6 8-3 3v1c-3 0-5 0-5 4-4 3-8 4-10 9-1 2-4 2-5 5l-1 3c-3 1-4 4-7 4-2 1-3 5-5 8-2 2-4 3-4 5l-1 2c-3 2-6 5-7 10h-1c-1-2-1 0-2 0 0 2-1 3-2 3-2-1 1-3-1-4l1-2c4 1 3-3 3-5h1l-1-3c3-2 2-7 5-10l2-8c1-2-1-2-1-2 0-2 3-1 3-3 2-3 3-7 1-10l3-5c0-1 2-2-1-3 1-4-3 1-3-3l-1 2-1 1c1-4-2-3-2-2h-4c2-3-2 0-2-2-4 2-1-1-1-3l-5 1-1-1c-1-2-3-4-5-3-3 0-4 0-6-3l-1-1c-3-1-4 3-6 4-1 0-2-1-2 1 0 1-2 2 0 3l-9 12v2c-2 2-4 4-5 8l-2 2c1 2-1 3-2 5-3 1-7-1-10 2l1-3c-2-1-5 2-6-2-1 1-2 0-3-1-1 0-2 3-3 1 1-2 1-4-2-3-1 0-2-3-4-2l-1-1s2-1 0-1h-1v2c-1 2-1 5-5 4l-1 2v4l-3-2c-1-1-2-2-3-1h-1l-1 1-4 7 3 1 2 2v1h-3l-3-2-1 2-1 2c-2 1-2 3-2 5l-4 7-1 1c-2 1-2 2 0 3-3 2-5 4-4 8l-2 1c-3 3-3 9-7 12l-1 2c0 2-2 3-1 5-3 1-3 5-4 8l-5 11-5 11-6 11-7 13c0 2 0 3-2 2-3-3-5 0-7 2-4-3-3 1-3 3s-2 5-5 6l2-3c-1-4 1-7 3-9l6-9 2-5c0-1 0-3 2-4 1-2 1-5 3-7l-1-1c2-3 3-5 3-8v-1c1-1 2-7 1-8h-1c-1-2-2 0-4 2l1-4 2-2 2-2 7-16v-1c1-1 3-3 2-5 3-2 2-6 3-9 0-3-2-4-3-3h-4c0-3-3 1-2-2-2-3-3 0-5 0 3-5-5-1-3-6h-2c-3 0-6-1-7 3-4-1-4 3-5 5l-4 2-1 2-3 3c-1-2 1-3 1-4 0-2 2-3 1-5l1-3v-3a18 18 0 0 0 2-10c0-5-3-10-7-11l-3-1c0-2-1-1-2-1-4 0-4 5-7 7l-1 2-2 4c-3 1-4 4-4 6-1 2-3 3-3 6l-2 6v1c-2-1 0 1 0 2-3 1-2 4-4 6v1c-2 2-3 5-3 9l-4 7v2l-4 8c-2 1-2 3-1 5l-1 1c-2 1-2 3-3 5a75 75 0 0 1-7 13v2l-1 2c-3 2-4 7-5 10l-2 4-2 3c-4 4-4 11-8 15v1l-4 10c-2 0-2 1-3 2l-4 8c0 3-1 4-4 4l2-7 3-11 2-8c0-5 3-9 4-13l2-7 5-21 5-21c1-6 3-11 0-17-1 3-3 3-5 4v-2c-3-1-4-3-3-6 2-4 4-8 4-13 2-6 4-13 3-20-1-3-2-4-4-2s-3 2-5 0c-1-1-2-4-4-3-3 3-3 1-3-1l-2-1c-1-1-2 1-2 1h-1c0-2 2-2 3-2l-8-3c-3 0-5 3-7 6h-1c0-2-1-3-2-3-4 0-4 4-5 7l-2 3-4 6c-1 4-4 7-4 12l-4 7-8 9-10 13c-5 6-11 12-15 19l-14 20-10 15-6 11c-2 4-5 6-5 11l-1 3c-4 2-5 7-7 11l-3 6c-2 2-4 5-4 9l-1 2c-2 0-1 2-2 3 0 2-2 3-3 5l-1 5c0 1-2 1-2 3l4 5c-2-1-3-2-6 0v2h-1l-1 3c0 1-2 1-1 3 1 1 0 2-1 3l2 3 4 1 2 1c1 3 4 2 6 3 1 3 2 1 3 1v3h3c2 0 4-2 4 2h2c0 1 0 2 1 1l4-3h2v1c-3 2 0 2 1 3-2 1-4 2-3 5l-1 5c-2 1-1 4-3 5l-1 2-3 13c-1 1-4 1-1 3v1h-1l-1 1c-1 2 1 1 1 2-1 3-3 5 0 8 2 3 4 1 6-1h3v3c-1 3-1 5 1 8 2 1 4 3 6 2 3-2 3 2 4 3 2 1-1 1 0 3 0-1 1 1 2-1 1-3 3-1 5 0 0 1 0 3 2 4 2 0 2-1 2-3l1-1c2 0 3 0 3-2l2-4h1c3 0 1-2 1-3l1-1 5-5v1h1l2-5-3 2v-2l2-3c3 0 1-2 1-3 4-2 5-6 6-11l4-3c4-4 4 0 6 2 1-1 1-3 2-2v2l-4 6-2 7c-1 5-4 8-6 13-2 1-2 4-3 7l2 2 3 1c1 3 2 2 3 0l3 4-3 5c-2 1-3 3 0 5 2 2 2 7 0 9-2 1-2 3-3 5-2 2 0 7-4 8l-2 7-1 1v2l-2 7-1 1-2 4 2 4 7 6-3 3c0 1-2 2-1 4l-5 11-7 13-6 14-2 5c-4 4-6 9-8 15-3 4-6 8-7 13v2l1 4v5c0 3 1 1 2 1l1 1-1 4c-1 2-3 4-2 7 1 1 0 1-1 1h-1v4c-3 0-1 2-1 2 0 2 2 2 2 3s-2 0-3 2l1 2c0 2 2 2 1 3l4 1H0V0h1522c0 5 0 6 3 5V4l1-3V0h394v513h-192l4-4 2-4c1-2 1-2 3-2s3-3 3-5c-1-3 1-4 2-5v-2l2-3h1l2-4c0-3 5-4 4-9h1v-3c3 0 4-2 4-4 2 0 3-2 3-4 1-3 4-5 4-8l2-3 1-1c2-1 4-3 4-6-1-1 1-1 1-1 1 1 2 0 1-1-1-2 0-3 2-3-1-2 1-3 2-4l-2-1c2 0 2-1 3-2 2-1 0 2 1 2l4-6 1-4v-1c2-1 3-2 3-4 1 0 2 1 2-2l2-3c1-1 0-1-1-2 2 0 3 0 3-3h1c1-2 0-4 2-5l1-2v4l3-6c2-1 1-4 3-5 2 0 2-1 2-3 1-4 5-5 6-10 2-1 4-2 5-5l3-6 3-4c1-1-1-5 2-4 3 0 3-2 3-4 3-1 5-3 4-6l1-2v-14c-1 4-4 3-5 4l-3 2v-7l1-2c2 0 2 0 1-2l1-2c2 2 2 0 2-2 2 0 2-1 2-3 2-3 1-6 3-8 3 0 3-4 5-5s2-2 2-4c0-1-2 2-3 0l1-1c3-1 3-4 5-6 2 0 1-4 4-3v-1c-3-3 0-4 1-5l1-2c1 0 2-1 2-3 1-2 4-2 3-6-1-1-2-3 0-5 1-1 1-3-1-4h-5c-2 0-2-1-3-2h-3c-2 0-3 2-4 3h-3v-6c-1-3-2 3-4 0 2-2 2-4-1-3l-2-1 1-2c-3-2-1-4-1-6s-2-2-2-3c-2 2-5 0-7 2-2-2-5-1-6-3l-1 1c-3 0 0-2-1-2l-2 2c0-1 1-3-1-3v2h-1c-1-1-3-2-2-5l-1-1c-2 0-4-1-6-4l1-5c3-3 6-6 7-10 0 0-2 2-1-1 1-1 0-3 2-4l3-2v-1c-3 0-1-2-1-3 3-1 1-5 3-6l-1-1c1-3 1-4-2-4l-1-1 1-3c-2 0-2 4-4 3l1-2c-1 0-2 0-2 2l-2 1c0-3-2-3-4-2l-2-1 2-5 4-7c0-3 4-4 3-7ZM974 511c1-5 2-5 5-2l1 1-1 3h-6l1-2Zm14 2 3-1 1 1h-4Zm7-2 2 1 1 1h-6l3-2Zm39-56c1 0 2-2 4-1-2 1 1 3-1 4-1 1-2 2-1 4-3 3-3 7-4 10s0 6-2 8-5 4-1 8l-1 1c-2 1-2 2-1 4l-2 3-1 1c3 1 2 2 1 2-2 1-2 4-1 4v2c-2 1-1 3-1 4-2 1-2 2-1 3v1h-23c2-1 4-3 4-6 1-1 1 3 2 1l2-5c1-1 5 0 3-5l1-2 3-5c3-3 4-6 5-10l1-1 1-2c1-5 5-9 8-13 2-3 5-6 5-10Zm13 57 1 1h-3l1-1h1Zm36-13 5 2c2 1 3-2 5 1l-1 1c-2 1-3 3-4 6v1c-3 0-1 2-1 3h-15l3-4a26 26 0 0 1 8-10Zm540 5h4c2 2 5 1 8 0-3 3 0 4 0 6l1 1c0-4 3-2 4-4h1l1 4 2 2h-27c1-1 2-3 4-3 2-1 2-4 2-6Zm53-19c2 1 2 3 3 5h-1c-1 2-1 6-3 8v3h-1c0 4-3 6-4 9l-3 3h-21 1l4-4c2-1 3-3 2-5 2 1 2-1 3-2h1l4-5c1-1-1-3 1-3v-1c2 0 2-3 5-3-2-2 0-3 0-4l3-1h6Zm-681 25Zm62-1Zm560-3Zm-647-13Zm10-2Zm763-29Zm22-12v1-1Zm33-55Zm30-68Zm2-27Zm-1-3c4-2 4-2 6 1v1l-6-2Zm-861-9Zm881 0Zm-878-2h1-1Zm867-1Zm-878-30v1-1Zm-4-17Zm16-3 1 1-1-1Zm-24 0v1-1Zm3-8v4-4Zm1-15Zm0 0Zm747-29h1-1Zm106-20c-1 0-2 1-2 3l3 2c1 0 2-1 2-3 0-1-1-2-3-2Zm-84 3Zm36-27h-1 1Zm-20-1Zm-47-2v1-1Zm-531-15Zm508-26v1-1Zm-440 1v-1 1Zm420-1v-1 1Zm9-1Zm-491-1 1 1-1-1Zm525-5Zm-109-6-1 1c-1 1-2 2-1 4l-1 1c-3-5-3-5 2-6h1Zm101 0 2 1c0 2-3 1-4 3h-1l-2-2 5-2Zm5 2Zm-113-8v1-1Zm-446 0Zm0 0Zm92-1Zm438-9Zm29-7c1 3-2 4-2 7-1-3 0-5 2-7Zm-631 0Zm600-8v-1 1Zm18-10c0 3-4 3-3 5l3-2c0 4 3 4 6 4l1-1c-2 0-4-2-6-1 1-1 3-2 1-4-1-1-1 1-1 1l-1-2Zm-354 5 1 1-1-1Zm88-1v1-1Zm126-10Zm-6-31c-2 3-2 6-1 9 1 0 0 2 2 2l1-3 1-5c0-2 0-3-3-3Z"/></svg>