<svg width="49" height="79" viewBox="0 0 49 79" fill="none" xmlns="http://www.w3.org/2000/svg">
<path d="M12 58.9889C12.2097 58.9556 12.4168 59.023 12.6202 59.0698C12.6202 59.1295 12.6202 59.1898 12.6233 59.2501C12.3952 59.2459 12.1721 59.1863 11.9458 59.1635C11.9598 59.106 11.9362 59.0088 12 58.9889Z" fill="white"/>
<path d="M8.47725 59.6595C8.47215 59.5133 8.56394 59.3919 8.66337 59.3096C8.65844 59.4719 8.6702 59.6343 8.69843 59.7937L8.6519 59.8561C8.57222 59.8199 8.48745 59.766 8.47725 59.6595Z" fill="white"/>
<path d="M13.837 59.8773C13.7716 59.7328 13.725 59.5786 13.6987 59.4194C13.7899 59.4826 13.8804 59.5713 13.897 59.6963C13.9103 59.7658 13.8645 59.8212 13.837 59.8773Z" fill="white"/>
<path d="M10.0365 59.9628C10.2371 59.9252 10.4416 59.9585 10.6428 59.9252C10.8947 59.9071 11.1475 59.9121 11.3987 59.9401C11.8292 59.9365 12.2558 60.0053 12.6832 60.055C12.9208 60.0925 13.1544 60.1567 13.3805 60.2465C13.4677 60.2855 13.5715 60.3302 13.6078 60.4387C13.6135 60.4997 13.5632 60.545 13.5218 60.5755C13.4319 60.6267 13.3381 60.6692 13.2416 60.7025C13.2361 60.6126 13.225 60.5233 13.2085 60.4351C13.1391 60.3529 13.034 60.3259 12.9398 60.2933C12.4857 60.172 12.021 60.1064 11.5541 60.0975C11.3468 60.077 11.1386 60.0706 10.9306 60.0784C10.6828 60.0686 10.4346 60.0754 10.1875 60.099C9.95948 60.099 9.73468 60.1458 9.50797 60.1699C9.36978 60.1947 9.21759 60.2039 9.10105 60.2982C9.03164 60.4025 9.08895 60.538 9.12588 60.6443C9.08455 60.6707 9.03839 60.6862 8.99088 60.6897C8.95766 60.6801 8.92659 60.6628 8.89963 60.6392C8.87268 60.6155 8.8504 60.5859 8.83422 60.5521C8.82072 60.5051 8.81911 60.4548 8.82955 60.4067C8.84 60.3587 8.8621 60.3148 8.89345 60.2798C9.03928 60.1309 9.23796 60.0741 9.42837 60.0422C9.63088 59.999 9.83466 59.9954 10.0365 59.9628Z" fill="white"/>
<path d="M12.3673 61.3213C12.3934 61.1249 12.3782 60.9121 12.4832 60.7412C12.514 60.7605 12.5436 60.782 12.5718 60.8057C12.5947 60.9703 12.566 61.1362 12.5552 61.3022C12.5501 61.515 12.5234 61.7277 12.5272 61.9362C12.4883 62.3618 12.5043 62.7873 12.5068 63.2128C12.5374 63.4454 12.5164 63.6809 12.5476 63.9142C12.5883 64.3149 12.6533 64.7128 12.7169 65.11C12.8139 65.7041 12.9666 66.2853 13.1723 66.844C13.257 67.1277 13.3945 67.3795 13.5104 67.6454C13.7129 68.088 13.9339 68.5206 14.1644 68.9461C14.267 69.1716 14.4192 69.3617 14.5274 69.5844C14.7185 69.9929 14.9293 70.3908 15.0745 70.8227C15.1131 70.9198 15.1297 71.026 15.1229 71.1319C15.0432 71.0986 14.9318 71.0901 14.8981 70.9901C14.8612 70.8732 14.8187 70.7586 14.7707 70.6468C14.5306 70.1915 14.358 69.6965 14.109 69.2475C13.8861 68.822 13.6473 68.4142 13.4537 67.9709C13.3372 67.6929 13.1895 67.4319 13.0895 67.1461C12.8348 66.4369 12.6036 65.7036 12.5023 64.9419C12.4202 64.4972 12.4005 64.0426 12.3425 63.5944C12.3205 63.4034 12.3092 63.2111 12.3087 63.0185C12.2877 62.7568 12.2814 62.4939 12.2896 62.2313C12.2833 61.9221 12.3495 61.6235 12.3673 61.3213Z" fill="white"/>
<path d="M12.7001 60.8682C12.7681 60.8731 12.8343 60.8938 12.8945 60.9292C12.9548 60.9645 13.0077 61.0135 13.0497 61.0731C13.0644 61.3169 13.0593 61.5616 13.0345 61.8043C13.0306 62.2547 13.0345 62.7043 13.0345 63.1518C13.0618 63.5064 13.0752 63.8611 13.1414 64.2043C13.1893 64.5412 13.2615 64.8732 13.3573 65.1972C13.428 65.3837 13.4847 65.5766 13.5446 65.7646C13.8811 66.5631 14.319 67.3035 14.8449 67.9632C14.9678 68.1461 15.1353 68.2809 15.2646 68.4596C15.5299 68.7718 15.7761 69.1035 16.0014 69.4525C16.1517 69.6986 16.2434 69.9809 16.3695 70.2426C16.537 70.5922 16.607 70.9837 16.7089 71.3603C16.5452 71.3879 16.3816 71.3504 16.2186 71.3397C16.0355 71.3233 15.8534 71.2946 15.6734 71.2539C15.6481 71.2511 15.6237 71.2417 15.6022 71.2264C15.5807 71.2111 15.5628 71.1904 15.5499 71.166C15.4958 71.0419 15.4665 70.9064 15.4085 70.7858C15.3296 70.6206 15.2773 70.4411 15.1933 70.2794C15.1003 70.1007 15.0373 69.9057 14.9449 69.727C14.6157 69.0433 14.2049 68.4114 13.8999 67.7135C13.7439 67.3993 13.6191 67.0688 13.4732 66.7497C13.3841 66.5156 13.3 66.2781 13.2281 66.0405C13.1249 65.6632 13.0529 65.2766 12.9606 64.8958C12.9071 64.5568 12.8243 64.2242 12.788 63.8816C12.753 63.6064 12.6931 63.3341 12.6925 63.0547C12.6498 62.7369 12.6925 62.4164 12.6562 62.0951C12.6422 61.9604 12.6708 61.827 12.6727 61.693C12.6696 61.4178 12.7039 61.144 12.7001 60.8682Z" fill="white"/>
<path d="M9.81081 63.2512C9.88786 63.2257 9.90315 63.3307 9.91588 63.3931C9.97957 63.7754 9.89742 64.1597 9.84838 64.5378C9.7847 64.9711 9.65734 65.3888 9.54462 65.8065C9.4174 66.2277 9.2642 66.6386 9.08611 67.0363C8.9995 67.2207 8.92372 67.4179 8.79317 67.5704C8.71803 67.6569 8.56137 67.6803 8.51807 67.5434C8.54157 67.4198 8.58657 67.3024 8.65053 67.198C8.80345 66.9251 8.93921 66.6408 9.05682 66.347C9.18573 66.0163 9.29819 65.6779 9.39369 65.3335C9.53619 64.7756 9.62311 64.2019 9.65288 63.6229C9.65785 63.5203 9.6752 63.4189 9.70446 63.3215C9.71273 63.2983 9.72766 63.2789 9.7469 63.2662C9.76614 63.2535 9.78861 63.2482 9.81081 63.2512Z" fill="white"/>
<path d="M3.67704 70.9238C3.8044 70.7706 3.91776 70.5926 4.09352 70.5046C4.06805 70.738 3.87254 70.8649 3.74518 71.0287C3.54458 71.2961 3.33252 71.5543 3.15549 71.8422C3.08352 71.9663 3.01602 72.094 2.94342 72.2174C2.78931 72.4961 2.6957 72.8082 2.59509 73.1138C2.48746 73.3812 2.44734 73.6734 2.39767 73.9599C2.34163 74.2734 2.35628 74.5947 2.35437 74.9131C2.37106 75.2453 2.4309 75.5731 2.53204 75.8862C2.60656 76.0967 2.6916 76.3025 2.78677 76.5025C2.8913 76.7236 3.03089 76.9218 3.19879 77.0876C3.25165 77.1365 3.30195 77.1876 3.35163 77.2408C3.30259 77.267 3.25356 77.3237 3.19433 77.3025C3.03958 77.2464 2.92942 77.1032 2.8237 76.9734C2.68001 76.7836 2.54749 76.5836 2.42696 76.3748C2.18816 75.9032 2.0245 75.3741 2.01876 74.8294C2.0133 74.6063 2.02673 74.3831 2.05888 74.1628C2.10601 73.767 2.1525 73.3649 2.30406 72.9989C2.45814 72.5977 2.65783 72.2202 2.89821 71.8755C3.13001 71.5295 3.42104 71.2436 3.67704 70.9238Z" fill="white"/>
<path d="M18.078 71.113C18.2608 71.2031 18.3964 71.3691 18.5473 71.5109C18.7447 71.7272 18.9714 71.9109 19.1447 72.1535C19.3847 72.5081 19.6325 72.8627 19.8114 73.2584C20.017 73.7071 20.1334 74.1998 20.1527 74.7031C20.1358 75.0416 20.0964 75.3782 20.0349 75.7102C19.9774 75.9421 19.8989 76.1669 19.8006 76.3811C19.6205 76.8028 19.3075 77.136 18.9211 77.3172C18.7581 77.3938 18.5785 77.3981 18.4053 77.4279C18.28 77.4461 18.153 77.4437 18.0283 77.4208C18.2531 77.3314 18.4945 77.3293 18.7256 77.274C19.0041 77.1779 19.2553 77.0029 19.4548 76.7662C19.5443 76.6443 19.6154 76.507 19.6656 76.3598C19.7738 76.0846 19.8796 75.7924 19.8719 75.4896C19.8965 75.1873 19.9021 74.8835 19.8885 74.5804C19.8661 74.3401 19.8235 74.1026 19.7611 73.8712C19.6044 73.3876 19.3828 72.9333 19.1039 72.5237C18.9657 72.2974 18.804 72.091 18.6581 71.8726C18.4811 71.601 18.2111 71.418 18.078 71.113Z" fill="white"/>
<path d="M15.1489 72.2229C15.2 72.1411 15.2486 72.0315 15.3482 72.0187C15.4006 71.9967 15.4377 72.0514 15.4581 72.0984C15.4945 72.1979 15.5121 72.3047 15.5098 72.4121C15.4402 72.4173 15.3705 72.4027 15.3074 72.3696C15.2442 72.3365 15.1897 72.286 15.1489 72.2229Z" fill="white"/>
<path d="M15.9925 72.1238C16.2463 72.1469 16.4963 72.2065 16.7363 72.3012C16.8517 72.3367 16.8785 72.4851 16.8963 72.598C16.8715 72.6555 16.8167 72.6292 16.7733 72.6214C16.5929 72.5738 16.4183 72.5028 16.2347 72.4723C16.1538 72.4539 16.0531 72.4432 16.0136 72.3495C15.9842 72.2785 15.932 72.1976 15.9721 72.1252L15.9925 72.1238Z" fill="white"/>
<path d="M15.4756 73.115C15.5736 73.154 15.7074 73.1554 15.759 73.2746C15.8123 73.4245 15.8474 73.5817 15.8634 73.7419C15.911 74.0419 15.9418 74.3448 15.9557 74.649C15.9598 74.9792 15.9357 75.309 15.8838 75.6341C15.8558 75.8488 15.8049 76.0591 15.7322 76.2604C15.7182 76.1235 15.7456 75.988 15.7456 75.8526C15.7456 75.2306 15.7647 74.6008 15.6386 73.9909C15.5928 73.7072 15.4953 73.437 15.4316 73.1575L15.4756 73.115Z" fill="white"/>
<path d="M16.101 73.2678C16.2799 73.3224 16.4621 73.3614 16.6435 73.4061C16.7214 73.4206 16.7966 73.4496 16.8658 73.4919C16.9091 73.5834 16.8894 73.6926 16.8894 73.7934C16.8451 74.3923 16.7217 74.9806 16.5232 75.5394C16.4055 75.8686 16.2252 76.1655 15.9946 76.4096C16.0424 76.1926 16.129 75.9841 16.1647 75.7671C16.1984 75.5933 16.218 75.4165 16.2232 75.2387C16.2301 74.9785 16.223 74.718 16.2022 74.4586C16.2 74.2685 16.1853 74.0789 16.1583 73.8912C16.1513 73.6827 16.0914 73.4792 16.101 73.2678Z" fill="white"/>
<path d="M47.3535 2.80651C47.6387 2.83934 47.9269 2.80971 48.2018 2.71928C48.3573 2.67135 48.4926 2.56385 48.5839 2.41574C48.7137 2.23215 48.7998 2.01504 48.8341 1.78453C48.9061 1.50085 48.8641 1.20794 48.9271 0.926385C48.954 0.809942 48.973 0.6914 48.9838 0.571777C48.8972 0.57816 48.8036 0.571778 48.7291 0.625678C48.6281 0.70846 48.5358 0.803621 48.454 0.909364C48.339 1.03208 48.2178 1.1474 48.091 1.25475C47.8917 1.44624 47.6408 1.54979 47.4281 1.71929C47.2517 1.86113 47.0606 1.96113 46.8778 2.09446C46.6822 2.24237 46.4981 2.40845 46.3276 2.59091C46.1926 2.73275 46.0614 2.87885 45.929 3.02282C45.8577 3.09942 45.787 3.17602 45.7137 3.25048C45.6564 3.30864 45.5736 3.4214 45.501 3.44126C45.4552 3.31289 45.743 3.03417 45.8112 2.93701C46.0083 2.65671 46.2383 2.40719 46.4951 2.19517C46.7498 1.98241 47.0313 1.83347 47.3051 1.66255C47.4376 1.57957 47.6089 1.51078 47.6484 1.32709C47.2778 1.3661 46.9231 1.52142 46.5754 1.66255C46.213 1.80936 45.8551 1.96964 45.4972 2.13063C45.0906 2.30007 44.6957 2.50275 44.3159 2.73701C43.9638 2.96679 43.7428 3.38949 43.5371 3.77175C43.3964 4.02494 43.3021 4.3058 43.1671 4.56253C43.0858 4.72688 42.9943 4.88471 42.8933 5.03487C42.9162 4.80083 43.0289 4.5987 43.1098 4.38664C43.2168 4.15686 43.2798 3.9065 43.3747 3.67105C43.4505 3.46892 43.5556 3.27034 43.5479 3.04268C43.4587 3.04981 43.3718 3.0781 43.2932 3.12566C43.2034 3.19658 43.1257 3.27814 43.0385 3.3519C42.8247 3.53625 42.6014 3.70652 42.3698 3.86183C42.2627 3.93633 42.16 4.0183 42.0622 4.10721C41.8573 4.26745 41.6447 4.41519 41.4254 4.54976C41.2579 4.69161 41.0567 4.79374 40.9408 4.99657C40.7969 5.1916 40.7325 5.43699 40.6504 5.66749C40.5682 5.89798 40.5065 6.14692 40.3957 6.36819C40.2931 6.57528 40.1836 6.78734 40.0136 6.93556C40.0499 6.58096 40.3434 6.36393 40.4371 6.03557C40.5071 5.78806 40.6186 5.55259 40.6364 5.29018C40.3785 5.34621 40.1906 5.56252 39.9709 5.70578C39.6328 5.96961 39.2857 6.21926 38.9609 6.50436C38.7743 6.66961 38.5616 6.80294 38.405 7.0079C38.2483 7.21286 38.1636 7.47386 38.0866 7.72705C37.9439 8.19016 37.9121 8.68378 37.7752 9.14548C37.6325 9.62845 37.5287 10.1433 37.2491 10.5568C37.1256 10.7299 37.0358 10.937 36.8721 11.0696C36.8776 10.9786 36.9069 10.8913 36.9562 10.8185C37.102 10.6299 37.1816 10.393 37.2663 10.1689C37.3549 9.9015 37.4606 9.64122 37.5262 9.36533C37.5923 9.08812 37.6448 8.80709 37.6835 8.5235C37.7159 8.27953 37.7968 8.04903 37.8528 7.81428C37.9089 7.57953 38.0031 7.36535 38.0643 7.13485C37.9392 7.17764 37.8252 7.25329 37.7319 7.35542C37.5752 7.52988 37.3975 7.6774 37.2396 7.85187C37.0797 8.00648 36.9269 8.17669 36.7365 8.28378C36.597 8.36179 36.4646 8.45967 36.3117 8.50151C36.2226 8.52917 36.1252 8.54477 36.0532 8.61427C35.9577 8.70364 35.8755 8.80931 35.7781 8.89796C35.6042 9.06392 35.3699 9.12349 35.1999 9.29583C34.9712 9.52349 34.8356 9.83909 34.7178 10.1469C34.614 10.3972 34.5987 10.6753 34.5446 10.9398C34.4809 11.3036 34.4096 11.6646 34.3739 12.0334C34.3503 12.2646 34.344 12.5022 34.2707 12.7235C34.1905 12.9653 34.1084 13.2072 34.0415 13.454C33.9549 13.7774 33.8422 14.0923 33.7447 14.4093C33.6174 14.8185 33.4429 15.2178 33.1716 15.5362C33.213 15.2774 33.3626 15.066 33.4531 14.827C33.6491 14.3012 33.8163 13.7626 33.9536 13.2142C34.0173 12.9341 34.1383 12.6689 34.165 12.3788C34.1848 12.1604 34.2109 11.9433 34.2287 11.7249C34.2637 11.3327 34.3503 10.9448 34.3459 10.5497C34.3052 10.5631 34.2663 10.5821 34.23 10.6065C34.051 10.7518 33.9116 10.9611 33.7587 11.1348C33.583 11.3343 33.4038 11.5306 33.2213 11.7235C32.9814 11.9774 32.7356 12.2247 32.4838 12.4653C32.3679 12.5767 32.2291 12.6781 32.1298 12.8107C32.0425 12.9277 31.9253 13.0093 31.8387 13.1277C31.712 13.289 31.6073 13.4701 31.528 13.6653C31.4286 13.8901 31.3611 14.1369 31.2178 14.3348C31.2178 14.122 31.2815 13.9093 31.3006 13.6965C31.2391 13.7231 31.1812 13.7592 31.1287 13.8036C30.9637 13.9674 30.8268 14.1625 30.6593 14.3227C30.5381 14.4368 30.4245 14.5606 30.3193 14.693C30.1703 14.8837 29.9741 15.0206 29.8264 15.2121C29.707 15.3599 29.6004 15.52 29.508 15.6901C29.4258 15.844 29.4258 16.0277 29.4112 16.2C29.3762 16.5738 29.429 16.9511 29.3857 17.3241C29.3106 17.2887 29.1889 17.2738 29.1889 17.1561C29.1889 16.9057 29.2182 16.6554 29.2303 16.405C29.2354 16.1979 29.294 15.9979 29.294 15.7908C29.1985 15.8144 29.1094 15.863 29.0342 15.9327C28.9539 16.0178 28.9259 16.1199 28.8667 16.2163C28.776 16.3434 28.6773 16.4631 28.5712 16.5745L27.979 17.2929L26.8747 18.6312C26.5563 19.0192 26.2201 19.4057 26.0112 19.8844C25.9106 20.1149 25.7794 20.3263 25.6762 20.5553C25.624 20.6723 25.6164 20.805 25.575 20.9262C25.5336 21.0475 25.4419 21.1475 25.4151 21.2809C25.396 21.3731 25.4432 21.4589 25.4788 21.539C25.5533 21.6908 25.5616 21.8667 25.6094 22.0284C25.2944 22.086 25.0007 22.2422 24.7624 22.4787C24.6739 22.5596 24.6529 22.6915 24.5879 22.7922C24.5232 22.8602 24.4509 22.9187 24.3727 22.9659C24.3988 23.0191 24.4223 23.073 24.4453 23.1284C24.4338 23.1007 24.1084 23.2227 24.074 23.2347C23.9656 23.276 23.864 23.3368 23.7734 23.4149C23.573 23.5748 23.387 23.756 23.2181 23.956C22.8691 24.3631 22.5813 24.8262 22.2922 25.2879C22.1485 25.5036 22.0245 25.7348 21.9222 25.978C21.7477 26.4333 21.8337 26.8418 21.9298 27.3028C22.0028 27.6347 22.0975 27.9601 22.2132 28.2766C22.2769 28.4383 22.1858 28.5971 22.0929 28.7163C22.0593 28.6488 22.0289 28.5794 22.0018 28.5085C21.9018 28.2 21.7878 27.8964 21.7101 27.5794C21.6659 27.3591 21.6403 27.1348 21.6337 26.9092C21.6305 26.7311 21.6433 26.5532 21.6719 26.378C21.6751 26.3072 21.6642 26.2365 21.6401 26.1709C21.5051 26.3007 21.4369 26.4872 21.3338 26.6454C21.2179 26.8532 21.058 27.029 20.9638 27.2524C20.8613 27.4914 20.7091 27.6936 20.5817 27.917C20.448 28.1517 20.304 28.3787 20.1786 28.6184C20.1092 28.7524 20.0328 28.8822 19.9576 29.012C19.8142 29.2655 19.6933 29.5339 19.5965 29.8134C19.5247 30.0033 19.4817 30.2051 19.4692 30.4106C19.4609 30.5063 19.4692 30.6233 19.4023 30.6943C19.2972 30.8092 19.1648 30.89 19.068 31.0162C18.9295 31.1816 18.8019 31.3577 18.6859 31.5432C18.5768 31.745 18.4841 31.9571 18.4089 32.1772C18.3197 32.4247 18.2376 32.6737 18.1274 32.9134C18.0777 33.0205 18.0217 33.1652 17.9408 33.2474C17.8599 33.3297 17.7498 33.3815 17.66 33.4538C17.4734 33.5992 17.3116 33.7779 17.1378 33.9411C16.9807 34.0877 16.8453 34.261 16.7366 34.4545C16.6493 34.6127 16.5226 34.7382 16.4315 34.8914C16.2336 35.2227 16.057 35.5692 15.903 35.9283C15.8157 36.141 15.8527 36.3857 15.7527 36.5907C15.689 36.7325 15.6088 36.8602 15.5432 36.9992C15.3611 37.4155 15.1012 37.7793 14.9064 38.1878C14.8 38.3935 14.7573 38.6304 14.7153 38.8616C14.6784 39.1148 14.6459 39.3701 14.6306 39.6268C14.6204 39.7871 14.6535 39.9453 14.6523 40.1055C14.6442 40.2629 14.6508 40.4207 14.672 40.5765C14.6809 40.6573 14.7128 40.7524 14.6586 40.8226C14.6051 40.9148 14.5077 40.9474 14.4173 40.9743C14.4255 40.749 14.4543 40.5251 14.5033 40.3063C14.5391 40.0857 14.5477 39.8606 14.5287 39.6375L14.4733 39.6332C14.4307 39.7183 14.3893 39.8034 14.346 39.8899C14.2702 40.0516 14.1645 40.1956 14.1052 40.3673C14.0203 40.6074 13.9284 40.8438 13.8295 41.0765C13.7295 41.3041 13.6493 41.5417 13.5321 41.7594C13.429 41.9658 13.3447 42.1832 13.2806 42.4084C13.2361 42.5799 13.218 42.7585 13.2271 42.9367C13.2207 43.1452 13.3022 43.3396 13.3099 43.5467C13.3825 44.0098 13.5257 44.4552 13.6716 44.8942C13.5136 44.7892 13.4417 44.5949 13.3334 44.4396C13.1749 44.2162 13.1366 43.9268 13.0755 43.6594C13.0328 43.485 13.0755 43.2828 12.9685 43.1325C12.8412 43.3254 12.7775 43.558 12.6686 43.7651C12.5457 43.9998 12.5062 44.2715 12.4406 44.5289C12.3916 44.8013 12.2496 45.0537 12.2725 45.3388C12.2725 45.6466 12.4228 45.914 12.4935 46.2027L12.4298 46.1601C12.2668 46.0622 12.2457 45.8353 12.1598 45.6715C12.0798 45.7918 12.0197 45.927 11.9821 46.0708C11.9483 46.2126 11.9764 46.3594 11.9585 46.5027C11.9323 46.6149 11.8932 46.7229 11.842 46.8239C11.7891 46.9502 11.7668 47.0892 11.7146 47.2147C11.6312 47.4097 11.5599 47.6112 11.4777 47.8069C11.382 48.0419 11.3596 48.3058 11.4141 48.5565C11.4854 48.8892 11.6408 49.1863 11.77 49.4927C11.8337 49.648 11.9331 49.7807 11.9955 49.9367C12.0216 49.9906 11.9955 50.0494 11.9808 50.1041C11.899 50.0287 11.8294 49.9383 11.7751 49.8367C11.6433 49.5842 11.5045 49.3402 11.3707 49.0863C11.3071 48.9658 11.2555 48.8268 11.1536 48.7367C11.0262 48.6417 10.8626 48.6523 10.7212 48.6963C10.7849 48.8615 10.8957 48.9998 10.9549 49.1693C11.0266 49.3495 11.0806 49.5379 11.116 49.731C11.1515 50.0107 11.1621 50.2936 11.1479 50.5757C11.1428 50.826 11.1173 51.0658 11.1383 51.3175C11.1621 51.5841 11.2062 51.8479 11.2701 52.1062C11.357 52.4483 11.4616 52.7846 11.5834 53.1133C11.6917 53.414 11.7745 53.7196 11.9305 53.9962C12.033 54.1799 12.1553 54.3508 12.2693 54.5232C12.3833 54.6955 12.4565 54.8998 12.5705 55.0664C12.651 55.1832 12.7012 55.3223 12.7157 55.4686C12.623 55.3941 12.5377 55.309 12.461 55.2147C12.3336 55.0686 12.1623 54.9962 12.019 54.8771C11.9028 54.7827 11.7916 54.6809 11.686 54.5721C11.5758 54.4551 11.4898 54.3104 11.3676 54.2076C11.3351 54.2636 11.2771 54.3182 11.2911 54.3934C11.3179 54.5565 11.4051 54.6969 11.4822 54.8367C11.5764 55.0069 11.7713 55.1338 11.9082 55.2622C12.126 55.465 12.3642 55.6515 12.5247 55.9161C12.5527 56.0189 12.5342 56.1359 12.5826 56.2331C12.6219 56.311 12.6537 56.3932 12.6775 56.4785C12.4094 56.3311 12.1537 56.1574 11.9133 55.9593C11.7458 55.8175 11.7121 55.5693 11.6089 55.3771C11.5376 55.3586 11.5261 55.4622 11.5255 55.5189C11.5255 55.7395 11.537 55.9799 11.6529 56.1664C11.7758 56.3217 11.9439 56.4189 12.0986 56.5267C12.2088 56.609 12.2936 56.7271 12.3413 56.865C12.3826 56.9958 12.3826 57.1384 12.3413 57.2693C12.205 57.7785 12.0897 58.2976 11.8904 58.7827C12.2709 58.8364 12.6478 58.9177 13.0188 59.026C13.1366 59.0593 13.2596 59.0629 13.3799 59.087L13.2303 58.9983C13.2823 58.7229 13.3528 58.4522 13.441 58.1884C13.5792 57.7047 13.7021 57.2146 13.8677 56.7416C13.904 56.6373 13.9148 56.5225 13.9651 56.4253C14.0537 56.3047 14.2097 56.3196 14.33 56.3615C14.4644 56.3962 14.5746 56.5551 14.6841 56.6451C14.8103 56.7447 14.9299 56.8542 15.042 56.9728C15.1316 57.0858 15.2298 57.19 15.3356 57.2842C15.6763 57.5402 16.1749 57.5912 16.5621 57.4459C16.6105 57.4235 16.6544 57.3907 16.6914 57.3493C16.7283 57.3079 16.7575 57.2588 16.7773 57.2047C16.5334 57.2593 16.2832 57.3146 16.0367 57.2756C15.8103 57.2308 15.5969 57.126 15.4145 56.97C15.2712 56.8501 15.1363 56.7182 15.0108 56.5756C14.9666 56.5218 14.9128 56.4788 14.8529 56.4494C14.8159 56.4317 14.6446 56.3842 14.6313 56.343C14.6258 56.3213 14.6248 56.2985 14.6282 56.2763C14.6317 56.2541 14.6395 56.233 14.6511 56.2145C14.6628 56.1961 14.6779 56.1807 14.6955 56.1696C14.7131 56.1585 14.7327 56.1518 14.7529 56.1501C14.8213 56.1455 14.8899 56.1569 14.9541 56.1835C15.0891 56.2345 15.1738 56.3877 15.319 56.4154C15.6616 56.4863 16.0049 56.5969 16.357 56.5742C16.571 56.548 16.7818 56.5033 16.9939 56.4629C17.2486 56.421 17.5173 56.4345 17.7625 56.3295C17.916 56.2636 18.0013 56.0983 18.0968 55.96C18.2242 55.7764 18.3127 55.5643 18.4433 55.3842C18.54 55.2576 18.627 55.1222 18.7031 54.9792C18.721 54.942 18.7272 54.8992 18.7209 54.8576C18.7146 54.816 18.696 54.778 18.6681 54.7494C18.5801 54.7201 18.4886 54.7063 18.3968 54.7083C18.4452 54.5664 18.4859 54.4026 18.6076 54.3133C18.7037 54.2423 18.7827 54.1402 18.8852 54.0799C19.1902 54.0168 19.5042 54.075 19.808 54.0026C20.2213 53.9381 20.6358 53.7849 20.9542 53.4799C21.1364 53.314 21.209 53.0544 21.3 52.8239C21.3726 52.5984 21.4726 52.3842 21.5369 52.1551C21.5996 51.9594 21.6789 51.7709 21.7738 51.592C21.8662 51.3934 22.0133 51.2289 22.068 51.009C21.971 51.0133 21.8768 51.0474 21.7961 51.1076C21.6687 51.2126 21.549 51.331 21.421 51.436C21.2618 51.5778 21.0746 51.6849 20.9345 51.8551C20.8699 51.9339 20.7887 51.9934 20.6982 52.0282C20.7536 51.7707 20.9778 51.6409 21.1166 51.4466C21.2363 51.2778 21.3892 51.1423 21.4987 50.9665C21.6203 50.7736 21.8375 50.7175 22.0043 50.5899C22.2535 50.4016 22.4758 50.1728 22.6641 49.9112C22.9074 49.6019 22.9685 49.1807 23.1608 48.8381C23.2882 48.5913 23.4315 48.3516 23.5021 48.0764C23.5544 47.8807 23.5779 47.6757 23.648 47.4849C23.7155 47.3062 23.7537 47.1154 23.8282 46.9395C23.9097 46.7424 23.9734 46.5367 24.0638 46.3445C24.1275 46.2027 24.2708 46.1559 24.3981 46.1459C24.5172 46.158 24.6198 46.2424 24.7382 46.2587C24.8414 46.2754 24.9464 46.2732 25.049 46.2523C25.1802 46.2098 25.2712 46.0786 25.4056 46.0396C25.5298 46.0122 25.6447 45.9469 25.7374 45.8509C25.9966 45.5672 26.2073 45.2346 26.4436 44.9289C26.6111 44.7119 26.7359 44.4587 26.9129 44.2502C27.0339 44.1084 27.153 43.9665 27.2797 43.8311C27.3969 43.7112 27.5504 43.6438 27.6618 43.5119C27.5933 43.4995 27.5231 43.5091 27.4593 43.5396C27.2613 43.6403 27.0499 43.7112 26.8652 43.8431C26.6514 43.998 26.4172 44.1148 26.171 44.1892C26.3169 44.0389 26.5028 43.9552 26.669 43.8396C26.886 43.6939 27.1087 43.5594 27.3371 43.436C27.4941 43.3538 27.6335 43.2351 27.7459 43.0878C27.8841 42.9268 27.9764 42.7275 28.0904 42.5467C28.326 42.6516 28.5578 42.7672 28.7909 42.8757C29.1157 43.0176 29.4615 43.1367 29.8143 43.1119C30.0283 43.1006 30.2238 42.9921 30.4314 42.9467C30.639 42.9013 30.8135 42.7233 30.9555 42.5488C31.0733 42.3878 31.2032 42.2289 31.2605 42.0275C31.1473 42.0844 31.0404 42.1558 30.9421 42.2403C30.8524 42.3078 30.7531 42.3581 30.6485 42.3892C30.5447 42.4301 30.4382 42.4624 30.3301 42.4857C30.2246 42.5016 30.1182 42.5092 30.0117 42.5084C29.7965 42.5078 29.5824 42.4754 29.3749 42.4119C29.2459 42.3723 29.12 42.3211 28.9985 42.2587C28.9348 42.2268 28.8769 42.1921 28.8177 42.1545C28.7689 42.1186 28.7289 42.0699 28.7011 42.0126C28.9297 42.0204 29.1539 42.0835 29.3838 42.0835C29.4997 42.0835 29.6162 42.0736 29.7321 42.0644C29.8071 42.0627 29.882 42.0563 29.9563 42.0453L30.2142 41.9949L30.6186 41.9155C30.6793 41.9057 30.7382 41.8851 30.7931 41.8545C30.8568 41.8197 30.9141 41.7836 30.9765 41.7509C31.1581 41.647 31.3308 41.5248 31.4923 41.3857C31.6738 41.2332 31.8107 41.0254 31.9725 40.8531C32.0935 40.7353 32.2616 40.8155 32.4036 40.8112C32.6921 40.8112 32.9805 40.8183 33.2684 40.8112C33.5091 40.7786 33.7517 40.7999 33.9925 40.7701C34.3032 40.7396 34.6172 40.7446 34.9235 40.6743C35.4329 40.6084 35.9112 40.3999 36.3812 40.1843C36.5568 40.0917 36.7269 39.9867 36.8906 39.8701C37.0433 39.7684 37.1863 39.6496 37.3173 39.5155C37.4517 39.3793 37.5988 39.2545 37.6994 39.0843C37.8224 38.8944 37.9337 38.6953 38.0324 38.4885C38.1375 38.2389 38.3859 38.1403 38.5495 37.9495C38.7767 37.6933 38.9918 37.4241 39.194 37.1432C39.3636 36.9273 39.5202 36.6991 39.6627 36.4602C39.7709 36.2701 39.8537 36.0644 39.9442 35.8644C40.0096 35.7199 40.0596 35.5673 40.0932 35.4098C40.3033 34.4255 40.3625 33.2552 39.7563 32.4226C39.5443 32.133 39.2725 31.9047 38.9641 31.7574C38.5947 31.5815 38.2241 31.6389 37.8395 31.7162C37.8293 31.7659 37.8185 31.8155 37.8057 31.8645C38.0165 31.9198 38.2337 31.929 38.4464 31.968C38.98 32.0602 39.4583 32.4879 39.7155 33.0084C39.9078 33.3996 39.9864 33.8477 39.9403 34.2907C39.8939 34.7396 39.8576 35.1786 39.7034 35.607C39.6315 35.7971 39.5506 35.9836 39.4685 36.1694C39.2825 36.5949 38.9953 36.9495 38.7043 37.2949C38.5597 37.4439 38.4381 37.6368 38.2432 37.707C38.263 37.6999 38.1706 36.9098 38.1592 36.8198C38.1249 36.558 38.0551 36.3036 37.9522 36.0652C37.6873 35.446 37.202 34.9056 36.5907 34.7432C36.4501 34.7018 36.3035 34.6924 36.1595 34.7155C36.0145 34.7398 35.8819 34.8205 35.7851 34.9432C36.15 34.951 36.5104 34.963 36.853 35.112C37.1593 35.2539 37.4044 35.5223 37.537 35.8609C37.77 36.4217 37.8112 37.058 37.6529 37.6502C37.6104 37.8413 37.5393 38.023 37.4427 38.1878C37.3657 38.307 37.2358 38.3566 37.1243 38.4169C36.5769 38.7176 35.9943 38.9311 35.3935 39.0509C34.751 39.17 34.1021 39.2411 33.4512 39.2637C33.2155 39.2722 32.9799 39.2741 32.7443 39.2694C32.6742 39.2694 32.5087 39.2985 32.4654 39.2332C32.4221 39.168 32.4342 38.9715 32.4017 38.8786C32.3641 38.7666 32.2654 38.7041 32.1839 38.6353C32.3577 38.5708 32.5405 38.5304 32.7023 38.4311C32.7984 38.3722 32.8933 38.3063 32.9818 38.2382C33.1472 38.1091 33.279 37.9337 33.3639 37.7297C33.4276 37.5878 33.4212 37.4226 33.4276 37.2673C33.4276 37.1602 33.4989 37.0815 33.5594 37.0084C33.7304 36.8019 33.8648 36.5613 33.9555 36.2992C34.0261 36.1443 34.0693 35.9758 34.0829 35.8027C34.0929 35.6036 34.0456 35.4061 33.9479 35.2389C33.9148 35.1751 33.8428 35.1737 33.7861 35.1566C33.737 35.4436 33.675 35.7277 33.6002 36.0077C33.5473 36.1673 33.4467 36.2992 33.3696 36.4446C33.2767 36.6205 33.1327 36.7517 33.0009 36.89C32.8356 37.053 32.6339 37.1635 32.417 37.2098C32.217 37.2545 32.017 37.3268 31.8107 37.3091C31.5343 37.2971 31.2478 37.2283 31.023 37.0403C31.1104 36.96 31.1934 36.8738 31.2713 36.7822C31.3611 36.6559 31.3987 36.4985 31.4624 36.3566C31.5503 36.1488 31.7088 35.9524 31.6802 35.707C31.6751 35.5999 31.5528 35.6361 31.4936 35.6467C31.2115 35.7127 30.9204 35.6183 30.6721 35.4708C30.2951 35.2162 30.0009 34.8425 29.6455 34.5566C29.4826 34.4112 29.3294 34.2529 29.187 34.0829C29.352 34.1084 29.4882 34.2169 29.6328 34.2999C30.1302 34.5942 30.6179 34.9155 31.1459 35.1382C31.3033 35.2253 31.4694 35.2915 31.6407 35.3354C31.9211 35.4374 32.2114 35.5021 32.5055 35.5283C32.7332 35.5387 32.9607 35.5036 33.1773 35.4247C33.2909 35.3731 33.3988 35.3072 33.4989 35.2283C33.8135 35.0269 34.0084 34.6701 34.1797 34.3269C34.228 34.2348 34.2589 34.1327 34.2704 34.0268C34.2819 33.9209 34.2738 33.8135 34.2465 33.7113C34.205 33.5909 34.1256 33.4916 34.023 33.4318L33.9714 33.4886C34.0202 33.8444 33.9695 34.2084 33.8262 34.5311C33.7511 34.7113 33.6091 34.8396 33.4785 34.9694C33.3696 35.0772 33.2155 35.0801 33.078 35.0772C32.871 35.0772 32.6787 34.9765 32.494 34.8815C32.2829 34.7639 32.0938 34.6027 31.9368 34.4063C31.813 34.2622 31.7195 34.0892 31.663 33.8999C31.8247 33.8481 31.9954 33.8148 32.1431 33.7205C32.2882 33.629 32.408 33.4951 32.4896 33.3333C32.7188 32.8595 32.9009 32.3588 33.1391 31.8907C33.2028 31.7489 33.3002 31.5815 33.2308 31.4177C33.0474 31.5475 32.8704 31.6978 32.6539 31.7517C32.3571 31.8765 32.0361 31.8049 31.7419 31.7106C31.4942 31.6326 31.2732 31.4779 31.0599 31.3219C30.8911 31.1801 30.7065 31.0545 30.5504 30.8886C30.5702 30.8737 30.5899 30.8574 30.6097 30.8411C30.9116 30.9727 31.2201 31.0847 31.5337 31.1765C31.761 31.2368 31.989 31.3184 32.2259 31.3106C32.4988 31.3309 32.7723 31.2839 33.027 31.173C33.1678 31.0991 33.2875 30.9832 33.3728 30.8382C33.4321 30.7482 33.4607 30.6382 33.5199 30.5482C33.6046 30.5014 33.7052 30.5163 33.7969 30.5007C33.9396 30.4879 34.0568 30.3893 34.1841 30.3276C34.2924 30.2723 34.4115 30.2496 34.5178 30.1858C34.6247 30.1133 34.7202 30.0217 34.8006 29.9148C34.9146 29.773 35.0254 29.6056 35.0362 29.4077C35.0424 29.1911 35.021 28.9745 34.9725 28.7645C34.891 28.8 34.7948 28.8262 34.7477 28.917C34.7133 29.0137 34.6919 29.1155 34.684 29.2191C34.6592 29.4106 34.6127 29.6077 34.493 29.7531C34.4413 29.8265 34.3754 29.886 34.3002 29.9271C34.225 29.9682 34.1424 29.99 34.0587 29.9907C33.7827 29.9988 33.5121 29.9039 33.29 29.7212C33.1429 29.5929 32.9856 29.4645 32.9035 29.2716C33.0461 29.2645 33.1894 29.2716 33.3327 29.2716C33.5462 29.2788 33.7569 29.2165 33.939 29.0921C34.13 28.9602 34.2504 28.7411 34.3752 28.5397C34.4828 28.3397 34.6013 28.1425 34.6598 27.917C34.6758 27.8445 34.7053 27.7766 34.7464 27.7177C34.8827 27.712 35.0133 27.7652 35.1464 27.7886C35.3113 27.8205 35.4731 27.873 35.6393 27.8985C36.1646 27.9482 36.69 27.9744 37.2103 27.8588C37.8535 27.717 38.4922 27.3985 38.9762 26.8993C39.1117 26.7528 39.2298 26.5876 39.3277 26.4078C39.4736 26.1787 39.5774 25.922 39.7047 25.6801C39.7875 25.5049 39.8958 25.3425 39.9594 25.1567C39.9906 25.078 39.9652 24.9936 39.9512 24.9149C39.8686 24.9585 39.7996 25.0286 39.7531 25.1163C39.6442 25.3347 39.4984 25.5227 39.371 25.7283C39.0692 26.2248 38.5279 26.5475 38.0254 26.7163C37.4833 26.8989 36.9091 26.9296 36.3538 26.8056C36.2455 26.7808 36.1398 26.7702 36.0309 26.7446C35.7466 26.6801 35.4673 26.5909 35.1954 26.478C35.0368 26.4021 34.8668 26.3503 34.7299 26.2305C34.8114 26.2269 34.8942 26.2305 34.977 26.2212C35.1215 26.205 35.2559 26.1315 35.3559 26.0142C35.4469 25.9085 35.503 25.8723 35.6348 25.8787C35.7666 25.8851 35.9144 25.8964 36.0545 25.9C36.3405 25.9073 36.6267 25.8969 36.9116 25.8688C37.4801 25.8174 38.0383 25.6706 38.5674 25.4333C38.7565 25.3556 38.9314 25.2405 39.0838 25.0936C39.1595 25.0195 39.2206 24.9289 39.2635 24.8274C39.3063 24.7259 39.3299 24.6156 39.3328 24.5035C39.335 24.4747 39.3302 24.4458 39.319 24.4198C39.3079 24.3937 39.2906 24.3715 39.2691 24.3553C39.2396 24.3448 39.2075 24.3476 39.1797 24.3629C39.1519 24.3783 39.1305 24.405 39.1201 24.4376C39.1013 24.5036 39.0902 24.572 39.087 24.6411C39.0688 24.7288 39.0345 24.8114 38.9861 24.8835C38.9378 24.9557 38.8765 25.0159 38.8062 25.0603C38.3859 25.351 37.8688 25.4149 37.3835 25.3993C37.1352 25.3886 36.8877 25.3595 36.6429 25.312C36.5537 25.295 35.8494 25.1461 35.8399 25.1752C35.8806 25.0525 35.9328 24.9347 35.9806 24.8149C36.0519 24.5901 36.1468 24.3752 36.2353 24.1588C36.3691 24.117 36.5123 24.1468 36.6493 24.1198C36.9607 24.0901 37.2453 23.9397 37.5363 23.8255C37.761 23.7289 37.9665 23.5843 38.1413 23.4C38.2502 23.2865 38.3655 23.1659 38.4171 23.0064L38.391 22.9823C38.3149 23.0191 38.2415 23.0622 38.1713 23.1113L38.1076 22.9794C37.8828 23.0979 37.7809 23.3773 37.5631 23.5064C37.3291 23.6489 37.0656 23.7206 36.7989 23.7142C36.5321 23.7057 36.2608 23.7851 35.9972 23.7092C36.1303 23.5943 36.2996 23.5603 36.4429 23.4659C36.6397 23.3447 36.7868 23.1511 36.9473 22.9801C36.9996 22.9274 37.0678 22.8985 37.1383 22.8993C37.4892 22.8624 37.8388 22.8447 38.1948 22.8248C38.3478 22.8048 38.4998 22.776 38.6501 22.7383C39.1111 22.6394 39.5421 22.4125 39.9034 22.0787C40.0308 21.9553 40.1728 21.8418 40.2664 21.6801C40.3428 21.5482 40.2829 21.5262 40.1887 21.4305C40.0289 21.2595 39.852 21.1096 39.6614 20.9837C39.5824 20.9284 39.5391 20.8958 39.6442 20.8575C39.7264 20.8277 39.8168 20.8142 39.8989 20.7901C40.2225 20.6979 40.5479 20.5674 40.8013 20.3163C41.1586 19.9617 41.3433 19.3844 41.3464 18.861C41.3493 18.8128 41.3428 18.7644 41.3273 18.7192C41.3194 18.697 41.3059 18.6779 41.2886 18.6639C41.2712 18.65 41.2506 18.6418 41.2293 18.6404C41.207 18.6426 41.1859 18.6519 41.1683 18.6673C41.1508 18.6827 41.1377 18.7034 41.1306 18.727C41.1164 18.7743 41.1095 18.8239 41.1102 18.8738C41.0942 19.1953 41.0024 19.5065 40.844 19.7759C40.7279 19.9852 40.5598 20.1525 40.36 20.2575C40.1578 20.3463 39.9377 20.3725 39.7232 20.3333C38.9131 20.217 38.4113 19.5376 37.9668 18.844C37.9363 18.7816 37.8802 18.71 37.9102 18.6362C38.1299 18.6362 38.3343 18.7525 38.5527 18.7646C38.7438 18.7646 38.9182 18.6362 39.0443 18.4809C39.1704 18.3256 39.2851 18.1596 39.3959 17.9908C39.5067 17.822 39.5869 17.6362 39.7092 17.4851C39.8314 17.3341 39.9894 17.178 40.069 16.9773C40.1142 16.8724 40.0957 16.7525 40.0913 16.6412C40.0913 16.6788 39.848 16.8213 39.8136 16.8447C39.7085 16.9156 39.6016 16.9866 39.4914 17.0461C39.3005 17.1572 39.0911 17.2229 38.8762 17.239C38.5958 17.2606 38.3144 17.2196 38.0483 17.1185C37.7809 17.0163 37.5389 16.8483 37.2746 16.7348C37.0944 16.6546 36.9059 16.5859 36.7505 16.4511C36.8018 16.4591 36.8536 16.4613 36.9053 16.4575C36.9511 16.4646 37.0001 16.4702 37.0454 16.4802C37.1613 16.5043 37.2746 16.5454 37.3899 16.5724C37.6242 16.6275 37.8613 16.6668 38.0999 16.6901C38.6248 16.7337 39.1526 16.6986 39.6691 16.5859C39.8849 16.5256 40.111 16.4681 40.2982 16.3277C40.709 15.9625 40.7848 15.3348 41.135 14.9242C41.228 14.8135 41.3152 14.6696 41.2847 14.522C40.9419 14.7973 40.5412 14.9695 40.1212 15.022C39.58 15.0904 39.033 14.9731 38.5533 14.6859C38.5075 14.6582 38.3292 14.5724 38.4336 14.527C38.5056 14.4958 38.6998 14.5859 38.775 14.605C38.8915 14.6348 39.008 14.6646 39.1258 14.6816C39.6207 14.7525 40.1983 14.7866 40.6778 14.6107C40.7873 14.5696 40.8873 14.4958 41.0038 14.4781C41.1204 14.4603 41.2515 14.4688 41.37 14.4263C41.5069 14.3766 41.6164 14.266 41.747 14.2015C41.889 14.1305 42.0476 14.1164 42.1928 14.0596C42.3406 14.0073 42.4767 13.9205 42.5921 13.805C42.7815 13.6052 42.9538 13.386 43.1066 13.1504C43.1877 13.001 43.243 12.836 43.2696 12.6639C43.2875 12.5603 43.1894 12.5079 43.1321 12.4511C43.0047 12.6199 42.941 12.8398 42.8003 12.9972C42.6721 13.138 42.5208 13.25 42.3545 13.327C42.2004 13.4029 42.0285 13.3852 41.8648 13.3774C41.4705 13.3372 41.0839 13.2303 40.7185 13.0603C40.5332 12.9843 40.3554 12.8871 40.1881 12.7703C39.9741 12.6128 39.7455 12.4823 39.5302 12.3277C39.1103 12.0333 38.6467 11.8244 38.1611 11.7107C37.9133 11.6483 37.6593 11.6845 37.409 11.6611C37.4594 11.6249 37.5149 11.5985 37.5733 11.583C37.8045 11.532 38.0362 11.6015 38.2661 11.6291C38.5693 11.6682 38.8488 11.8079 39.1354 11.9128C39.322 11.988 39.513 12.0547 39.6939 12.144C39.8747 12.2334 40.0524 12.2937 40.2301 12.3752C40.679 12.5738 41.156 12.7263 41.6438 12.715C42.0355 12.7029 42.4367 12.5121 42.6717 12.154C42.7933 11.9795 42.9429 11.8313 43.0582 11.6504C43.1404 11.5142 43.2124 11.3707 43.2734 11.2213C43.3429 11.0795 43.5002 11.0455 43.6161 10.9625C43.8058 10.844 43.974 10.6872 44.1121 10.5001C44.2396 10.3216 44.333 10.116 44.3866 9.89583C44.3968 9.82845 44.414 9.74122 44.3592 9.69086C44.2516 9.82278 44.1956 9.99512 44.0905 10.1292C43.9496 10.3141 43.7787 10.4679 43.5868 10.5823C43.4594 10.6653 43.3123 10.6916 43.1716 10.7334C43.0595 10.7667 42.9461 10.7909 42.8321 10.8157C42.8022 10.7653 42.7729 10.7136 42.7436 10.6632C42.6729 10.7426 42.6067 10.8476 42.5004 10.8639C42.3731 10.8761 42.245 10.8732 42.1183 10.8554C41.91 10.8136 41.696 10.776 41.5063 10.6667C41.6859 10.5958 41.8737 10.5455 42.0399 10.4377C42.2526 10.3036 42.4857 10.1703 42.6131 9.92987C42.7086 9.75328 42.8627 9.63271 43.0149 9.52207C43.0907 9.46391 43.1862 9.47171 43.2734 9.46746C43.4121 9.46539 43.55 9.44612 43.6848 9.41001C43.8663 9.35824 44.058 9.33909 44.2293 9.24831C44.4625 9.13252 44.6688 8.95881 44.8324 8.74051C44.9655 8.55612 45.1177 8.37952 45.1896 8.15258C45.2355 8.03556 45.2495 7.89655 45.3278 7.79797C45.4386 7.72137 45.573 7.70293 45.6889 7.63839C45.8551 7.55825 45.9576 7.38449 46.0882 7.25329C46.3009 7.03485 46.4563 6.75684 46.6842 6.554C46.8454 6.37316 47.0077 6.16535 47.0504 5.9072C46.8078 5.98238 46.5919 6.13982 46.3448 6.20011C45.935 6.28912 45.5162 6.31608 45.0998 6.28025C44.9018 6.26465 44.7037 6.2384 44.507 6.20933C44.4102 6.19372 44.3159 6.1767 44.2172 6.15685C44.1644 6.14621 43.9746 6.05685 43.9332 6.07599C44.1465 5.97954 44.3726 6.06961 44.5929 6.05259C45.2298 6.00507 45.8857 6.05259 46.5142 5.89585C46.8001 5.82493 47.1045 5.69514 47.3223 5.47032C47.5217 5.26394 47.7643 5.03132 47.8318 4.72423C47.7234 4.75397 47.617 4.79212 47.5134 4.83841C47.406 4.87294 47.2915 4.86721 47.1873 4.8221C47.4478 4.63558 47.7541 4.51075 47.9579 4.23984C48.0267 4.14338 47.9789 4.01431 47.928 3.92282C47.7834 4.04622 47.6446 4.18239 47.4777 4.2675C47.2816 4.3753 47.06 4.39445 46.8492 4.44764C46.7055 4.48058 46.5589 4.49415 46.4123 4.48806C46.1468 4.4959 45.8828 4.44254 45.6367 4.33133C45.9105 4.22069 46.206 4.2604 46.4907 4.23204C46.6728 4.20721 46.8536 4.17104 47.0358 4.13984C47.2466 4.10438 47.4503 4.03345 47.656 3.97601C47.8185 3.9224 47.9727 3.84157 48.1133 3.73629C48.308 3.60061 48.4688 3.41226 48.5807 3.18878C48.689 2.98027 48.8609 2.79375 48.8647 2.53772C48.6921 2.62708 48.5406 2.75971 48.3635 2.83914C48.1624 2.95059 47.938 2.99959 47.714 2.98098C47.486 2.95829 47.2523 2.96821 47.0307 2.89446C47.0708 2.85971 47.1065 2.80439 47.1625 2.80226C47.2262 2.79801 47.2901 2.79943 47.3535 2.80651ZM32.913 39.8056L33.8262 39.6907C34.3357 39.6268 34.8502 39.597 35.3546 39.5119C35.7093 39.4517 36.0602 39.3368 36.4085 39.2431C35.9825 39.5978 35.4673 39.7963 34.9439 39.8999C34.5157 39.9763 34.0828 40.015 33.6492 40.0155C33.1837 40.024 32.694 40.1077 32.2571 39.8885L32.913 39.8056ZM29.2488 17.6022C29.2996 17.6106 29.3483 17.6304 29.3921 17.6603C29.3921 17.6603 29.4505 17.8371 29.4468 17.9312C29.4468 18.0646 29.4532 18.2149 29.3832 18.3263C29.3431 18.377 29.2879 18.4098 29.2278 18.4185C29.1985 18.1467 29.2056 17.8716 29.2488 17.6022ZM17.5231 34.0517C17.5804 33.8659 17.6644 33.6652 17.8345 33.5808C17.8599 33.6297 17.8287 33.6815 17.8134 33.7283C17.7328 33.9107 17.6756 34.1048 17.6434 34.3049C17.6292 34.3986 17.603 34.4896 17.5657 34.5751C17.5248 34.4966 17.4994 34.4094 17.4912 34.3191C17.4829 34.2289 17.4921 34.1377 17.518 34.0517H17.5231ZM15.8431 36.9616L15.9004 36.9666C15.9613 37.2841 16.0387 37.5974 16.1322 37.9049C16.1692 38.0212 16.2634 38.0928 16.3233 38.1885C16.301 38.2343 16.2734 38.2765 16.2411 38.3141C16.1479 38.4445 16.0658 38.5844 15.996 38.7318H15.9444C15.8336 38.4389 15.8062 38.1183 15.7788 37.8041C15.7716 37.5217 15.7917 37.2393 15.8387 36.9616H15.8431ZM13.7168 55.1296C13.6531 55.4012 13.5703 55.6679 13.5054 55.9409C13.4091 56.2282 13.3262 56.5207 13.257 56.8175C13.2048 57.0451 13.1424 57.2693 13.0717 57.4912C12.9927 57.7799 12.915 58.0693 12.8424 58.36C12.7972 58.5019 12.7724 58.6494 12.7151 58.7856C12.6444 58.9083 12.4603 58.8302 12.4438 58.6983C12.4655 58.5775 12.4962 58.4589 12.5355 58.3437C12.5896 58.1032 12.6562 57.8664 12.7348 57.6345C12.8329 57.3749 12.8622 57.092 12.9456 56.8281C13.0984 56.2934 13.315 55.7827 13.4468 55.2402C13.606 54.7331 13.7372 54.214 13.9225 53.7168C14.0352 53.4253 14.1263 53.1239 14.2307 52.8289C14.3912 52.4076 14.5739 51.9955 14.6956 51.5579C14.7675 51.2927 14.8898 51.0501 14.9675 50.7877C15.1305 50.3416 15.2859 49.892 15.4719 49.458C15.54 49.2821 15.5909 49.0984 15.6744 48.931C15.7731 48.7183 15.8489 48.4899 15.9476 48.275C16.0787 47.9367 16.2023 47.5934 16.322 47.2509C16.3978 47.0076 16.5194 46.7871 16.6028 46.5481C16.6665 46.3637 16.7423 46.1828 16.8047 45.9977C16.8945 45.7027 16.9709 45.4005 17.1098 45.1282C17.1652 45.0197 17.2136 44.9069 17.262 44.7949C17.3301 45.0502 17.1792 45.2828 17.118 45.5197C17.0569 45.7566 16.9353 45.9885 16.8697 46.2339C16.8432 46.3252 16.8119 46.4147 16.7761 46.502C16.7009 46.6778 16.6557 46.87 16.5615 47.0367C16.4462 47.2424 16.4029 47.4835 16.3195 47.7048C16.236 47.9261 16.1494 48.1587 16.0679 48.387C15.9998 48.5814 15.9023 48.7608 15.8374 48.9544C15.7323 49.2707 15.5827 49.5651 15.4719 49.8764C15.3903 50.1055 15.3076 50.3346 15.2286 50.565C15.1719 50.7537 15.1286 50.9473 15.0624 51.1324C14.8892 51.6998 14.6344 52.2388 14.4593 52.8083C14.3759 53.07 14.2829 53.3282 14.2046 53.592C14.0339 54.1054 13.8664 54.6147 13.7123 55.1296H13.7168ZM28.1872 40.524C27.8987 40.5949 27.6103 40.6715 27.3141 40.6772C27.1416 40.6772 26.955 40.7155 26.797 40.6169C26.6213 40.5077 26.4449 40.4001 26.2678 40.2942C26.1099 40.1985 25.9603 40.0814 25.8017 39.9829C25.6159 39.87 25.4248 39.7684 25.2292 39.6786C25.0426 39.5921 24.8471 39.5368 24.6618 39.4658C24.5382 39.4205 24.3557 39.2134 24.2214 39.229C24.1182 39.2446 23.9046 39.1857 23.8148 39.2368C23.5263 39.4013 23.008 39.3538 22.6819 39.4006C22.5081 39.3907 22.6222 39.5974 22.4528 39.5527C22.1014 39.4551 21.3248 39.1981 20.9638 39.229C20.4543 39.2587 20.02 40.0048 19.573 40.2616C19.4564 40.3325 19.8462 40.3339 19.7067 40.3368C19.8379 40.1431 20.0385 40.0375 20.227 39.9282C20.4472 39.8097 20.6785 39.7186 20.9167 39.6566C21.4108 39.502 21.9356 39.5041 22.4393 39.5857C22.6223 39.6198 22.8028 39.6688 22.9793 39.7325C23.1608 39.7942 23.3461 39.7148 23.5136 39.6389C23.7352 39.5247 23.9549 39.4048 24.1683 39.2715C24.2816 39.2006 24.4071 39.2233 24.5338 39.229C24.6739 39.2353 24.814 39.2474 24.9528 39.2651C25.1886 39.2942 25.4225 39.3395 25.6533 39.4006C25.8762 39.4595 26.0991 39.5424 26.3258 39.5843C26.4691 39.6098 26.6054 39.6651 26.7455 39.7048C26.9925 39.7658 27.2358 39.8467 27.4823 39.9055C27.7249 39.9878 27.9777 40.0183 28.221 40.0949C28.3986 40.1524 28.5903 40.1587 28.7533 40.2651C28.5884 40.402 28.3827 40.4651 28.1821 40.5254L28.1872 40.524ZM30.5148 41.1765C30.3903 41.241 30.2607 41.2925 30.1276 41.3304C29.8292 41.4201 29.5161 41.4313 29.2131 41.363C29.0775 41.3268 28.9406 41.3268 28.8068 41.2772C28.7852 41.2687 29.017 40.8516 29.0374 40.8176C29.1265 40.6623 29.1647 40.4836 29.2552 40.3332C29.266 40.3155 29.4558 40.3594 29.4806 40.3644C29.5443 40.3758 29.608 40.3992 29.6716 40.4169C29.8347 40.4616 30.0092 40.4758 30.1754 40.5098C30.3416 40.5438 30.49 40.5807 30.6466 40.6155L30.874 40.6729C30.9564 40.6843 31.0374 40.7062 31.1153 40.7382C31.1879 40.7821 31.1229 40.8091 31.0663 40.8552C31.0066 40.9 30.9442 40.9403 30.8797 40.9758C30.7587 41.0446 30.6422 41.1141 30.5148 41.1765ZM31.4528 37.8467C31.7407 37.8587 32.0287 37.8296 32.31 37.7602C32.4749 37.7091 32.636 37.6417 32.7965 37.5765C32.9914 37.4963 33.1359 37.3077 33.3416 37.2566C33.2295 37.6283 32.9341 37.885 32.6252 38.046C32.4238 38.1526 32.2024 38.2042 31.9795 38.1963C31.6362 38.1836 31.2872 38.141 30.9676 37.9935C30.8575 37.9431 30.7592 37.8652 30.6804 37.7659C30.9408 37.7531 31.1917 37.8644 31.4541 37.8467H31.4528ZM29.6334 37.5935C29.727 37.5545 29.8066 37.6283 29.8703 37.6956C30.0716 37.9084 30.3206 38.0502 30.5492 38.2219C30.7358 38.3637 30.9542 38.4403 31.1663 38.5219C31.4266 38.6133 31.6976 38.6611 31.9706 38.6637C31.9954 38.8311 32.0521 38.9949 32.0527 39.1658C32.0374 39.241 31.9565 39.2368 31.9031 39.2368C31.6681 39.2098 31.4356 39.1609 31.2026 39.129C30.9478 39.097 30.7039 39.0254 30.4543 38.9722C29.7433 38.8069 29.043 38.5892 28.3579 38.3205C27.9274 38.1786 27.5007 38.0297 27.0734 37.8793C26.5773 37.7304 26.0972 37.5155 25.5915 37.4034C25.4606 37.375 25.3326 37.332 25.2095 37.2751C25.4769 37.2786 25.7425 37.3268 26.0087 37.3573C26.2264 37.3779 26.4404 37.4361 26.6582 37.4573C26.925 37.4893 27.188 37.5453 27.453 37.5914C27.7389 37.6375 28.0216 37.7176 28.312 37.7162C28.4744 37.7162 28.6368 37.729 28.7992 37.7389C29.0832 37.7538 29.3602 37.6708 29.6334 37.5935ZM34.0409 27.9631C33.9019 27.963 33.7651 27.9252 33.6422 27.8531C32.8341 27.4489 32.1304 26.8532 31.4312 26.261C31.2662 26.1191 31.0726 26.029 30.9217 25.8737C31.1624 25.9099 31.3802 26.0376 31.6063 26.1305C32.1043 26.334 32.5615 26.6525 33.0455 26.9021C33.4399 27.1073 33.8386 27.3009 34.2415 27.4829C34.3363 27.5255 34.4389 27.5602 34.5306 27.6113C34.5942 27.6446 34.5942 27.6276 34.5751 27.695C34.5527 27.7364 34.5225 27.772 34.4866 27.7992C34.3574 27.907 34.2004 27.9653 34.0389 27.9652L34.0409 27.9631Z" fill="#214784"/>
<path d="M10.5821 58.3181C10.9949 58.3181 11.409 58.2979 11.8204 58.3361C12.2247 58.3906 12.6252 58.4731 13.0194 58.5832C13.1446 58.617 13.2752 58.6206 13.4024 58.6451C13.5361 58.6831 13.667 58.7312 13.7942 58.7892C13.8885 58.8276 13.9737 58.8876 14.0438 58.9649C14.1139 59.0422 14.1673 59.1349 14.2002 59.2365C14.2151 59.2916 14.2164 59.3499 14.204 59.4056C14.1915 59.4614 14.1657 59.5128 14.1291 59.5549C14.0363 59.6313 13.9332 59.6925 13.8233 59.7364C13.8815 59.887 13.9654 60.0743 13.8686 60.227C13.7658 60.3581 13.598 60.3847 13.4518 60.4388C13.4247 60.4488 13.4457 60.9012 13.4457 60.9516C13.4457 61.1303 13.4457 61.3089 13.4457 61.4876C13.4511 61.829 13.4619 62.1697 13.4924 62.5097C13.5756 63.4505 13.7265 64.4929 14.1914 65.314C14.3213 65.5431 14.4512 65.7729 14.6014 65.9883C14.7517 66.2037 14.9026 66.4407 15.0859 66.6366C15.1394 66.6942 15.184 66.7612 15.2388 66.8188C15.2937 66.8765 15.3458 66.9175 15.3958 66.9737C15.5086 67.0991 15.6243 67.2218 15.743 67.3418C15.9789 67.5819 16.225 67.8096 16.4812 68.0247C16.8872 68.3654 17.2986 68.6968 17.7147 69.0202C17.9306 69.2075 18.1532 69.3854 18.3738 69.5677C18.5457 69.7197 18.7169 69.8717 18.8962 70.0143C19.3433 70.3643 19.7614 70.7545 20.146 71.1805C20.9999 72.1371 21.5669 73.3084 21.5419 74.6547C21.5216 75.8073 21.0764 77.1039 20.2116 77.8473C20.148 77.9021 20.0817 77.9546 20.0187 78.0115C19.8355 78.1698 19.6164 78.2741 19.3834 78.3141C18.7236 78.4344 18.0361 78.3861 17.3696 78.3861C15.982 78.3861 14.5949 78.39 13.2082 78.3976C11.8184 78.407 10.4278 78.4121 9.03798 78.4286C7.62241 78.4459 6.20708 78.4498 4.79196 78.4402C4.3183 78.4402 3.83314 78.4603 3.36422 78.4027C3.13441 78.3785 2.90929 78.3178 2.69636 78.2226C1.70641 77.8394 1.03314 76.7711 0.768567 75.7244C0.59314 75.0564 0.571324 74.3533 0.704961 73.6744C0.821346 73.1118 1.10351 72.5938 1.39041 72.1098C1.71251 71.5692 2.08522 71.0648 2.50284 70.6042C3.38249 69.6296 4.49965 68.9597 5.50651 68.1551C6.30875 67.5246 7.03149 66.787 7.65692 65.9602C7.78346 65.7556 7.93232 65.582 8.04803 65.3674C8.16553 65.1496 8.2695 64.9239 8.35929 64.6917C8.84175 63.4476 8.98114 61.9997 8.83769 60.6693C8.83769 60.6549 8.8343 60.6405 8.83295 60.626C8.66378 60.5648 8.46349 60.5115 8.36673 60.3379C8.25441 60.178 8.30448 59.9691 8.33561 59.7897C8.17795 59.7249 7.99728 59.6709 7.89646 59.5117C7.86133 59.4474 7.84094 59.3753 7.83694 59.301C7.83294 59.2268 7.84545 59.1526 7.87345 59.0845C7.92555 58.9051 8.08592 58.8 8.22937 58.7107C8.43263 58.6047 8.65061 58.5344 8.8749 58.5025C9.4372 58.4304 10.009 58.3123 10.5828 58.3209M11.9199 58.5687C11.8488 58.5889 11.8765 58.6876 11.8623 58.746C12.1025 58.769 12.336 58.8295 12.5816 58.8338C12.5816 58.7726 12.5816 58.7114 12.5782 58.6509C12.3624 58.6033 12.1425 58.5349 11.9199 58.5687ZM8.17659 59.2495C8.18742 59.3561 8.27742 59.4123 8.362 59.449L8.41072 59.3856C8.38098 59.2239 8.36872 59.059 8.37418 58.8943C8.26862 58.9779 8.17118 59.1011 8.17659 59.2495ZM13.8713 59.4706C13.9004 59.4137 13.9485 59.3568 13.9349 59.2869C13.9173 59.1602 13.8213 59.0708 13.7245 59.006C13.7524 59.1675 13.8019 59.324 13.8713 59.4706ZM9.83305 59.5578C9.61922 59.5909 9.40202 59.5945 9.18887 59.637C8.98587 59.6694 8.77611 59.7278 8.62116 59.8783C8.5878 59.9138 8.56423 59.9584 8.55301 60.0072C8.5418 60.0559 8.54337 60.1071 8.55755 60.1549C8.57471 60.1893 8.59835 60.2195 8.62699 60.2437C8.65564 60.2679 8.68867 60.2855 8.72401 60.2954C8.77454 60.2916 8.82359 60.2756 8.86746 60.2486C8.82821 60.1413 8.76731 60.003 8.84107 59.8971C8.96557 59.8013 9.12662 59.7919 9.27345 59.7667C9.51434 59.7436 9.7532 59.6982 9.99544 59.6946C10.258 59.6708 10.5217 59.6638 10.7851 59.6738C11.0061 59.6662 11.2273 59.6727 11.4475 59.6932C11.943 59.7026 12.4361 59.7695 12.9179 59.8927C13.0181 59.9252 13.1297 59.9525 13.2035 60.0368C13.221 60.1261 13.2328 60.2166 13.2387 60.3077C13.3412 60.2739 13.4408 60.2307 13.5364 60.1787C13.5804 60.1477 13.6338 60.1016 13.6277 60.0397C13.5912 59.9302 13.4789 59.8848 13.3862 59.8452C13.1461 59.7534 12.8978 59.688 12.6452 59.65C12.1912 59.5996 11.7378 59.5297 11.2804 59.5333C11.0135 59.5048 10.7449 59.4998 10.4772 59.5182C10.2634 59.552 10.0462 59.5182 9.83305 59.5563M12.3096 60.9365C12.2907 61.2434 12.2203 61.5466 12.225 61.8564C12.2162 62.1231 12.223 62.3902 12.2453 62.656C12.2458 62.8513 12.2578 63.0464 12.2812 63.2402C12.3428 63.6962 12.3637 64.1579 12.451 64.6088C12.5586 65.3825 12.8029 66.1215 13.0749 66.8469C13.1811 67.1351 13.3381 67.403 13.462 67.6847C13.6649 68.132 13.9214 68.5491 14.1582 68.9813C14.4235 69.4373 14.6062 69.9401 14.8613 70.4026C14.9119 70.516 14.9571 70.6321 14.9966 70.7505C15.0331 70.8528 15.1502 70.8621 15.2348 70.8946C15.2421 70.787 15.2244 70.6791 15.1834 70.5805C15.0291 70.1418 14.8031 69.7377 14.6028 69.3228C14.4871 69.0987 14.3254 68.905 14.2164 68.6745C13.9715 68.2422 13.7367 67.8028 13.5215 67.3526C13.3983 67.0832 13.2508 66.8246 13.1622 66.5394C12.9436 65.9719 12.7814 65.3816 12.6784 64.7781C12.6107 64.3747 12.5431 63.9706 12.4984 63.5629C12.4652 63.3266 12.4876 63.0867 12.4551 62.8512C12.4551 62.419 12.4355 61.9868 12.4767 61.5546C12.4727 61.3385 12.5011 61.1224 12.5065 60.9113C12.518 60.7442 12.5485 60.5756 12.5241 60.4071C12.4942 60.383 12.4628 60.3611 12.4301 60.3415C12.3184 60.5151 12.3346 60.7312 12.3069 60.9308M12.6594 60.4705C12.6649 60.7507 12.6283 61.0287 12.6303 61.3089C12.6303 61.4451 12.5972 61.5805 12.6127 61.7174C12.65 62.0408 12.606 62.3657 12.6513 62.692C12.6513 62.9758 12.7156 63.2524 12.7528 63.5319C12.7914 63.8798 12.8787 64.2177 12.9362 64.562C13.0336 64.9488 13.1108 65.3414 13.2197 65.7246C13.2968 65.9696 13.3855 66.2109 13.4802 66.445C13.6359 66.7691 13.7685 67.1048 13.9336 67.4239C14.2584 68.1327 14.6948 68.7746 15.0446 69.469C15.1428 69.6505 15.2098 69.8486 15.3079 70.0294C15.3979 70.1944 15.4527 70.3759 15.5373 70.5445C15.5988 70.6669 15.6293 70.8045 15.6875 70.9306C15.7012 70.9554 15.7202 70.9764 15.7431 70.992C15.7659 71.0075 15.7918 71.0171 15.8187 71.0199C16.0098 71.0612 16.203 71.0903 16.3973 71.107C16.5712 71.1179 16.7444 71.156 16.919 71.1272C16.8107 70.7454 16.7356 70.3478 16.5577 69.9927C16.4223 69.7269 16.3269 69.4402 16.1672 69.1902C15.9278 68.8357 15.6663 68.4988 15.3843 68.1817C15.249 68.0031 15.069 67.8662 14.9384 67.6775C14.3794 67.0077 13.914 66.2556 13.5567 65.4444C13.489 65.2507 13.4329 65.0547 13.3577 64.8682C13.2556 64.5392 13.1789 64.2019 13.1284 63.8597C13.0607 63.5081 13.0438 63.1472 13.0147 62.7907C13.0147 62.3333 13.0099 61.8766 13.0147 61.422C13.041 61.1755 13.0465 60.9269 13.0309 60.6794C12.9862 60.6188 12.93 60.569 12.866 60.5331C12.802 60.4973 12.7316 60.4754 12.6594 60.4705ZM9.5908 62.8915C9.56713 62.8885 9.54319 62.8939 9.52274 62.907C9.50229 62.92 9.48648 62.9399 9.4778 62.9636C9.44665 63.0625 9.42822 63.1655 9.42299 63.2697C9.39131 63.8579 9.29895 64.4405 9.14759 65.0072C9.04612 65.357 8.92662 65.7007 8.78964 66.0365C8.66468 66.335 8.52043 66.6238 8.35794 66.901C8.28998 67.007 8.24216 67.1262 8.21719 67.2518C8.26321 67.3908 8.42966 67.367 8.51018 67.2791C8.64551 67.1243 8.72875 66.924 8.82077 66.7367C9.01 66.3328 9.17279 65.9155 9.30796 65.4876C9.42976 65.0626 9.56306 64.6391 9.63073 64.199C9.68283 63.815 9.77147 63.4246 9.70245 63.0363C9.68892 62.9736 9.67268 62.8663 9.5908 62.8915ZM3.0719 70.6828C2.80124 71.0076 2.49066 71.2979 2.24706 71.6502C1.99164 72 1.77947 72.3832 1.61574 72.7905C1.4547 73.1622 1.4053 73.5706 1.35523 73.9726C1.32073 74.1963 1.30645 74.4231 1.3126 74.6497C1.31869 75.2029 1.49259 75.741 1.74633 76.2193C1.87423 76.4316 2.01506 76.6347 2.16789 76.8273C2.28022 76.9591 2.39728 77.1054 2.5617 77.1615C2.62463 77.1832 2.67674 77.1255 2.72884 77.0989C2.67606 77.0451 2.62193 76.9932 2.56644 76.9433C2.38804 76.7749 2.23971 76.5736 2.12865 76.349C2.0274 76.1459 1.93703 75.9369 1.85798 75.723C1.75014 75.4051 1.68654 75.0722 1.6692 74.7347C1.6692 74.4113 1.65566 74.0864 1.71521 73.7666C1.76799 73.4784 1.81062 73.1788 1.92497 72.9072C2.03188 72.5967 2.13135 72.2798 2.2951 71.9967C2.37224 71.8713 2.44397 71.7417 2.52043 71.6156C2.70854 71.3232 2.93387 71.0609 3.14701 70.7894C3.28234 70.6237 3.49008 70.494 3.51714 70.257C3.33039 70.3464 3.20926 70.5272 3.07461 70.6828M18.3785 70.883C18.52 71.192 18.8069 71.3779 18.9916 71.6538C19.1472 71.8764 19.3191 72.086 19.4652 72.3151C19.7621 72.7309 19.9977 73.1924 20.1642 73.6837C20.2305 73.9188 20.2758 74.16 20.2996 74.4041C20.314 74.7119 20.3081 75.0205 20.282 75.3275C20.2901 75.6387 20.1778 75.9319 20.0627 76.2114C20.0095 76.3609 19.9338 76.5003 19.8388 76.6242C19.6267 76.8645 19.3598 77.0422 19.064 77.1399C18.8184 77.1961 18.5619 77.1983 18.323 77.289C18.4555 77.3127 18.5905 77.3151 18.7236 77.2962C18.9077 77.266 19.0985 77.2617 19.2717 77.1839C19.6823 76.9998 20.0149 76.6613 20.2062 76.233C20.3106 76.0154 20.3941 75.7871 20.4552 75.5516C20.5206 75.2144 20.5623 74.8725 20.5797 74.5287C20.5598 74.0174 20.4361 73.5168 20.217 73.0613C20.0275 72.6565 19.7643 72.2992 19.5092 71.939C19.3252 71.6927 19.0843 71.5068 18.8745 71.2864C18.7155 71.1423 18.57 70.9738 18.3758 70.8823M15.2673 72.0053C15.3105 72.0692 15.3682 72.1203 15.4351 72.1539C15.502 72.1874 15.5758 72.2022 15.6496 72.1969C15.652 72.0882 15.6333 71.98 15.5948 71.8793C15.5731 71.8317 15.5345 71.7762 15.4784 71.7986C15.3728 71.8115 15.3214 71.9225 15.2673 72.0053ZM16.1638 71.9052H16.1422C16.0996 71.9772 16.155 72.0644 16.1862 72.1328C16.2281 72.2279 16.335 72.2387 16.421 72.2574C16.6158 72.2884 16.8012 72.3605 16.9927 72.4087C17.0388 72.4166 17.0969 72.4433 17.1233 72.3849C17.1044 72.2704 17.076 72.1199 16.9535 72.0838C16.6987 71.9877 16.4333 71.9272 16.1638 71.9038M15.6144 72.9122L15.5677 72.9555C15.6354 73.2393 15.7389 73.513 15.7876 73.8019C15.9229 74.4214 15.9033 75.061 15.9013 75.6928C15.9013 75.8303 15.8722 75.9679 15.8871 76.107C15.9644 75.9025 16.0184 75.689 16.0481 75.4709C16.1033 75.1407 16.1289 74.8057 16.1246 74.4703C16.1101 74.1613 16.0774 73.8536 16.0265 73.549C16.0093 73.3861 15.9722 73.2263 15.9162 73.0736C15.8607 72.9533 15.7186 72.9519 15.6144 72.9122ZM16.2789 73.0671C16.2687 73.2832 16.3323 73.4885 16.3398 73.7017C16.3685 73.8924 16.3841 74.085 16.3865 74.278C16.4086 74.5414 16.416 74.806 16.4088 75.0704C16.4032 75.2509 16.3824 75.4305 16.3465 75.607C16.3086 75.8311 16.2166 76.0392 16.1659 76.2597C16.4109 76.0117 16.6025 75.7102 16.7275 75.3758C16.9384 74.8082 17.0695 74.2106 17.1166 73.6023C17.1166 73.5 17.1375 73.3862 17.0915 73.2962C17.018 73.2532 16.9381 73.2238 16.8554 73.209C16.6625 73.1636 16.469 73.124 16.2789 73.0685" fill="#214784"/>
</svg>
