<svg xmlns="http://www.w3.org/2000/svg" fill="none" viewBox="0 0 166 257"><path fill="#214784" d="M58.4 119c0 .2.1.5.4.6 1.6-.1-.2-2.5-.4-.7Zm95 44.5c.9 0 2.2-1.7.5-1.3-1.5.2-3 .3-4.4 1 .4 1.1 2.6.5 3.7.3h.2Zm-5.4 5.1-3.2-12.3c-.2-.9-1-2.4-1.3-.6-.9 2.6-1.8 5.3-3 7.8-1 3.2-2.7 6-4.2 8.9-1 2-2.5 3.6-3.8 5.5l-4.5 6.2c-3 3.7-6.3 6.9-9.5 10.3-1.3 1.2-2.9 2.1-4.1 3.5 1.5.5 3.3.4 4.9.9 2.8.7 5.6 1.7 8.5 2.4 1.6.5 3.2 1.3 4.8 2 2.2 1.3 4.7 2.2 7 3.6 2.5 1.4 4.8 3.2 7.4 4.6 1.5.8 2.7 2 4.1 2.9 3.3 3 6.5 6.1 9.7 9.3 0 0 .7.6.6 0-.8-4.3-2.2-8.5-3.3-12.8-1.1-6.3-3.4-12.4-4-18.9-.5-4.1-1.9-8.1-2.7-12.2-.8-3.8-2.2-7.4-3.4-11.1Zm6.7 4.2c-.5.5.3 1.1 0 0Zm6.8 53.6c-3-3.5-6.6-6.5-10.1-9.5-1.5-1-2.8-2.5-4.6-3.1-1.4-.8-2.5-2-4-2.7-3.5-2.2-7-4.4-11-6a23 23 0 0 0-7.2-2.5c-2.7-1-5.4-2.5-8.5-2.6-1.7-.1-3.5-.4-5.2.2l-5 3a12.6 12.6 0 0 1-4.3 2.2c-2.5 1-5.3 1-7.9 2-2.4.8-5 .4-7.5.3-1.6 0-3.4-1-5 .2a27.6 27.6 0 0 0-8.7 7.3c-2 2.2-4.2 4.2-5.7 6.7a131.5 131.5 0 0 0-12.6 22.7c-.4 2.8-1.8 5.4-1.8 8.2.1 1.7 2 .4 2.9.6 2.9-.3 5.7-1.1 8.5-1.7 3.2-.8 6.2-2 9.4-2.6 4.2-1 8.4-2 12.4-3.2 3.6-1 7.3-1.5 10.7-3 1.4-.4 3-.2 4.4-.7 4.3-1.1 8.6-1.9 12.9-2.9 3.2-.8 6.6-1.4 9.8-2.3 3-.7 6.2-1.1 9.2-2.3 7-2.1 14.2-3.7 21.5-4.6 1.6-.3 3-.7 4.7-.8 1.2-.3 4.3-1 2.7-2.9Zm-35.3 21c-.2-2.5-1-5-2.3-7-1.7-1.5-.1 1.7.3 2.2.8 1.7 1 3.6 1.6 5.3.4.7.5-.3.4-.6Zm-2.3-.8c-.2-2-.9-4.1-2-5.8-.8-1-2-.2-1 .8 1 1.5 1.6 3.3 2 5-.4 1 1.2 2 1 .5v-.5Zm-72.2 1a73 73 0 0 1 2.8-8.5c2.7-5 5.1-10 8.3-14.7 1.6-3 3.8-5.4 6-8 2.4-3 5-5.9 8.3-7.9 1-.5 2.2-2 .3-2-3-.4-6-1.2-8.8-2.3-1.8-.7-3.7-1-5.4-2-2.4-1-4.7-2.3-7.2-3.1-4.3-2.8-8.8-5-13-7.7-3.2-2-6-4.5-9-6.8-1-.6-2-2.2-3-2.2.7 4.3 2.8 8.2 3.5 12.5.3 1.7.5 3.3 1 5 1.1 3.7 2.7 7.3 3.8 11.1 1.1 4.8 2.4 9.5 4 14.1a155.8 155.8 0 0 1 5.8 20.3c.6 1.6.7 3.4 1.6 5 .5-.7.7-1.9 1-2.8ZM32 195.1a48 48 0 0 1-2-6.7c-1.5-.2-2.9-1.4-3.8-2.8-.8-1.8 1.7-.6 2 .3.5.7 1.7 1.4 1.1 0-.6-3.2-2.2-6.3-2-9.6 0-1.4 3.3-1 1.7-2.8-1.1-1.3-2.7-2.4-4.5-2.4-1.3.3-3-1.7-1-1.8.8.2 3.1.3 1.2-.3-2.8-1-6.1-.4-8.8-2-1.6-.9-2-2.7-3.3-3.8-1.7-1-3.8-1.6-5-3.2-.6-.7-.5 1.3-.6 1.7l-.2 4.9c1 0 2 .4 3 .8 1.4.6 2.8.8 4 1.4 1 2-2 1.5-3.2 1.1-1.3-.1-2.7-1.5-4-1.3.3 1.8 2.4 2.8 2.6 4.6.4 1.2-2.4 1-.8 1.7 2.2.6 4.2 1.8 6.4 2.2 3.3 1 6.6 2 9.5 3.7 1.8 1.3-1.2 1.6-2 1-1.9-.6-3.8-1-5.3-2.2-2.5-1.2-5.3-1.4-8-2.3-1.4-.6-3.6-1.2-3.1 1.1 0 2-.2 3.9.2 5.8 1.3.7-.3 2.8.7 3.8 1 1.1 1 3 2.1 4.1 2.1 2.8 5.6 4.3 9 4.3 1.4 0 2.8 0 4.1-.3 1.7.2 2.4-1 3.4-2 1.7-.3 2.8-1.8 1.8-3.5-.4-2.5 2.5-.2 1.8 1.2.1 2-1.4 3-3 3.4-1.6 1 1.3.3 2 .3l4-.4Zm-2.7 3c.2 0 .4 0 .5-.2-.6-1-2.2.6-.5.3Zm.8 1.8c-1.8-.5-3.8-.1-5.6 0-.8 0-3 .8-1.1 1 1 0 2-.2 2.9-.3 1.1-.5 3.2.3 3.8-.7Zm-8.9.9c-.2-1-2.5-.3-1 .2.4 0 .8 0 1-.2Zm-2.5-.2c-.8-.5-2.7-.6-3.4 0 1 .2 2.6.7 3.4 0Zm-4.2-.5c-1.3-.8-2.7-1.6-4.2-2 0 1 2.5 1.4 3.4 2 .2 0 .6.2.8 0Zm-8-8.1c-.4-.7-1-2.9-1.8-2.5.1.8 1 3 1.8 2.5Zm-2.2-17.3c.3-1-.4-1.4-.5-.2-.4.8.3 2.1.4.6v-.4ZM4 184v-.8c.1-.7-.8-2.1-.7-.6 0 .6.5 3.3.7 1.4Zm-.3 7.7v-.2l-.2-.3c-.7-1.8-.3 1.2.2.5Zm-.2-12.4c-.5.4.3 1 0 0Zm-.3-10.8.4-2.6c.1-.5 0-2.3-.3-.8a10 10 0 0 0-.1 3.4Zm-.5 20.2c0-.2 0-.5-.2-.6-.9-.6.3 2.3.2.6Zm1-49c.4 1.9.8-1 .6-1.7l-.1-2.4c-.1-1.4-.2-2.9-.5-4.3-.2 2.8 0 5.6 0 8.4Zm.4 9.6c-.3-.4 0 2.8 0 .7v-.7Zm0-2.2c.2-1.3.3-2.6.2-4-.5-2-.5 1.8-.6 2.4 0 .8 0 3.8.5 1.6Zm-1.9-35c.2 2.7 1.1 5.3 1.5 8 .6 2.9 1.2 5.9 1.3 9 0 1.7.5 3.3.6 5 .2 1 .2-1.5.2-1.8 0-1.8 0-3.6-.3-5.3-.7-3.7-1.2-7.4-2-11-.4-1.2-.5-3.3-1.3-3.8Zm1.4-2.1c.2 1 1.1-1.2 1.3-1.4a12 12 0 0 0 1-3.7c-1 1.5-1.8 3.3-2.3 5Zm2.6 27-.1-.3c-.4-.2 0 1.6 0 .4Zm.2 7.9c0-1.1.2-3.2-.6-3.7-.3 2.1 0 4.3.2 6.4.4-.4.4-2 .4-2.7Zm-.6 7.3c-.5 3-.6 6-.4 9 .6 0 .5-2.6.6-3.7v-1c0-1.4.2-3.6-.2-4.3Zm1.6-48.6v-.4c-.2-1.7-1.2 1.4 0 .4Zm1.1 49c.4.7 2 1.3.8.2l-.2-.2c-.5-.6-1.7-1-.6 0Zm.7-55 .4-.6c.6-.7.8-2.2-.2-.8-.5.5-1.4 2.8-.2 1.4ZM66.9 32c-1-.9 0 1 0 0Zm-4.4 5.5c.1 0 .5.5.5.2-.4-.5-1.7-1-.5-.2Zm-52 56.6c.3 1.3 2-2.2 2.6-2.8l.2-.2c3-4.5 6.7-8.5 10.5-12.3 1-1.2 2.6-1.8 4-2.7 3-1.9 6.9-2.7 10.2-1.2 3.4 1.5 6.1 4 8.3 7 1 .9 1.3 2.9 2.4 3.5 1-1.4 1-3.3 1.8-4.7 1.7-3.5 3.4-7 5.7-10.2 1-1.6 3-3 4.9-2.3 2.6 1.1 5 2.8 7.7 3.7 1.3.5 3 1 4.4.3 1.7-1 .7-3 .7-4.5-.1-1.6 2.5-2.3 2-3.7-1-.5-3-.2-2.6-2-.2-.7.8-.2 1.3-.4 1 0 2.6.4 3-.7.4-1.4-.1-4.4 2.3-3.7 1 .2 2.2 2.5 2.6.3.3-2.7 0-5.4.4-8 0-1.7.7-3.2 1-4.7-1.4.4-3.3 1-4 2.5.6 1.7-1 2.1-2.3 2.3-1.8 1.7-2.3-1.4-3.4-2.3-2-1.2 1.1-2.5 2-1 .7 1.1 3.4.8 2.4-.8-2-.3-.5-2.5 1-1.8l3 .2c.1-.8-.5-2.3.7-2.3 1-.2 2.8 1.6 2.3-.4-.6-1.3.4-2.9.4-4.4.2-2.6.6-5.2.6-7.9-1.1-.2-.4 2.7-1.9 1.4-1-.2-1-3-1.7-1.2-1.1 1.2-2.8.7-4.1.5-1.7.2-2-1.7-2.8-2.8-.9-1.2-1.5-2.5-2.4-3.7-1-1-.6-3.9 1-2 1 1.2 1.4-.1.4-.8-.6-1.1-.3-2.5 1.2-2.1.1-1.4 2.9.9 2.7-.5a3.7 3.7 0 0 0-4.9.4c-1.5 1.3-3.7.8-5.5.6-1.5-.6-3-1.3-4.6-1.6-1.8-.5-3.8-.5-5.4-1.6-.5-1.7-3 1.8-1 2 1.2-.2 2.7-.6 3.7.5 1.2 1.2-.5 2.8-1.5 3.5 0 1.4-1.3 1.9-2.5 2 0 .2.8.8 1 1.1.5.7 1.2 1 1.8.4 2.2.7 4 2 6.3 2.7-.8-.9-1.9-1.6-2.3-2.7-.4-1.4.8-3.3 2.1-1.7.6.7.7-.3 1-.7.2-1.3.8-2.9 2.2-1.5 2.7 2.1 5 4.7 7 7.5 1.2.7 1.4 2.2-.2 2.3-1.3.6-2.9.3-4 .3-.7 1-1.7 3.5-3.2 2.5-.8.3.7 1.3-.3 2-.9 1.2-1.8 3-3.4 3a7.1 7.1 0 0 1-3.8 3 21 21 0 0 0-4.5-.5c-1 .9-.2 3-.8 4.2-.8.6-1.9-1-2.5.5-.2 1.5 2.2 1.7 2.8 2.9.8 2.3-2.3 1.7-3 .2a12.4 12.4 0 0 1-3.2-7.8c-.5-1.2-2.4-.9-3.5-1.3l-2-.5c-.6.7-1.1 1.6-2.1 1.6 0 .7.2 2.4-1 1.6-1.5-1.3.2 1.6-1.2 2-1.5.8-1.4 2.4-2 3.7-.4 2.6-.6 5.5-2.5 7.5-.7 1.4-1.2 2.8-2 4.1-1.4 2.4-3 4.5-4.4 6.8-1.2 1.8-2.6 3.4-3.8 5.3-1.2 1-2 2.4-2.9 3.8-1.5 2-2.7 4.1-4 6.3L14.5 88c-1.4 2-2.8 4-4 6.2Zm27.1-49-.1-.6c-.7-.2-2.8-1-2.7-.2.7.4 2.1 1.2 2.8.8Zm-4.3-18.5c-.6-1-.4.8 0 0Zm-2.2-5.3c-1-1.1-2.8 1.3-1.5 1.3l.5-1c.5-.2 2.1.9 1-.3Zm0 7c-.5-1.3-1.3-2.8-2.4-3.8-1 1.8.8 3.3 2 4.3.7.6.6.3.5-.4Zm0 10.8c-.3-1-2-.5-.6.2.3.2.6.4.5-.2ZM28 35c-1.5 1-.3 2 .7.5 1.2-1 .1-1.4-.7-.5Zm.6-15.3c.9-1 1.2-3.6-.8-2.6-1 1-1.5 2.8-1.7 4.3 1 1.6 2.1-1 2.5-1.7Zm-2.3 9.2c-.4-1.1-1.4 1-.1.3v-.4Zm4.6-9c1.3 1.1 2.9 2 4.5 2.7.2 0 .7.2.7-.2-1-1.3-2.7-1.5-3.8-2.5-.4-.7-2-1.5-1.4 0Zm1.5-6.2c-.2 1.2 1 1 1 0 1-.4 2.3 1.4.7 1.4.3.7 2 1.6 1.6 0 .2-1.1-2-2.3-.3-2.6-1.3-.4-1.5-1.4-.9-2.5-1.4.4-2.2 2.2-2.1 3.7Zm3.1-5.2c-.6-.6-.5 1 0 0Zm1.8 10.8c.2-1-1.4-2.3-1.1-.6-1.2.7 1.4 2.3 1 .6Zm-.5-7.3c-1-.9 0 1 0 0Zm.3 3.3c.2 0 .4-.2.4-.4-.6-1-1.8.7-.4.4Zm1-8.5c-.8-1-.6 1.5 0 0Zm1.5 18.5c-.3-.3-2-.6-.7.3.2 0 .7 0 .7-.3Zm-.9 16.6c-1.7-1.1 1 1.8 0 0Zm-.1-10.3c-1-.5-3.4 2.7-1 1 .4-.8 3-.6 1-1Zm3.1 1c-1-1-.4.7 0 0Zm-3.3-21c1.6 1.2 1 3.4 1 5.2 0 1.5-.6 3.2-.2 4.6.7 0 1.2-.5 1.8-.8 1.1-.4 1.3-1 .6-1.8.5-1.6-.6-2.8-.4-4.4.4-1.2 1.4-3.5-.6-3.8-.9-.4-4.1-.3-2.2 1ZM42.7 38c-1-.3-.4.4 0 0Zm1-21 .1-.3c-.2-.7-1.6 0-.2.3Zm1 10c.3.9 2.4 1 3.4 1.4.3 0 3.5 1.4 2 .2-1.6-1-3.5-1.5-5.4-1.7Zm2.8-14c1.5-.5-1.4-.8-1.9-.4-1.6 1 1.5.4 1.9.4ZM50 24.6h.3c-.4-1-1.6.2-.3 0ZM49.3 13c1.2.4 3.2-.3 2.8 1.6.4-.1.4-.7.4-1 0-1.4-3-1.6-3.2-.6Zm3 9.4c.4.3 2.3.6 1-.3-.5-.9-2.3-.5-1 .3Zm1.5 17.4c-.8-1.2-.7 1 0 0Zm.2-10-2.5-.2c.4 1 1.2 1.5 2 2 0 1 3.1 2.1.9 2.7-1.4-.4-3 1.3-1 1.8.7 1.9-3.1-.2-2.2.9 1.4.9 3 1.3 4.2 2.3.4.1 1.2.2.9-.4.2-1.4 2-3.5 3.5-2.8.4.8 2.4 1.6 1 .2-1-.7-1.8-2.8.2-2.6.8-1.3-.4-3-1-4.2 1.3-2-1.5-2.7-2.8-3.5-1.4-.8-3.7-.8-3.3 1.4v2.4ZM55.7 12c.2 0 .4 0 .5-.2-.3-1.1-2.1-.2-.5.2Zm5-1c-1.2.6-1-1 0 0Zm3.2 3.3c.3 0 1.4.7 1.3 0-.3-.6-2.8-.9-1.3 0Zm1.2-3c1.1.9 2.7 1.3 3.9 2.3.1.3.5.1.4-.2-1-1.3-2.8-2-4.3-2.2Zm7.2 1c-.7-1-.4.9 0 0Zm1-.8c-1-1 0 1 0 0Zm10.3 8c.9 2.5 2.4 4.7 3.1 7.2-.3.9.6 2 .8.5l.2-1c.5-2.2-1-4.2-2.4-5.7-.5-.5-2.3-3-1.7-1Zm-35.8 84-.1-.9c-1.2-1.5-.3 2.9.1.8Zm-.8 6.2c0 2.1.3 4.2.6 6.3.6 1.4.2-2.3.1-2.7-.2-1.1 0-2.7-.7-3.6Zm-1.4-10.9v-.4c-.5-1.2-.7.9 0 .3Zm.4 2.8c-.8 1-.7-1.6 0 0Zm.8-4.6c-.6.5.3 1 0 0Zm-35.5 61c-1.4-1.2 0 1.2.3.2l-.1-.1-.2-.2Zm2.6 0v-.1c-.5-1.5-1.3.4 0 .2Zm.3-3.7c.6.7 2.7 1.6 1.1.2l-.2-.1c-.4-.7-2.2-1.2-1 0Zm4 7.6c.1.1.7.5.7 0-.3-.5-2.2-.8-.8 0Zm1.4-5.2c-1.6-1.1-.5 1 0 0Zm3.7 6.4c.1-1-3.8-1-1.6 0 .5.1 1.2.4 1.6 0Zm0 1.4c-1.3-1-.4 1.1 0 0Zm4.4-8c-1.4-1.1-.4 1 0 0Zm-1.9 6.5c-1.1 1.2-.7-1 0 0Zm-1.4 2.2c.9.7 2.9.5 3.9.2-1.1-.3-3.1-1-4-.2Zm24.4-17.8c-1.1.7-4 1.8-2.2 3.3.4.6 1-.7 1.3-.9.4-.5 2.4-2.8.9-2.4Zm1-18.4c-.8 1.2-.5 3.4-2 3.7-1.6-.3-.4-2.7-.6-3.8l.6-5a98.3 98.3 0 0 1-3-10.2c-1.2-3.8-1-7.9-1.2-11.9 0-3 0-6.1-.7-9.1a43 43 0 0 1-.3-6.2c1.5-.4 1.5 2.3 1.7 3.4.2 2.6.4 5.2 1 7.7.2-.8.2-1.7.8-2.3.4-1.7-.1-3.5.7-5-.4-1.8-1.7-3.4-2.4-5.1-.8-1.8-1.8-3.7-3.7-4.6-3-2-6.8-2-10.2-1.1-2 .5-4.1 1-5.5 2.7a21.8 21.8 0 0 0-3.5 4.4c-1.6 1.2-2.4 3.1-3.7 4.6a56 56 0 0 0-4.5 10.2c-.6 2.2-1 4.4-1.4 6.6-1 1.4-.6 3.1-.7 4.7 0 3.4.3 6.9 1 10.3.2 1.6-1 3-1.4 4.5-.6 1.5-1 3.2-1.8 4.7-.4 1.2 0 2.4.2 3.6.4-1.4.6-2.9 1.3-4.2 1.7-.6 1.2-2.7 1.7-4.2 1.2-4.1 2.4-8.3 3.4-12.5l1-4.4c1.4-.8.9 2 1 2.8-.2 3.8-1.5 7.5-2.4 11.1a48 48 0 0 1-2.9 8.3c-.7 2-1.7 4.2-1.2 6.5 0 .8.3 3.8-1.1 2.7-.1-.6-1-2.6-.6-.9.3 1.6 1.7 3 1 4.7.5 1.6 2 2.6 3 3.8 1.7 1.7 3.5 3.5 6 3.7 3 .5 6 1.3 9 1.5 1.2 0 3 1.5 2.2 2.4-.4-.4-2.7-1.1-1.5 0 2 .7 3.3 2.5 4.5 4.3 1.8 2.1 3.4 4.6 5.9 6 1.3.8 2.8 1.1 4.1.3 1.5-.7 2.1-2.5 3.8-2.6.7-.9 4-1.5 2.7.2-1.2.7-1.2 2.3.5 1.7 2.6-.9 4.4-3.4 5.7-5.8.2-.9 1.9-3.6 2.4-1.7 0 1.6-1.8 3-1.5 4.3 2 .6 2.3-1.9 2.9-3.2.5-2 2-3.7 2.2-5.9.5-2.7 0-5.4-.9-8-.8-2 1.9-1.8 2-.1.2 1.3.5 2.7 2 2.7.5 1.6.5 3.3 1.5 4.7-.2 1-1.6 4 .5 3.4 1.7-1.3 3.8-2 5.7-2.9 2-1 3.8-2.5 5.7-3.7 2.2-1.2 4.3-2.2 6.3-3.6 4-2 7.5-4.8 11.4-7l7.2-4.3a21 21 0 0 0 5.3-5.8c.7-1.4 2.3-2.3 3.6-1.2 2 .2 1.4 2 1.2 3.4-.6 1.5 1.4 1.4 1.2 0 .5-1.5.8-3.2-1-3.8-1.7-1-3.1-2.5-5-3.3-1.1-.8 1.4-1.9-.5-2-1.1-.1-1.6-1-1-1.9-1.5-1.8-3 .7-4 1.8-.7 1.1-1.8-1.1-2 .7-1 1.7-2 3.2-2.8 5a20 20 0 0 1-6 4.7c-1.2 1.4 1.9 0 2.5-.3 1.2-.5 2.8-1.6 4-.6 2 1.2-1.2 3.2-2.2 1.7-2.1-.2-3.6 2-5.7 2-.6-.7-.7-2.1-2-1.2-2.7.8-5.1 2-7.7 3-4.1 2-8.7 2.8-13 4.1-1.7.4-3.2 1.4-4.8 1.6-1.2.8-2.7.2-3.9-.5-1-.3.3-.8.6-1 1.5-.5 3.2-.2 4.7-.7 2.7-.7 5.2-2 8-2.5 2-.7 4-1.7 6-2.3 2.2-.8 4.3-1.9 6.6-2.3 1.7-.7 3.5-1.2 5.1-2 1-1.1-1.5-1.3-1.7-2.5-1.1-1.1.7-2 1.4-.8l2.4 2.4c2.2-1.3 3.8-3.3 5.1-5.4.4-1-1.2-1-1.8-1.5-.4.8-.8 1.6-1 2.5-1.4 1-3.2.8-4.8 1-3.8-.1-7.5.7-11.3.6-.5 0-1.4.3-1.6-.2 0-.4-.1-1.2.1-1.5 4.3.3 8.6-.5 13-.6.8-.2 3.8.3 3-1.1-3.6-1.3-7.5.5-11.2-.4-1.7-.4-.5-2.9 1-1.6 1.6.3 3.3.4 5 0 2-1.1 4.5-.4 6.7 0 1 .6 3 .7 3.6-.3-1.3-1-3.1-.5-4.6-1.1-2.3-.8-5-.8-7-2.2-.5-1-1-2.4-2.5-2-3.2 0-6.4.5-9.6.1-3-.1-6.2.1-9.2.5-1.8.2-4 .4-5 2.3-.9 1.8-.1 4.7 2.1 5 1.3-.2 3.7.4 4.2-1 .3-1.8 2.8-.9 4-.8 1.6.2 2.8 1.4 4 2.3.8 2-2.4.6-3.4.5-1.7-.3-3.8-.7-5.1.7-1.6 1.4-3.7 1.5-5.7 1.4-1.6-.1-3.2.9-2.4 2.6.8 3.4 1.5 7.1.3 10.5-.4 1 1.2 2.8-.7 2.6-1.5-.3-2.9 0-4 .9-1.3.3-2.2-2.9-2.7-.6-.6 1.6 0 3.5-1.4 5-1 1.4-2.4 3.2-4.4 3.3-1.5.1-2.5-2.5-1-3 .8-.5-1-2 .7-2.5 1.5-.7 2.8-1.6 4-2.8.9-.7 1.5-1.9 2.2-2.8l-.4-5.6c-1 1-2.1 1.7-3.4 2.3-.4 1.4-1.5 2.8-3.2 3-2 .1-3.8-.3-5.6-.8-1.6-.5-4.4-1-4.2-3.2 0-.4.7-2.4 1.4-1.6 1 .4.9 2.4 2 2 .8-1.4 2.7.3 4 0 2.2.2 4.8 0 6.3-1.9 1-1.2.6-3 1.5-4.5.8-2 2-4.2 1.8-6.4-1 .9-1.4 2.5-2 3.7Zm9-1.5c-.1-1-.7-2.2-1.5-2.9-.1.8.4 3.9 1.5 3Zm34.9-7.4c-1-.2-.4.5.1 0h-.1Zm1.3.4c1.1.4 2.9 1 3.8.7-.8-.7-3.2-1.8-3.8-.7Zm-3.8-3.5c1.9.5 3.9.2 5.8.6 1.6.4 3.3.3 4.7 1.1a3 3 0 0 0 2.1 0c1.1-1.1-1.6-2-2.3-2.9-1.8-1.2-4-.2-5.8.1-1.5.5-3.1.6-4.5 1.1Zm18.8 5v-.2c-.5-.8-1 0 0 .2Zm-1.2-2.3c1 .4 2.3.8 3.3.3-.6-.7-3-1-3.3-.3Zm4.2 2.6c-.7-1-.4.9 0 0Zm-2.8 1.7c1.3.7 2.7 1 3.8 2.1.7.3 2 2.4 2.6 1.3.2-1.7-1.2-2.9-2.8-3-1.1-.2-2.7-.9-3.6-.4Zm3.8-1.1c.2 0 .4 0 .4-.2-.4-1.2-1.8.2-.4.2Zm-49.5 32.3v-.2c.2-.9-.6-1.7-.7-.4-.3.9.7 2.3.7.6Zm-.2 14.2c-2.5.4-5 .9-7.5 1.7-3.3 1-6.6 1.8-10 2.7-3 .6-6.3 1-9.3 2-2.1.6-4.3.8-6.3 1.7-.5 1.8 1.2 3.3 2.4 4.5 1.5 1.3 2.9 2.9 4.8 3.5 3.8 3.2 8.4 5.3 12.4 8.2 1.7 1 3.5 1.8 5.1 2.9 2.4 1.1 4.7 2.4 7.2 3.1 1.2.8 2.7 1.3 4 1.9 2.4.4 4.7 1 7 2 1.9.6 4 .8 6 1.5a47.3 47.3 0 0 0 14.4 0c2.1-.4 4.2-1 6.2-1.9 2.3-.8 4.3-2.2 6.4-3.4 2.7-1.8 5.6-3.4 8-5.7 3.4-2.9 6.1-6.5 9.1-9.7 2-2.5 4.4-4.6 6-7.3 1.1-1.4 2.3-2.7 3.1-4.3 3-5.3 6-10.5 7.9-16.3.6-2 1.4-4.1 1.4-6.3-.7-1.5-3 .2-4.3.3-4 1.3-8 2.3-12.1 3.2-3 .7-5.7 2-8.6 2.3-2 .6-3.9 1.2-5.8 1.6l-19.5 5.1c-4 .6-7.6 2-11.5 2.6-1.5.2-2.9 1-4.4 1.2-4 .9-8.2 1.5-12 2.9Zm83.3-13.9c.3 0 .7-.2 1-.4 1.4-1.4-3 0-1 .4Zm1.8 5.6.2-.7c-.5-1.8-1.3 2.2-.2.7Zm3.4-7c2.8-.8 5.4-2 8.2-2.8a10 10 0 0 0-5.3 1c-1.7.2-3.4.6-4.8 1.6-1 1.5 1.5.2 2 .2Zm9.3-3h.2v-.2c-.6-1-1.6.8-.2.2Zm-.2 4.2c-1 .4-3.5.2-3.6 1.1 1.1.4 2.4-.1 3.5-.3 1 0 1.5-1.2.1-.8Zm-2.2 4c-.2-1.6-3 .6-.9.6.4 0 1 0 1-.6Zm-2.1-2.7-.1-.1c-1.2-.2-.7.4 0 0Zm-1.3 6.4c.4 0 1 0 1.3-.4.3-2-3.8 0-1.3.4Zm.2 4.5c-.7-.6-.7 1 0 0Zm-.8-8.4v-.3c-.5-1 .8-2.7-1-2-1.3.5-2.9.8-4 1.6-.3.9.5 1.6 1.1.6 1 .2 1.8-1 2.7-.3 0 .7-1.2 1.6-1 2 1.3.8 2.7-.2 2.2-1.6Zm2.4 14.3c.2 0 .5 0 .5-.2-.3-1.3-2 .1-.5.2Zm1.5 0c.7 0 2 .2 2-.8.3-1.2-3.1-.5-2 .8ZM25 27.5c0-.9-.8-1.4-.5-.2 0 .5.5.7.5.2Zm-.4 8.5c-.5-1.2.3-3-1.8-2.9-.8-.4-.7.3-.6.9-.2 1.7 1.3 2.8 2.5 3.7.7.4-.1-1.5 0-1.7Zm-1.3-14.3c-.8-1.1-.7 1.2 0 0Zm-1.2-1 .5-1c.2-.6 1.7-2.3.2-1.2-.5.3-1.9 2.6-.7 2.1ZM20.2 34l-.2-.2-.2-.3c-1.4-1.5.7 2.4.4.5Zm-.5-3.1c0-.3-.2-.5-.4-.7-1.1-1.1.2 2.4.4.7Zm115 57.3c.2 0 .5-.1.5-.3-.2-1.3-1.9.2-.4.3Zm8 .8c.1 0 .3-.1.3-.3-.6-.8-1.7.4-.3.3Zm.7-5.3c0 2.1 2.7 1 4 1.5 2 0 .6 3.2 2.8 2.3.6-.1 1.2-.1 1.7-.5-1-.6-2-1.6-2.4-3-.5-1-.7-2.2-.9-3.3-.2 1-.4 3.7-1.8 2.4.2-1.6.5-3.4-.5-4.8-.9-.8-1-2.6.6-1.8.2.7 1.6 2.1 1.2.4-.5-1.8-3.6-2.5-4.3-.5-.4 2.4-.4 4.8-.4 7.3Zm9 5.3c-.7-1.2-.2 1 0 0Zm-.2-3c0 .7 1.2.4 1.6.2.5-1.9-2-2.2-1.6-.2Zm1.3 6.8c-.9-.8-.8 1.2 0 0Zm-5.6-4c-.7-.4-3.3-.6-3.4 0 1 0 2.7.8 3.4 0Zm7.9-6.1c.3 0 .8 0 1.1-.2.4-1.3-3.7.1-1.1.2Zm.4 4.5c.1 1.1 1.2 1.5 1.5.2 0-1.1-2-1.8-1.5-.2Zm3-4.3c.8.2 2 .5 2.7-.1-.3-1.1-1.4-2-1.7-3-.3-1 0 1-.2 1.2 0 1-2.6 1.3-.8 1.9Zm1.3-33.8v-1c.3-1-.4-1.5-.5-.3-.1.7 0 3 .5 1.3Zm0-4.6v-.3l-.1-.3c-.6-1.4-.5 2.4.1.6Zm1.6-7v-1.3c-.1-.3-.2-1.8-.3-1-.1.7-.4 2.9.3 2.3Zm-.2 1.8c-.3-.2 0 2.6 0 .6v-.6Zm.7 20-.1-.4c-.4-.2 0 1.6 0 .4ZM127 95.2c0 4 0 8 .7 11.8 1 1.1 3 .9 4.3 1.4 1.3 0 3.2 1.4 4 .6v-6.3c0-2.3 0-4.7-.3-7-1.3-1-3.1-1.1-4.7-1.5-1.3 0-4.2-1.3-4 1Zm12.8 15c1 .1 2.4 1 3.2.5-1.1-1-3-1-4-2.1-1.8-1.3-.5 2 .8 1.7Zm14.2 3.6c1.6.5 3.3 1 4.9 1.2l.1-.3c-1.1-.7-3-.8-4.4-1.3-.7-.4-2 .1-.6.4Zm8 51c-.4-1.4-1 1.3 0 0Zm-10.7 6c.3 1.9 2.9 1 4.2.7 2.4-.7 5-1 7.5-1.1.2.9.6 1.8 1.3 2.4.8 1.7-.8 3.7-2.6 3.4-2 .3-4 .2-5.8.7-1.3 1.2-.7 3.3-1 4.9-.1 4.1 1 8.2 2 12.2l1.9 7.8c.5 4 1.8 7.9 2.6 11.9.5 2.8 1.5 5.6 2 8.5.5 2.5.8 5 .6 7.7-1 1.5-3.1 1.6-4.7 2-3 .8-6 .8-9 1.7-3.3 1-6.8 1.7-10.2 2.5-3.6.7-7.3 1-10.7 2.2-1.3 0-1.8 1.2-2.7 2 0 .3.8.7 1.1 1 .9.4 0 .9-.3 1.3-.8 1.3.3 2.9.2 4.3.4 1.7-.2 3.9-2.3 3.1-1.2.5-2.3-.4-3.6-.4-1-1.6-.4-3.8-1.6-5.4-.9-1-1.5-3-3.2-3a50 50 0 0 0-9 2.3c-4.8.9-9.4 2-14 3.3-4.1 1-8.2 1.9-12.2 3.2-1.8.6-3.7.5-5.5 1a74 74 0 0 0-6.7 2c-1.5 0-2.9.6-4.4.9-2.7.2-5.2 1.4-7.9 1.9-2.2.4-4.3 1-6.5 1.2h-.3l-.3-.1c-1.2-1-1.3-2.9-2-4.3-.8-2.9-1.1-6-2.4-8.7 0-1.4-.8-2.8-1.2-4.2-2.3-8-4.7-15.9-6.9-23.9-.6-2-.4-4.3-1.4-6.2-1.2-2-1.7-4.2-2.2-6.5-1.3-.7-3-.2-4.6-.3l-10.3.1c-2.8-.2-5.8-.4-8.5-1.5A17 17 0 0 1 1.1 191c-1-3.6-.7-7.3-.6-11 .2-7.2 1.6-14.3 1.5-21.6-.6-1.6.3-3.1.1-4.8 0-8.5-.2-17-.8-25.6-.3-3.7-1-7.4-1.3-11a34 34 0 0 1 7.9-22.6l7-9.7c.9-1.3 1.5-2.9 2.4-4.2 1.7-1.9 2.9-4.2 4.4-6.2 1.7-2.2 3.5-4.4 5-6.7 1.3-1.9 3-3.6 3.8-5.7 1.1-.9 1.4-2.6 2.4-3.7.8-1.5 1.5-3.1 2.5-4.6.5-1.4 1-3 .6-4.5-1.4-1.8-3.7-2-5.8-2.4a9.3 9.3 0 0 1-5-3c0-1.8-1.3-2.8-2.8-3.3-1.5-.7-3-1.6-3.4-3.3-1-1.7-2.7-3.2-3.1-5.3-1-2.3-.3-4.8.2-7 1-4 2.8-7.8 5.6-10.7 2.3-2.6 4.6-5.2 7.4-7.3a29 29 0 0 1 11.6-2.3c4.5 0 9 .8 13.2 2.6 1.3 1.3 3 .4 4.6.3a12 12 0 0 1 5.3.7A33.4 33.4 0 0 1 75.2 10c2.7 1 5.2 2.1 7.5 3.7 2.1 1.1 3.6 3 5.2 4.8 1.4 1.6 2.3 3.7 2.9 5.8a8 8 0 0 1-1.4 6.2c-.8 2.4-.7 5-1.2 7.3-.6 3.6-1.8 7-3.3 10.1v3.8c0 2.4.3 4.8-.4 7.1-.4 1.6-2 2-3.4 1.6-.4.1-1.3-.5-1.3.2 0 1.2-.8 2.1-1.5 3-.5 1.7-1.6 3-2.5 4.4.3 1.5 1 3.4-.5 4.5a5 5 0 0 1-5.3 1.7c-3.4-.8-6.2-2.9-9.5-3.9-1.7-.3-2.9 1.4-3.8 2.6-.9 1.7-2 3.3-3 5-1.3 2.6-2.9 5.4-3.1 8.5-.4 2.3-.2 4.6.6 6.8.8 3.7 1.3 7.4 2.1 11 .7 3.6 1.5 7.1 2 10.7.2 1.5.2 3.2 1.8 3.6-.5 1.3-1.4 3-.4 4.5.8 1 .7-2.7 1.6-.8.2.8.5 3.2 1.2 2.7a7.3 7.3 0 0 1-.2-4.4c.1-1 1.5-1.9.6-2.8.3-1.7 2.5-1.8 3.9-1.9 1.6-.1 3.1 1.1 4.7.4 4.7-.4 9.4-.2 14.1-.9 2.4 0 4.9 1 7.3.1 1.5-.4 3-.5 4.6-1 1-.6 2.4-.3 3.4-1 1 0-.3-.5-.5-.8a93.1 93.1 0 0 0-7.2-5.1c-1.1-1-2.6-1.8-3-3.3-.4-2.5 2.1-.7 3.1 0 1.7 1 3 2.5 4.9 3.5 2.5 1.3 4.4 3.7 7.1 4.8 1.6 0 3-.6 4.6-.8 1.6-.5 3.1-1 4.7-.9 4.7-.8 9.2-2.2 14-2.7-.1-4.6 0-9.3-.6-14-.9-1-2.1-2-1.5-3.7.5-2 3-1.5 4.6-1.4 1.7.2 3.5.5 5.2.5-.7-.7-1.8-1.4-1.5-2.5 1.3-.9 3-1.3 4.6-1.3h5l.1-10c.6-1.6 2.1-2.5 2.5-4.2 1-1.5 2.3-.2 2.4 1 .5 1.6 2.6 1.1 3 2.8.5 1.4.1 3.1.8 4.6 1.5.9 3.5-.2 5-.8 1.5-.6 2.7-2 2.7-3.7.5-4.1.3-8.3.4-12.4 0-12.3 0-24.7-.2-37-.3-6.1-.2-12.3-.4-18.5l-.2-5.8c.3-1.5 2-1.6 3.3-1.7.8-.4.8.4 1 1 1.1 2.2.8 4.8 1 7.2.2 8.7.1 17.4.4 26 .3 5.2.3 10.4.4 15.6 0 7.6.2 15.2.4 22.9 0 3 .1 6.2-.2 9.3.5 1.2 1.3 2.6 0 3.6-.4.8-.8.2-1.3-.2-1-1.3-3-.6-2.1 1.2.7 1.9-.6 3.4-2.3 3.9-1.1.4-3.7 1.4-3.4 2.6 2.9.5 5.8.7 8.7.7 2.4.2.5 3.1-1 2-3.1-.8-6.3-1-9.4-1.4-2.4-.2-4.6-1-7-.7-1.4-.7-3-1-4.5-1-4.4-.6-9-.7-13.4-1.8-.7-.9-3.6 0-1.6.5 3.7 1 7.5 1.8 11.3 2 2.9.6 5.8 1 8.8 1.3 4 .5 7.8 1.3 11.8 1.8 1.7.2 3.4 1 5.1.3 2 .8.5 4-1.5 2.8l-12.2-2.2-7.4-1c-1.3.1-3.8-1-4.2.9.2 1.2 1.3-1 2.2-.2 3.5.4 7 1 10.4 2 1.3 1.1-.5 3-2 2.7-1.4.9-1.1 3.3 0 4.4 1.4 1.4 3.5-.3 3-2.1 0-1 0-2.9 1.4-1.6 1.5.7 2.1 2.5 1.2 4-1.3.8-2.8 2.3-4.6 2-1.8-.5-3-2.4-3.5-4.2-.5-1.6.8-3 1.3-4.4-1.2-.9-3-.7-4.6-1-1.1-.3-4-.2-2.5 1.5.8 1.4-1.5 1.6-2 .6-.2 1.6-.3 3.5 0 5 1.7-1.9 1 2.3 2.7 2l12 3.3c2.2.5 4.3 1 6.6 1.1 1.4 0 4.4 1 2.8 2.8-.4 1.5-1.7 2.2-3.2 1.7-2-.2-3.5-1.4-5.4-1.7-1.5-.5-3-.7-4.4-1.5-1-1.4.6-1.5 1.6-1.2 1 .2 0-.1-.5-.3-1.2 0-3.8-1.7-3.8.4-1.8.5-3.6-.6-5.4-.8-2.8-.6-5.8-.5-8.6-1.5-2.2-.6-4.5-1.4-6.8-.7-3.7.7-7.4 1.6-11 2.4-3.2.5-6.2 1.2-9.3 1.6-1-.3-2 .7-.6 1 1.3 1 2.5 2 4 2.5 1 1.1 3 .5 4 1.7 1.1 1 2.6 1.7 3.5 3 1.3 1.3 3 2.4 3.3 4.3.2 1.7 2 2 2.7 3.4.6.6 2.6 2.9.5 2.5-1.5-1-3.3-1.4-4.6-2.6-.7.8-.8 2.8-2 3.7a4.9 4.9 0 0 1-4.2 2c-1.8.4-2.5-.8-2.2-2.3-2.4 1.2-4 3.4-6.2 5-1.5 1.3 1.9 1 2.7.9 3.5-.4 6.8-1.4 10.1-2.5 1.5-.2 3-.5 4.3-1 2.7-.7 5.3-1.6 8-2.1 5.6-1.6 11.4-2.6 17-4 1.5 0 1.8-1.5.3-1.9l-7.2-2.8c-2-.4-3.6-1.8-5.4-2.5-1.7-.8-3.1-2-4.8-2.7-1.6-.8-3.3-1.6-5-2.2-.6-1.7-2.5-.8-4-.7-1.3 0-3.4 1-4.2-.2 1-1.3 3-1 4.5-1.5 1.4-.6 2.7.2 4.2.3 1.9-.3 1.6 2.5 3.5 2.1 1.8.2 2.7 2 4.4 2l7.2 3.6c2.7 1.2 5.3 2.7 8.2 3.6 1 .6 3 1 2.9 2.5-.1 1.8-1.5 3.3-3.4 3-1.5 0-2.9 1.1-4.6 1-3.4.5-6.8 1.1-10 2.2-2.1.6-4.3 1-6.3 1.7-2.6.8-5.3 1.1-7.8 2-1.7.2-3.2 1-5 1.3-1.7.1-3.2 1-5 1.4-1.4 0-3.3 1.4-4.5.3-.7-1.7-3-2.3-4.4-1.1a25.7 25.7 0 0 1-5.1 3.1c-4.3 2.5-8.5 5.2-12.8 7.6-2.6 1.4-5 3.2-7.6 4.5-1.7.8-3 2-4.7 2.8-2 .4-1.5 2.4 0 2.9 1.4.7 2.3 1.9 3.6 2.6 1.4 0 3 0 4.5-.2 1.6-.2 3-.9 4.5-1.2 2-.1 3.6-1.4 5.6-1.4 1.7-.5 3.4-1.1 5.3-1.4 1.9-.4 3.7-1.2 5.6-1.6 1.6-.4 3.1-1.1 4.8-1.4l14.5-3.8c3.3-1.4 7-1.7 10.4-2.8 4.3-1.2 8.6-2.5 13.2-2.7 1.6-.2 3.8 0 4.3 2 .2 1.3.3 3.9 2.2 2.7 3.3-1 6.8-1.5 10-2.8 2-.6 4.1-1.6 6.3-1.7 1.6.8 0 2.8.5 4.2a5 5 0 0 1-.7 3.6c.8 1.3.5 3 .4 4.5-.3 2-2.5 1-3.8 1.2-1.3-.2-3.6.8-1.2 1.4 1.4.1 3.2-1.3 4.5 0 .9 1 .8 2.6-.7 3 0 .7 1.8.6 1.7 1.9.8 2-2 1.7-3.2 1.8-1.8.2-3.6.6-5.4.6-1.6.4-3.8-.3-5 .8ZM39 120.5c-.7-6 0-11.9-.4-17.8-.4-3.9-1-7.7-1.2-11.6.2-1.6-1.7-1.3-1.5 0-.2 4-.1 8-.1 12 .1 3 0 6 .3 8.8.5 5 .7 10 2.4 14.8 1.3 2.9 2.7 5.7 4.5 8.4.3.3.8.6 1.3.7 2.1-.3 0-2.9-.3-4a32.4 32.4 0 0 1-5-11.3Zm73.8-3.3c.2.6 1.2.2 1.6 0 2.4-1.2-2.2-2.1-1.6 0Zm16-12.4c.2.4 1 1 1.4.4.2-2.5-.5-5 0-7.5 1-1.4 3.4 0 3.2 1.7 1 2 1.3-1.2 1.2-2-.1-1.8-2.5-1.5-3.7-2-1.4-.6-2.6.2-2.3 1.8 0 2.5-.2 5 .3 7.6Zm30.5-2.4c-2.3-.7-4.7-1-7-1.8-1.6-1 .8-1.3 1.6-.8 1.5.1 3 .2 4.5.8 1.8.3 3.7 0 5.6.6 1.4 2-1.8 2.3-3 1.7l-1.7-.5Z"/></svg>