<svg width="51" height="51" viewBox="0 0 51 51" fill="none" xmlns="http://www.w3.org/2000/svg">
<g clip-path="url(#clip0_212_2011)">
<path d="M25.375 50.239C39.1821 50.239 50.375 39.0461 50.375 25.239C50.375 11.4319 39.1821 0.239014 25.375 0.239014C11.5679 0.239014 0.375 11.4319 0.375 25.239C0.375 39.0461 11.5679 50.239 25.375 50.239Z" fill="url(#paint0_linear_212_2011)"/>
<path fill-rule="evenodd" clip-rule="evenodd" d="M11.6914 24.9752C18.9794 21.7999 23.8392 19.7066 26.2708 18.6952C33.2136 15.8074 34.6562 15.3058 35.5965 15.2892C35.8033 15.2856 36.2657 15.3368 36.5653 15.5799C36.8182 15.7851 36.8878 16.0624 36.9211 16.2569C36.9544 16.4515 36.9958 16.8948 36.9629 17.2411C36.5867 21.1942 34.9587 30.7873 34.1305 35.2148C33.7801 37.0883 33.09 37.7164 32.422 37.7779C30.9702 37.9115 29.8678 36.8185 28.4616 35.8967C26.2613 34.4544 25.0183 33.5565 22.8825 32.1491C20.4142 30.5225 22.0143 29.6285 23.4209 28.1675C23.7891 27.7851 30.1857 21.9669 30.3095 21.4391C30.325 21.3731 30.3394 21.127 30.1932 20.9971C30.047 20.8672 29.8313 20.9116 29.6756 20.9469C29.4549 20.997 25.9398 23.3203 19.1304 27.9169C18.1327 28.602 17.229 28.9358 16.4193 28.9183C15.5266 28.899 13.8096 28.4136 12.5331 27.9987C10.9675 27.4898 9.72318 27.2207 9.83153 26.3564C9.88797 25.9062 10.5079 25.4458 11.6914 24.9752Z" fill="white"/>
</g>
<defs>
<linearGradient id="paint0_linear_212_2011" x1="2500.38" y1="0.239014" x2="2500.38" y2="4963.16" gradientUnits="userSpaceOnUse">
<stop stop-color="#2AABEE"/>
<stop offset="1" stop-color="#229ED9"/>
</linearGradient>
<clipPath id="clip0_212_2011">
<rect width="50" height="50" fill="white" transform="translate(0.375 0.239014)"/>
</clipPath>
</defs>
</svg>
