<svg width="50" height="51" viewBox="0 0 50 51" fill="none" xmlns="http://www.w3.org/2000/svg">
<path d="M25 0.239014C38.8071 0.239014 50 11.4319 50 25.239C50 39.0461 38.8071 50.239 25 50.239C11.1929 50.239 0 39.0461 0 25.239C0 11.4319 11.1929 0.239014 25 0.239014ZM8.4375 15.447C8.7083 28.447 15.2086 36.2595 26.6045 36.2595H27.25V28.822C31.4374 29.2387 34.6041 32.3014 35.875 36.2595H41.792C40.167 30.3432 35.8961 27.0721 33.2295 25.822C35.8961 24.2802 39.6462 20.53 40.542 15.447H35.166C33.9994 19.572 30.5417 23.3224 27.25 23.6765V15.447H21.875V29.864C18.5417 29.0307 14.333 24.9887 14.1455 15.447H8.4375Z" fill="#0077FF"/>
</svg>
